solid OpenSCAD_Model
  facet normal 0.20729018713016764 -0.9782794990796547 0
    outer loop
      vertex 269.4534982740879 -34.20220114290714 -19.960534568565432
      vertex 269.4534982740879 -34.20220114290714 19.960534568565432
      vertex 255.84189973771572 -37.08639815449715 19.960534568565432
    endloop
  endfacet
  facet normal -0.047839496938044485 -0.9988550357948418 0
    outer loop
      vertex 71.40447028223497 -49.3091636458374 -7.3624910536935575
      vertex 71.40447028223497 -49.3091636458374 7.3624910536935575
      vertex 70.62833677742738 -49.2719912483461 4.973797743297097
    endloop
  endfacet
  facet normal -0.047839496938038156 -0.9988550357948422 2.779662179944897e-16
    outer loop
      vertex 70 -49.24189747671499 0
      vertex 70.15770597371045 -49.24945069933095 -2.506664671286081
      vertex 70.62833677742738 -49.2719912483461 4.973797743297097
    endloop
  endfacet
  facet normal 0.08000100505036077 -0.9967947828870957 0
    outer loop
      vertex 190.61109885573387 -46.0297017544508 -19.960534568565432
      vertex 172.0747010409832 -47.5174006074667 19.960534568565432
      vertex 172.0747010409832 -47.5174006074667 -19.960534568565432
    endloop
  endfacet
  facet normal 0.059555571186861465 -0.9982249916429696 0
    outer loop
      vertex 152.87139788269997 -48.6630979180336 19.960534568565432
      vertex 152.87139788269997 -48.6630979180336 -19.960534568565432
      vertex 172.0747010409832 -47.5174006074667 -19.960534568565432
    endloop
  endfacet
  facet normal 0.27426442923434396 -0.9616543156752116 -4.04905139123137e-16
    outer loop
      vertex 288.59552971776503 -29.221831606700235 7.362491053693559
      vertex 282.74847979497383 -30.889414004698484 -15.41026485551578
      vertex 284.57937254842824 -30.36724221403492 -13.69094211857377
    endloop
  endfacet
  facet normal 0.03920833801713576 -0.9992310574786664 0
    outer loop
      vertex 133.11519980430603 -49.43830169737339 19.960534568565432
      vertex 133.11519980430603 -49.43830169737339 -19.960534568565432
      vertex 152.87139788269997 -48.6630979180336 -19.960534568565432
    endloop
  endfacet
  facet normal 0.12382809591314473 -0.9923036846966381 0
    outer loop
      vertex 225.22150121629238 -42.11380086839199 -19.960534568565432
      vertex 225.22150121629238 -42.11380086839199 19.960534568565432
      vertex 208.36659789085388 -44.217099100351334 19.960534568565432
    endloop
  endfacet
  facet normal 0.2742644292343427 -0.961654315675212 7.215883685089496e-18
    outer loop
      vertex 284.57937254842824 -30.36724221403492 13.690942118573775
      vertex 282.7484797949738 -30.889414004698498 15.410264855515782
      vertex 281.84530079364777 -31.14700123667717 -16.066462810380568
    endloop
  endfacet
  facet normal 0.27426442923434147 -0.9616543156752124 1.2909019623077875e-16
    outer loop
      vertex 286.1803398874989 -29.91064529941 11.755705045849464
      vertex 284.57937254842824 -30.36724221403492 13.690942118573775
      vertex 281.84530079364777 -31.14700123667717 -16.066462810380568
    endloop
  endfacet
  facet normal 0.27426442923434113 -0.9616543156752125 1.9760909539323233e-16
    outer loop
      vertex 288.59552971776503 -29.221831606700235 7.362491053693559
      vertex 284.57937254842824 -30.36724221403492 -13.69094211857377
      vertex 286.1803398874989 -29.91064529941 -11.755705045849464
    endloop
  endfacet
  facet normal -0.04783949693802942 -0.9988550357948426 -8.30062856951983e-16
    outer loop
      vertex 70.15770597371045 -49.24945069933095 2.506664671286081
      vertex 70 -49.24189747671499 0
      vertex 70.62833677742738 -49.2719912483461 4.973797743297097
    endloop
  endfacet
  facet normal 0.01890163104195475 -0.9998213482137466 0
    outer loop
      vertex 112.91440099477768 -49.820197969675064 19.960534568565432
      vertex 112.91440099477768 -49.820197969675064 -19.960534568565432
      vertex 133.11519980430603 -49.43830169737339 -19.960534568565432
    endloop
  endfacet
  facet normal -0.001667577551480251 -0.9999986095915884 0
    outer loop
      vertex 112.91440099477768 -49.820197969675064 -19.960534568565432
      vertex 92.40580037236214 -49.78599824011326 19.960534568565432
      vertex 92.40580037236214 -49.78599824011326 -19.960534568565432
    endloop
  endfacet
  facet normal 0.176343279954704 -0.9843287294470363 0
    outer loop
      vertex 241.07890039682388 -39.73120130598545 19.960534568565432
      vertex 255.84189973771572 -37.08639815449715 -19.960534568565432
      vertex 255.84189973771572 -37.08639815449715 19.960534568565432
    endloop
  endfacet
  facet normal 0.2742644292343428 -0.9616543156752119 -4.144723582572642e-17
    outer loop
      vertex 289.37166322257264 -29.0004778320268 4.973797743297096
      vertex 288.59552971776503 -29.221831606700235 7.362491053693559
      vertex 286.1803398874989 -29.91064529941 -11.755705045849464
    endloop
  endfacet
  facet normal -0.04783949693803375 -0.9988550357948424 0
    outer loop
      vertex 70.15770597371045 -49.24945069933095 -2.506664671286081
      vertex 70.62833677742738 -49.2719912483461 -4.973797743297097
      vertex 70.62833677742738 -49.2719912483461 4.973797743297097
    endloop
  endfacet
  facet normal -0.047839496938044485 -0.9988550357948418 0
    outer loop
      vertex 70.62833677742738 -49.2719912483461 -4.973797743297097
      vertex 71.40447028223497 -49.3091636458374 -7.3624910536935575
      vertex 70.62833677742738 -49.2719912483461 4.973797743297097
    endloop
  endfacet
  facet normal -0.04783949693804281 -0.9988550357948419 0
    outer loop
      vertex 71.40447028223497 -49.3091636458374 -7.3624910536935575
      vertex 71.72050185501575 -49.32429976761341 -8.034092331985732
      vertex 71.72050185501575 -49.32429976761341 8.034092331985732
    endloop
  endfacet
  facet normal 0.10155899430691201 -0.9948295183976844 0
    outer loop
      vertex 208.36659789085388 -44.217099100351334 -19.960534568565432
      vertex 208.36659789085388 -44.217099100351334 19.960534568565432
      vertex 190.61109885573387 -46.0297017544508 19.960534568565432
    endloop
  endfacet
  facet normal -0.022314568423530065 -0.999750999017291 -9.849295005942572e-17
    outer loop
      vertex 75.42062745157176 -49.406887037724836 -13.69094211857377
      vertex 77.25152020502621 -49.44775279496165 -15.410264855515788
      vertex 88.74418960941374 -49.70427062594687 19.960534568565432
    endloop
  endfacet
  facet normal -0.022314568423529697 -0.9997509990172911 -2.18645821479613e-16
    outer loop
      vertex 77.25152020502621 -49.44775279496165 -15.410264855515788
      vertex 79.28346410042006 -49.49310603905054 -16.8865585100403
      vertex 88.74418960941374 -49.70427062594687 19.960534568565432
    endloop
  endfacet
  facet normal -0.02231456842352998 -0.999750999017291 0
    outer loop
      vertex 75.42062745157176 -49.406887037724836 -13.69094211857377
      vertex 77.25152020502621 -49.44775279496165 15.410264855515788
      vertex 75.42062745157176 -49.406887037724836 13.69094211857377
    endloop
  endfacet
  facet normal -0.022314568423530533 -0.9997509990172913 8.36021736010834e-17
    outer loop
      vertex 75.42062745157176 -49.406887037724836 -13.69094211857377
      vertex 88.74418960941374 -49.70427062594687 19.960534568565432
      vertex 86.2523737082855 -49.64865298067397 19.645745014573773
    endloop
  endfacet
  facet normal -0.02231456842353009 -0.999750999017291 -6.570121760978824e-17
    outer loop
      vertex 75.42062745157176 -49.406887037724836 -13.69094211857377
      vertex 86.2523737082855 -49.64865298067397 19.645745014573773
      vertex 83.81966011250105 -49.59435450631251 19.02113032590307
    endloop
  endfacet
  facet normal -0.022314568423530367 -0.9997509990172911 1.2939253052842835e-17
    outer loop
      vertex 75.42062745157176 -49.406887037724836 -13.69094211857377
      vertex 83.81966011250105 -49.59435450631251 19.02113032590307
      vertex 81.48441416869855 -49.542231522239504 18.09654104932039
    endloop
  endfacet
  facet normal 0.23938176554584603 -0.9709255225423594 -6.63195081315745e-17
    outer loop
      vertex 276.1803398874989 -32.54369780297116 19.02113032590307
      vertex 273.7476262917145 -33.14348353535297 19.645745014573773
      vertex 280.7165358995799 -31.425298311946754 -16.886558510040306
    endloop
  endfacet
  facet normal 0.23938176554584725 -0.970925522542359 1.0284282114331959e-16
    outer loop
      vertex 278.51558583130145 -31.967942728011906 18.09654104932039
      vertex 276.1803398874989 -32.54369780297116 19.02113032590307
      vertex 280.7165358995799 -31.425298311946754 -16.886558510040306
    endloop
  endfacet
  facet normal -0.022314568423531397 -0.9997509990172911 2.0736532052494444e-16
    outer loop
      vertex 75.42062745157176 -49.406887037724836 -13.69094211857377
      vertex 81.48441416869855 -49.542231522239504 18.09654104932039
      vertex 79.28346410042006 -49.49310603905054 16.8865585100403
    endloop
  endfacet
  facet normal -0.022314568423529513 -0.999750999017291 -2.901289675167989e-17
    outer loop
      vertex 75.42062745157176 -49.406887037724836 -13.69094211857377
      vertex 79.28346410042006 -49.49310603905054 16.8865585100403
      vertex 77.25152020502621 -49.44775279496165 15.410264855515788
    endloop
  endfacet
  facet normal 0.23938176554584759 -0.9709255225423591 0
    outer loop
      vertex 281.84530079364777 -31.14700123667717 16.066462810380543
      vertex 280.7165358995799 -31.425298311946754 16.886558510040302
      vertex 280.7165358995799 -31.425298311946754 -16.886558510040306
    endloop
  endfacet
  facet normal -0.022314568423530495 -0.9997509990172911 0
    outer loop
      vertex 92.40580037236214 -49.78599824011326 -19.960534568565432
      vertex 92.40580037236214 -49.78599824011326 19.960534568565432
      vertex 88.74418960941374 -49.70427062594687 19.960534568565432
    endloop
  endfacet
  facet normal 0.2393817655458457 -0.9709255225423594 0
    outer loop
      vertex 280.7165358995799 -31.425298311946754 16.886558510040302
      vertex 278.51558583130145 -31.967942728011906 18.09654104932039
      vertex 280.7165358995799 -31.425298311946754 -16.886558510040306
    endloop
  endfacet
  facet normal 0.2742644292343406 -0.9616543156752125 1.5902760070056736e-16
    outer loop
      vertex 289.84229402628955 -28.866253624161743 2.506664671286085
      vertex 289.37166322257264 -29.0004778320268 4.973797743297096
      vertex 288.59552971776503 -29.221831606700235 -7.362491053693567
    endloop
  endfacet
  facet normal 0.27426442923434285 -0.9616543156752119 0
    outer loop
      vertex 282.7484797949738 -30.889414004698498 15.410264855515782
      vertex 281.84530079364777 -31.14700123667717 16.066462810380543
      vertex 281.84530079364777 -31.14700123667717 -16.066462810380568
    endloop
  endfacet
  facet normal -0.001667577551480251 -0.9999986095915884 0
    outer loop
      vertex 92.40580037236214 -49.78599824011326 19.960534568565432
      vertex 112.91440099477768 -49.820197969675064 -19.960534568565432
      vertex 112.91440099477768 -49.820197969675064 19.960534568565432
    endloop
  endfacet
  facet normal -0.02231456842352993 -0.999750999017291 0
    outer loop
      vertex 75.42062745157176 -49.406887037724836 -13.69094211857377
      vertex 75.42062745157176 -49.406887037724836 13.69094211857377
      vertex 73.81966011250105 -49.37115324474374 11.755705045849464
    endloop
  endfacet
  facet normal -0.022314568423531876 -0.999750999017291 0
    outer loop
      vertex 73.81966011250105 -49.37115324474374 -11.755705045849464
      vertex 73.81966011250105 -49.37115324474374 11.755705045849464
      vertex 72.47386639912273 -49.34111495928 9.635073482034308
    endloop
  endfacet
  facet normal -0.022314568423532386 -0.999750999017291 0
    outer loop
      vertex 72.47386639912273 -49.34111495928 -9.635073482034308
      vertex 72.47386639912273 -49.34111495928 9.635073482034308
      vertex 71.72050185501575 -49.32429976761341 8.034092331985732
    endloop
  endfacet
  facet normal -0.04783949693804282 -0.998855035794842 0
    outer loop
      vertex 71.40447028223497 -49.3091636458374 -7.3624910536935575
      vertex 71.72050185501575 -49.32429976761341 8.034092331985732
      vertex 71.40447028223497 -49.3091636458374 7.3624910536935575
    endloop
  endfacet
  facet normal 0.23938176554584412 -0.9709255225423599 -4.465242222136806e-16
    outer loop
      vertex 273.7476262917145 -33.14348353535297 19.645745014573773
      vertex 271.25581039058625 -33.757840945863066 19.960534568565432
      vertex 280.7165358995799 -31.425298311946754 -16.886558510040306
    endloop
  endfacet
  facet normal 0.2393817655458472 -0.970925522542359 3.8955981883699075e-16
    outer loop
      vertex 271.25581039058625 -33.757840945863066 19.960534568565432
      vertex 269.4534982740879 -34.20220114290714 19.960534568565432
      vertex 280.7165358995799 -31.425298311946754 -16.886558510040306
    endloop
  endfacet
  facet normal 0.27426442923434297 -0.9616543156752119 -1.3047457706043499e-16
    outer loop
      vertex 288.59552971776503 -29.221831606700235 7.362491053693559
      vertex 287.5261336008773 -29.526824066925094 9.635073482034306
      vertex 282.74847979497383 -30.889414004698484 -15.41026485551578
    endloop
  endfacet
  facet normal 0.274264429234342 -0.9616543156752122 3.6629303023653005e-17
    outer loop
      vertex 287.5261336008773 -29.526824066925094 9.635073482034306
      vertex 286.1803398874989 -29.91064529941 11.755705045849464
      vertex 281.84530079364777 -31.14700123667717 -16.066462810380568
    endloop
  endfacet
  facet normal 0.176343279954704 -0.9843287294470363 0
    outer loop
      vertex 255.84189973771572 -37.08639815449715 -19.960534568565432
      vertex 241.07890039682388 -39.73120130598545 19.960534568565432
      vertex 241.07890039682388 -39.73120130598545 -19.960534568565432
    endloop
  endfacet
  facet normal -0.02231456842353041 -0.9997509990172911 7.943401736309699e-18
    outer loop
      vertex 88.74418960941372 -49.70427062594687 -19.960534568565432
      vertex 92.40580037236214 -49.78599824011326 -19.960534568565432
      vertex 88.74418960941374 -49.70427062594687 19.960534568565432
    endloop
  endfacet
  facet normal -0.022314568423530648 -0.9997509990172911 8.089505349661528e-18
    outer loop
      vertex 86.2523737082855 -49.64865298067397 -19.645745014573773
      vertex 88.74418960941372 -49.70427062594687 -19.960534568565432
      vertex 88.74418960941374 -49.70427062594687 19.960534568565432
    endloop
  endfacet
  facet normal -0.02231456842353119 -0.999750999017291 1.6431051035012155e-16
    outer loop
      vertex 79.28346410042006 -49.49310603905054 -16.8865585100403
      vertex 81.48441416869855 -49.542231522239504 -18.096541049320393
      vertex 88.74418960941374 -49.70427062594687 19.960534568565432
    endloop
  endfacet
  facet normal 0.14858377844610798 -0.9888998234314121 0
    outer loop
      vertex 241.07890039682388 -39.73120130598545 -19.960534568565432
      vertex 241.07890039682388 -39.73120130598545 19.960534568565432
      vertex 225.22150121629238 -42.11380086839199 19.960534568565432
    endloop
  endfacet
  facet normal 0.23938176554584747 -0.970925522542359 0
    outer loop
      vertex 281.84530079364777 -31.14700123667717 -16.066462810380568
      vertex 281.84530079364777 -31.14700123667717 16.066462810380543
      vertex 280.7165358995799 -31.425298311946754 -16.886558510040306
    endloop
  endfacet
  facet normal 0.08000100505036077 -0.9967947828870957 0
    outer loop
      vertex 172.0747010409832 -47.5174006074667 19.960534568565432
      vertex 190.61109885573387 -46.0297017544508 -19.960534568565432
      vertex 190.61109885573387 -46.0297017544508 19.960534568565432
    endloop
  endfacet
  facet normal 0.2742644292343428 -0.9616543156752121 4.525042158289906e-17
    outer loop
      vertex 290 -28.821275779044733 0
      vertex 288.59552971776503 -29.221831606700235 -7.362491053693567
      vertex 289.37166322257264 -29.0004778320268 -4.973797743297089
    endloop
  endfacet
  facet normal 0.23938176554584573 -0.9709255225423594 -7.282890075654466e-17
    outer loop
      vertex 269.4534982740879 -34.20220114290714 19.960534568565432
      vertex 278.51558583130145 -31.967942728011906 -18.096541049320393
      vertex 280.7165358995799 -31.425298311946754 -16.886558510040306
    endloop
  endfacet
  facet normal 0.27426442923434335 -0.9616543156752118 -2.80258802430956e-17
    outer loop
      vertex 289.37166322257264 -29.0004778320268 4.973797743297096
      vertex 287.5261336008773 -29.526824066925094 -9.635073482034308
      vertex 288.59552971776503 -29.221831606700235 -7.362491053693567
    endloop
  endfacet
  facet normal 0.2742644292343333 -0.9616543156752146 1.3292767546641653e-15
    outer loop
      vertex 289.84229402628955 -28.866253624161743 -2.506664671286081
      vertex 290 -28.821275779044733 0
      vertex 289.37166322257264 -29.0004778320268 -4.973797743297089
    endloop
  endfacet
  facet normal 0.20729018713016764 -0.9782794990796547 0
    outer loop
      vertex 255.84189973771572 -37.08639815449715 19.960534568565432
      vertex 255.84189973771572 -37.08639815449715 -19.960534568565432
      vertex 269.4534982740879 -34.20220114290714 -19.960534568565432
    endloop
  endfacet
  facet normal 0.23938176554584717 -0.970925522542359 0
    outer loop
      vertex 269.4534982740879 -34.20220114290714 19.960534568565432
      vertex 269.4534982740879 -34.20220114290714 -19.960534568565432
      vertex 271.25581039058625 -33.757840945863066 -19.960534568565432
    endloop
  endfacet
  facet normal 0.2393817655458442 -0.9709255225423598 -1.4653691017673987e-16
    outer loop
      vertex 269.4534982740879 -34.20220114290714 19.960534568565432
      vertex 271.25581039058625 -33.757840945863066 -19.960534568565432
      vertex 273.7476262917145 -33.14348353535297 -19.645745014573773
    endloop
  endfacet
  facet normal 0.23938176554584722 -0.9709255225423591 2.660184709890328e-16
    outer loop
      vertex 269.4534982740879 -34.20220114290714 19.960534568565432
      vertex 276.1803398874989 -32.54369780297116 -19.02113032590307
      vertex 278.51558583130145 -31.967942728011906 -18.096541049320393
    endloop
  endfacet
  facet normal 0.2393817655458459 -0.9709255225423594 6.095433990834717e-17
    outer loop
      vertex 269.4534982740879 -34.20220114290714 19.960534568565432
      vertex 273.7476262917145 -33.14348353535297 -19.645745014573773
      vertex 276.1803398874989 -32.54369780297116 -19.02113032590307
    endloop
  endfacet
  facet normal 0.10155899430691201 -0.9948295183976844 0
    outer loop
      vertex 190.61109885573387 -46.0297017544508 19.960534568565432
      vertex 190.61109885573387 -46.0297017544508 -19.960534568565432
      vertex 208.36659789085388 -44.217099100351334 -19.960534568565432
    endloop
  endfacet
  facet normal 0.2742644292343416 -0.9616543156752122 2.0340287677211438e-16
    outer loop
      vertex 289.37166322257264 -29.0004778320268 4.973797743297096
      vertex 286.1803398874989 -29.91064529941 -11.755705045849464
      vertex 287.5261336008773 -29.526824066925094 -9.635073482034308
    endloop
  endfacet
  facet normal 0.12382809591314473 -0.9923036846966381 0
    outer loop
      vertex 208.36659789085388 -44.217099100351334 19.960534568565432
      vertex 208.36659789085388 -44.217099100351334 -19.960534568565432
      vertex 225.22150121629238 -42.11380086839199 -19.960534568565432
    endloop
  endfacet
  facet normal 0.14858377844610798 -0.9888998234314121 0
    outer loop
      vertex 225.22150121629238 -42.11380086839199 19.960534568565432
      vertex 225.22150121629238 -42.11380086839199 -19.960534568565432
      vertex 241.07890039682388 -39.73120130598545 -19.960534568565432
    endloop
  endfacet
  facet normal 0.27426442923434063 -0.9616543156752126 3.506721428150119e-16
    outer loop
      vertex 287.5261336008773 -29.526824066925094 9.635073482034306
      vertex 281.84530079364777 -31.14700123667717 -16.066462810380568
      vertex 282.74847979497383 -30.889414004698484 -15.41026485551578
    endloop
  endfacet
  facet normal -0.022314568423529933 -0.9997509990172911 0
    outer loop
      vertex 73.81966011250105 -49.37115324474374 -11.755705045849464
      vertex 75.42062745157176 -49.406887037724836 -13.69094211857377
      vertex 73.81966011250105 -49.37115324474374 11.755705045849464
    endloop
  endfacet
  facet normal -0.022314568423532386 -0.9997509990172911 0
    outer loop
      vertex 71.72050185501575 -49.32429976761341 -8.034092331985732
      vertex 72.47386639912273 -49.34111495928 -9.635073482034308
      vertex 71.72050185501575 -49.32429976761341 8.034092331985732
    endloop
  endfacet
  facet normal 0.01890163104195475 -0.9998213482137466 0
    outer loop
      vertex 133.11519980430603 -49.43830169737339 -19.960534568565432
      vertex 133.11519980430603 -49.43830169737339 19.960534568565432
      vertex 112.91440099477768 -49.820197969675064 19.960534568565432
    endloop
  endfacet
  facet normal -0.02231456842353188 -0.999750999017291 0
    outer loop
      vertex 72.47386639912273 -49.34111495928 -9.635073482034308
      vertex 73.81966011250105 -49.37115324474374 -11.755705045849464
      vertex 72.47386639912273 -49.34111495928 9.635073482034308
    endloop
  endfacet
  facet normal 0.03920833801713576 -0.9992310574786664 0
    outer loop
      vertex 152.87139788269997 -48.6630979180336 -19.960534568565432
      vertex 152.87139788269997 -48.6630979180336 19.960534568565432
      vertex 133.11519980430603 -49.43830169737339 19.960534568565432
    endloop
  endfacet
  facet normal 0.27426442923434546 -0.9616543156752112 -5.074120355668347e-16
    outer loop
      vertex 290 -28.821275779044733 0
      vertex 289.84229402628955 -28.866253624161743 2.506664671286085
      vertex 288.59552971776503 -29.221831606700235 -7.362491053693567
    endloop
  endfacet
  facet normal -0.022314568423530357 -0.999750999017291 5.806074444694775e-18
    outer loop
      vertex 81.48441416869855 -49.542231522239504 -18.096541049320393
      vertex 83.81966011250105 -49.59435450631251 -19.02113032590307
      vertex 88.74418960941374 -49.70427062594687 19.960534568565432
    endloop
  endfacet
  facet normal 0.059555571186861465 -0.9982249916429696 0
    outer loop
      vertex 172.0747010409832 -47.5174006074667 -19.960534568565432
      vertex 172.0747010409832 -47.5174006074667 19.960534568565432
      vertex 152.87139788269997 -48.6630979180336 19.960534568565432
    endloop
  endfacet
  facet normal -0.022314568423530103 -0.999750999017291 -2.6074468291743527e-17
    outer loop
      vertex 83.81966011250105 -49.59435450631251 -19.02113032590307
      vertex 86.2523737082855 -49.64865298067397 -19.645745014573773
      vertex 88.74418960941374 -49.70427062594687 19.960534568565432
    endloop
  endfacet
  facet normal 0.022314568359100364 0.9997509990187293 5.300893693524592e-16
    outer loop
      vertex 86.2523737082855 -49.148528445008566 19.645745014573773
      vertex 88.74418960941374 -49.204146090120794 19.960534568565432
      vertex 73.81966011250105 -48.87102870987995 -11.755705045849464
    endloop
  endfacet
  facet normal 0.001667577354503033 0.9999986095919168 0
    outer loop
      vertex 92.411796502769 -49.28600753843784 -19.960534568565432
      vertex 92.411796502769 -49.28600753843784 19.960534568565432
      vertex 112.91009210050106 -49.32019007951021 19.960534568565432
    endloop
  endfacet
  facet normal 0.022314568359102123 0.9997509990187291 -3.0152594595899733e-16
    outer loop
      vertex 88.74418960941374 -49.204146090120794 19.960534568565432
      vertex 92.411796502769 -49.28600753843784 19.960534568565432
      vertex 73.81966011250105 -48.87102870987995 -11.755705045849464
    endloop
  endfacet
  facet normal -0.12382809615439351 0.992303684666533 0
    outer loop
      vertex 208.31024410575628 -43.72025340050459 -19.960534568565432
      vertex 225.15338753163815 -41.61842266470194 19.960534568565432
      vertex 225.15338753163815 -41.61842266470194 -19.960534568565432
    endloop
  endfacet
  facet normal -0.274264429452799 0.961654315612908 6.165693653080948e-16
    outer loop
      vertex 287.5261336008773 -29.006886707767944 -9.635073482034308
      vertex 286.1803398874989 -29.390707940583436 -11.755705045849464
      vertex 289.84229402628955 -28.346316264435647 2.506664671286085
    endloop
  endfacet
  facet normal -0.08000100499557754 0.9967947828914925 0
    outer loop
      vertex 190.5657036602497 -45.531737327575684 19.960534568565432
      vertex 190.5657036602497 -45.531737327575684 -19.960534568565432
      vertex 172.0398079827428 -47.01859329640865 -19.960534568565432
    endloop
  endfacet
  facet normal -0.2742644294527958 0.961654315612909 -2.6993675939792987e-16
    outer loop
      vertex 282.74847979497383 -30.36947664671493 -15.41026485551578
      vertex 288.59552971776503 -28.701894247280396 7.362491053693559
      vertex 289.37166322257264 -28.480540472416312 4.973797743297096
    endloop
  endfacet
  facet normal -0.2742644294527971 0.9616543156129086 8.13611507035805e-17
    outer loop
      vertex 286.1803398874989 -29.390707940583436 -11.755705045849464
      vertex 289.37166322257264 -28.480540472416312 4.973797743297096
      vertex 289.84229402628955 -28.346316264435647 2.506664671286085
    endloop
  endfacet
  facet normal -0.14858377845701834 0.9888998234297727 0
    outer loop
      vertex 225.15338753163815 -41.61842266470194 -19.960534568565432
      vertex 240.99765260517597 -39.237796522676945 19.960534568565432
      vertex 240.99765260517597 -39.237796522676945 -19.960534568565432
    endloop
  endfacet
  facet normal 0.022314568359102005 0.999750999018729 -1.2292290400218414e-16
    outer loop
      vertex 83.81966011250105 -49.09422997080396 19.02113032590307
      vertex 86.2523737082855 -49.148528445008566 19.645745014573773
      vertex 73.81966011250105 -48.87102870987995 -11.755705045849464
    endloop
  endfacet
  facet normal -0.27426442945279667 0.9616543156129088 1.0361808955760791e-17
    outer loop
      vertex 286.1803398874989 -29.390707940583436 -11.755705045849464
      vertex 284.57937254842824 -29.847304855601624 -13.69094211857377
      vertex 289.37166322257264 -28.480540472416312 4.973797743297096
    endloop
  endfacet
  facet normal -0.10155899434424223 0.9948295183938733 0
    outer loop
      vertex 190.5657036602497 -45.531737327575684 -19.960534568565432
      vertex 208.31024410575628 -43.72025340050459 19.960534568565432
      vertex 208.31024410575628 -43.72025340050459 -19.960534568565432
    endloop
  endfacet
  facet normal 0.02231456835910078 0.9997509990187292 2.756009174502166e-16
    outer loop
      vertex 81.48441416869855 -49.04210698688152 18.09654104932039
      vertex 83.81966011250105 -49.09422997080396 19.02113032590307
      vertex 73.81966011250105 -48.87102870987995 -11.755705045849464
    endloop
  endfacet
  facet normal -0.23938176564265493 0.9709255225184911 5.590878900482502e-17
    outer loop
      vertex 278.51558583130145 -31.452970167250825 -18.096541049320393
      vertex 271.25581039058625 -33.24286838586985 19.960534568565432
      vertex 273.7476262917145 -32.62851097509619 19.645745014573773
    endloop
  endfacet
  facet normal -0.08000100499557754 0.9967947828914925 0
    outer loop
      vertex 172.0398079827428 -47.01859329640865 -19.960534568565432
      vertex 172.0398079827428 -47.01859329640865 19.960534568565432
      vertex 190.5657036602497 -45.531737327575684 19.960534568565432
    endloop
  endfacet
  facet normal -0.14858377845701834 0.9888998234297727 0
    outer loop
      vertex 240.99765260517597 -39.237796522676945 19.960534568565432
      vertex 225.15338753163815 -41.61842266470194 -19.960534568565432
      vertex 225.15338753163815 -41.61842266470194 19.960534568565432
    endloop
  endfacet
  facet normal -0.05955557122833134 0.9982249916404954 0
    outer loop
      vertex 172.0398079827428 -47.01859329640865 19.960534568565432
      vertex 152.84670436382294 -48.16368208825588 -19.960534568565432
      vertex 152.84670436382294 -48.16368208825588 19.960534568565432
    endloop
  endfacet
  facet normal -0.23938176564265337 0.9709255225184916 0
    outer loop
      vertex 269.34180004149675 -33.714767791330814 -19.960534568565432
      vertex 269.34180004149675 -33.714767791330814 19.960534568565432
      vertex 271.25581039058625 -33.24286838586985 19.960534568565432
    endloop
  endfacet
  facet normal -0.2742644294527931 0.9616543156129097 -7.466319560695015e-16
    outer loop
      vertex 288.59552971776503 -28.701894247280396 -7.362491053693567
      vertex 290 -28.301338419279897 0
      vertex 289.84229402628955 -28.346316264435647 -2.506664671286081
    endloop
  endfacet
  facet normal -0.10155899434424223 0.9948295183938733 0
    outer loop
      vertex 208.31024410575628 -43.72025340050459 19.960534568565432
      vertex 190.5657036602497 -45.531737327575684 -19.960534568565432
      vertex 190.5657036602497 -45.531737327575684 19.960534568565432
    endloop
  endfacet
  facet normal -0.27426442945279056 0.9616543156129105 -1.468534319343135e-15
    outer loop
      vertex 289.37166322257264 -28.480540472416312 -4.973797743297089
      vertex 288.59552971776503 -28.701894247280396 -7.362491053693567
      vertex 289.84229402628955 -28.346316264435647 -2.506664671286081
    endloop
  endfacet
  facet normal -0.2072901868645488 0.9782794991359375 0
    outer loop
      vertex 269.34180004149675 -33.714767791330814 19.960534568565432
      vertex 255.74596752226353 -36.59562409669161 -19.960534568565432
      vertex 255.74596752226353 -36.59562409669161 19.960534568565432
    endloop
  endfacet
  facet normal 0.04783949697891577 0.9988550357928844 0
    outer loop
      vertex 71.40447028223497 -48.80859050365272 7.3624910536935575
      vertex 71.73804325610399 -48.8245667591691 8.071369706806975
      vertex 71.73804325610399 -48.8245667591691 -8.071369706806975
    endloop
  endfacet
  facet normal -0.03920833803219133 0.9992310574780757 0
    outer loop
      vertex 152.84670436382294 -48.16368208825588 19.960534568565432
      vertex 133.1006709113717 -48.93848702311516 -19.960534568565432
      vertex 133.1006709113717 -48.93848702311516 19.960534568565432
    endloop
  endfacet
  facet normal -0.17634328000502913 0.9843287294380205 0
    outer loop
      vertex 240.99765260517597 -39.237796522676945 -19.960534568565432
      vertex 240.99765260517597 -39.237796522676945 19.960534568565432
      vertex 255.74596752226353 -36.59562409669161 19.960534568565432
    endloop
  endfacet
  facet normal -0.2742644294527961 0.9616543156129089 -1.646742461503565e-16
    outer loop
      vertex 284.57937254842824 -29.847304855601624 -13.69094211857377
      vertex 282.74847979497383 -30.36947664671493 -15.41026485551578
      vertex 289.37166322257264 -28.480540472416312 4.973797743297096
    endloop
  endfacet
  facet normal -0.27426442945279594 0.961654315612909 -1.9384280009163376e-16
    outer loop
      vertex 288.59552971776503 -28.701894247280396 -7.362491053693567
      vertex 287.5261336008773 -29.006886707767944 -9.635073482034308
      vertex 290 -28.301338419279897 0
    endloop
  endfacet
  facet normal -0.27426442945279816 0.9616543156129084 4.1485461049633115e-16
    outer loop
      vertex 287.5261336008773 -29.006886707767944 -9.635073482034308
      vertex 289.84229402628955 -28.346316264435647 2.506664671286085
      vertex 290 -28.301338419279897 0
    endloop
  endfacet
  facet normal -0.12382809615439351 0.992303684666533 0
    outer loop
      vertex 225.15338753163815 -41.61842266470194 19.960534568565432
      vertex 208.31024410575628 -43.72025340050459 -19.960534568565432
      vertex 208.31024410575628 -43.72025340050459 19.960534568565432
    endloop
  endfacet
  facet normal -0.0189016307080383 0.9998213482200592 0
    outer loop
      vertex 133.1006709113717 -48.93848702311516 19.960534568565432
      vertex 112.91009210050106 -49.32019007951021 -19.960534568565432
      vertex 112.91009210050106 -49.32019007951021 19.960534568565432
    endloop
  endfacet
  facet normal 0.022314568359100576 0.9997509990187291 1.3456507768550462e-16
    outer loop
      vertex 92.411796502769 -49.28600753843784 19.960534568565432
      vertex 88.74418960941372 -49.204146090120794 -19.960534568565432
      vertex 86.2523737082855 -49.148528445008566 -19.645745014573773
    endloop
  endfacet
  facet normal 0.04783949697889695 0.9988550357928854 -3.141637242081415e-15
    outer loop
      vertex 70.15770597371045 -48.74887755709513 -2.506664671286081
      vertex 70 -48.741324334472694 0
      vertex 70.62833677742738 -48.77141810612958 -4.973797743297097
    endloop
  endfacet
  facet normal 0.022314568359101672 0.999750999018729 5.499289248721355e-17
    outer loop
      vertex 75.42062745157176 -48.90676250275782 -13.69094211857377
      vertex 92.411796502769 -49.28600753843784 19.960534568565432
      vertex 77.25152020502621 -48.94762825987659 -15.410264855515788
    endloop
  endfacet
  facet normal 0.02231456835910238 0.9997509990187291 -2.3552618380575003e-16
    outer loop
      vertex 92.411796502769 -49.28600753843784 19.960534568565432
      vertex 79.28346410042006 -48.992981503834464 -16.8865585100403
      vertex 77.25152020502621 -48.94762825987659 -15.410264855515788
    endloop
  endfacet
  facet normal 0.022314568359097654 0.9997509990187292 0
    outer loop
      vertex 72.47386639912273 -48.840990424502984 9.635073482034308
      vertex 72.47386639912273 -48.840990424502984 -9.635073482034308
      vertex 71.73804325610399 -48.8245667591691 -8.071369706806975
    endloop
  endfacet
  facet normal 0.04783949697891576 0.9988550357928845 0
    outer loop
      vertex 71.40447028223497 -48.80859050365272 7.3624910536935575
      vertex 71.73804325610399 -48.8245667591691 -8.071369706806975
      vertex 71.40447028223497 -48.80859050365272 -7.3624910536935575
    endloop
  endfacet
  facet normal 0.022314568359103965 0.9997509990187291 0
    outer loop
      vertex 73.81966011250105 -48.87102870987995 11.755705045849464
      vertex 73.81966011250105 -48.87102870987995 -11.755705045849464
      vertex 72.47386639912273 -48.840990424502984 -9.635073482034308
    endloop
  endfacet
  facet normal -0.23938176564265415 0.9709255225184914 0
    outer loop
      vertex 280.7165358995799 -30.91032575095288 -16.886558510040306
      vertex 281.71684738248587 -30.663698874413967 16.159789676457024
      vertex 281.71684738248587 -30.663698874413967 -16.159789676457045
    endloop
  endfacet
  facet normal 0.022314568359102036 0.9997509990187291 0
    outer loop
      vertex 92.411796502769 -49.28600753843784 19.960534568565432
      vertex 92.411796502769 -49.28600753843784 -19.960534568565432
      vertex 88.74418960941372 -49.204146090120794 -19.960534568565432
    endloop
  endfacet
  facet normal 0.022314568359102706 0.9997509990187292 -3.6622961706638274e-16
    outer loop
      vertex 92.411796502769 -49.28600753843784 19.960534568565432
      vertex 81.48441416869855 -49.04210698688152 -18.096541049320393
      vertex 79.28346410042006 -48.992981503834464 -16.8865585100403
    endloop
  endfacet
  facet normal 0.02231456835910094 0.9997509990187293 1.4354308335446176e-16
    outer loop
      vertex 92.411796502769 -49.28600753843784 19.960534568565432
      vertex 83.81966011250105 -49.09422997080396 -19.02113032590307
      vertex 81.48441416869855 -49.04210698688152 -18.096541049320393
    endloop
  endfacet
  facet normal 0.022314568359101953 0.9997509990187292 -7.975823170207378e-17
    outer loop
      vertex 92.411796502769 -49.28600753843784 19.960534568565432
      vertex 86.2523737082855 -49.148528445008566 -19.645745014573773
      vertex 83.81966011250105 -49.09422997080396 -19.02113032590307
    endloop
  endfacet
  facet normal -0.23938176564265634 0.9709255225184908 -1.3104515216818636e-16
    outer loop
      vertex 278.51558583130145 -31.452970167250825 -18.096541049320393
      vertex 273.7476262917145 -32.62851097509619 19.645745014573773
      vertex 276.1803398874989 -32.02872524245707 19.02113032590307
    endloop
  endfacet
  facet normal -0.2742644294527961 0.9616543156129089 -1.7877417315676403e-16
    outer loop
      vertex 282.74847979497383 -30.36947664671493 -15.41026485551578
      vertex 281.71684738248587 -30.663698874413967 -16.159789676457045
      vertex 288.59552971776503 -28.701894247280396 7.362491053693559
    endloop
  endfacet
  facet normal -0.23938176564265426 0.9709255225184914 0
    outer loop
      vertex 280.7165358995799 -30.91032575095288 -16.886558510040306
      vertex 280.7165358995799 -30.91032575095288 16.886558510040302
      vertex 281.71684738248587 -30.663698874413967 16.159789676457024
    endloop
  endfacet
  facet normal -0.27426442945279805 0.9616543156129084 0
    outer loop
      vertex 281.71684738248587 -30.663698874413967 -16.159789676457045
      vertex 281.71684738248587 -30.663698874413967 16.159789676457024
      vertex 282.7484797949738 -30.369476646714944 15.410264855515782
    endloop
  endfacet
  facet normal -0.23938176564265595 0.9709255225184908 0
    outer loop
      vertex 280.7165358995799 -30.91032575095288 -16.886558510040306
      vertex 278.51558583130145 -31.452970167250825 -18.096541049320393
      vertex 280.7165358995799 -30.91032575095288 16.886558510040302
    endloop
  endfacet
  facet normal -0.23938176564265445 0.9709255225184912 1.533718212349113e-16
    outer loop
      vertex 278.51558583130145 -31.452970167250825 -18.096541049320393
      vertex 276.1803398874989 -32.02872524245707 -19.02113032590307
      vertex 271.25581039058625 -33.24286838586985 19.960534568565432
    endloop
  endfacet
  facet normal -0.23938176564265623 0.9709255225184908 -8.807885955059458e-17
    outer loop
      vertex 276.1803398874989 -32.02872524245707 -19.02113032590307
      vertex 273.7476262917145 -32.62851097509619 -19.645745014573773
      vertex 271.25581039058625 -33.24286838586985 19.960534568565432
    endloop
  endfacet
  facet normal -0.17634328000502913 0.9843287294380205 0
    outer loop
      vertex 255.74596752226353 -36.59562409669161 19.960534568565432
      vertex 255.74596752226353 -36.59562409669161 -19.960534568565432
      vertex 240.99765260517597 -39.237796522676945 -19.960534568565432
    endloop
  endfacet
  facet normal -0.2072901868645488 0.9782794991359375 0
    outer loop
      vertex 255.74596752226353 -36.59562409669161 -19.960534568565432
      vertex 269.34180004149675 -33.714767791330814 19.960534568565432
      vertex 269.34180004149675 -33.714767791330814 -19.960534568565432
    endloop
  endfacet
  facet normal -0.23938176564265498 0.9709255225184911 0
    outer loop
      vertex 273.7476262917145 -32.62851097509619 -19.645745014573773
      vertex 271.25581039058625 -33.24286838586985 -19.960534568565432
      vertex 271.25581039058625 -33.24286838586985 19.960534568565432
    endloop
  endfacet
  facet normal -0.23938176564265337 0.9709255225184916 0
    outer loop
      vertex 271.25581039058625 -33.24286838586985 -19.960534568565432
      vertex 269.34180004149675 -33.714767791330814 -19.960534568565432
      vertex 271.25581039058625 -33.24286838586985 19.960534568565432
    endloop
  endfacet
  facet normal 0.04783949697893007 0.9988550357928838 1.052746561411677e-15
    outer loop
      vertex 70 -48.741324334472694 0
      vertex 70.15770597371045 -48.74887755709513 2.506664671286081
      vertex 70.62833677742738 -48.77141810612958 -4.973797743297097
    endloop
  endfacet
  facet normal 0.02231456835910309 0.9997509990187291 -3.166831442052296e-16
    outer loop
      vertex 79.28346410042006 -48.992981503834464 16.8865585100403
      vertex 81.48441416869855 -49.04210698688152 18.09654104932039
      vertex 73.81966011250105 -48.87102870987995 -11.755705045849464
    endloop
  endfacet
  facet normal -0.23938176564265595 0.9709255225184908 0
    outer loop
      vertex 278.51558583130145 -31.452970167250825 -18.096541049320393
      vertex 278.51558583130145 -31.452970167250825 18.09654104932039
      vertex 280.7165358995799 -30.91032575095288 16.886558510040302
    endloop
  endfacet
  facet normal 0.022314568359102723 0.9997509990187291 -2.474134883549296e-16
    outer loop
      vertex 77.25152020502621 -48.94762825987659 15.410264855515788
      vertex 79.28346410042006 -48.992981503834464 16.8865585100403
      vertex 73.81966011250105 -48.87102870987995 -11.755705045849464
    endloop
  endfacet
  facet normal 0.02231456835910174 0.9997509990187292 -1.2279989997690717e-16
    outer loop
      vertex 75.42062745157176 -48.90676250275782 13.69094211857377
      vertex 77.25152020502621 -48.94762825987659 15.410264855515788
      vertex 73.81966011250105 -48.87102870987995 -11.755705045849464
    endloop
  endfacet
  facet normal 0.02231456835909979 0.9997509990187292 0
    outer loop
      vertex 73.81966011250105 -48.87102870987995 11.755705045849464
      vertex 75.42062745157176 -48.90676250275782 13.69094211857377
      vertex 73.81966011250105 -48.87102870987995 -11.755705045849464
    endloop
  endfacet
  facet normal 0.02231456835910397 0.999750999018729 0
    outer loop
      vertex 72.47386639912273 -48.840990424502984 9.635073482034308
      vertex 73.81966011250105 -48.87102870987995 11.755705045849464
      vertex 72.47386639912273 -48.840990424502984 -9.635073482034308
    endloop
  endfacet
  facet normal 0.02231456835909766 0.9997509990187293 0
    outer loop
      vertex 71.73804325610399 -48.8245667591691 8.071369706806975
      vertex 72.47386639912273 -48.840990424502984 9.635073482034308
      vertex 71.73804325610399 -48.8245667591691 -8.071369706806975
    endloop
  endfacet
  facet normal -0.23938176564265437 0.9709255225184912 0
    outer loop
      vertex 278.51558583130145 -31.452970167250825 -18.096541049320393
      vertex 276.1803398874989 -32.02872524245707 19.02113032590307
      vertex 278.51558583130145 -31.452970167250825 18.09654104932039
    endloop
  endfacet
  facet normal 0.04783949697891774 0.9988550357928843 0
    outer loop
      vertex 70.62833677742738 -48.77141810612958 4.973797743297097
      vertex 71.40447028223497 -48.80859050365272 7.3624910536935575
      vertex 70.62833677742738 -48.77141810612958 -4.973797743297097
    endloop
  endfacet
  facet normal 0.04783949697891337 0.9988550357928844 0
    outer loop
      vertex 70.15770597371045 -48.74887755709513 2.506664671286081
      vertex 70.62833677742738 -48.77141810612958 4.973797743297097
      vertex 70.62833677742738 -48.77141810612958 -4.973797743297097
    endloop
  endfacet
  facet normal -0.03920833803219133 0.9992310574780757 0
    outer loop
      vertex 133.1006709113717 -48.93848702311516 -19.960534568565432
      vertex 152.84670436382294 -48.16368208825588 19.960534568565432
      vertex 152.84670436382294 -48.16368208825588 -19.960534568565432
    endloop
  endfacet
  facet normal 0.04783949697891773 0.9988550357928841 0
    outer loop
      vertex 71.40447028223497 -48.80859050365272 7.3624910536935575
      vertex 71.40447028223497 -48.80859050365272 -7.3624910536935575
      vertex 70.62833677742738 -48.77141810612958 -4.973797743297097
    endloop
  endfacet
  facet normal 0.02231456835910055 0.9997509990187292 6.243355962073323e-16
    outer loop
      vertex 92.411796502769 -49.28600753843784 19.960534568565432
      vertex 75.42062745157176 -48.90676250275782 -13.69094211857377
      vertex 73.81966011250105 -48.87102870987995 -11.755705045849464
    endloop
  endfacet
  facet normal 0.001667577354503033 0.9999986095919168 0
    outer loop
      vertex 112.91009210050106 -49.32019007951021 19.960534568565432
      vertex 112.91009210050106 -49.32019007951021 -19.960534568565432
      vertex 92.411796502769 -49.28600753843784 -19.960534568565432
    endloop
  endfacet
  facet normal -0.2742644294527962 0.9616543156129088 -8.376398724884742e-17
    outer loop
      vertex 281.71684738248587 -30.663698874413967 -16.159789676457045
      vertex 287.5261336008773 -29.006886707767944 9.635073482034306
      vertex 288.59552971776503 -28.701894247280396 7.362491053693559
    endloop
  endfacet
  facet normal -0.2742644294527966 0.9616543156129088 4.0039622694951035e-17
    outer loop
      vertex 281.71684738248587 -30.663698874413967 -16.159789676457045
      vertex 284.57937254842824 -29.847304855601624 13.690942118573775
      vertex 286.1803398874989 -29.390707940583436 11.755705045849464
    endloop
  endfacet
  facet normal -0.27426442945279533 0.9616543156129091 -9.498179098075772e-17
    outer loop
      vertex 281.71684738248587 -30.663698874413967 -16.159789676457045
      vertex 282.7484797949738 -30.369476646714944 15.410264855515782
      vertex 284.57937254842824 -29.847304855601624 13.690942118573775
    endloop
  endfacet
  facet normal -0.2742644294527977 0.9616543156129085 2.542354208313366e-16
    outer loop
      vertex 281.71684738248587 -30.663698874413967 -16.159789676457045
      vertex 286.1803398874989 -29.390707940583436 11.755705045849464
      vertex 287.5261336008773 -29.006886707767944 9.635073482034306
    endloop
  endfacet
  facet normal -0.0189016307080383 0.9998213482200592 0
    outer loop
      vertex 112.91009210050106 -49.32019007951021 -19.960534568565432
      vertex 133.1006709113717 -48.93848702311516 19.960534568565432
      vertex 133.1006709113717 -48.93848702311516 -19.960534568565432
    endloop
  endfacet
  facet normal -0.05955557122833134 0.9982249916404954 0
    outer loop
      vertex 152.84670436382294 -48.16368208825588 -19.960534568565432
      vertex 172.0398079827428 -47.01859329640865 19.960534568565432
      vertex 172.0398079827428 -47.01859329640865 -19.960534568565432
    endloop
  endfacet
  facet normal 0.904827052466023 0 -0.4257792915650653
    outer loop
      vertex 287.5261336008773 -29.526824066925094 -9.635073482034308
      vertex 287.5261336008773 -29.006886707767944 -9.635073482034308
      vertex 288.59552971776503 -29.221831606700235 -7.362491053693567
    endloop
  endfacet
  facet normal 0.5877852522924673 0 -0.8090169943749517
    outer loop
      vertex 282.74847979497383 -30.36947664671493 -15.41026485551578
      vertex 282.74847979497383 -30.889414004698484 -15.41026485551578
      vertex 281.71684738248587 -30.663698874413967 -16.159789676457045
    endloop
  endfacet
  facet normal 0.8443279255020039 0 -0.5358267949790142
    outer loop
      vertex 287.5261336008773 -29.006886707767944 -9.635073482034308
      vertex 287.5261336008773 -29.526824066925094 -9.635073482034308
      vertex 286.1803398874989 -29.390707940583436 -11.755705045849464
    endloop
  endfacet
  facet normal 0.844327925502004 0 -0.5358267949790143
    outer loop
      vertex 286.1803398874989 -29.91064529941 -11.755705045849464
      vertex 286.1803398874989 -29.390707940583436 -11.755705045849464
      vertex 287.5261336008773 -29.526824066925094 -9.635073482034308
    endloop
  endfacet
  facet normal 0.904827052466023 0 -0.4257792915650652
    outer loop
      vertex 288.59552971776503 -28.701894247280396 -7.362491053693567
      vertex 288.59552971776503 -29.221831606700235 -7.362491053693567
      vertex 287.5261336008773 -29.006886707767944 -9.635073482034308
    endloop
  endfacet
  facet normal 0.7705132427757962 0 -0.6374239897486814
    outer loop
      vertex 286.1803398874989 -29.390707940583436 -11.755705045849464
      vertex 286.1803398874989 -29.91064529941 -11.755705045849464
      vertex 284.57937254842824 -29.847304855601624 -13.69094211857377
    endloop
  endfacet
  facet normal 0.7705132427757961 0 -0.6374239897486812
    outer loop
      vertex 284.57937254842824 -30.36724221403492 -13.69094211857377
      vertex 284.57937254842824 -29.847304855601624 -13.69094211857377
      vertex 286.1803398874989 -29.91064529941 -11.755705045849464
    endloop
  endfacet
  facet normal 0.6845471059286946 0 -0.728968627421406
    outer loop
      vertex 282.74847979497383 -30.36947664671493 -15.41026485551578
      vertex 284.57937254842824 -29.847304855601624 -13.69094211857377
      vertex 284.57937254842824 -30.36724221403492 -13.69094211857377
    endloop
  endfacet
  facet normal 0.6845471059286945 0 -0.728968627421406
    outer loop
      vertex 282.74847979497383 -30.889414004698484 -15.41026485551578
      vertex 282.74847979497383 -30.36947664671493 -15.41026485551578
      vertex 284.57937254842824 -30.36724221403492 -13.69094211857377
    endloop
  endfacet
  facet normal 0.5877852522924757 -3.0731068193596667e-15 0.8090169943749457
    outer loop
      vertex 281.84530079364777 -31.14700123667717 16.066462810380543
      vertex 281.71684738248587 -30.663698874413967 16.159789676457024
      vertex 280.7165358995799 -30.91032575095288 16.886558510040302
    endloop
  endfacet
  facet normal 0.7705132427757969 0 0.6374239897486803
    outer loop
      vertex 286.1803398874989 -29.390707940583436 11.755705045849464
      vertex 284.57937254842824 -30.36724221403492 13.690942118573775
      vertex 286.1803398874989 -29.91064529941 11.755705045849464
    endloop
  endfacet
  facet normal 0.12533323356430434 0 0.9921147013144778
    outer loop
      vertex 271.25581039058625 -33.757840945863066 19.960534568565432
      vertex 273.7476262917145 -32.62851097509619 19.645745014573773
      vertex 271.25581039058625 -33.24286838586985 19.960534568565432
    endloop
  endfacet
  facet normal 0.12533323356430434 0 0.9921147013144779
    outer loop
      vertex 273.7476262917145 -32.62851097509619 19.645745014573773
      vertex 271.25581039058625 -33.757840945863066 19.960534568565432
      vertex 273.7476262917145 -33.14348353535297 19.645745014573773
    endloop
  endfacet
  facet normal 0.24868988716485743 0 0.9685831611286304
    outer loop
      vertex 276.1803398874989 -32.02872524245707 19.02113032590307
      vertex 273.7476262917145 -33.14348353535297 19.645745014573773
      vertex 276.1803398874989 -32.54369780297116 19.02113032590307
    endloop
  endfacet
  facet normal 0.24868988716485743 0 0.9685831611286305
    outer loop
      vertex 273.7476262917145 -33.14348353535297 19.645745014573773
      vertex 276.1803398874989 -32.02872524245707 19.02113032590307
      vertex 273.7476262917145 -32.62851097509619 19.645745014573773
    endloop
  endfacet
  facet normal 0.4817536741017159 0 0.8763066800438633
    outer loop
      vertex 280.7165358995799 -30.91032575095288 16.886558510040302
      vertex 278.51558583130145 -31.967942728011906 18.09654104932039
      vertex 280.7165358995799 -31.425298311946754 16.886558510040302
    endloop
  endfacet
  facet normal 0.587785252292476 0 0.8090169943749455
    outer loop
      vertex 280.7165358995799 -31.425298311946754 16.886558510040302
      vertex 281.84530079364777 -31.14700123667717 16.066462810380543
      vertex 280.7165358995799 -30.91032575095288 16.886558510040302
    endloop
  endfacet
  facet normal 0.36812455268467353 0 0.9297764858882531
    outer loop
      vertex 276.1803398874989 -32.54369780297116 19.02113032590307
      vertex 278.51558583130145 -31.452970167250825 18.09654104932039
      vertex 276.1803398874989 -32.02872524245707 19.02113032590307
    endloop
  endfacet
  facet normal 0.3681245526846735 0 0.9297764858882531
    outer loop
      vertex 278.51558583130145 -31.452970167250825 18.09654104932039
      vertex 276.1803398874989 -32.54369780297116 19.02113032590307
      vertex 278.51558583130145 -31.967942728011906 18.09654104932039
    endloop
  endfacet
  facet normal 0.4817536741017158 0 0.8763066800438633
    outer loop
      vertex 278.51558583130145 -31.967942728011906 18.09654104932039
      vertex 280.7165358995799 -30.91032575095288 16.886558510040302
      vertex 278.51558583130145 -31.452970167250825 18.09654104932039
    endloop
  endfacet
  facet normal 0.9048270524660234 0 0.4257792915650643
    outer loop
      vertex 287.5261336008773 -29.526824066925094 9.635073482034306
      vertex 288.59552971776503 -28.701894247280396 7.362491053693559
      vertex 287.5261336008773 -29.006886707767944 9.635073482034306
    endloop
  endfacet
  facet normal 0.6845471059286825 0 0.7289686274214173
    outer loop
      vertex 284.57937254842824 -29.847304855601624 13.690942118573775
      vertex 282.7484797949738 -30.889414004698498 15.410264855515782
      vertex 284.57937254842824 -30.36724221403492 13.690942118573775
    endloop
  endfacet
  facet normal 0.6845471059286825 0 0.7289686274214173
    outer loop
      vertex 282.7484797949738 -30.889414004698498 15.410264855515782
      vertex 284.57937254842824 -29.847304855601624 13.690942118573775
      vertex 282.7484797949738 -30.369476646714944 15.410264855515782
    endloop
  endfacet
  facet normal 0.770513242775797 0 0.6374239897486803
    outer loop
      vertex 284.57937254842824 -30.36724221403492 13.690942118573775
      vertex 286.1803398874989 -29.390707940583436 11.755705045849464
      vertex 284.57937254842824 -29.847304855601624 13.690942118573775
    endloop
  endfacet
  facet normal 0.8443279255020042 0 0.5358267949790139
    outer loop
      vertex 287.5261336008773 -29.006886707767944 9.635073482034306
      vertex 286.1803398874989 -29.91064529941 11.755705045849464
      vertex 287.5261336008773 -29.526824066925094 9.635073482034306
    endloop
  endfacet
  facet normal 0.8443279255020043 0 0.5358267949790139
    outer loop
      vertex 286.1803398874989 -29.91064529941 11.755705045849464
      vertex 287.5261336008773 -29.006886707767944 9.635073482034306
      vertex 286.1803398874989 -29.390707940583436 11.755705045849464
    endloop
  endfacet
  facet normal 0.587785252292477 -2.4908572977663184e-15 0.8090169943749446
    outer loop
      vertex 281.84530079364777 -31.14700123667717 16.066462810380543
      vertex 282.7484797949738 -30.369476646714944 15.410264855515782
      vertex 281.71684738248587 -30.663698874413967 16.159789676457024
    endloop
  endfacet
  facet normal 0.5877852522924757 0 0.8090169943749457
    outer loop
      vertex 282.7484797949738 -30.369476646714944 15.410264855515782
      vertex 281.84530079364777 -31.14700123667717 16.066462810380543
      vertex 282.7484797949738 -30.889414004698498 15.410264855515782
    endloop
  endfacet
  facet normal -0.36812455268467625 0 -0.9297764858882521
    outer loop
      vertex 81.48441416869855 -49.542231522239504 -18.096541049320393
      vertex 81.48441416869855 -49.04210698688152 -18.096541049320393
      vertex 83.81966011250105 -49.59435450631251 -19.02113032590307
    endloop
  endfacet
  facet normal 0 0 1
    outer loop
      vertex 271.25581039058625 -33.24286838586985 19.960534568565432
      vertex 269.34180004149675 -33.714767791330814 19.960534568565432
      vertex 269.4534982740879 -34.20220114290714 19.960534568565432
    endloop
  endfacet
  facet normal 0.9510565162951531 0 -0.309016994374949
    outer loop
      vertex 289.37166322257264 -28.480540472416312 -4.973797743297089
      vertex 289.37166322257264 -29.0004778320268 -4.973797743297089
      vertex 288.59552971776503 -28.701894247280396 -7.362491053693567
    endloop
  endfacet
  facet normal 0.9822872507286902 0 -0.18738131458571752
    outer loop
      vertex 289.37166322257264 -29.0004778320268 -4.973797743297089
      vertex 289.37166322257264 -28.480540472416312 -4.973797743297089
      vertex 289.84229402628955 -28.866253624161743 -2.506664671286081
    endloop
  endfacet
  facet normal 0.98228725072869 0 -0.18738131458571755
    outer loop
      vertex 289.84229402628955 -28.346316264435647 -2.506664671286081
      vertex 289.84229402628955 -28.866253624161743 -2.506664671286081
      vertex 289.37166322257264 -28.480540472416312 -4.973797743297089
    endloop
  endfacet
  facet normal 0.9980267284282714 0 -0.06279051952931576
    outer loop
      vertex 289.84229402628955 -28.866253624161743 -2.506664671286081
      vertex 289.84229402628955 -28.346316264435647 -2.506664671286081
      vertex 290 -28.821275779044733 0
    endloop
  endfacet
  facet normal 0.9980267284282713 0 -0.06279051952931575
    outer loop
      vertex 290 -28.301338419279897 0
      vertex 290 -28.821275779044733 0
      vertex 289.84229402628955 -28.346316264435647 -2.506664671286081
    endloop
  endfacet
  facet normal 0 0 1
    outer loop
      vertex 255.74596752226353 -36.59562409669161 19.960534568565432
      vertex 240.99765260517597 -39.237796522676945 19.960534568565432
      vertex 241.07890039682388 -39.73120130598545 19.960534568565432
    endloop
  endfacet
  facet normal 0 0 1
    outer loop
      vertex 255.74596752226353 -36.59562409669161 19.960534568565432
      vertex 241.07890039682388 -39.73120130598545 19.960534568565432
      vertex 255.84189973771572 -37.08639815449715 19.960534568565432
    endloop
  endfacet
  facet normal 0 0 1
    outer loop
      vertex 269.34180004149675 -33.714767791330814 19.960534568565432
      vertex 255.74596752226353 -36.59562409669161 19.960534568565432
      vertex 255.84189973771572 -37.08639815449715 19.960534568565432
    endloop
  endfacet
  facet normal 0 0 1
    outer loop
      vertex 269.34180004149675 -33.714767791330814 19.960534568565432
      vertex 255.84189973771572 -37.08639815449715 19.960534568565432
      vertex 269.4534982740879 -34.20220114290714 19.960534568565432
    endloop
  endfacet
  facet normal 0.9510565162951531 0 -0.30901699437494895
    outer loop
      vertex 288.59552971776503 -29.221831606700235 -7.362491053693567
      vertex 288.59552971776503 -28.701894247280396 -7.362491053693567
      vertex 289.37166322257264 -29.0004778320268 -4.973797743297089
    endloop
  endfacet
  facet normal 0 0 1
    outer loop
      vertex 271.25581039058625 -33.24286838586985 19.960534568565432
      vertex 269.4534982740879 -34.20220114290714 19.960534568565432
      vertex 271.25581039058625 -33.757840945863066 19.960534568565432
    endloop
  endfacet
  facet normal 0.9980267284282713 0 0.06279051952931565
    outer loop
      vertex 290 -28.821275779044733 0
      vertex 290 -28.301338419279897 0
      vertex 289.84229402628955 -28.866253624161743 2.506664671286085
    endloop
  endfacet
  facet normal 0.9980267284282714 0 0.06279051952931566
    outer loop
      vertex 289.84229402628955 -28.346316264435647 2.506664671286085
      vertex 289.84229402628955 -28.866253624161743 2.506664671286085
      vertex 290 -28.301338419279897 0
    endloop
  endfacet
  facet normal 0.98228725072869 0 0.18738131458571727
    outer loop
      vertex 289.84229402628955 -28.346316264435647 2.506664671286085
      vertex 289.37166322257264 -29.0004778320268 4.973797743297096
      vertex 289.84229402628955 -28.866253624161743 2.506664671286085
    endloop
  endfacet
  facet normal 0.9822872507286902 0 0.1873813145857173
    outer loop
      vertex 289.37166322257264 -29.0004778320268 4.973797743297096
      vertex 289.84229402628955 -28.346316264435647 2.506664671286085
      vertex 289.37166322257264 -28.480540472416312 4.973797743297096
    endloop
  endfacet
  facet normal 0.9510565162951525 0 0.3090169943749508
    outer loop
      vertex 289.37166322257264 -28.480540472416312 4.973797743297096
      vertex 288.59552971776503 -29.221831606700235 7.362491053693559
      vertex 289.37166322257264 -29.0004778320268 4.973797743297096
    endloop
  endfacet
  facet normal 0.9510565162951524 0 0.3090169943749508
    outer loop
      vertex 289.37166322257264 -28.480540472416312 4.973797743297096
      vertex 288.59552971776503 -28.701894247280396 7.362491053693559
      vertex 288.59552971776503 -29.221831606700235 7.362491053693559
    endloop
  endfacet
  facet normal 0.9048270524660236 0 0.4257792915650643
    outer loop
      vertex 288.59552971776503 -28.701894247280396 7.362491053693559
      vertex 287.5261336008773 -29.526824066925094 9.635073482034306
      vertex 288.59552971776503 -29.221831606700235 7.362491053693559
    endloop
  endfacet
  facet normal -0.9822872507286892 0 0.18738131458572238
    outer loop
      vertex 70.15770597371045 -48.74887755709513 2.506664671286081
      vertex 70.15770597371045 -49.24945069933095 2.506664671286081
      vertex 70.62833677742738 -48.77141810612958 4.973797743297097
    endloop
  endfacet
  facet normal -0.9822872507286892 0 -0.1873813145857224
    outer loop
      vertex 70.62833677742738 -49.2719912483461 -4.973797743297097
      vertex 70.15770597371045 -48.74887755709513 -2.506664671286081
      vertex 70.62833677742738 -48.77141810612958 -4.973797743297097
    endloop
  endfacet
  facet normal -0.9822872507286892 0 -0.18738131458572238
    outer loop
      vertex 70.15770597371045 -48.74887755709513 -2.506664671286081
      vertex 70.62833677742738 -49.2719912483461 -4.973797743297097
      vertex 70.15770597371045 -49.24945069933095 -2.506664671286081
    endloop
  endfacet
  facet normal -0.9980267284282714 0 -0.06279051952931576
    outer loop
      vertex 70.15770597371045 -48.74887755709513 -2.506664671286081
      vertex 70.15770597371045 -49.24945069933095 -2.506664671286081
      vertex 70 -48.741324334472694 0
    endloop
  endfacet
  facet normal -0.9980267284282714 0 -0.06279051952931575
    outer loop
      vertex 70 -49.24189747671499 0
      vertex 70 -48.741324334472694 0
      vertex 70.15770597371045 -49.24945069933095 -2.506664671286081
    endloop
  endfacet
  facet normal 0 0 -1
    outer loop
      vertex 133.11519980430603 -49.43830169737339 -19.960534568565432
      vertex 112.91009210050106 -49.32019007951021 -19.960534568565432
      vertex 133.1006709113717 -48.93848702311516 -19.960534568565432
    endloop
  endfacet
  facet normal 0 0 -1
    outer loop
      vertex 152.87139788269997 -48.6630979180336 -19.960534568565432
      vertex 133.11519980430603 -49.43830169737339 -19.960534568565432
      vertex 133.1006709113717 -48.93848702311516 -19.960534568565432
    endloop
  endfacet
  facet normal 0 0 -1
    outer loop
      vertex 152.87139788269997 -48.6630979180336 -19.960534568565432
      vertex 133.1006709113717 -48.93848702311516 -19.960534568565432
      vertex 152.84670436382294 -48.16368208825588 -19.960534568565432
    endloop
  endfacet
  facet normal 0 0 -1
    outer loop
      vertex 172.0747010409832 -47.5174006074667 -19.960534568565432
      vertex 152.87139788269997 -48.6630979180336 -19.960534568565432
      vertex 152.84670436382294 -48.16368208825588 -19.960534568565432
    endloop
  endfacet
  facet normal 0 0 -1
    outer loop
      vertex 172.0747010409832 -47.5174006074667 -19.960534568565432
      vertex 152.84670436382294 -48.16368208825588 -19.960534568565432
      vertex 172.0398079827428 -47.01859329640865 -19.960534568565432
    endloop
  endfacet
  facet normal 0 0 -1
    outer loop
      vertex 190.61109885573387 -46.0297017544508 -19.960534568565432
      vertex 172.0747010409832 -47.5174006074667 -19.960534568565432
      vertex 172.0398079827428 -47.01859329640865 -19.960534568565432
    endloop
  endfacet
  facet normal -0.9980267284282714 0 0.06279051952931575
    outer loop
      vertex 70 -49.24189747671499 0
      vertex 70.15770597371045 -48.74887755709513 2.506664671286081
      vertex 70 -48.741324334472694 0
    endloop
  endfacet
  facet normal -0.9980267284282714 0 0.06279051952931576
    outer loop
      vertex 70.15770597371045 -48.74887755709513 2.506664671286081
      vertex 70 -49.24189747671499 0
      vertex 70.15770597371045 -49.24945069933095 2.506664671286081
    endloop
  endfacet
  facet normal -0.951056516295154 0 -0.30901699437494595
    outer loop
      vertex 70.62833677742738 -48.77141810612958 -4.973797743297097
      vertex 71.40447028223497 -49.3091636458374 -7.3624910536935575
      vertex 70.62833677742738 -49.2719912483461 -4.973797743297097
    endloop
  endfacet
  facet normal -0.9822872507286892 0 0.1873813145857224
    outer loop
      vertex 70.62833677742738 -49.2719912483461 4.973797743297097
      vertex 70.62833677742738 -48.77141810612958 4.973797743297097
      vertex 70.15770597371045 -49.24945069933095 2.506664671286081
    endloop
  endfacet
  facet normal -0.951056516295154 0 0.30901699437494595
    outer loop
      vertex 70.62833677742738 -48.77141810612958 4.973797743297097
      vertex 70.62833677742738 -49.2719912483461 4.973797743297097
      vertex 71.40447028223497 -48.80859050365272 7.3624910536935575
    endloop
  endfacet
  facet normal -0.951056516295154 0 0.30901699437494595
    outer loop
      vertex 71.40447028223497 -49.3091636458374 7.3624910536935575
      vertex 71.40447028223497 -48.80859050365272 7.3624910536935575
      vertex 70.62833677742738 -49.2719912483461 4.973797743297097
    endloop
  endfacet
  facet normal -0.9048270524660194 0 0.425779291565073
    outer loop
      vertex 72.47386639912273 -48.840990424502984 9.635073482034308
      vertex 71.72050185501575 -49.32429976761341 8.034092331985732
      vertex 72.47386639912273 -49.34111495928 9.635073482034308
    endloop
  endfacet
  facet normal -0.9048270524660194 0 0.4257792915650731
    outer loop
      vertex 71.40447028223497 -48.80859050365272 7.3624910536935575
      vertex 71.40447028223497 -49.3091636458374 7.3624910536935575
      vertex 71.72050185501575 -49.32429976761341 8.034092331985732
    endloop
  endfacet
  facet normal -0.9048270524660192 5.086912064653758e-16 0.4257792915650734
    outer loop
      vertex 71.73804325610399 -48.8245667591691 8.071369706806975
      vertex 71.40447028223497 -48.80859050365272 7.3624910536935575
      vertex 71.72050185501575 -49.32429976761341 8.034092331985732
    endloop
  endfacet
  facet normal -0.9048270524660195 5.57966318090574e-16 0.42577929156507277
    outer loop
      vertex 71.72050185501575 -49.32429976761341 8.034092331985732
      vertex 72.47386639912273 -48.840990424502984 9.635073482034308
      vertex 71.73804325610399 -48.8245667591691 8.071369706806975
    endloop
  endfacet
  facet normal -0.8443279255020141 0 0.535826794978998
    outer loop
      vertex 73.81966011250105 -48.87102870987995 11.755705045849464
      vertex 72.47386639912273 -49.34111495928 9.635073482034308
      vertex 73.81966011250105 -49.37115324474374 11.755705045849464
    endloop
  endfacet
  facet normal -0.8443279255020142 0 0.5358267949789981
    outer loop
      vertex 72.47386639912273 -49.34111495928 9.635073482034308
      vertex 73.81966011250105 -48.87102870987995 11.755705045849464
      vertex 72.47386639912273 -48.840990424502984 9.635073482034308
    endloop
  endfacet
  facet normal -0.7705132427757906 0 0.637423989748688
    outer loop
      vertex 73.81966011250105 -48.87102870987995 11.755705045849464
      vertex 73.81966011250105 -49.37115324474374 11.755705045849464
      vertex 75.42062745157176 -48.90676250275782 13.69094211857377
    endloop
  endfacet
  facet normal -0.7705132427757907 0 0.6374239897486881
    outer loop
      vertex 75.42062745157176 -49.406887037724836 13.69094211857377
      vertex 75.42062745157176 -48.90676250275782 13.69094211857377
      vertex 73.81966011250105 -49.37115324474374 11.755705045849464
    endloop
  endfacet
  facet normal -0.6845471059286876 0 0.7289686274214126
    outer loop
      vertex 77.25152020502621 -49.44775279496165 15.410264855515788
      vertex 77.25152020502621 -48.94762825987659 15.410264855515788
      vertex 75.42062745157176 -49.406887037724836 13.69094211857377
    endloop
  endfacet
  facet normal -0.6845471059286876 0 -0.7289686274214126
    outer loop
      vertex 77.25152020502621 -48.94762825987659 -15.410264855515788
      vertex 77.25152020502621 -49.44775279496165 -15.410264855515788
      vertex 75.42062745157176 -48.90676250275782 -13.69094211857377
    endloop
  endfacet
  facet normal -0.3681245526846762 0 -0.9297764858882521
    outer loop
      vertex 83.81966011250105 -49.09422997080396 -19.02113032590307
      vertex 83.81966011250105 -49.59435450631251 -19.02113032590307
      vertex 81.48441416869855 -49.04210698688152 -18.096541049320393
    endloop
  endfacet
  facet normal -0.48175367410171566 0 -0.8763066800438635
    outer loop
      vertex 81.48441416869855 -49.04210698688152 -18.096541049320393
      vertex 81.48441416869855 -49.542231522239504 -18.096541049320393
      vertex 79.28346410042006 -48.992981503834464 -16.8865585100403
    endloop
  endfacet
  facet normal -0.48175367410171555 0 -0.8763066800438634
    outer loop
      vertex 79.28346410042006 -49.49310603905054 -16.8865585100403
      vertex 79.28346410042006 -48.992981503834464 -16.8865585100403
      vertex 81.48441416869855 -49.542231522239504 -18.096541049320393
    endloop
  endfacet
  facet normal -0.5877852522924736 0 -0.8090169943749471
    outer loop
      vertex 77.25152020502621 -48.94762825987659 -15.410264855515788
      vertex 79.28346410042006 -49.49310603905054 -16.8865585100403
      vertex 77.25152020502621 -49.44775279496165 -15.410264855515788
    endloop
  endfacet
  facet normal -0.5877852522924736 0 -0.8090169943749471
    outer loop
      vertex 79.28346410042006 -49.49310603905054 -16.8865585100403
      vertex 77.25152020502621 -48.94762825987659 -15.410264855515788
      vertex 79.28346410042006 -48.992981503834464 -16.8865585100403
    endloop
  endfacet
  facet normal -0.12533323356430506 0 -0.9921147013144778
    outer loop
      vertex 86.2523737082855 -49.148528445008566 -19.645745014573773
      vertex 88.74418960941372 -49.70427062594687 -19.960534568565432
      vertex 86.2523737082855 -49.64865298067397 -19.645745014573773
    endloop
  endfacet
  facet normal -0.24868988716485602 0 -0.9685831611286307
    outer loop
      vertex 86.2523737082855 -49.64865298067397 -19.645745014573773
      vertex 83.81966011250105 -49.09422997080396 -19.02113032590307
      vertex 86.2523737082855 -49.148528445008566 -19.645745014573773
    endloop
  endfacet
  facet normal -0.24868988716485604 0 -0.9685831611286307
    outer loop
      vertex 83.81966011250105 -49.09422997080396 -19.02113032590307
      vertex 86.2523737082855 -49.64865298067397 -19.645745014573773
      vertex 83.81966011250105 -49.59435450631251 -19.02113032590307
    endloop
  endfacet
  facet normal -0.12533323356430504 0 -0.9921147013144779
    outer loop
      vertex 88.74418960941372 -49.70427062594687 -19.960534568565432
      vertex 86.2523737082855 -49.148528445008566 -19.645745014573773
      vertex 88.74418960941372 -49.204146090120794 -19.960534568565432
    endloop
  endfacet
  facet normal 0 0 -1
    outer loop
      vertex 88.74418960941372 -49.70427062594687 -19.960534568565432
      vertex 88.74418960941372 -49.204146090120794 -19.960534568565432
      vertex 92.411796502769 -49.28600753843784 -19.960534568565432
    endloop
  endfacet
  facet normal 0 0 -1
    outer loop
      vertex 92.40580037236214 -49.78599824011326 -19.960534568565432
      vertex 88.74418960941372 -49.70427062594687 -19.960534568565432
      vertex 92.411796502769 -49.28600753843784 -19.960534568565432
    endloop
  endfacet
  facet normal -0.6845471059286876 0 -0.7289686274214126
    outer loop
      vertex 75.42062745157176 -49.406887037724836 -13.69094211857377
      vertex 75.42062745157176 -48.90676250275782 -13.69094211857377
      vertex 77.25152020502621 -49.44775279496165 -15.410264855515788
    endloop
  endfacet
  facet normal -0.6845471059286876 0 0.7289686274214126
    outer loop
      vertex 75.42062745157176 -48.90676250275782 13.69094211857377
      vertex 75.42062745157176 -49.406887037724836 13.69094211857377
      vertex 77.25152020502621 -48.94762825987659 15.410264855515788
    endloop
  endfacet
  facet normal -0.7705132427757907 0 -0.6374239897486881
    outer loop
      vertex 75.42062745157176 -49.406887037724836 -13.69094211857377
      vertex 73.81966011250105 -48.87102870987995 -11.755705045849464
      vertex 75.42062745157176 -48.90676250275782 -13.69094211857377
    endloop
  endfacet
  facet normal -0.7705132427757906 0 -0.637423989748688
    outer loop
      vertex 73.81966011250105 -48.87102870987995 -11.755705045849464
      vertex 75.42062745157176 -49.406887037724836 -13.69094211857377
      vertex 73.81966011250105 -49.37115324474374 -11.755705045849464
    endloop
  endfacet
  facet normal -0.8443279255020142 0 -0.5358267949789981
    outer loop
      vertex 72.47386639912273 -48.840990424502984 -9.635073482034308
      vertex 73.81966011250105 -49.37115324474374 -11.755705045849464
      vertex 72.47386639912273 -49.34111495928 -9.635073482034308
    endloop
  endfacet
  facet normal -0.8443279255020141 0 -0.535826794978998
    outer loop
      vertex 73.81966011250105 -49.37115324474374 -11.755705045849464
      vertex 72.47386639912273 -48.840990424502984 -9.635073482034308
      vertex 73.81966011250105 -48.87102870987995 -11.755705045849464
    endloop
  endfacet
  facet normal 0 0 -1
    outer loop
      vertex 112.91440099477768 -49.820197969675064 -19.960534568565432
      vertex 92.40580037236214 -49.78599824011326 -19.960534568565432
      vertex 92.411796502769 -49.28600753843784 -19.960534568565432
    endloop
  endfacet
  facet normal 0 0 -1
    outer loop
      vertex 112.91440099477768 -49.820197969675064 -19.960534568565432
      vertex 92.411796502769 -49.28600753843784 -19.960534568565432
      vertex 112.91009210050106 -49.32019007951021 -19.960534568565432
    endloop
  endfacet
  facet normal 0 0 -1
    outer loop
      vertex 133.11519980430603 -49.43830169737339 -19.960534568565432
      vertex 112.91440099477768 -49.820197969675064 -19.960534568565432
      vertex 112.91009210050106 -49.32019007951021 -19.960534568565432
    endloop
  endfacet
  facet normal -0.9048270524660194 5.410539046597519e-16 -0.42577929156507294
    outer loop
      vertex 71.73804325610399 -48.8245667591691 -8.071369706806975
      vertex 72.47386639912273 -49.34111495928 -9.635073482034308
      vertex 71.72050185501575 -49.32429976761341 -8.034092331985732
    endloop
  endfacet
  facet normal -0.9048270524660195 0 -0.4257792915650729
    outer loop
      vertex 72.47386639912273 -48.840990424502984 -9.635073482034308
      vertex 72.47386639912273 -49.34111495928 -9.635073482034308
      vertex 71.73804325610399 -48.8245667591691 -8.071369706806975
    endloop
  endfacet
  facet normal -0.9048270524660192 5.042678046700246e-16 -0.4257792915650734
    outer loop
      vertex 71.72050185501575 -49.32429976761341 -8.034092331985732
      vertex 71.40447028223497 -48.80859050365272 -7.3624910536935575
      vertex 71.73804325610399 -48.8245667591691 -8.071369706806975
    endloop
  endfacet
  facet normal -0.9048270524660194 0 -0.4257792915650731
    outer loop
      vertex 71.72050185501575 -49.32429976761341 -8.034092331985732
      vertex 71.40447028223497 -49.3091636458374 -7.3624910536935575
      vertex 71.40447028223497 -48.80859050365272 -7.3624910536935575
    endloop
  endfacet
  facet normal -0.951056516295154 0 -0.30901699437494595
    outer loop
      vertex 71.40447028223497 -49.3091636458374 -7.3624910536935575
      vertex 70.62833677742738 -48.77141810612958 -4.973797743297097
      vertex 71.40447028223497 -48.80859050365272 -7.3624910536935575
    endloop
  endfacet
  facet normal 0 0 -1
    outer loop
      vertex 255.74596752226353 -36.59562409669161 -19.960534568565432
      vertex 269.34180004149675 -33.714767791330814 -19.960534568565432
      vertex 269.4534982740879 -34.20220114290714 -19.960534568565432
    endloop
  endfacet
  facet normal 0 0 -1
    outer loop
      vertex 241.07890039682388 -39.73120130598545 -19.960534568565432
      vertex 225.22150121629238 -42.11380086839199 -19.960534568565432
      vertex 225.15338753163815 -41.61842266470194 -19.960534568565432
    endloop
  endfacet
  facet normal 0 0 -1
    outer loop
      vertex 241.07890039682388 -39.73120130598545 -19.960534568565432
      vertex 225.15338753163815 -41.61842266470194 -19.960534568565432
      vertex 240.99765260517597 -39.237796522676945 -19.960534568565432
    endloop
  endfacet
  facet normal 0 0 1
    outer loop
      vertex 190.5657036602497 -45.531737327575684 19.960534568565432
      vertex 172.0747010409832 -47.5174006074667 19.960534568565432
      vertex 190.61109885573387 -46.0297017544508 19.960534568565432
    endloop
  endfacet
  facet normal 0 0 1
    outer loop
      vertex 208.31024410575628 -43.72025340050459 19.960534568565432
      vertex 190.5657036602497 -45.531737327575684 19.960534568565432
      vertex 190.61109885573387 -46.0297017544508 19.960534568565432
    endloop
  endfacet
  facet normal 0 0 1
    outer loop
      vertex 208.31024410575628 -43.72025340050459 19.960534568565432
      vertex 190.61109885573387 -46.0297017544508 19.960534568565432
      vertex 208.36659789085388 -44.217099100351334 19.960534568565432
    endloop
  endfacet
  facet normal 0 0 1
    outer loop
      vertex 225.15338753163815 -41.61842266470194 19.960534568565432
      vertex 208.31024410575628 -43.72025340050459 19.960534568565432
      vertex 208.36659789085388 -44.217099100351334 19.960534568565432
    endloop
  endfacet
  facet normal 0 0 1
    outer loop
      vertex 225.15338753163815 -41.61842266470194 19.960534568565432
      vertex 208.36659789085388 -44.217099100351334 19.960534568565432
      vertex 225.22150121629238 -42.11380086839199 19.960534568565432
    endloop
  endfacet
  facet normal 0 0 1
    outer loop
      vertex 240.99765260517597 -39.237796522676945 19.960534568565432
      vertex 225.15338753163815 -41.61842266470194 19.960534568565432
      vertex 225.22150121629238 -42.11380086839199 19.960534568565432
    endloop
  endfacet
  facet normal 0 0 1
    outer loop
      vertex 240.99765260517597 -39.237796522676945 19.960534568565432
      vertex 225.22150121629238 -42.11380086839199 19.960534568565432
      vertex 241.07890039682388 -39.73120130598545 19.960534568565432
    endloop
  endfacet
  facet normal 0 0 -1
    outer loop
      vertex 255.84189973771572 -37.08639815449715 -19.960534568565432
      vertex 241.07890039682388 -39.73120130598545 -19.960534568565432
      vertex 240.99765260517597 -39.237796522676945 -19.960534568565432
    endloop
  endfacet
  facet normal 0 0 -1
    outer loop
      vertex 255.84189973771572 -37.08639815449715 -19.960534568565432
      vertex 240.99765260517597 -39.237796522676945 -19.960534568565432
      vertex 255.74596752226353 -36.59562409669161 -19.960534568565432
    endloop
  endfacet
  facet normal 0 0 -1
    outer loop
      vertex 269.4534982740879 -34.20220114290714 -19.960534568565432
      vertex 255.84189973771572 -37.08639815449715 -19.960534568565432
      vertex 255.74596752226353 -36.59562409669161 -19.960534568565432
    endloop
  endfacet
  facet normal 0 0 -1
    outer loop
      vertex 225.22150121629238 -42.11380086839199 -19.960534568565432
      vertex 208.31024410575628 -43.72025340050459 -19.960534568565432
      vertex 225.15338753163815 -41.61842266470194 -19.960534568565432
    endloop
  endfacet
  facet normal 0 0 -1
    outer loop
      vertex 269.34180004149675 -33.714767791330814 -19.960534568565432
      vertex 271.25581039058625 -33.757840945863066 -19.960534568565432
      vertex 269.4534982740879 -34.20220114290714 -19.960534568565432
    endloop
  endfacet
  facet normal 0 0 -1
    outer loop
      vertex 269.34180004149675 -33.714767791330814 -19.960534568565432
      vertex 271.25581039058625 -33.24286838586985 -19.960534568565432
      vertex 271.25581039058625 -33.757840945863066 -19.960534568565432
    endloop
  endfacet
  facet normal 0.12533323356430434 0 -0.9921147013144778
    outer loop
      vertex 271.25581039058625 -33.757840945863066 -19.960534568565432
      vertex 271.25581039058625 -33.24286838586985 -19.960534568565432
      vertex 273.7476262917145 -33.14348353535297 -19.645745014573773
    endloop
  endfacet
  facet normal 0.12533323356430434 0 -0.9921147013144779
    outer loop
      vertex 273.7476262917145 -32.62851097509619 -19.645745014573773
      vertex 273.7476262917145 -33.14348353535297 -19.645745014573773
      vertex 271.25581039058625 -33.24286838586985 -19.960534568565432
    endloop
  endfacet
  facet normal 0.24868988716485743 0 -0.9685831611286305
    outer loop
      vertex 273.7476262917145 -33.14348353535297 -19.645745014573773
      vertex 273.7476262917145 -32.62851097509619 -19.645745014573773
      vertex 276.1803398874989 -32.54369780297116 -19.02113032590307
    endloop
  endfacet
  facet normal 0.24868988716485743 0 -0.9685831611286304
    outer loop
      vertex 276.1803398874989 -32.02872524245707 -19.02113032590307
      vertex 276.1803398874989 -32.54369780297116 -19.02113032590307
      vertex 273.7476262917145 -32.62851097509619 -19.645745014573773
    endloop
  endfacet
  facet normal 0.36812455268467237 0 -0.9297764858882537
    outer loop
      vertex 276.1803398874989 -32.54369780297116 -19.02113032590307
      vertex 276.1803398874989 -32.02872524245707 -19.02113032590307
      vertex 278.51558583130145 -31.967942728011906 -18.096541049320393
    endloop
  endfacet
  facet normal 0.36812455268467226 0 -0.9297764858882536
    outer loop
      vertex 278.51558583130145 -31.452970167250825 -18.096541049320393
      vertex 278.51558583130145 -31.967942728011906 -18.096541049320393
      vertex 276.1803398874989 -32.02872524245707 -19.02113032590307
    endloop
  endfacet
  facet normal 0.4817536741017158 0 -0.8763066800438633
    outer loop
      vertex 278.51558583130145 -31.967942728011906 -18.096541049320393
      vertex 278.51558583130145 -31.452970167250825 -18.096541049320393
      vertex 280.7165358995799 -31.425298311946754 -16.886558510040306
    endloop
  endfacet
  facet normal 0.48175367410171577 0 -0.8763066800438633
    outer loop
      vertex 278.51558583130145 -31.452970167250825 -18.096541049320393
      vertex 280.7165358995799 -30.91032575095288 -16.886558510040306
      vertex 280.7165358995799 -31.425298311946754 -16.886558510040306
    endloop
  endfacet
  facet normal 0.5877852522924659 0 -0.8090169943749526
    outer loop
      vertex 280.7165358995799 -30.91032575095288 -16.886558510040306
      vertex 281.84530079364777 -31.14700123667717 -16.066462810380568
      vertex 280.7165358995799 -31.425298311946754 -16.886558510040306
    endloop
  endfacet
  facet normal 0.5877852522924659 -1.0461640236118106e-15 -0.8090169943749527
    outer loop
      vertex 280.7165358995799 -30.91032575095288 -16.886558510040306
      vertex 281.71684738248587 -30.663698874413967 -16.159789676457045
      vertex 281.84530079364777 -31.14700123667717 -16.066462810380568
    endloop
  endfacet
  facet normal 0 0 1
    outer loop
      vertex 92.40580037236214 -49.78599824011326 19.960534568565432
      vertex 112.91009210050106 -49.32019007951021 19.960534568565432
      vertex 92.411796502769 -49.28600753843784 19.960534568565432
    endloop
  endfacet
  facet normal -0.5877852522924736 0 0.8090169943749471
    outer loop
      vertex 79.28346410042006 -48.992981503834464 16.8865585100403
      vertex 77.25152020502621 -49.44775279496165 15.410264855515788
      vertex 79.28346410042006 -49.49310603905054 16.8865585100403
    endloop
  endfacet
  facet normal -0.48175367410171444 0 0.8763066800438639
    outer loop
      vertex 79.28346410042006 -49.49310603905054 16.8865585100403
      vertex 81.48441416869855 -49.04210698688152 18.09654104932039
      vertex 79.28346410042006 -48.992981503834464 16.8865585100403
    endloop
  endfacet
  facet normal -0.5877852522924736 0 0.8090169943749471
    outer loop
      vertex 77.25152020502621 -49.44775279496165 15.410264855515788
      vertex 79.28346410042006 -48.992981503834464 16.8865585100403
      vertex 77.25152020502621 -48.94762825987659 15.410264855515788
    endloop
  endfacet
  facet normal -0.4817536741017146 0 0.876306680043864
    outer loop
      vertex 81.48441416869855 -49.04210698688152 18.09654104932039
      vertex 79.28346410042006 -49.49310603905054 16.8865585100403
      vertex 81.48441416869855 -49.542231522239504 18.09654104932039
    endloop
  endfacet
  facet normal -0.3681245526846774 0 0.9297764858882517
    outer loop
      vertex 83.81966011250105 -49.09422997080396 19.02113032590307
      vertex 81.48441416869855 -49.542231522239504 18.09654104932039
      vertex 83.81966011250105 -49.59435450631251 19.02113032590307
    endloop
  endfacet
  facet normal -0.3681245526846775 0 0.9297764858882517
    outer loop
      vertex 81.48441416869855 -49.542231522239504 18.09654104932039
      vertex 83.81966011250105 -49.09422997080396 19.02113032590307
      vertex 81.48441416869855 -49.04210698688152 18.09654104932039
    endloop
  endfacet
  facet normal -0.24868988716485604 0 0.9685831611286307
    outer loop
      vertex 83.81966011250105 -49.09422997080396 19.02113032590307
      vertex 83.81966011250105 -49.59435450631251 19.02113032590307
      vertex 86.2523737082855 -49.148528445008566 19.645745014573773
    endloop
  endfacet
  facet normal -0.24868988716485602 0 0.9685831611286307
    outer loop
      vertex 86.2523737082855 -49.64865298067397 19.645745014573773
      vertex 86.2523737082855 -49.148528445008566 19.645745014573773
      vertex 83.81966011250105 -49.59435450631251 19.02113032590307
    endloop
  endfacet
  facet normal -0.12533323356430434 0 0.9921147013144778
    outer loop
      vertex 86.2523737082855 -49.148528445008566 19.645745014573773
      vertex 86.2523737082855 -49.64865298067397 19.645745014573773
      vertex 88.74418960941374 -49.204146090120794 19.960534568565432
    endloop
  endfacet
  facet normal -0.1253332335643043 0 0.9921147013144779
    outer loop
      vertex 88.74418960941374 -49.70427062594687 19.960534568565432
      vertex 88.74418960941374 -49.204146090120794 19.960534568565432
      vertex 86.2523737082855 -49.64865298067397 19.645745014573773
    endloop
  endfacet
  facet normal 0 0 1
    outer loop
      vertex 92.411796502769 -49.28600753843784 19.960534568565432
      vertex 88.74418960941374 -49.204146090120794 19.960534568565432
      vertex 88.74418960941374 -49.70427062594687 19.960534568565432
    endloop
  endfacet
  facet normal 0 0 1
    outer loop
      vertex 88.74418960941374 -49.70427062594687 19.960534568565432
      vertex 92.40580037236214 -49.78599824011326 19.960534568565432
      vertex 92.411796502769 -49.28600753843784 19.960534568565432
    endloop
  endfacet
  facet normal 0.5877852522924673 -5.738049289724306e-16 -0.8090169943749518
    outer loop
      vertex 281.71684738248587 -30.663698874413967 -16.159789676457045
      vertex 282.74847979497383 -30.889414004698484 -15.41026485551578
      vertex 281.84530079364777 -31.14700123667717 -16.066462810380568
    endloop
  endfacet
  facet normal 0 0 1
    outer loop
      vertex 92.40580037236214 -49.78599824011326 19.960534568565432
      vertex 112.91440099477768 -49.820197969675064 19.960534568565432
      vertex 112.91009210050106 -49.32019007951021 19.960534568565432
    endloop
  endfacet
  facet normal 0 0 1
    outer loop
      vertex 112.91440099477768 -49.820197969675064 19.960534568565432
      vertex 133.1006709113717 -48.93848702311516 19.960534568565432
      vertex 112.91009210050106 -49.32019007951021 19.960534568565432
    endloop
  endfacet
  facet normal 0 0 1
    outer loop
      vertex 112.91440099477768 -49.820197969675064 19.960534568565432
      vertex 133.11519980430603 -49.43830169737339 19.960534568565432
      vertex 133.1006709113717 -48.93848702311516 19.960534568565432
    endloop
  endfacet
  facet normal 0 0 1
    outer loop
      vertex 133.11519980430603 -49.43830169737339 19.960534568565432
      vertex 152.84670436382294 -48.16368208825588 19.960534568565432
      vertex 133.1006709113717 -48.93848702311516 19.960534568565432
    endloop
  endfacet
  facet normal 0 0 1
    outer loop
      vertex 152.84670436382294 -48.16368208825588 19.960534568565432
      vertex 133.11519980430603 -49.43830169737339 19.960534568565432
      vertex 152.87139788269997 -48.6630979180336 19.960534568565432
    endloop
  endfacet
  facet normal 0 0 1
    outer loop
      vertex 172.0398079827428 -47.01859329640865 19.960534568565432
      vertex 152.84670436382294 -48.16368208825588 19.960534568565432
      vertex 152.87139788269997 -48.6630979180336 19.960534568565432
    endloop
  endfacet
  facet normal 0 0 1
    outer loop
      vertex 172.0398079827428 -47.01859329640865 19.960534568565432
      vertex 152.87139788269997 -48.6630979180336 19.960534568565432
      vertex 172.0747010409832 -47.5174006074667 19.960534568565432
    endloop
  endfacet
  facet normal 0 0 1
    outer loop
      vertex 190.5657036602497 -45.531737327575684 19.960534568565432
      vertex 172.0398079827428 -47.01859329640865 19.960534568565432
      vertex 172.0747010409832 -47.5174006074667 19.960534568565432
    endloop
  endfacet
  facet normal 0 0 -1
    outer loop
      vertex 190.61109885573387 -46.0297017544508 -19.960534568565432
      vertex 172.0398079827428 -47.01859329640865 -19.960534568565432
      vertex 190.5657036602497 -45.531737327575684 -19.960534568565432
    endloop
  endfacet
  facet normal 0 0 -1
    outer loop
      vertex 190.5657036602497 -45.531737327575684 -19.960534568565432
      vertex 208.36659789085388 -44.217099100351334 -19.960534568565432
      vertex 190.61109885573387 -46.0297017544508 -19.960534568565432
    endloop
  endfacet
  facet normal 0 0 -1
    outer loop
      vertex 208.36659789085388 -44.217099100351334 -19.960534568565432
      vertex 190.5657036602497 -45.531737327575684 -19.960534568565432
      vertex 208.31024410575628 -43.72025340050459 -19.960534568565432
    endloop
  endfacet
  facet normal 0 0 -1
    outer loop
      vertex 225.22150121629238 -42.11380086839199 -19.960534568565432
      vertex 208.36659789085388 -44.217099100351334 -19.960534568565432
      vertex 208.31024410575628 -43.72025340050459 -19.960534568565432
    endloop
  endfacet
endsolid OpenSCAD_Model
