solid OpenSCAD_Model
  facet normal -0.6845471059286896 0 -0.7289686274214106
    outer loop
      vertex 79.1918850542325 -15 -19.108728420839576
      vertex 76.921578039949 -15.6 -16.976768227031474
      vertex 76.921578039949 -15 -16.976768227031474
    endloop
  endfacet
  facet normal 0 -1 0
    outer loop
      vertex 283.078421960051 -15.6 -16.976768227031474
      vertex 278.2885045154791 -15.6 -20.93933255244998
      vertex 280.8081149457675 -15.6 -19.10872842083957
    endloop
  endfacet
  facet normal -0.5877852522924734 0 -0.8090169943749473
    outer loop
      vertex 81.71149548452088 -15 -20.939332552449972
      vertex 81.71149548452088 -15.6 -20.939332552449972
      vertex 79.1918850542325 -15 -19.108728420839576
    endloop
  endfacet
  facet normal -0.24868988716485563 0 0.9685831611286309
    outer loop
      vertex 90.35294339827404 -15 24.36072381807148
      vertex 87.33637853950131 -15 23.586201604119807
      vertex 90.35294339827404 -15.6 24.36072381807148
    endloop
  endfacet
  facet normal 0 -1 0
    outer loop
      vertex 70.39555540740095 -15.6 3.1082641923947407
      vertex 278.2885045154791 -15.6 -20.93933255244998
      vertex 70.97913760400995 -15.6 6.1675092016884
    endloop
  endfacet
  facet normal 0 1 0
    outer loop
      vertex 76.921578039949 -15 16.976768227031474
      vertex 73.26759433491219 -15 -11.947491117722542
      vertex 74.9363785395013 -15 14.577074256853335
    endloop
  endfacet
  facet normal 0 1 0
    outer loop
      vertex 70.2 -15 0
      vertex 73.26759433491219 -15 -11.947491117722542
      vertex 70.39555540740095 -15 -3.1082641923947407
    endloop
  endfacet
  facet normal 0.9510565162951542 0 -0.3090169943749457
    outer loop
      vertex 288.0584568500286 -15.6 -9.129488906580024
      vertex 289.02086239599004 -15 -6.16750920168839
      vertex 289.02086239599004 -15.6 -6.16750920168839
    endloop
  endfacet
  facet normal 0 1 0
    outer loop
      vertex 71.94154314997137 -15 9.129488906580011
      vertex 73.26759433491219 -15 -11.947491117722542
      vertex 70.97913760400995 -15 6.1675092016884
    endloop
  endfacet
  facet normal -0.3681245526846765 0 -0.929776485888252
    outer loop
      vertex 84.4406735691862 -15.6 -22.439710901157287
      vertex 87.33637853950131 -15 -23.586201604119807
      vertex 87.33637853950131 -15.6 -23.586201604119807
    endloop
  endfacet
  facet normal -0.6845471059286896 0 -0.7289686274214106
    outer loop
      vertex 79.1918850542325 -15.6 -19.108728420839576
      vertex 76.921578039949 -15.6 -16.976768227031474
      vertex 79.1918850542325 -15 -19.108728420839576
    endloop
  endfacet
  facet normal 0.3681245526846743 0 0.9297764858882528
    outer loop
      vertex 275.5593264308138 -15 22.439710901157284
      vertex 272.6636214604987 -15.6 23.586201604119807
      vertex 275.5593264308138 -15.6 22.439710901157284
    endloop
  endfacet
  facet normal -0.48175367410171466 0 0.8763066800438639
    outer loop
      vertex 84.4406735691862 -15.6 22.439710901157284
      vertex 81.71149548452088 -15 20.939332552449972
      vertex 81.71149548452088 -15.6 20.939332552449972
    endloop
  endfacet
  facet normal -0.9048270524660191 0 0.4257792915650734
    outer loop
      vertex 71.94154314997137 -15.6 9.129488906580011
      vertex 73.26759433491219 -15 11.947491117722542
      vertex 71.94154314997137 -15 9.129488906580011
    endloop
  endfacet
  facet normal 0.982287250728687 0 0.1873813145857342
    outer loop
      vertex 289.60444459259907 -15.6 3.1082641923947456
      vertex 289.60444459259907 -15 3.1082641923947456
      vertex 289.02086239599004 -15.6 6.167509201688399
    endloop
  endfacet
  facet normal 0 -1 0
    outer loop
      vertex 70.97913760400995 -15.6 -6.1675092016884
      vertex 278.2885045154791 -15.6 -20.93933255244998
      vertex 70.39555540740095 -15.6 -3.1082641923947407
    endloop
  endfacet
  facet normal 0 1 0
    outer loop
      vertex 70.39555540740095 -15 3.1082641923947407
      vertex 73.26759433491219 -15 -11.947491117722542
      vertex 70.2 -15 0
    endloop
  endfacet
  facet normal 0 1 0
    outer loop
      vertex 289.8 -15 0
      vertex 73.26759433491219 -15 -11.947491117722542
      vertex 289.60444459259907 -15 3.1082641923947456
    endloop
  endfacet
  facet normal 0 -1 0
    outer loop
      vertex 71.94154314997137 -15.6 9.129488906580011
      vertex 278.2885045154791 -15.6 -20.93933255244998
      vertex 73.26759433491219 -15.6 11.947491117722542
    endloop
  endfacet
  facet normal 0 -1 0
    outer loop
      vertex 280.8081149457675 -15.6 19.108728420839572
      vertex 278.2885045154791 -15.6 -20.93933255244998
      vertex 283.078421960051 -15.6 16.97676822703148
    endloop
  endfacet
  facet normal 0 -1 0
    outer loop
      vertex 289.60444459259907 -15.6 -3.1082641923947407
      vertex 278.2885045154791 -15.6 -20.93933255244998
      vertex 289.02086239599004 -15.6 -6.16750920168839
    endloop
  endfacet
  facet normal 0.48175367410172343 0 -0.876306680043859
    outer loop
      vertex 278.2885045154791 -15 -20.93933255244998
      vertex 278.2885045154791 -15.6 -20.93933255244998
      vertex 275.5593264308138 -15 -22.439710901157287
    endloop
  endfacet
  facet normal 0 0 1
    outer loop
      vertex 266.55720488432695 -15 24.751062865021137
      vertex 93.44279511567304 -15.6 24.751062865021137
      vertex 266.55720488432695 -15.6 24.751062865021137
    endloop
  endfacet
  facet normal 0 0 1
    outer loop
      vertex 93.44279511567304 -15 24.751062865021137
      vertex 93.44279511567304 -15.6 24.751062865021137
      vertex 266.55720488432695 -15 24.751062865021137
    endloop
  endfacet
  facet normal -0.9510565162951535 0 0.30901699437494773
    outer loop
      vertex 71.94154314997137 -15 9.129488906580011
      vertex 70.97913760400995 -15.6 6.1675092016884
      vertex 71.94154314997137 -15.6 9.129488906580011
    endloop
  endfacet
  facet normal 0 1 0
    outer loop
      vertex 79.1918850542325 -15 -19.108728420839576
      vertex 73.26759433491219 -15 -11.947491117722542
      vertex 81.71149548452088 -15 -20.939332552449972
    endloop
  endfacet
  facet normal 0.8443279255020116 0 0.5358267949790021
    outer loop
      vertex 286.7324056650878 -15.6 11.94749111772254
      vertex 286.7324056650878 -15 11.94749111772254
      vertex 285.06362146049867 -15.6 14.577074256853335
    endloop
  endfacet
  facet normal 0.9048270524660206 0 0.4257792915650703
    outer loop
      vertex 288.0584568500286 -15 9.129488906580015
      vertex 286.7324056650878 -15 11.94749111772254
      vertex 288.0584568500286 -15.6 9.129488906580015
    endloop
  endfacet
  facet normal -0.9048270524660191 0 -0.4257792915650734
    outer loop
      vertex 71.94154314997137 -15.6 -9.129488906580011
      vertex 73.26759433491219 -15 -11.947491117722542
      vertex 73.26759433491219 -15.6 -11.947491117722542
    endloop
  endfacet
  facet normal 0 1 0
    outer loop
      vertex 289.60444459259907 -15 -3.1082641923947407
      vertex 73.26759433491219 -15 -11.947491117722542
      vertex 289.8 -15 0
    endloop
  endfacet
  facet normal -0.12533323356430429 0 0.9921147013144778
    outer loop
      vertex 93.44279511567304 -15 24.751062865021137
      vertex 90.35294339827404 -15 24.36072381807148
      vertex 93.44279511567304 -15.6 24.751062865021137
    endloop
  endfacet
  facet normal 0.8443279255020114 0 -0.5358267949790023
    outer loop
      vertex 285.06362146049867 -15 -14.577074256853335
      vertex 286.7324056650878 -15 -11.947491117722542
      vertex 285.06362146049867 -15.6 -14.577074256853335
    endloop
  endfacet
  facet normal -0.12533323356430542 0 -0.9921147013144777
    outer loop
      vertex 90.35294339827402 -15.6 -24.360723818071477
      vertex 90.35294339827402 -15 -24.360723818071477
      vertex 93.44279511567302 -15.6 -24.751062865021137
    endloop
  endfacet
  facet normal -0.7705132427757883 0 0.637423989748691
    outer loop
      vertex 76.921578039949 -15 16.976768227031474
      vertex 74.9363785395013 -15.6 14.577074256853335
      vertex 76.921578039949 -15.6 16.976768227031474
    endloop
  endfacet
  facet normal 0 -1 0
    outer loop
      vertex 269.647056601726 -15.6 -24.360723818071477
      vertex 278.2885045154791 -15.6 -20.93933255244998
      vertex 266.557204884327 -15.6 -24.751062865021137
    endloop
  endfacet
  facet normal -0.8443279255020155 0 -0.5358267949789959
    outer loop
      vertex 74.9363785395013 -15.6 -14.577074256853335
      vertex 73.26759433491219 -15 -11.947491117722542
      vertex 74.9363785395013 -15 -14.577074256853335
    endloop
  endfacet
  facet normal -0.5877852522924734 0 -0.8090169943749473
    outer loop
      vertex 79.1918850542325 -15 -19.108728420839576
      vertex 81.71149548452088 -15.6 -20.939332552449972
      vertex 79.1918850542325 -15.6 -19.108728420839576
    endloop
  endfacet
  facet normal 0 -1 0
    outer loop
      vertex 266.557204884327 -15.6 -24.751062865021137
      vertex 278.2885045154791 -15.6 -20.93933255244998
      vertex 93.44279511567302 -15.6 -24.751062865021137
    endloop
  endfacet
  facet normal 0 -1 0
    outer loop
      vertex 79.1918850542325 -15.6 19.108728420839576
      vertex 278.2885045154791 -15.6 -20.93933255244998
      vertex 81.71149548452088 -15.6 20.939332552449972
    endloop
  endfacet
  facet normal -0.6845471059286896 0 0.7289686274214106
    outer loop
      vertex 76.921578039949 -15 16.976768227031474
      vertex 79.1918850542325 -15.6 19.108728420839576
      vertex 79.1918850542325 -15 19.108728420839576
    endloop
  endfacet
  facet normal -0.9980267284282716 0 -0.06279051952931211
    outer loop
      vertex 70.2 -15.6 0
      vertex 70.39555540740095 -15 -3.1082641923947407
      vertex 70.39555540740095 -15.6 -3.1082641923947407
    endloop
  endfacet
  facet normal 0 -1 0
    outer loop
      vertex 70.97913760400995 -15.6 6.1675092016884
      vertex 278.2885045154791 -15.6 -20.93933255244998
      vertex 71.94154314997137 -15.6 9.129488906580011
    endloop
  endfacet
  facet normal 0.8443279255020116 0 0.5358267949790021
    outer loop
      vertex 285.06362146049867 -15.6 14.577074256853335
      vertex 286.7324056650878 -15 11.94749111772254
      vertex 285.06362146049867 -15 14.577074256853335
    endloop
  endfacet
  facet normal 0.5877852522924698 0 -0.8090169943749498
    outer loop
      vertex 280.8081149457675 -15 -19.10872842083957
      vertex 278.2885045154791 -15.6 -20.93933255244998
      vertex 278.2885045154791 -15 -20.93933255244998
    endloop
  endfacet
  facet normal 0 1 0
    outer loop
      vertex 81.71149548452088 -15 -20.939332552449972
      vertex 73.26759433491219 -15 -11.947491117722542
      vertex 84.4406735691862 -15 -22.439710901157287
    endloop
  endfacet
  facet normal 0.48175367410172343 0 -0.876306680043859
    outer loop
      vertex 275.5593264308138 -15 -22.439710901157287
      vertex 278.2885045154791 -15.6 -20.93933255244998
      vertex 275.5593264308138 -15.6 -22.439710901157287
    endloop
  endfacet
  facet normal -0.12533323356430542 0 -0.9921147013144777
    outer loop
      vertex 93.44279511567302 -15.6 -24.751062865021137
      vertex 90.35294339827402 -15 -24.360723818071477
      vertex 93.44279511567302 -15 -24.751062865021137
    endloop
  endfacet
  facet normal 0 -1 0
    outer loop
      vertex 286.7324056650878 -15.6 11.94749111772254
      vertex 278.2885045154791 -15.6 -20.93933255244998
      vertex 288.0584568500286 -15.6 9.129488906580015
    endloop
  endfacet
  facet normal 0 -1 0
    outer loop
      vertex 81.71149548452088 -15.6 20.939332552449972
      vertex 278.2885045154791 -15.6 -20.93933255244998
      vertex 84.4406735691862 -15.6 22.439710901157284
    endloop
  endfacet
  facet normal 0 -1 0
    outer loop
      vertex 93.44279511567304 -15.6 24.751062865021137
      vertex 278.2885045154791 -15.6 -20.93933255244998
      vertex 266.55720488432695 -15.6 24.751062865021137
    endloop
  endfacet
  facet normal 0.4817536741017157 0 0.8763066800438634
    outer loop
      vertex 275.5593264308138 -15 22.439710901157284
      vertex 278.28850451547913 -15.6 20.939332552449976
      vertex 278.28850451547913 -15 20.939332552449976
    endloop
  endfacet
  facet normal -0.9822872507286887 0 -0.18738131458572505
    outer loop
      vertex 70.39555540740095 -15 -3.1082641923947407
      vertex 70.97913760400995 -15 -6.1675092016884
      vertex 70.39555540740095 -15.6 -3.1082641923947407
    endloop
  endfacet
  facet normal 0 1 0
    outer loop
      vertex 87.33637853950131 -15 23.586201604119807
      vertex 73.26759433491219 -15 -11.947491117722542
      vertex 84.4406735691862 -15 22.439710901157284
    endloop
  endfacet
  facet normal 0.587785252292477 0 0.8090169943749447
    outer loop
      vertex 278.28850451547913 -15 20.939332552449976
      vertex 280.8081149457675 -15.6 19.108728420839572
      vertex 280.8081149457675 -15 19.108728420839572
    endloop
  endfacet
  facet normal -0.48175367410171466 0 0.8763066800438639
    outer loop
      vertex 84.4406735691862 -15 22.439710901157284
      vertex 81.71149548452088 -15 20.939332552449972
      vertex 84.4406735691862 -15.6 22.439710901157284
    endloop
  endfacet
  facet normal 0 1 0
    outer loop
      vertex 74.9363785395013 -15 14.577074256853335
      vertex 73.26759433491219 -15 -11.947491117722542
      vertex 73.26759433491219 -15 11.947491117722542
    endloop
  endfacet
  facet normal 0 0 -1
    outer loop
      vertex 93.44279511567302 -15 -24.751062865021137
      vertex 266.557204884327 -15.6 -24.751062865021137
      vertex 93.44279511567302 -15.6 -24.751062865021137
    endloop
  endfacet
  facet normal -0.7705132427757883 0 -0.637423989748691
    outer loop
      vertex 76.921578039949 -15 -16.976768227031474
      vertex 76.921578039949 -15.6 -16.976768227031474
      vertex 74.9363785395013 -15 -14.577074256853335
    endloop
  endfacet
  facet normal 0.6845471059286877 0 0.7289686274214123
    outer loop
      vertex 283.078421960051 -15 16.97676822703148
      vertex 280.8081149457675 -15.6 19.108728420839572
      vertex 283.078421960051 -15.6 16.97676822703148
    endloop
  endfacet
  facet normal -0.5877852522924734 0 0.8090169943749473
    outer loop
      vertex 81.71149548452088 -15.6 20.939332552449972
      vertex 81.71149548452088 -15 20.939332552449972
      vertex 79.1918850542325 -15.6 19.108728420839576
    endloop
  endfacet
  facet normal -0.9980267284282716 0 0.06279051952931211
    outer loop
      vertex 70.2 -15 0
      vertex 70.2 -15.6 0
      vertex 70.39555540740095 -15 3.1082641923947407
    endloop
  endfacet
  facet normal 0.9980267284282716 0 -0.06279051952931211
    outer loop
      vertex 289.8 -15 0
      vertex 289.8 -15.6 0
      vertex 289.60444459259907 -15 -3.1082641923947407
    endloop
  endfacet
  facet normal -0.48175367410171555 0 -0.8763066800438635
    outer loop
      vertex 84.4406735691862 -15 -22.439710901157287
      vertex 81.71149548452088 -15.6 -20.939332552449972
      vertex 81.71149548452088 -15 -20.939332552449972
    endloop
  endfacet
  facet normal 0 1 0
    outer loop
      vertex 79.1918850542325 -15 19.108728420839576
      vertex 73.26759433491219 -15 -11.947491117722542
      vertex 76.921578039949 -15 16.976768227031474
    endloop
  endfacet
  facet normal 0 -1 0
    outer loop
      vertex 278.28850451547913 -15.6 20.939332552449976
      vertex 278.2885045154791 -15.6 -20.93933255244998
      vertex 280.8081149457675 -15.6 19.108728420839572
    endloop
  endfacet
  facet normal 0 1 0
    outer loop
      vertex 70.97913760400995 -15 6.1675092016884
      vertex 73.26759433491219 -15 -11.947491117722542
      vertex 70.39555540740095 -15 3.1082641923947407
    endloop
  endfacet
  facet normal 0.6845471059286885 0 -0.7289686274214118
    outer loop
      vertex 280.8081149457675 -15.6 -19.10872842083957
      vertex 283.078421960051 -15 -16.976768227031474
      vertex 283.078421960051 -15.6 -16.976768227031474
    endloop
  endfacet
  facet normal 0 -1 0
    outer loop
      vertex 74.9363785395013 -15.6 -14.577074256853335
      vertex 278.2885045154791 -15.6 -20.93933255244998
      vertex 73.26759433491219 -15.6 -11.947491117722542
    endloop
  endfacet
  facet normal -0.8443279255020155 0 0.5358267949789959
    outer loop
      vertex 74.9363785395013 -15.6 14.577074256853335
      vertex 73.26759433491219 -15 11.947491117722542
      vertex 73.26759433491219 -15.6 11.947491117722542
    endloop
  endfacet
  facet normal -0.9980267284282716 0 -0.06279051952931211
    outer loop
      vertex 70.2 -15 0
      vertex 70.39555540740095 -15 -3.1082641923947407
      vertex 70.2 -15.6 0
    endloop
  endfacet
  facet normal 0.9510565162951542 0 -0.3090169943749457
    outer loop
      vertex 288.0584568500286 -15 -9.129488906580024
      vertex 289.02086239599004 -15 -6.16750920168839
      vertex 288.0584568500286 -15.6 -9.129488906580024
    endloop
  endfacet
  facet normal 0 1 0
    outer loop
      vertex 275.5593264308138 -15 -22.439710901157287
      vertex 73.26759433491219 -15 -11.947491117722542
      vertex 278.2885045154791 -15 -20.93933255244998
    endloop
  endfacet
  facet normal 0.6845471059286877 0 0.7289686274214123
    outer loop
      vertex 280.8081149457675 -15 19.108728420839572
      vertex 280.8081149457675 -15.6 19.108728420839572
      vertex 283.078421960051 -15 16.97676822703148
    endloop
  endfacet
  facet normal -0.24868988716485568 0 -0.9685831611286309
    outer loop
      vertex 90.35294339827402 -15.6 -24.360723818071477
      vertex 87.33637853950131 -15 -23.586201604119807
      vertex 90.35294339827402 -15 -24.360723818071477
    endloop
  endfacet
  facet normal -0.24868988716485563 0 0.9685831611286309
    outer loop
      vertex 90.35294339827404 -15.6 24.36072381807148
      vertex 87.33637853950131 -15 23.586201604119807
      vertex 87.33637853950131 -15.6 23.586201604119807
    endloop
  endfacet
  facet normal -0.3681245526846765 0 -0.929776485888252
    outer loop
      vertex 84.4406735691862 -15 -22.439710901157287
      vertex 87.33637853950131 -15 -23.586201604119807
      vertex 84.4406735691862 -15.6 -22.439710901157287
    endloop
  endfacet
  facet normal 0 1 0
    outer loop
      vertex 76.921578039949 -15 -16.976768227031474
      vertex 73.26759433491219 -15 -11.947491117722542
      vertex 79.1918850542325 -15 -19.108728420839576
    endloop
  endfacet
  facet normal 0.587785252292477 0 0.8090169943749447
    outer loop
      vertex 278.28850451547913 -15.6 20.939332552449976
      vertex 280.8081149457675 -15.6 19.108728420839572
      vertex 278.28850451547913 -15 20.939332552449976
    endloop
  endfacet
  facet normal -0.12533323356430429 0 0.9921147013144778
    outer loop
      vertex 93.44279511567304 -15.6 24.751062865021137
      vertex 90.35294339827404 -15 24.36072381807148
      vertex 90.35294339827404 -15.6 24.36072381807148
    endloop
  endfacet
  facet normal -0.24868988716485568 0 -0.9685831611286309
    outer loop
      vertex 87.33637853950131 -15.6 -23.586201604119807
      vertex 87.33637853950131 -15 -23.586201604119807
      vertex 90.35294339827402 -15.6 -24.360723818071477
    endloop
  endfacet
  facet normal 0.8443279255020114 0 -0.5358267949790023
    outer loop
      vertex 285.06362146049867 -15.6 -14.577074256853335
      vertex 286.7324056650878 -15 -11.947491117722542
      vertex 286.7324056650878 -15.6 -11.947491117722542
    endloop
  endfacet
  facet normal 0 1 0
    outer loop
      vertex 90.35294339827404 -15 24.36072381807148
      vertex 73.26759433491219 -15 -11.947491117722542
      vertex 87.33637853950131 -15 23.586201604119807
    endloop
  endfacet
  facet normal 0.9510565162951535 0 0.30901699437494734
    outer loop
      vertex 288.0584568500286 -15 9.129488906580015
      vertex 289.02086239599004 -15.6 6.167509201688399
      vertex 289.02086239599004 -15 6.167509201688399
    endloop
  endfacet
  facet normal 0.3681245526846743 0 0.9297764858882528
    outer loop
      vertex 272.6636214604987 -15 23.586201604119807
      vertex 272.6636214604987 -15.6 23.586201604119807
      vertex 275.5593264308138 -15 22.439710901157284
    endloop
  endfacet
  facet normal 0.24868988716485568 0 -0.9685831611286309
    outer loop
      vertex 272.6636214604987 -15.6 -23.586201604119807
      vertex 269.647056601726 -15 -24.360723818071477
      vertex 272.6636214604987 -15 -23.586201604119807
    endloop
  endfacet
  facet normal 0.24868988716485677 0 0.9685831611286306
    outer loop
      vertex 269.647056601726 -15 24.36072381807148
      vertex 272.6636214604987 -15.6 23.586201604119807
      vertex 272.6636214604987 -15 23.586201604119807
    endloop
  endfacet
  facet normal 0 1 0
    outer loop
      vertex 286.7324056650878 -15 -11.947491117722542
      vertex 73.26759433491219 -15 -11.947491117722542
      vertex 288.0584568500286 -15 -9.129488906580024
    endloop
  endfacet
  facet normal 0.9980267284282717 0 0.06279051952931203
    outer loop
      vertex 289.8 -15.6 0
      vertex 289.60444459259907 -15 3.1082641923947456
      vertex 289.60444459259907 -15.6 3.1082641923947456
    endloop
  endfacet
  facet normal 0 -1 0
    outer loop
      vertex 73.26759433491219 -15.6 11.947491117722542
      vertex 278.2885045154791 -15.6 -20.93933255244998
      vertex 74.9363785395013 -15.6 14.577074256853335
    endloop
  endfacet
  facet normal 0 -1 0
    outer loop
      vertex 70.2 -15.6 0
      vertex 278.2885045154791 -15.6 -20.93933255244998
      vertex 70.39555540740095 -15.6 3.1082641923947407
    endloop
  endfacet
  facet normal 0 1 0
    outer loop
      vertex 288.0584568500286 -15 9.129488906580015
      vertex 73.26759433491219 -15 -11.947491117722542
      vertex 286.7324056650878 -15 11.94749111772254
    endloop
  endfacet
  facet normal 0 0 -1
    outer loop
      vertex 266.557204884327 -15 -24.751062865021137
      vertex 266.557204884327 -15.6 -24.751062865021137
      vertex 93.44279511567302 -15 -24.751062865021137
    endloop
  endfacet
  facet normal 0 1 0
    outer loop
      vertex 70.39555540740095 -15 -3.1082641923947407
      vertex 73.26759433491219 -15 -11.947491117722542
      vertex 70.97913760400995 -15 -6.1675092016884
    endloop
  endfacet
  facet normal 0.9048270524660201 0 -0.42577929156507116
    outer loop
      vertex 288.0584568500286 -15.6 -9.129488906580024
      vertex 286.7324056650878 -15 -11.947491117722542
      vertex 288.0584568500286 -15 -9.129488906580024
    endloop
  endfacet
  facet normal 0.9980267284282716 0 -0.06279051952931211
    outer loop
      vertex 289.60444459259907 -15 -3.1082641923947407
      vertex 289.8 -15.6 0
      vertex 289.60444459259907 -15.6 -3.1082641923947407
    endloop
  endfacet
  facet normal 0 -1 0
    outer loop
      vertex 289.60444459259907 -15.6 3.1082641923947456
      vertex 278.2885045154791 -15.6 -20.93933255244998
      vertex 289.8 -15.6 0
    endloop
  endfacet
  facet normal -0.7705132427757883 0 0.637423989748691
    outer loop
      vertex 74.9363785395013 -15 14.577074256853335
      vertex 74.9363785395013 -15.6 14.577074256853335
      vertex 76.921578039949 -15 16.976768227031474
    endloop
  endfacet
  facet normal -0.48175367410171555 0 -0.8763066800438635
    outer loop
      vertex 84.4406735691862 -15.6 -22.439710901157287
      vertex 81.71149548452088 -15.6 -20.939332552449972
      vertex 84.4406735691862 -15 -22.439710901157287
    endloop
  endfacet
  facet normal 0 -1 0
    outer loop
      vertex 70.39555540740095 -15.6 -3.1082641923947407
      vertex 278.2885045154791 -15.6 -20.93933255244998
      vertex 70.2 -15.6 0
    endloop
  endfacet
  facet normal -0.9980267284282716 0 0.06279051952931211
    outer loop
      vertex 70.39555540740095 -15 3.1082641923947407
      vertex 70.2 -15.6 0
      vertex 70.39555540740095 -15.6 3.1082641923947407
    endloop
  endfacet
  facet normal 0 1 0
    outer loop
      vertex 285.06362146049867 -15 -14.577074256853335
      vertex 73.26759433491219 -15 -11.947491117722542
      vertex 286.7324056650878 -15 -11.947491117722542
    endloop
  endfacet
  facet normal 0.5877852522924698 0 -0.8090169943749498
    outer loop
      vertex 280.8081149457675 -15.6 -19.10872842083957
      vertex 278.2885045154791 -15.6 -20.93933255244998
      vertex 280.8081149457675 -15 -19.10872842083957
    endloop
  endfacet
  facet normal 0.7705132427757927 0 -0.6374239897486855
    outer loop
      vertex 283.078421960051 -15.6 -16.976768227031474
      vertex 283.078421960051 -15 -16.976768227031474
      vertex 285.06362146049867 -15.6 -14.577074256853335
    endloop
  endfacet
  facet normal 0.36812455268467337 0 -0.9297764858882532
    outer loop
      vertex 272.6636214604987 -15 -23.586201604119807
      vertex 275.5593264308138 -15 -22.439710901157287
      vertex 272.6636214604987 -15.6 -23.586201604119807
    endloop
  endfacet
  facet normal 0 -1 0
    outer loop
      vertex 288.0584568500286 -15.6 9.129488906580015
      vertex 278.2885045154791 -15.6 -20.93933255244998
      vertex 289.02086239599004 -15.6 6.167509201688399
    endloop
  endfacet
  facet normal 0 -1 0
    outer loop
      vertex 272.6636214604987 -15.6 23.586201604119807
      vertex 278.2885045154791 -15.6 -20.93933255244998
      vertex 275.5593264308138 -15.6 22.439710901157284
    endloop
  endfacet
  facet normal 0.982287250728687 0 0.1873813145857342
    outer loop
      vertex 289.02086239599004 -15.6 6.167509201688399
      vertex 289.60444459259907 -15 3.1082641923947456
      vertex 289.02086239599004 -15 6.167509201688399
    endloop
  endfacet
  facet normal 0.9980267284282717 0 0.06279051952931203
    outer loop
      vertex 289.8 -15 0
      vertex 289.60444459259907 -15 3.1082641923947456
      vertex 289.8 -15.6 0
    endloop
  endfacet
  facet normal 0 1 0
    outer loop
      vertex 93.44279511567302 -15 -24.751062865021137
      vertex 73.26759433491219 -15 -11.947491117722542
      vertex 266.557204884327 -15 -24.751062865021137
    endloop
  endfacet
  facet normal 0 1 0
    outer loop
      vertex 278.28850451547913 -15 20.939332552449976
      vertex 73.26759433491219 -15 -11.947491117722542
      vertex 275.5593264308138 -15 22.439710901157284
    endloop
  endfacet
  facet normal 0 1 0
    outer loop
      vertex 289.60444459259907 -15 3.1082641923947456
      vertex 73.26759433491219 -15 -11.947491117722542
      vertex 289.02086239599004 -15 6.167509201688399
    endloop
  endfacet
  facet normal 0 -1 0
    outer loop
      vertex 286.7324056650878 -15.6 -11.947491117722542
      vertex 278.2885045154791 -15.6 -20.93933255244998
      vertex 285.06362146049867 -15.6 -14.577074256853335
    endloop
  endfacet
  facet normal 0 1 0
    outer loop
      vertex 288.0584568500286 -15 -9.129488906580024
      vertex 73.26759433491219 -15 -11.947491117722542
      vertex 289.02086239599004 -15 -6.16750920168839
    endloop
  endfacet
  facet normal 0.36812455268467337 0 -0.9297764858882532
    outer loop
      vertex 272.6636214604987 -15.6 -23.586201604119807
      vertex 275.5593264308138 -15 -22.439710901157287
      vertex 275.5593264308138 -15.6 -22.439710901157287
    endloop
  endfacet
  facet normal 0 -1 0
    outer loop
      vertex 272.6636214604987 -15.6 -23.586201604119807
      vertex 278.2885045154791 -15.6 -20.93933255244998
      vertex 269.647056601726 -15.6 -24.360723818071477
    endloop
  endfacet
  facet normal -0.7705132427757883 0 -0.637423989748691
    outer loop
      vertex 74.9363785395013 -15 -14.577074256853335
      vertex 76.921578039949 -15.6 -16.976768227031474
      vertex 74.9363785395013 -15.6 -14.577074256853335
    endloop
  endfacet
  facet normal -0.9510565162951535 0 0.30901699437494773
    outer loop
      vertex 70.97913760400995 -15 6.1675092016884
      vertex 70.97913760400995 -15.6 6.1675092016884
      vertex 71.94154314997137 -15 9.129488906580011
    endloop
  endfacet
  facet normal -0.6845471059286896 0 0.7289686274214106
    outer loop
      vertex 76.921578039949 -15.6 16.976768227031474
      vertex 79.1918850542325 -15.6 19.108728420839576
      vertex 76.921578039949 -15 16.976768227031474
    endloop
  endfacet
  facet normal -0.3681245526846775 0 0.9297764858882517
    outer loop
      vertex 84.4406735691862 -15.6 22.439710901157284
      vertex 87.33637853950131 -15 23.586201604119807
      vertex 84.4406735691862 -15 22.439710901157284
    endloop
  endfacet
  facet normal -0.3681245526846775 0 0.9297764858882517
    outer loop
      vertex 87.33637853950131 -15.6 23.586201604119807
      vertex 87.33637853950131 -15 23.586201604119807
      vertex 84.4406735691862 -15.6 22.439710901157284
    endloop
  endfacet
  facet normal 0.7705132427757936 0 0.6374239897486844
    outer loop
      vertex 285.06362146049867 -15.6 14.577074256853335
      vertex 285.06362146049867 -15 14.577074256853335
      vertex 283.078421960051 -15.6 16.97676822703148
    endloop
  endfacet
  facet normal 0 1 0
    outer loop
      vertex 84.4406735691862 -15 -22.439710901157287
      vertex 73.26759433491219 -15 -11.947491117722542
      vertex 87.33637853950131 -15 -23.586201604119807
    endloop
  endfacet
  facet normal 0 -1 0
    outer loop
      vertex 275.5593264308138 -15.6 22.439710901157284
      vertex 278.2885045154791 -15.6 -20.93933255244998
      vertex 278.28850451547913 -15.6 20.939332552449976
    endloop
  endfacet
  facet normal 0 -1 0
    outer loop
      vertex 93.44279511567302 -15.6 -24.751062865021137
      vertex 278.2885045154791 -15.6 -20.93933255244998
      vertex 90.35294339827402 -15.6 -24.360723818071477
    endloop
  endfacet
  facet normal 0 1 0
    outer loop
      vertex 90.35294339827402 -15 -24.360723818071477
      vertex 73.26759433491219 -15 -11.947491117722542
      vertex 93.44279511567302 -15 -24.751062865021137
    endloop
  endfacet
  facet normal 0.9510565162951535 0 0.30901699437494734
    outer loop
      vertex 288.0584568500286 -15.6 9.129488906580015
      vertex 289.02086239599004 -15.6 6.167509201688399
      vertex 288.0584568500286 -15 9.129488906580015
    endloop
  endfacet
  facet normal 0 -1 0
    outer loop
      vertex 289.8 -15.6 0
      vertex 278.2885045154791 -15.6 -20.93933255244998
      vertex 289.60444459259907 -15.6 -3.1082641923947407
    endloop
  endfacet
  facet normal 0 1 0
    outer loop
      vertex 283.078421960051 -15 -16.976768227031474
      vertex 73.26759433491219 -15 -11.947491117722542
      vertex 285.06362146049867 -15 -14.577074256853335
    endloop
  endfacet
  facet normal 0.24868988716485568 0 -0.9685831611286309
    outer loop
      vertex 269.647056601726 -15.6 -24.360723818071477
      vertex 269.647056601726 -15 -24.360723818071477
      vertex 272.6636214604987 -15.6 -23.586201604119807
    endloop
  endfacet
  facet normal 0.9048270524660201 0 -0.42577929156507116
    outer loop
      vertex 286.7324056650878 -15.6 -11.947491117722542
      vertex 286.7324056650878 -15 -11.947491117722542
      vertex 288.0584568500286 -15.6 -9.129488906580024
    endloop
  endfacet
  facet normal -0.9822872507286887 0 0.18738131458572505
    outer loop
      vertex 70.39555540740095 -15.6 3.1082641923947407
      vertex 70.97913760400995 -15.6 6.1675092016884
      vertex 70.39555540740095 -15 3.1082641923947407
    endloop
  endfacet
  facet normal 0 -1 0
    outer loop
      vertex 289.02086239599004 -15.6 6.167509201688399
      vertex 278.2885045154791 -15.6 -20.93933255244998
      vertex 289.60444459259907 -15.6 3.1082641923947456
    endloop
  endfacet
  facet normal -0.9822872507286887 0 -0.18738131458572505
    outer loop
      vertex 70.39555540740095 -15.6 -3.1082641923947407
      vertex 70.97913760400995 -15 -6.1675092016884
      vertex 70.97913760400995 -15.6 -6.1675092016884
    endloop
  endfacet
  facet normal 0 1 0
    outer loop
      vertex 70.97913760400995 -15 -6.1675092016884
      vertex 73.26759433491219 -15 -11.947491117722542
      vertex 71.94154314997137 -15 -9.129488906580011
    endloop
  endfacet
  facet normal 0 -1 0
    outer loop
      vertex 289.02086239599004 -15.6 -6.16750920168839
      vertex 278.2885045154791 -15.6 -20.93933255244998
      vertex 288.0584568500286 -15.6 -9.129488906580024
    endloop
  endfacet
  facet normal 0 1 0
    outer loop
      vertex 275.5593264308138 -15 22.439710901157284
      vertex 73.26759433491219 -15 -11.947491117722542
      vertex 272.6636214604987 -15 23.586201604119807
    endloop
  endfacet
  facet normal -0.8443279255020155 0 0.5358267949789959
    outer loop
      vertex 74.9363785395013 -15 14.577074256853335
      vertex 73.26759433491219 -15 11.947491117722542
      vertex 74.9363785395013 -15.6 14.577074256853335
    endloop
  endfacet
  facet normal 0.12533323356430653 0 -0.9921147013144775
    outer loop
      vertex 266.557204884327 -15.6 -24.751062865021137
      vertex 269.647056601726 -15 -24.360723818071477
      vertex 269.647056601726 -15.6 -24.360723818071477
    endloop
  endfacet
  facet normal 0 -1 0
    outer loop
      vertex 84.4406735691862 -15.6 -22.439710901157287
      vertex 278.2885045154791 -15.6 -20.93933255244998
      vertex 81.71149548452088 -15.6 -20.939332552449972
    endloop
  endfacet
  facet normal -0.9822872507286887 0 0.18738131458572505
    outer loop
      vertex 70.39555540740095 -15 3.1082641923947407
      vertex 70.97913760400995 -15.6 6.1675092016884
      vertex 70.97913760400995 -15 6.1675092016884
    endloop
  endfacet
  facet normal -0.9510565162951535 0 -0.30901699437494773
    outer loop
      vertex 70.97913760400995 -15 -6.1675092016884
      vertex 71.94154314997137 -15.6 -9.129488906580011
      vertex 70.97913760400995 -15.6 -6.1675092016884
    endloop
  endfacet
  facet normal -0.9510565162951535 0 -0.30901699437494773
    outer loop
      vertex 71.94154314997137 -15 -9.129488906580011
      vertex 71.94154314997137 -15.6 -9.129488906580011
      vertex 70.97913760400995 -15 -6.1675092016884
    endloop
  endfacet
  facet normal 0 -1 0
    outer loop
      vertex 90.35294339827404 -15.6 24.36072381807148
      vertex 278.2885045154791 -15.6 -20.93933255244998
      vertex 93.44279511567304 -15.6 24.751062865021137
    endloop
  endfacet
  facet normal 0 1 0
    outer loop
      vertex 272.6636214604987 -15 23.586201604119807
      vertex 73.26759433491219 -15 -11.947491117722542
      vertex 269.647056601726 -15 24.36072381807148
    endloop
  endfacet
  facet normal 0 1 0
    outer loop
      vertex 87.33637853950131 -15 -23.586201604119807
      vertex 73.26759433491219 -15 -11.947491117722542
      vertex 90.35294339827402 -15 -24.360723818071477
    endloop
  endfacet
  facet normal 0 1 0
    outer loop
      vertex 73.26759433491219 -15 11.947491117722542
      vertex 73.26759433491219 -15 -11.947491117722542
      vertex 71.94154314997137 -15 9.129488906580011
    endloop
  endfacet
  facet normal 0.7705132427757927 0 -0.6374239897486855
    outer loop
      vertex 285.06362146049867 -15.6 -14.577074256853335
      vertex 283.078421960051 -15 -16.976768227031474
      vertex 285.06362146049867 -15 -14.577074256853335
    endloop
  endfacet
  facet normal 0 1 0
    outer loop
      vertex 272.6636214604987 -15 -23.586201604119807
      vertex 73.26759433491219 -15 -11.947491117722542
      vertex 275.5593264308138 -15 -22.439710901157287
    endloop
  endfacet
  facet normal 0 -1 0
    outer loop
      vertex 87.33637853950131 -15.6 23.586201604119807
      vertex 278.2885045154791 -15.6 -20.93933255244998
      vertex 90.35294339827404 -15.6 24.36072381807148
    endloop
  endfacet
  facet normal 0 -1 0
    outer loop
      vertex 76.921578039949 -15.6 16.976768227031474
      vertex 278.2885045154791 -15.6 -20.93933255244998
      vertex 79.1918850542325 -15.6 19.108728420839576
    endloop
  endfacet
  facet normal 0 -1 0
    outer loop
      vertex 288.0584568500286 -15.6 -9.129488906580024
      vertex 278.2885045154791 -15.6 -20.93933255244998
      vertex 286.7324056650878 -15.6 -11.947491117722542
    endloop
  endfacet
  facet normal 0 -1 0
    outer loop
      vertex 285.06362146049867 -15.6 -14.577074256853335
      vertex 278.2885045154791 -15.6 -20.93933255244998
      vertex 283.078421960051 -15.6 -16.976768227031474
    endloop
  endfacet
  facet normal 0 -1 0
    outer loop
      vertex 71.94154314997137 -15.6 -9.129488906580011
      vertex 278.2885045154791 -15.6 -20.93933255244998
      vertex 70.97913760400995 -15.6 -6.1675092016884
    endloop
  endfacet
  facet normal 0.12533323356430315 0 0.992114701314478
    outer loop
      vertex 266.55720488432695 -15.6 24.751062865021137
      vertex 269.647056601726 -15.6 24.36072381807148
      vertex 266.55720488432695 -15 24.751062865021137
    endloop
  endfacet
  facet normal 0.12533323356430653 0 -0.9921147013144775
    outer loop
      vertex 266.557204884327 -15 -24.751062865021137
      vertex 269.647056601726 -15 -24.360723818071477
      vertex 266.557204884327 -15.6 -24.751062865021137
    endloop
  endfacet
  facet normal -0.9048270524660191 0 0.4257792915650734
    outer loop
      vertex 73.26759433491219 -15.6 11.947491117722542
      vertex 73.26759433491219 -15 11.947491117722542
      vertex 71.94154314997137 -15.6 9.129488906580011
    endloop
  endfacet
  facet normal 0 1 0
    outer loop
      vertex 74.9363785395013 -15 -14.577074256853335
      vertex 73.26759433491219 -15 -11.947491117722542
      vertex 76.921578039949 -15 -16.976768227031474
    endloop
  endfacet
  facet normal 0.12533323356430315 0 0.992114701314478
    outer loop
      vertex 266.55720488432695 -15 24.751062865021137
      vertex 269.647056601726 -15.6 24.36072381807148
      vertex 269.647056601726 -15 24.36072381807148
    endloop
  endfacet
  facet normal 0 1 0
    outer loop
      vertex 280.8081149457675 -15 -19.10872842083957
      vertex 73.26759433491219 -15 -11.947491117722542
      vertex 283.078421960051 -15 -16.976768227031474
    endloop
  endfacet
  facet normal 0.7705132427757936 0 0.6374239897486844
    outer loop
      vertex 283.078421960051 -15.6 16.97676822703148
      vertex 285.06362146049867 -15 14.577074256853335
      vertex 283.078421960051 -15 16.97676822703148
    endloop
  endfacet
  facet normal 0.6845471059286885 0 -0.7289686274214118
    outer loop
      vertex 280.8081149457675 -15 -19.10872842083957
      vertex 283.078421960051 -15 -16.976768227031474
      vertex 280.8081149457675 -15.6 -19.10872842083957
    endloop
  endfacet
  facet normal 0.4817536741017157 0 0.8763066800438634
    outer loop
      vertex 275.5593264308138 -15.6 22.439710901157284
      vertex 278.28850451547913 -15.6 20.939332552449976
      vertex 275.5593264308138 -15 22.439710901157284
    endloop
  endfacet
  facet normal 0 -1 0
    outer loop
      vertex 269.647056601726 -15.6 24.36072381807148
      vertex 278.2885045154791 -15.6 -20.93933255244998
      vertex 272.6636214604987 -15.6 23.586201604119807
    endloop
  endfacet
  facet normal 0 -1 0
    outer loop
      vertex 266.55720488432695 -15.6 24.751062865021137
      vertex 278.2885045154791 -15.6 -20.93933255244998
      vertex 269.647056601726 -15.6 24.36072381807148
    endloop
  endfacet
  facet normal 0 1 0
    outer loop
      vertex 269.647056601726 -15 -24.360723818071477
      vertex 73.26759433491219 -15 -11.947491117722542
      vertex 272.6636214604987 -15 -23.586201604119807
    endloop
  endfacet
  facet normal 0.9048270524660206 0 0.4257792915650703
    outer loop
      vertex 288.0584568500286 -15.6 9.129488906580015
      vertex 286.7324056650878 -15 11.94749111772254
      vertex 286.7324056650878 -15.6 11.94749111772254
    endloop
  endfacet
  facet normal 0 -1 0
    outer loop
      vertex 84.4406735691862 -15.6 22.439710901157284
      vertex 278.2885045154791 -15.6 -20.93933255244998
      vertex 87.33637853950131 -15.6 23.586201604119807
    endloop
  endfacet
  facet normal 0 -1 0
    outer loop
      vertex 74.9363785395013 -15.6 14.577074256853335
      vertex 278.2885045154791 -15.6 -20.93933255244998
      vertex 76.921578039949 -15.6 16.976768227031474
    endloop
  endfacet
  facet normal 0 -1 0
    outer loop
      vertex 79.1918850542325 -15.6 -19.108728420839576
      vertex 278.2885045154791 -15.6 -20.93933255244998
      vertex 76.921578039949 -15.6 -16.976768227031474
    endloop
  endfacet
  facet normal 0 -1 0
    outer loop
      vertex 90.35294339827402 -15.6 -24.360723818071477
      vertex 278.2885045154791 -15.6 -20.93933255244998
      vertex 87.33637853950131 -15.6 -23.586201604119807
    endloop
  endfacet
  facet normal 0 1 0
    outer loop
      vertex 93.44279511567304 -15 24.751062865021137
      vertex 73.26759433491219 -15 -11.947491117722542
      vertex 90.35294339827404 -15 24.36072381807148
    endloop
  endfacet
  facet normal -0.5877852522924734 0 0.8090169943749473
    outer loop
      vertex 79.1918850542325 -15.6 19.108728420839576
      vertex 81.71149548452088 -15 20.939332552449972
      vertex 79.1918850542325 -15 19.108728420839576
    endloop
  endfacet
  facet normal 0.9822872507286868 0 -0.18738131458573443
    outer loop
      vertex 289.60444459259907 -15.6 -3.1082641923947407
      vertex 289.02086239599004 -15 -6.16750920168839
      vertex 289.60444459259907 -15 -3.1082641923947407
    endloop
  endfacet
  facet normal 0.9822872507286868 0 -0.18738131458573443
    outer loop
      vertex 289.02086239599004 -15.6 -6.16750920168839
      vertex 289.02086239599004 -15 -6.16750920168839
      vertex 289.60444459259907 -15.6 -3.1082641923947407
    endloop
  endfacet
  facet normal 0 1 0
    outer loop
      vertex 289.02086239599004 -15 6.167509201688399
      vertex 73.26759433491219 -15 -11.947491117722542
      vertex 288.0584568500286 -15 9.129488906580015
    endloop
  endfacet
  facet normal 0 1 0
    outer loop
      vertex 285.06362146049867 -15 14.577074256853335
      vertex 73.26759433491219 -15 -11.947491117722542
      vertex 283.078421960051 -15 16.97676822703148
    endloop
  endfacet
  facet normal 0 1 0
    outer loop
      vertex 280.8081149457675 -15 19.108728420839572
      vertex 73.26759433491219 -15 -11.947491117722542
      vertex 278.28850451547913 -15 20.939332552449976
    endloop
  endfacet
  facet normal 0 1 0
    outer loop
      vertex 286.7324056650878 -15 11.94749111772254
      vertex 73.26759433491219 -15 -11.947491117722542
      vertex 285.06362146049867 -15 14.577074256853335
    endloop
  endfacet
  facet normal 0 1 0
    outer loop
      vertex 289.02086239599004 -15 -6.16750920168839
      vertex 73.26759433491219 -15 -11.947491117722542
      vertex 289.60444459259907 -15 -3.1082641923947407
    endloop
  endfacet
  facet normal 0 1 0
    outer loop
      vertex 283.078421960051 -15 16.97676822703148
      vertex 73.26759433491219 -15 -11.947491117722542
      vertex 280.8081149457675 -15 19.108728420839572
    endloop
  endfacet
  facet normal 0 1 0
    outer loop
      vertex 278.2885045154791 -15 -20.93933255244998
      vertex 73.26759433491219 -15 -11.947491117722542
      vertex 280.8081149457675 -15 -19.10872842083957
    endloop
  endfacet
  facet normal 0 1 0
    outer loop
      vertex 266.557204884327 -15 -24.751062865021137
      vertex 73.26759433491219 -15 -11.947491117722542
      vertex 269.647056601726 -15 -24.360723818071477
    endloop
  endfacet
  facet normal 0.24868988716485677 0 0.9685831611286306
    outer loop
      vertex 269.647056601726 -15.6 24.36072381807148
      vertex 272.6636214604987 -15.6 23.586201604119807
      vertex 269.647056601726 -15 24.36072381807148
    endloop
  endfacet
  facet normal 0 -1 0
    outer loop
      vertex 275.5593264308138 -15.6 -22.439710901157287
      vertex 278.2885045154791 -15.6 -20.93933255244998
      vertex 272.6636214604987 -15.6 -23.586201604119807
    endloop
  endfacet
  facet normal -0.9048270524660191 0 -0.4257792915650734
    outer loop
      vertex 71.94154314997137 -15 -9.129488906580011
      vertex 73.26759433491219 -15 -11.947491117722542
      vertex 71.94154314997137 -15.6 -9.129488906580011
    endloop
  endfacet
  facet normal -0.8443279255020155 0 -0.5358267949789959
    outer loop
      vertex 73.26759433491219 -15.6 -11.947491117722542
      vertex 73.26759433491219 -15 -11.947491117722542
      vertex 74.9363785395013 -15.6 -14.577074256853335
    endloop
  endfacet
  facet normal 0 -1 0
    outer loop
      vertex 73.26759433491219 -15.6 -11.947491117722542
      vertex 278.2885045154791 -15.6 -20.93933255244998
      vertex 71.94154314997137 -15.6 -9.129488906580011
    endloop
  endfacet
  facet normal 0 -1 0
    outer loop
      vertex 76.921578039949 -15.6 -16.976768227031474
      vertex 278.2885045154791 -15.6 -20.93933255244998
      vertex 74.9363785395013 -15.6 -14.577074256853335
    endloop
  endfacet
  facet normal 0 -1 0
    outer loop
      vertex 81.71149548452088 -15.6 -20.939332552449972
      vertex 278.2885045154791 -15.6 -20.93933255244998
      vertex 79.1918850542325 -15.6 -19.108728420839576
    endloop
  endfacet
  facet normal 0 -1 0
    outer loop
      vertex 87.33637853950131 -15.6 -23.586201604119807
      vertex 278.2885045154791 -15.6 -20.93933255244998
      vertex 84.4406735691862 -15.6 -22.439710901157287
    endloop
  endfacet
  facet normal 0 1 0
    outer loop
      vertex 84.4406735691862 -15 22.439710901157284
      vertex 73.26759433491219 -15 -11.947491117722542
      vertex 81.71149548452088 -15 20.939332552449972
    endloop
  endfacet
  facet normal 0 1 0
    outer loop
      vertex 81.71149548452088 -15 20.939332552449972
      vertex 73.26759433491219 -15 -11.947491117722542
      vertex 79.1918850542325 -15 19.108728420839576
    endloop
  endfacet
  facet normal 0 -1 0
    outer loop
      vertex 285.06362146049867 -15.6 14.577074256853335
      vertex 278.2885045154791 -15.6 -20.93933255244998
      vertex 286.7324056650878 -15.6 11.94749111772254
    endloop
  endfacet
  facet normal 0 -1 0
    outer loop
      vertex 283.078421960051 -15.6 16.97676822703148
      vertex 278.2885045154791 -15.6 -20.93933255244998
      vertex 285.06362146049867 -15.6 14.577074256853335
    endloop
  endfacet
  facet normal 0 1 0
    outer loop
      vertex 266.55720488432695 -15 24.751062865021137
      vertex 73.26759433491219 -15 -11.947491117722542
      vertex 93.44279511567304 -15 24.751062865021137
    endloop
  endfacet
  facet normal 0 1 0
    outer loop
      vertex 269.647056601726 -15 24.36072381807148
      vertex 73.26759433491219 -15 -11.947491117722542
      vertex 266.55720488432695 -15 24.751062865021137
    endloop
  endfacet
endsolid OpenSCAD_Model
