solid OpenSCAD_Model
  facet normal 0 -1 0
    outer loop
      vertex 71.59042557941262 -15.6 -7.288866143156622
      vertex 276.11853648862393 -15.6 18.83091902264404
      vertex 70.82205340965311 -15.6 -4.9240597658641265
    endloop
  endfacet
  facet normal 0 1 0
    outer loop
      vertex 81.56957002701157 -15 -17.91557563882719
      vertex 287.3508722648685 -15 9.538722747213964
      vertex 83.88146351137604 -15 -18.83091902264404
    endloop
  endfacet
  facet normal 0.9510565162951539 0 0.3090169943749465
    outer loop
      vertex 288.4095744205874 -15 7.288866143156624
      vertex 289.1779465903469 -15.6 4.924059765864125
      vertex 289.1779465903469 -15 4.924059765864125
    endloop
  endfacet
  facet normal -0.36812455268467725 0 -0.9297764858882518
    outer loop
      vertex 81.56957002701157 -15 -17.91557563882719
      vertex 83.88146351137604 -15.6 -18.83091902264404
      vertex 81.56957002701157 -15.6 -17.91557563882719
    endloop
  endfacet
  facet normal 0 -1 0
    outer loop
      vertex 79.39062945941586 -15.6 16.717692924939897
      vertex 276.11853648862393 -15.6 18.83091902264404
      vertex 81.56957002701157 -15.6 17.915575638827185
    endloop
  endfacet
  facet normal 0 -1 0
    outer loop
      vertex 86.28984997120264 -15.6 -19.449287564428037
      vertex 276.11853648862393 -15.6 18.83091902264404
      vertex 83.88146351137604 -15.6 -18.83091902264404
    endloop
  endfacet
  facet normal 0 1 0
    outer loop
      vertex 273.71015002879733 -15 19.449287564428037
      vertex 287.3508722648685 -15 9.538722747213964
      vertex 271.2432522866804 -15 19.760929222879778
    endloop
  endfacet
  facet normal 0.5877852522924665 0 0.8090169943749521
    outer loop
      vertex 280.6093705405841 -15.6 16.7176929249399
      vertex 282.62099499702407 -15.6 15.256162206960626
      vertex 280.6093705405841 -15 16.7176929249399
    endloop
  endfacet
  facet normal -0.8443279255020159 0 0.5358267949789954
    outer loop
      vertex 73.98146351137603 -15 11.638147995390968
      vertex 72.6491277351315 -15 9.538722747213965
      vertex 73.98146351137603 -15.6 11.638147995390968
    endloop
  endfacet
  facet normal -0.9822872507286883 0 -0.18738131458572707
    outer loop
      vertex 70.35612891397334 -15.6 -2.4815980245732208
      vertex 70.35612891397334 -15 -2.4815980245732208
      vertex 70.82205340965311 -15.6 -4.9240597658641265
    endloop
  endfacet
  facet normal -0.9048270524660202 0 0.4257792915650712
    outer loop
      vertex 71.59042557941262 -15 7.288866143156622
      vertex 71.59042557941262 -15.6 7.288866143156622
      vertex 72.6491277351315 -15 9.538722747213965
    endloop
  endfacet
  facet normal 0.9048270524660178 0 0.42577929156507643
    outer loop
      vertex 288.4095744205874 -15 7.288866143156624
      vertex 287.3508722648685 -15 9.538722747213964
      vertex 288.4095744205874 -15.6 7.288866143156624
    endloop
  endfacet
  facet normal 0 -1 0
    outer loop
      vertex 70.35612891397334 -15.6 -2.4815980245732208
      vertex 276.11853648862393 -15.6 18.83091902264404
      vertex 70.2 -15.6 0
    endloop
  endfacet
  facet normal -0.9980267284282718 0 -0.0627905195293112
    outer loop
      vertex 70.2 -15 0
      vertex 70.35612891397334 -15 -2.4815980245732208
      vertex 70.2 -15.6 0
    endloop
  endfacet
  facet normal 0 -1 0
    outer loop
      vertex 81.56957002701157 -15.6 -17.91557563882719
      vertex 276.11853648862393 -15.6 18.83091902264404
      vertex 79.39062945941586 -15.6 -16.717692924939897
    endloop
  endfacet
  facet normal 0.6845471059286893 0 -0.7289686274214109
    outer loop
      vertex 282.62099499702407 -15 -15.256162206960623
      vertex 284.43357882294396 -15.6 -13.554032697388033
      vertex 282.62099499702407 -15.6 -15.256162206960623
    endloop
  endfacet
  facet normal -0.5877852522924728 0 -0.8090169943749477
    outer loop
      vertex 77.37900500297594 -15 -15.25616220696063
      vertex 79.39062945941586 -15 -16.717692924939897
      vertex 77.37900500297594 -15.6 -15.25616220696063
    endloop
  endfacet
  facet normal 0 -1 0
    outer loop
      vertex 284.43357882294396 -15.6 13.554032697388037
      vertex 276.11853648862393 -15.6 18.83091902264404
      vertex 286.01853648862397 -15.6 11.638147995390968
    endloop
  endfacet
  facet normal 0 1 0
    outer loop
      vertex 271.24325228668044 -15 -19.760929222879778
      vertex 287.3508722648685 -15 9.538722747213964
      vertex 273.71015002879733 -15 -19.449287564428037
    endloop
  endfacet
  facet normal -0.6845471059286878 0 0.7289686274214121
    outer loop
      vertex 75.56642117705604 -15 13.554032697388033
      vertex 77.37900500297594 -15.6 15.25616220696063
      vertex 77.37900500297594 -15 15.25616220696063
    endloop
  endfacet
  facet normal -0.7705132427757894 0 0.6374239897486896
    outer loop
      vertex 73.98146351137603 -15 11.638147995390968
      vertex 73.98146351137603 -15.6 11.638147995390968
      vertex 75.56642117705604 -15 13.554032697388033
    endloop
  endfacet
  facet normal 0.36812455268466937 0 -0.9297764858882548
    outer loop
      vertex 278.43042997298846 -15 -17.91557563882719
      vertex 278.43042997298846 -15.6 -17.91557563882719
      vertex 276.11853648862393 -15 -18.83091902264404
    endloop
  endfacet
  facet normal 0 0 1
    outer loop
      vertex 271.2432522866804 -15 19.760929222879778
      vertex 88.7567477133196 -15.6 19.760929222879778
      vertex 271.2432522866804 -15.6 19.760929222879778
    endloop
  endfacet
  facet normal 0 0 1
    outer loop
      vertex 88.7567477133196 -15 19.760929222879778
      vertex 88.7567477133196 -15.6 19.760929222879778
      vertex 271.2432522866804 -15 19.760929222879778
    endloop
  endfacet
  facet normal -0.8443279255020159 0 -0.5358267949789954
    outer loop
      vertex 72.6491277351315 -15.6 -9.538722747213965
      vertex 73.98146351137603 -15 -11.638147995390968
      vertex 73.98146351137603 -15.6 -11.638147995390968
    endloop
  endfacet
  facet normal -0.9048270524660202 0 0.4257792915650712
    outer loop
      vertex 72.6491277351315 -15 9.538722747213965
      vertex 71.59042557941262 -15.6 7.288866143156622
      vertex 72.6491277351315 -15.6 9.538722747213965
    endloop
  endfacet
  facet normal 0 1 0
    outer loop
      vertex 88.7567477133196 -15 19.760929222879778
      vertex 287.3508722648685 -15 9.538722747213964
      vertex 86.28984997120266 -15 19.449287564428037
    endloop
  endfacet
  facet normal -0.9980267284282718 0 0.0627905195293112
    outer loop
      vertex 70.2 -15 0
      vertex 70.2 -15.6 0
      vertex 70.35612891397334 -15 2.4815980245732208
    endloop
  endfacet
  facet normal -0.8443279255020159 0 0.5358267949789954
    outer loop
      vertex 73.98146351137603 -15.6 11.638147995390968
      vertex 72.6491277351315 -15 9.538722747213965
      vertex 72.6491277351315 -15.6 9.538722747213965
    endloop
  endfacet
  facet normal 0.5877852522924665 0 0.8090169943749521
    outer loop
      vertex 280.6093705405841 -15 16.7176929249399
      vertex 282.62099499702407 -15.6 15.256162206960626
      vertex 282.62099499702407 -15 15.256162206960626
    endloop
  endfacet
  facet normal -0.9510565162951536 0 0.3090169943749469
    outer loop
      vertex 71.59042557941262 -15.6 7.288866143156622
      vertex 70.82205340965311 -15 4.9240597658641265
      vertex 70.82205340965311 -15.6 4.9240597658641265
    endloop
  endfacet
  facet normal -0.9822872507286883 0 0.18738131458572707
    outer loop
      vertex 70.82205340965311 -15.6 4.9240597658641265
      vertex 70.82205340965311 -15 4.9240597658641265
      vertex 70.35612891397334 -15.6 2.4815980245732208
    endloop
  endfacet
  facet normal 0 -1 0
    outer loop
      vertex 282.62099499702407 -15.6 -15.256162206960623
      vertex 276.11853648862393 -15.6 18.83091902264404
      vertex 280.6093705405841 -15.6 -16.717692924939904
    endloop
  endfacet
  facet normal -0.48175367410171416 0 0.8763066800438643
    outer loop
      vertex 81.56957002701157 -15 17.915575638827185
      vertex 79.39062945941586 -15.6 16.717692924939897
      vertex 81.56957002701157 -15.6 17.915575638827185
    endloop
  endfacet
  facet normal -0.9510565162951536 0 -0.3090169943749469
    outer loop
      vertex 71.59042557941262 -15 -7.288866143156622
      vertex 70.82205340965311 -15.6 -4.9240597658641265
      vertex 70.82205340965311 -15 -4.9240597658641265
    endloop
  endfacet
  facet normal -0.7705132427757894 0 -0.6374239897486896
    outer loop
      vertex 73.98146351137603 -15 -11.638147995390968
      vertex 75.56642117705604 -15.6 -13.554032697388033
      vertex 73.98146351137603 -15.6 -11.638147995390968
    endloop
  endfacet
  facet normal 0 -1 0
    outer loop
      vertex 282.62099499702407 -15.6 15.256162206960626
      vertex 276.11853648862393 -15.6 18.83091902264404
      vertex 284.43357882294396 -15.6 13.554032697388037
    endloop
  endfacet
  facet normal -0.12533323356430426 0 0.9921147013144778
    outer loop
      vertex 88.7567477133196 -15 19.760929222879778
      vertex 86.28984997120266 -15 19.449287564428037
      vertex 88.7567477133196 -15.6 19.760929222879778
    endloop
  endfacet
  facet normal 0 -1 0
    outer loop
      vertex 288.4095744205874 -15.6 -7.288866143156632
      vertex 276.11853648862393 -15.6 18.83091902264404
      vertex 287.3508722648685 -15.6 -9.538722747213965
    endloop
  endfacet
  facet normal -0.9048270524660202 0 -0.4257792915650712
    outer loop
      vertex 72.6491277351315 -15 -9.538722747213965
      vertex 72.6491277351315 -15.6 -9.538722747213965
      vertex 71.59042557941262 -15 -7.288866143156622
    endloop
  endfacet
  facet normal 0 0 -1
    outer loop
      vertex 271.24325228668044 -15 -19.760929222879778
      vertex 271.24325228668044 -15.6 -19.760929222879778
      vertex 88.75674771331958 -15 -19.760929222879778
    endloop
  endfacet
  facet normal 0.6845471059286893 0 -0.7289686274214109
    outer loop
      vertex 284.43357882294396 -15 -13.554032697388033
      vertex 284.43357882294396 -15.6 -13.554032697388033
      vertex 282.62099499702407 -15 -15.256162206960623
    endloop
  endfacet
  facet normal -0.12533323356430426 0 -0.9921147013144778
    outer loop
      vertex 88.75674771331958 -15.6 -19.760929222879778
      vertex 86.28984997120264 -15 -19.449287564428037
      vertex 88.75674771331958 -15 -19.760929222879778
    endloop
  endfacet
  facet normal 0 -1 0
    outer loop
      vertex 73.98146351137603 -15.6 11.638147995390968
      vertex 276.11853648862393 -15.6 18.83091902264404
      vertex 75.56642117705604 -15.6 13.554032697388033
    endloop
  endfacet
  facet normal 0.24868988716485657 0 -0.9685831611286305
    outer loop
      vertex 273.71015002879733 -15.6 -19.449287564428037
      vertex 276.11853648862393 -15 -18.83091902264404
      vertex 276.11853648862393 -15.6 -18.83091902264404
    endloop
  endfacet
  facet normal 0.1253332335643071 0 -0.9921147013144773
    outer loop
      vertex 273.71015002879733 -15.6 -19.449287564428037
      vertex 271.24325228668044 -15.6 -19.760929222879778
      vertex 273.71015002879733 -15 -19.449287564428037
    endloop
  endfacet
  facet normal 0.36812455268466937 0 -0.9297764858882548
    outer loop
      vertex 276.11853648862393 -15 -18.83091902264404
      vertex 278.43042997298846 -15.6 -17.91557563882719
      vertex 276.11853648862393 -15.6 -18.83091902264404
    endloop
  endfacet
  facet normal 0.9048270524660174 0 -0.4257792915650774
    outer loop
      vertex 288.4095744205874 -15.6 -7.288866143156632
      vertex 287.3508722648685 -15 -9.538722747213965
      vertex 288.4095744205874 -15 -7.288866143156632
    endloop
  endfacet
  facet normal 0 -1 0
    outer loop
      vertex 70.35612891397334 -15.6 2.4815980245732208
      vertex 276.11853648862393 -15.6 18.83091902264404
      vertex 70.82205340965311 -15.6 4.9240597658641265
    endloop
  endfacet
  facet normal 0.8443279255020185 0 -0.5358267949789913
    outer loop
      vertex 287.3508722648685 -15 -9.538722747213965
      vertex 286.01853648862397 -15.6 -11.638147995390968
      vertex 286.01853648862397 -15 -11.638147995390968
    endloop
  endfacet
  facet normal 0 1 0
    outer loop
      vertex 289.64387108602665 -15 -2.4815980245732208
      vertex 287.3508722648685 -15 9.538722747213964
      vertex 289.8 -15 0
    endloop
  endfacet
  facet normal 0.9510565162951544 0 -0.30901699437494473
    outer loop
      vertex 288.4095744205874 -15.6 -7.288866143156632
      vertex 289.1779465903469 -15 -4.924059765864118
      vertex 289.1779465903469 -15.6 -4.924059765864118
    endloop
  endfacet
  facet normal -0.9048270524660202 0 -0.4257792915650712
    outer loop
      vertex 71.59042557941262 -15 -7.288866143156622
      vertex 72.6491277351315 -15.6 -9.538722747213965
      vertex 71.59042557941262 -15.6 -7.288866143156622
    endloop
  endfacet
  facet normal 0.4817536741017226 0 -0.8763066800438595
    outer loop
      vertex 278.43042997298846 -15 -17.91557563882719
      vertex 280.6093705405841 -15.6 -16.717692924939904
      vertex 278.43042997298846 -15.6 -17.91557563882719
    endloop
  endfacet
  facet normal 0 1 0
    outer loop
      vertex 280.6093705405841 -15 -16.717692924939904
      vertex 287.3508722648685 -15 9.538722747213964
      vertex 282.62099499702407 -15 -15.256162206960623
    endloop
  endfacet
  facet normal 0.9822872507286893 0 0.187381314585722
    outer loop
      vertex 289.64387108602665 -15.6 2.4815980245732243
      vertex 289.64387108602665 -15 2.4815980245732243
      vertex 289.1779465903469 -15.6 4.924059765864125
    endloop
  endfacet
  facet normal 0 1 0
    outer loop
      vertex 271.2432522866804 -15 19.760929222879778
      vertex 287.3508722648685 -15 9.538722747213964
      vertex 88.7567477133196 -15 19.760929222879778
    endloop
  endfacet
  facet normal -0.24868988716485657 0 -0.9685831611286305
    outer loop
      vertex 86.28984997120264 -15.6 -19.449287564428037
      vertex 83.88146351137604 -15.6 -18.83091902264404
      vertex 86.28984997120264 -15 -19.449287564428037
    endloop
  endfacet
  facet normal 0 -1 0
    outer loop
      vertex 70.82205340965311 -15.6 -4.9240597658641265
      vertex 276.11853648862393 -15.6 18.83091902264404
      vertex 70.35612891397334 -15.6 -2.4815980245732208
    endloop
  endfacet
  facet normal 0.24868988716485657 0 -0.9685831611286305
    outer loop
      vertex 273.71015002879733 -15 -19.449287564428037
      vertex 276.11853648862393 -15 -18.83091902264404
      vertex 273.71015002879733 -15.6 -19.449287564428037
    endloop
  endfacet
  facet normal -0.4817536741017152 0 -0.8763066800438636
    outer loop
      vertex 81.56957002701157 -15 -17.91557563882719
      vertex 81.56957002701157 -15.6 -17.91557563882719
      vertex 79.39062945941586 -15 -16.717692924939897
    endloop
  endfacet
  facet normal 0 1 0
    outer loop
      vertex 278.43042997298846 -15 -17.91557563882719
      vertex 287.3508722648685 -15 9.538722747213964
      vertex 280.6093705405841 -15 -16.717692924939904
    endloop
  endfacet
  facet normal -0.12533323356430426 0 -0.9921147013144778
    outer loop
      vertex 86.28984997120264 -15.6 -19.449287564428037
      vertex 86.28984997120264 -15 -19.449287564428037
      vertex 88.75674771331958 -15.6 -19.760929222879778
    endloop
  endfacet
  facet normal -0.4817536741017152 0 -0.8763066800438636
    outer loop
      vertex 79.39062945941586 -15 -16.717692924939897
      vertex 81.56957002701157 -15.6 -17.91557563882719
      vertex 79.39062945941586 -15.6 -16.717692924939897
    endloop
  endfacet
  facet normal -0.7705132427757894 0 0.6374239897486896
    outer loop
      vertex 75.56642117705604 -15 13.554032697388033
      vertex 73.98146351137603 -15.6 11.638147995390968
      vertex 75.56642117705604 -15.6 13.554032697388033
    endloop
  endfacet
  facet normal 0 -1 0
    outer loop
      vertex 72.6491277351315 -15.6 -9.538722747213965
      vertex 276.11853648862393 -15.6 18.83091902264404
      vertex 71.59042557941262 -15.6 -7.288866143156622
    endloop
  endfacet
  facet normal 0 -1 0
    outer loop
      vertex 278.43042997298846 -15.6 -17.91557563882719
      vertex 276.11853648862393 -15.6 18.83091902264404
      vertex 276.11853648862393 -15.6 -18.83091902264404
    endloop
  endfacet
  facet normal 0 1 0
    outer loop
      vertex 77.37900500297594 -15 15.25616220696063
      vertex 287.3508722648685 -15 9.538722747213964
      vertex 75.56642117705604 -15 13.554032697388033
    endloop
  endfacet
  facet normal 0.1253332335643071 0 -0.9921147013144773
    outer loop
      vertex 273.71015002879733 -15 -19.449287564428037
      vertex 271.24325228668044 -15.6 -19.760929222879778
      vertex 271.24325228668044 -15 -19.760929222879778
    endloop
  endfacet
  facet normal 0.998026728428271 0 -0.06279051952932257
    outer loop
      vertex 289.64387108602665 -15 -2.4815980245732208
      vertex 289.8 -15.6 0
      vertex 289.64387108602665 -15.6 -2.4815980245732208
    endloop
  endfacet
  facet normal 0 1 0
    outer loop
      vertex 276.11853648862393 -15 -18.83091902264404
      vertex 287.3508722648685 -15 9.538722747213964
      vertex 278.43042997298846 -15 -17.91557563882719
    endloop
  endfacet
  facet normal 0.998026728428271 0 -0.06279051952932257
    outer loop
      vertex 289.8 -15 0
      vertex 289.8 -15.6 0
      vertex 289.64387108602665 -15 -2.4815980245732208
    endloop
  endfacet
  facet normal 0 -1 0
    outer loop
      vertex 286.01853648862397 -15.6 11.638147995390968
      vertex 276.11853648862393 -15.6 18.83091902264404
      vertex 287.3508722648685 -15.6 9.538722747213964
    endloop
  endfacet
  facet normal 0 -1 0
    outer loop
      vertex 75.56642117705604 -15.6 -13.554032697388033
      vertex 276.11853648862393 -15.6 18.83091902264404
      vertex 73.98146351137603 -15.6 -11.638147995390968
    endloop
  endfacet
  facet normal 0 -1 0
    outer loop
      vertex 287.3508722648685 -15.6 9.538722747213964
      vertex 276.11853648862393 -15.6 18.83091902264404
      vertex 288.4095744205874 -15.6 7.288866143156624
    endloop
  endfacet
  facet normal 0.9510565162951539 0 0.3090169943749465
    outer loop
      vertex 288.4095744205874 -15.6 7.288866143156624
      vertex 289.1779465903469 -15.6 4.924059765864125
      vertex 288.4095744205874 -15 7.288866143156624
    endloop
  endfacet
  facet normal -0.9510565162951536 0 -0.3090169943749469
    outer loop
      vertex 71.59042557941262 -15.6 -7.288866143156622
      vertex 70.82205340965311 -15.6 -4.9240597658641265
      vertex 71.59042557941262 -15 -7.288866143156622
    endloop
  endfacet
  facet normal 0 0 -1
    outer loop
      vertex 88.75674771331958 -15 -19.760929222879778
      vertex 271.24325228668044 -15.6 -19.760929222879778
      vertex 88.75674771331958 -15.6 -19.760929222879778
    endloop
  endfacet
  facet normal 0.9822872507286893 0 0.187381314585722
    outer loop
      vertex 289.1779465903469 -15.6 4.924059765864125
      vertex 289.64387108602665 -15 2.4815980245732243
      vertex 289.1779465903469 -15 4.924059765864125
    endloop
  endfacet
  facet normal -0.9980267284282718 0 0.0627905195293112
    outer loop
      vertex 70.35612891397334 -15 2.4815980245732208
      vertex 70.2 -15.6 0
      vertex 70.35612891397334 -15.6 2.4815980245732208
    endloop
  endfacet
  facet normal 0.9510565162951544 0 -0.30901699437494473
    outer loop
      vertex 288.4095744205874 -15 -7.288866143156632
      vertex 289.1779465903469 -15 -4.924059765864118
      vertex 288.4095744205874 -15.6 -7.288866143156632
    endloop
  endfacet
  facet normal 0 -1 0
    outer loop
      vertex 280.6093705405841 -15.6 16.7176929249399
      vertex 276.11853648862393 -15.6 18.83091902264404
      vertex 282.62099499702407 -15.6 15.256162206960626
    endloop
  endfacet
  facet normal 0 -1 0
    outer loop
      vertex 276.11853648862393 -15.6 -18.83091902264404
      vertex 276.11853648862393 -15.6 18.83091902264404
      vertex 273.71015002879733 -15.6 -19.449287564428037
    endloop
  endfacet
  facet normal 0.7705132427757894 0 -0.6374239897486896
    outer loop
      vertex 286.01853648862397 -15 -11.638147995390968
      vertex 286.01853648862397 -15.6 -11.638147995390968
      vertex 284.43357882294396 -15 -13.554032697388033
    endloop
  endfacet
  facet normal 0 1 0
    outer loop
      vertex 278.43042997298846 -15 17.915575638827185
      vertex 287.3508722648685 -15 9.538722747213964
      vertex 276.11853648862393 -15 18.83091902264404
    endloop
  endfacet
  facet normal 0 1 0
    outer loop
      vertex 282.62099499702407 -15 -15.256162206960623
      vertex 287.3508722648685 -15 9.538722747213964
      vertex 284.43357882294396 -15 -13.554032697388033
    endloop
  endfacet
  facet normal 0.9048270524660178 0 0.42577929156507643
    outer loop
      vertex 288.4095744205874 -15.6 7.288866143156624
      vertex 287.3508722648685 -15 9.538722747213964
      vertex 287.3508722648685 -15.6 9.538722747213964
    endloop
  endfacet
  facet normal -0.3681245526846784 0 0.9297764858882512
    outer loop
      vertex 81.56957002701157 -15.6 17.915575638827185
      vertex 83.88146351137604 -15 18.83091902264404
      vertex 81.56957002701157 -15 17.915575638827185
    endloop
  endfacet
  facet normal 0.7705132427757899 0 0.637423989748689
    outer loop
      vertex 284.43357882294396 -15.6 13.554032697388037
      vertex 286.01853648862397 -15 11.638147995390968
      vertex 284.43357882294396 -15 13.554032697388037
    endloop
  endfacet
  facet normal 0 -1 0
    outer loop
      vertex 75.56642117705604 -15.6 13.554032697388033
      vertex 276.11853648862393 -15.6 18.83091902264404
      vertex 77.37900500297594 -15.6 15.25616220696063
    endloop
  endfacet
  facet normal 0 -1 0
    outer loop
      vertex 83.88146351137604 -15.6 18.83091902264404
      vertex 276.11853648862393 -15.6 18.83091902264404
      vertex 86.28984997120266 -15.6 19.449287564428037
    endloop
  endfacet
  facet normal -0.3681245526846784 0 0.9297764858882512
    outer loop
      vertex 83.88146351137604 -15.6 18.83091902264404
      vertex 83.88146351137604 -15 18.83091902264404
      vertex 81.56957002701157 -15.6 17.915575638827185
    endloop
  endfacet
  facet normal 0 1 0
    outer loop
      vertex 284.43357882294396 -15 13.554032697388037
      vertex 287.3508722648685 -15 9.538722747213964
      vertex 282.62099499702407 -15 15.256162206960626
    endloop
  endfacet
  facet normal 0 -1 0
    outer loop
      vertex 70.2 -15.6 0
      vertex 276.11853648862393 -15.6 18.83091902264404
      vertex 70.35612891397334 -15.6 2.4815980245732208
    endloop
  endfacet
  facet normal 0 1 0
    outer loop
      vertex 83.88146351137604 -15 -18.83091902264404
      vertex 287.3508722648685 -15 9.538722747213964
      vertex 86.28984997120264 -15 -19.449287564428037
    endloop
  endfacet
  facet normal -0.12533323356430426 0 0.9921147013144778
    outer loop
      vertex 88.7567477133196 -15.6 19.760929222879778
      vertex 86.28984997120266 -15 19.449287564428037
      vertex 86.28984997120266 -15.6 19.449287564428037
    endloop
  endfacet
  facet normal 0 1 0
    outer loop
      vertex 70.82205340965311 -15 4.9240597658641265
      vertex 287.3508722648685 -15 9.538722747213964
      vertex 70.35612891397334 -15 2.4815980245732208
    endloop
  endfacet
  facet normal 0.9980267284282709 0 0.06279051952932248
    outer loop
      vertex 289.8 -15 0
      vertex 289.64387108602665 -15 2.4815980245732243
      vertex 289.8 -15.6 0
    endloop
  endfacet
  facet normal -0.24868988716485518 0 0.9685831611286311
    outer loop
      vertex 86.28984997120266 -15.6 19.449287564428037
      vertex 83.88146351137604 -15 18.83091902264404
      vertex 83.88146351137604 -15.6 18.83091902264404
    endloop
  endfacet
  facet normal -0.9822872507286883 0 -0.18738131458572707
    outer loop
      vertex 70.82205340965311 -15.6 -4.9240597658641265
      vertex 70.35612891397334 -15 -2.4815980245732208
      vertex 70.82205340965311 -15 -4.9240597658641265
    endloop
  endfacet
  facet normal -0.9980267284282718 0 -0.0627905195293112
    outer loop
      vertex 70.2 -15.6 0
      vertex 70.35612891397334 -15 -2.4815980245732208
      vertex 70.35612891397334 -15.6 -2.4815980245732208
    endloop
  endfacet
  facet normal 0 1 0
    outer loop
      vertex 73.98146351137603 -15 -11.638147995390968
      vertex 287.3508722648685 -15 9.538722747213964
      vertex 75.56642117705604 -15 -13.554032697388033
    endloop
  endfacet
  facet normal 0 -1 0
    outer loop
      vertex 289.1779465903469 -15.6 4.924059765864125
      vertex 276.11853648862393 -15.6 18.83091902264404
      vertex 289.64387108602665 -15.6 2.4815980245732243
    endloop
  endfacet
  facet normal 0.4817536741017226 0 -0.8763066800438595
    outer loop
      vertex 280.6093705405841 -15 -16.717692924939904
      vertex 280.6093705405841 -15.6 -16.717692924939904
      vertex 278.43042997298846 -15 -17.91557563882719
    endloop
  endfacet
  facet normal 0 1 0
    outer loop
      vertex 286.01853648862397 -15 -11.638147995390968
      vertex 287.3508722648685 -15 9.538722747213964
      vertex 287.3508722648685 -15 -9.538722747213965
    endloop
  endfacet
  facet normal 0 1 0
    outer loop
      vertex 289.1779465903469 -15 4.924059765864125
      vertex 287.3508722648685 -15 9.538722747213964
      vertex 288.4095744205874 -15 7.288866143156624
    endloop
  endfacet
  facet normal 0 -1 0
    outer loop
      vertex 70.82205340965311 -15.6 4.9240597658641265
      vertex 276.11853648862393 -15.6 18.83091902264404
      vertex 71.59042557941262 -15.6 7.288866143156622
    endloop
  endfacet
  facet normal 0 1 0
    outer loop
      vertex 70.35612891397334 -15 2.4815980245732208
      vertex 287.3508722648685 -15 9.538722747213964
      vertex 70.2 -15 0
    endloop
  endfacet
  facet normal -0.7705132427757894 0 -0.6374239897486896
    outer loop
      vertex 75.56642117705604 -15 -13.554032697388033
      vertex 75.56642117705604 -15.6 -13.554032697388033
      vertex 73.98146351137603 -15 -11.638147995390968
    endloop
  endfacet
  facet normal 0.7705132427757899 0 0.637423989748689
    outer loop
      vertex 286.01853648862397 -15.6 11.638147995390968
      vertex 286.01853648862397 -15 11.638147995390968
      vertex 284.43357882294396 -15.6 13.554032697388037
    endloop
  endfacet
  facet normal 0 1 0
    outer loop
      vertex 75.56642117705604 -15 -13.554032697388033
      vertex 287.3508722648685 -15 9.538722747213964
      vertex 77.37900500297594 -15 -15.25616220696063
    endloop
  endfacet
  facet normal 0.8443279255020185 0 -0.5358267949789913
    outer loop
      vertex 287.3508722648685 -15.6 -9.538722747213965
      vertex 286.01853648862397 -15.6 -11.638147995390968
      vertex 287.3508722648685 -15 -9.538722747213965
    endloop
  endfacet
  facet normal 0.9980267284282709 0 0.06279051952932248
    outer loop
      vertex 289.8 -15.6 0
      vertex 289.64387108602665 -15 2.4815980245732243
      vertex 289.64387108602665 -15.6 2.4815980245732243
    endloop
  endfacet
  facet normal 0.7705132427757894 0 -0.6374239897486896
    outer loop
      vertex 284.43357882294396 -15 -13.554032697388033
      vertex 286.01853648862397 -15.6 -11.638147995390968
      vertex 284.43357882294396 -15.6 -13.554032697388033
    endloop
  endfacet
  facet normal 0 -1 0
    outer loop
      vertex 271.2432522866804 -15.6 19.760929222879778
      vertex 276.11853648862393 -15.6 18.83091902264404
      vertex 273.71015002879733 -15.6 19.449287564428037
    endloop
  endfacet
  facet normal -0.6845471059286878 0 -0.7289686274214121
    outer loop
      vertex 77.37900500297594 -15 -15.25616220696063
      vertex 75.56642117705604 -15.6 -13.554032697388033
      vertex 75.56642117705604 -15 -13.554032697388033
    endloop
  endfacet
  facet normal 0.3681245526846706 0 0.9297764858882543
    outer loop
      vertex 276.11853648862393 -15 18.83091902264404
      vertex 276.11853648862393 -15.6 18.83091902264404
      vertex 278.43042997298846 -15 17.915575638827185
    endloop
  endfacet
  facet normal 0 -1 0
    outer loop
      vertex 88.7567477133196 -15.6 19.760929222879778
      vertex 276.11853648862393 -15.6 18.83091902264404
      vertex 271.2432522866804 -15.6 19.760929222879778
    endloop
  endfacet
  facet normal 0.982287250728689 0 -0.18738131458572221
    outer loop
      vertex 289.64387108602665 -15.6 -2.4815980245732208
      vertex 289.1779465903469 -15 -4.924059765864118
      vertex 289.64387108602665 -15 -2.4815980245732208
    endloop
  endfacet
  facet normal -0.5877852522924728 0 -0.8090169943749477
    outer loop
      vertex 77.37900500297594 -15.6 -15.25616220696063
      vertex 79.39062945941586 -15 -16.717692924939897
      vertex 79.39062945941586 -15.6 -16.717692924939897
    endloop
  endfacet
  facet normal 0 -1 0
    outer loop
      vertex 77.37900500297594 -15.6 15.25616220696063
      vertex 276.11853648862393 -15.6 18.83091902264404
      vertex 79.39062945941586 -15.6 16.717692924939897
    endloop
  endfacet
  facet normal -0.5877852522924728 0 0.8090169943749477
    outer loop
      vertex 77.37900500297594 -15 15.25616220696063
      vertex 77.37900500297594 -15.6 15.25616220696063
      vertex 79.39062945941586 -15 16.717692924939897
    endloop
  endfacet
  facet normal 0 1 0
    outer loop
      vertex 286.01853648862397 -15 11.638147995390968
      vertex 287.3508722648685 -15 9.538722747213964
      vertex 284.43357882294396 -15 13.554032697388037
    endloop
  endfacet
  facet normal 0 1 0
    outer loop
      vertex 70.2 -15 0
      vertex 287.3508722648685 -15 9.538722747213964
      vertex 70.35612891397334 -15 -2.4815980245732208
    endloop
  endfacet
  facet normal -0.9822872507286883 0 0.18738131458572707
    outer loop
      vertex 70.35612891397334 -15.6 2.4815980245732208
      vertex 70.82205340965311 -15 4.9240597658641265
      vertex 70.35612891397334 -15 2.4815980245732208
    endloop
  endfacet
  facet normal 0 -1 0
    outer loop
      vertex 72.6491277351315 -15.6 9.538722747213965
      vertex 276.11853648862393 -15.6 18.83091902264404
      vertex 73.98146351137603 -15.6 11.638147995390968
    endloop
  endfacet
  facet normal 0 1 0
    outer loop
      vertex 70.82205340965311 -15 -4.9240597658641265
      vertex 287.3508722648685 -15 9.538722747213964
      vertex 71.59042557941262 -15 -7.288866143156622
    endloop
  endfacet
  facet normal -0.5877852522924728 0 0.8090169943749477
    outer loop
      vertex 79.39062945941586 -15 16.717692924939897
      vertex 77.37900500297594 -15.6 15.25616220696063
      vertex 79.39062945941586 -15.6 16.717692924939897
    endloop
  endfacet
  facet normal 0 -1 0
    outer loop
      vertex 289.64387108602665 -15.6 2.4815980245732243
      vertex 276.11853648862393 -15.6 18.83091902264404
      vertex 289.8 -15.6 0
    endloop
  endfacet
  facet normal -0.48175367410171416 0 0.8763066800438643
    outer loop
      vertex 79.39062945941586 -15 16.717692924939897
      vertex 79.39062945941586 -15.6 16.717692924939897
      vertex 81.56957002701157 -15 17.915575638827185
    endloop
  endfacet
  facet normal 0.8443279255020186 0 0.5358267949789911
    outer loop
      vertex 286.01853648862397 -15.6 11.638147995390968
      vertex 287.3508722648685 -15 9.538722747213964
      vertex 286.01853648862397 -15 11.638147995390968
    endloop
  endfacet
  facet normal -0.8443279255020159 0 -0.5358267949789954
    outer loop
      vertex 72.6491277351315 -15 -9.538722747213965
      vertex 73.98146351137603 -15 -11.638147995390968
      vertex 72.6491277351315 -15.6 -9.538722747213965
    endloop
  endfacet
  facet normal 0.12533323356430426 0 0.9921147013144778
    outer loop
      vertex 271.2432522866804 -15 19.760929222879778
      vertex 273.71015002879733 -15.6 19.449287564428037
      vertex 273.71015002879733 -15 19.449287564428037
    endloop
  endfacet
  facet normal 0.4817536741017226 0 0.8763066800438595
    outer loop
      vertex 278.43042997298846 -15.6 17.915575638827185
      vertex 280.6093705405841 -15.6 16.7176929249399
      vertex 278.43042997298846 -15 17.915575638827185
    endloop
  endfacet
  facet normal 0 1 0
    outer loop
      vertex 70.35612891397334 -15 -2.4815980245732208
      vertex 287.3508722648685 -15 9.538722747213964
      vertex 70.82205340965311 -15 -4.9240597658641265
    endloop
  endfacet
  facet normal 0.6845471059286893 0 0.7289686274214109
    outer loop
      vertex 284.43357882294396 -15 13.554032697388037
      vertex 282.62099499702407 -15.6 15.256162206960626
      vertex 284.43357882294396 -15.6 13.554032697388037
    endloop
  endfacet
  facet normal 0 -1 0
    outer loop
      vertex 280.6093705405841 -15.6 -16.717692924939904
      vertex 276.11853648862393 -15.6 18.83091902264404
      vertex 278.43042997298846 -15.6 -17.91557563882719
    endloop
  endfacet
  facet normal 0 -1 0
    outer loop
      vertex 284.43357882294396 -15.6 -13.554032697388033
      vertex 276.11853648862393 -15.6 18.83091902264404
      vertex 282.62099499702407 -15.6 -15.256162206960623
    endloop
  endfacet
  facet normal -0.24868988716485518 0 0.9685831611286311
    outer loop
      vertex 86.28984997120266 -15 19.449287564428037
      vertex 83.88146351137604 -15 18.83091902264404
      vertex 86.28984997120266 -15.6 19.449287564428037
    endloop
  endfacet
  facet normal 0 1 0
    outer loop
      vertex 287.3508722648685 -15 -9.538722747213965
      vertex 287.3508722648685 -15 9.538722747213964
      vertex 288.4095744205874 -15 -7.288866143156632
    endloop
  endfacet
  facet normal 0 1 0
    outer loop
      vertex 72.6491277351315 -15 9.538722747213965
      vertex 287.3508722648685 -15 9.538722747213964
      vertex 71.59042557941262 -15 7.288866143156622
    endloop
  endfacet
  facet normal 0.24868988716485657 0 0.9685831611286305
    outer loop
      vertex 273.71015002879733 -15.6 19.449287564428037
      vertex 276.11853648862393 -15.6 18.83091902264404
      vertex 273.71015002879733 -15 19.449287564428037
    endloop
  endfacet
  facet normal 0.6845471059286893 0 0.7289686274214109
    outer loop
      vertex 282.62099499702407 -15 15.256162206960626
      vertex 282.62099499702407 -15.6 15.256162206960626
      vertex 284.43357882294396 -15 13.554032697388037
    endloop
  endfacet
  facet normal 0.9048270524660174 0 -0.4257792915650774
    outer loop
      vertex 287.3508722648685 -15.6 -9.538722747213965
      vertex 287.3508722648685 -15 -9.538722747213965
      vertex 288.4095744205874 -15.6 -7.288866143156632
    endloop
  endfacet
  facet normal 0.5877852522924684 0 -0.8090169943749508
    outer loop
      vertex 282.62099499702407 -15 -15.256162206960623
      vertex 280.6093705405841 -15.6 -16.717692924939904
      vertex 280.6093705405841 -15 -16.717692924939904
    endloop
  endfacet
  facet normal 0 1 0
    outer loop
      vertex 79.39062945941586 -15 -16.717692924939897
      vertex 287.3508722648685 -15 9.538722747213964
      vertex 81.56957002701157 -15 -17.91557563882719
    endloop
  endfacet
  facet normal 0 1 0
    outer loop
      vertex 273.71015002879733 -15 -19.449287564428037
      vertex 287.3508722648685 -15 9.538722747213964
      vertex 276.11853648862393 -15 -18.83091902264404
    endloop
  endfacet
  facet normal 0 1 0
    outer loop
      vertex 72.6491277351315 -15 -9.538722747213965
      vertex 287.3508722648685 -15 9.538722747213964
      vertex 73.98146351137603 -15 -11.638147995390968
    endloop
  endfacet
  facet normal 0 1 0
    outer loop
      vertex 289.8 -15 0
      vertex 287.3508722648685 -15 9.538722747213964
      vertex 289.64387108602665 -15 2.4815980245732243
    endloop
  endfacet
  facet normal 0 1 0
    outer loop
      vertex 289.64387108602665 -15 2.4815980245732243
      vertex 287.3508722648685 -15 9.538722747213964
      vertex 289.1779465903469 -15 4.924059765864125
    endloop
  endfacet
  facet normal -0.9510565162951536 0 0.3090169943749469
    outer loop
      vertex 71.59042557941262 -15 7.288866143156622
      vertex 70.82205340965311 -15 4.9240597658641265
      vertex 71.59042557941262 -15.6 7.288866143156622
    endloop
  endfacet
  facet normal 0.982287250728689 0 -0.18738131458572221
    outer loop
      vertex 289.1779465903469 -15.6 -4.924059765864118
      vertex 289.1779465903469 -15 -4.924059765864118
      vertex 289.64387108602665 -15.6 -2.4815980245732208
    endloop
  endfacet
  facet normal 0 1 0
    outer loop
      vertex 284.43357882294396 -15 -13.554032697388033
      vertex 287.3508722648685 -15 9.538722747213964
      vertex 286.01853648862397 -15 -11.638147995390968
    endloop
  endfacet
  facet normal 0 -1 0
    outer loop
      vertex 88.75674771331958 -15.6 -19.760929222879778
      vertex 276.11853648862393 -15.6 18.83091902264404
      vertex 86.28984997120264 -15.6 -19.449287564428037
    endloop
  endfacet
  facet normal 0 -1 0
    outer loop
      vertex 271.24325228668044 -15.6 -19.760929222879778
      vertex 276.11853648862393 -15.6 18.83091902264404
      vertex 88.75674771331958 -15.6 -19.760929222879778
    endloop
  endfacet
  facet normal 0 -1 0
    outer loop
      vertex 273.71015002879733 -15.6 -19.449287564428037
      vertex 276.11853648862393 -15.6 18.83091902264404
      vertex 271.24325228668044 -15.6 -19.760929222879778
    endloop
  endfacet
  facet normal 0 -1 0
    outer loop
      vertex 71.59042557941262 -15.6 7.288866143156622
      vertex 276.11853648862393 -15.6 18.83091902264404
      vertex 72.6491277351315 -15.6 9.538722747213965
    endloop
  endfacet
  facet normal 0.5877852522924684 0 -0.8090169943749508
    outer loop
      vertex 282.62099499702407 -15.6 -15.256162206960623
      vertex 280.6093705405841 -15.6 -16.717692924939904
      vertex 282.62099499702407 -15 -15.256162206960623
    endloop
  endfacet
  facet normal 0 1 0
    outer loop
      vertex 282.62099499702407 -15 15.256162206960626
      vertex 287.3508722648685 -15 9.538722747213964
      vertex 280.6093705405841 -15 16.7176929249399
    endloop
  endfacet
  facet normal 0.8443279255020186 0 0.5358267949789911
    outer loop
      vertex 287.3508722648685 -15.6 9.538722747213964
      vertex 287.3508722648685 -15 9.538722747213964
      vertex 286.01853648862397 -15.6 11.638147995390968
    endloop
  endfacet
  facet normal 0 -1 0
    outer loop
      vertex 289.8 -15.6 0
      vertex 276.11853648862393 -15.6 18.83091902264404
      vertex 289.64387108602665 -15.6 -2.4815980245732208
    endloop
  endfacet
  facet normal 0 -1 0
    outer loop
      vertex 73.98146351137603 -15.6 -11.638147995390968
      vertex 276.11853648862393 -15.6 18.83091902264404
      vertex 72.6491277351315 -15.6 -9.538722747213965
    endloop
  endfacet
  facet normal -0.36812455268467725 0 -0.9297764858882518
    outer loop
      vertex 83.88146351137604 -15 -18.83091902264404
      vertex 83.88146351137604 -15.6 -18.83091902264404
      vertex 81.56957002701157 -15 -17.91557563882719
    endloop
  endfacet
  facet normal -0.24868988716485657 0 -0.9685831611286305
    outer loop
      vertex 86.28984997120264 -15 -19.449287564428037
      vertex 83.88146351137604 -15.6 -18.83091902264404
      vertex 83.88146351137604 -15 -18.83091902264404
    endloop
  endfacet
  facet normal 0 -1 0
    outer loop
      vertex 288.4095744205874 -15.6 7.288866143156624
      vertex 276.11853648862393 -15.6 18.83091902264404
      vertex 289.1779465903469 -15.6 4.924059765864125
    endloop
  endfacet
  facet normal -0.6845471059286878 0 0.7289686274214121
    outer loop
      vertex 75.56642117705604 -15.6 13.554032697388033
      vertex 77.37900500297594 -15.6 15.25616220696063
      vertex 75.56642117705604 -15 13.554032697388033
    endloop
  endfacet
  facet normal 0 1 0
    outer loop
      vertex 71.59042557941262 -15 -7.288866143156622
      vertex 287.3508722648685 -15 9.538722747213964
      vertex 72.6491277351315 -15 -9.538722747213965
    endloop
  endfacet
  facet normal 0 1 0
    outer loop
      vertex 71.59042557941262 -15 7.288866143156622
      vertex 287.3508722648685 -15 9.538722747213964
      vertex 70.82205340965311 -15 4.9240597658641265
    endloop
  endfacet
  facet normal -0.6845471059286878 0 -0.7289686274214121
    outer loop
      vertex 77.37900500297594 -15.6 -15.25616220696063
      vertex 75.56642117705604 -15.6 -13.554032697388033
      vertex 77.37900500297594 -15 -15.25616220696063
    endloop
  endfacet
  facet normal 0 1 0
    outer loop
      vertex 77.37900500297594 -15 -15.25616220696063
      vertex 287.3508722648685 -15 9.538722747213964
      vertex 79.39062945941586 -15 -16.717692924939897
    endloop
  endfacet
  facet normal 0 -1 0
    outer loop
      vertex 83.88146351137604 -15.6 -18.83091902264404
      vertex 276.11853648862393 -15.6 18.83091902264404
      vertex 81.56957002701157 -15.6 -17.91557563882719
    endloop
  endfacet
  facet normal 0.12533323356430426 0 0.9921147013144778
    outer loop
      vertex 271.2432522866804 -15.6 19.760929222879778
      vertex 273.71015002879733 -15.6 19.449287564428037
      vertex 271.2432522866804 -15 19.760929222879778
    endloop
  endfacet
  facet normal 0 1 0
    outer loop
      vertex 280.6093705405841 -15 16.7176929249399
      vertex 287.3508722648685 -15 9.538722747213964
      vertex 278.43042997298846 -15 17.915575638827185
    endloop
  endfacet
  facet normal 0 1 0
    outer loop
      vertex 276.11853648862393 -15 18.83091902264404
      vertex 287.3508722648685 -15 9.538722747213964
      vertex 273.71015002879733 -15 19.449287564428037
    endloop
  endfacet
  facet normal 0.24868988716485657 0 0.9685831611286305
    outer loop
      vertex 273.71015002879733 -15 19.449287564428037
      vertex 276.11853648862393 -15.6 18.83091902264404
      vertex 276.11853648862393 -15 18.83091902264404
    endloop
  endfacet
  facet normal 0.4817536741017226 0 0.8763066800438595
    outer loop
      vertex 278.43042997298846 -15 17.915575638827185
      vertex 280.6093705405841 -15.6 16.7176929249399
      vertex 280.6093705405841 -15 16.7176929249399
    endloop
  endfacet
  facet normal 0 1 0
    outer loop
      vertex 83.88146351137604 -15 18.83091902264404
      vertex 287.3508722648685 -15 9.538722747213964
      vertex 81.56957002701157 -15 17.915575638827185
    endloop
  endfacet
  facet normal 0 1 0
    outer loop
      vertex 79.39062945941586 -15 16.717692924939897
      vertex 287.3508722648685 -15 9.538722747213964
      vertex 77.37900500297594 -15 15.25616220696063
    endloop
  endfacet
  facet normal 0 1 0
    outer loop
      vertex 86.28984997120266 -15 19.449287564428037
      vertex 287.3508722648685 -15 9.538722747213964
      vertex 83.88146351137604 -15 18.83091902264404
    endloop
  endfacet
  facet normal 0 1 0
    outer loop
      vertex 81.56957002701157 -15 17.915575638827185
      vertex 287.3508722648685 -15 9.538722747213964
      vertex 79.39062945941586 -15 16.717692924939897
    endloop
  endfacet
  facet normal 0 -1 0
    outer loop
      vertex 289.64387108602665 -15.6 -2.4815980245732208
      vertex 276.11853648862393 -15.6 18.83091902264404
      vertex 289.1779465903469 -15.6 -4.924059765864118
    endloop
  endfacet
  facet normal 0 -1 0
    outer loop
      vertex 289.1779465903469 -15.6 -4.924059765864118
      vertex 276.11853648862393 -15.6 18.83091902264404
      vertex 288.4095744205874 -15.6 -7.288866143156632
    endloop
  endfacet
  facet normal 0 1 0
    outer loop
      vertex 75.56642117705604 -15 13.554032697388033
      vertex 287.3508722648685 -15 9.538722747213964
      vertex 73.98146351137603 -15 11.638147995390968
    endloop
  endfacet
  facet normal 0 1 0
    outer loop
      vertex 73.98146351137603 -15 11.638147995390968
      vertex 287.3508722648685 -15 9.538722747213964
      vertex 72.6491277351315 -15 9.538722747213965
    endloop
  endfacet
  facet normal 0 -1 0
    outer loop
      vertex 81.56957002701157 -15.6 17.915575638827185
      vertex 276.11853648862393 -15.6 18.83091902264404
      vertex 83.88146351137604 -15.6 18.83091902264404
    endloop
  endfacet
  facet normal 0 -1 0
    outer loop
      vertex 86.28984997120266 -15.6 19.449287564428037
      vertex 276.11853648862393 -15.6 18.83091902264404
      vertex 88.7567477133196 -15.6 19.760929222879778
    endloop
  endfacet
  facet normal 0 -1 0
    outer loop
      vertex 287.3508722648685 -15.6 -9.538722747213965
      vertex 276.11853648862393 -15.6 18.83091902264404
      vertex 286.01853648862397 -15.6 -11.638147995390968
    endloop
  endfacet
  facet normal 0 -1 0
    outer loop
      vertex 286.01853648862397 -15.6 -11.638147995390968
      vertex 276.11853648862393 -15.6 18.83091902264404
      vertex 284.43357882294396 -15.6 -13.554032697388033
    endloop
  endfacet
  facet normal 0 1 0
    outer loop
      vertex 288.4095744205874 -15 -7.288866143156632
      vertex 287.3508722648685 -15 9.538722747213964
      vertex 289.1779465903469 -15 -4.924059765864118
    endloop
  endfacet
  facet normal 0 1 0
    outer loop
      vertex 289.1779465903469 -15 -4.924059765864118
      vertex 287.3508722648685 -15 9.538722747213964
      vertex 289.64387108602665 -15 -2.4815980245732208
    endloop
  endfacet
  facet normal 0 1 0
    outer loop
      vertex 88.75674771331958 -15 -19.760929222879778
      vertex 287.3508722648685 -15 9.538722747213964
      vertex 271.24325228668044 -15 -19.760929222879778
    endloop
  endfacet
  facet normal 0 1 0
    outer loop
      vertex 86.28984997120264 -15 -19.449287564428037
      vertex 287.3508722648685 -15 9.538722747213964
      vertex 88.75674771331958 -15 -19.760929222879778
    endloop
  endfacet
  facet normal 0 -1 0
    outer loop
      vertex 278.43042997298846 -15.6 17.915575638827185
      vertex 276.11853648862393 -15.6 18.83091902264404
      vertex 280.6093705405841 -15.6 16.7176929249399
    endloop
  endfacet
  facet normal 0.3681245526846706 0 0.9297764858882543
    outer loop
      vertex 278.43042997298846 -15 17.915575638827185
      vertex 276.11853648862393 -15.6 18.83091902264404
      vertex 278.43042997298846 -15.6 17.915575638827185
    endloop
  endfacet
  facet normal 0 -1 0
    outer loop
      vertex 77.37900500297594 -15.6 -15.25616220696063
      vertex 276.11853648862393 -15.6 18.83091902264404
      vertex 75.56642117705604 -15.6 -13.554032697388033
    endloop
  endfacet
  facet normal 0 -1 0
    outer loop
      vertex 79.39062945941586 -15.6 -16.717692924939897
      vertex 276.11853648862393 -15.6 18.83091902264404
      vertex 77.37900500297594 -15.6 -15.25616220696063
    endloop
  endfacet
endsolid OpenSCAD_Model
