solid OpenSCAD_Model
  facet normal 0 0 -1
    outer loop
      vertex -1.15 -1.9918584287042087 2
      vertex -1.15 0 2
      vertex -1.1409319065116494 -0.14413321859894968 2
    endloop
  endfacet
  facet normal 0 0 -1
    outer loop
      vertex -1.1138706352979257 0.28599337023958304 2
      vertex -1.15 1.9918584287042087 2
      vertex -1.0692429587714891 0.4233432355873795 2
    endloop
  endfacet
  facet normal 0 0 -1
    outer loop
      vertex -1.0692429587714891 0.4233432355873795 2
      vertex -1.15 1.9918584287042087 2
      vertex -1.007752682050443 0.5540167252169726 2
    endloop
  endfacet
  facet normal 0 0 -1
    outer loop
      vertex -1.007752682050443 0.5540167252169726 2
      vertex -1.15 1.9918584287042087 2
      vertex -0.9303695435311895 0.675953040136344 2
    endloop
  endfacet
  facet normal 0 0 -1
    outer loop
      vertex -0.9303695435311895 0.675953040136344 2
      vertex -1.15 1.9918584287042087 2
      vertex -0.8383139215346234 0.7872291718179917 2
    endloop
  endfacet
  facet normal 0 0 -1
    outer loop
      vertex -0.8383139215346234 0.7872291718179917 2
      vertex -1.15 1.9918584287042087 2
      vertex -0.7330375882109931 0.8860902291921577 2
    endloop
  endfacet
  facet normal 0 0 -1
    outer loop
      vertex -0.7330375882109931 0.8860902291921577 2
      vertex -1.15 1.9918584287042087 2
      vertex -0.6162008142258463 0.9709771143273171 2
    endloop
  endfacet
  facet normal 0 0 -1
    outer loop
      vertex -0.6162008142258463 0.9709771143273171 2
      vertex -1.15 1.9918584287042087 2
      vertex -0.48964618529983356 1.0405511103359224 2
    endloop
  endfacet
  facet normal 0 0 -1
    outer loop
      vertex -1.15 -1.9918584287042087 2
      vertex -0.07220909745871082 -1.147730737692512 2
      vertex 0.07220909745871082 -1.147730737692512 2
    endloop
  endfacet
  facet normal 0 0 -1
    outer loop
      vertex -1.15 -1.9918584287042087 2
      vertex -0.21548851177358352 -1.1296303383379918 2
      vertex -0.07220909745871082 -1.147730737692512 2
    endloop
  endfacet
  facet normal 0 0 -1
    outer loop
      vertex -1.15 -1.9918584287042087 2
      vertex -0.3553695435311895 -1.0937149937394264 2
      vertex -0.21548851177358352 -1.1296303383379918 2
    endloop
  endfacet
  facet normal 0 0 -1
    outer loop
      vertex -1.15 -1.9918584287042087 2
      vertex -0.4896461852998333 -1.0405511103359224 2
      vertex -0.3553695435311895 -1.0937149937394264 2
    endloop
  endfacet
  facet normal 0 0 -1
    outer loop
      vertex -1.1409319065116494 0.14413321859894968 2
      vertex -1.15 1.9918584287042087 2
      vertex -1.1138706352979257 0.28599337023958304 2
    endloop
  endfacet
  facet normal 0 0 -1
    outer loop
      vertex -1.0692429587714891 -0.4233432355873795 2
      vertex -1.15 -1.9918584287042087 2
      vertex -1.1138706352979257 -0.28599337023958304 2
    endloop
  endfacet
  facet normal 0 0 -1
    outer loop
      vertex -0.9303695435311895 -0.675953040136344 2
      vertex -1.15 -1.9918584287042087 2
      vertex -1.007752682050443 -0.5540167252169726 2
    endloop
  endfacet
  facet normal 0 0 -1
    outer loop
      vertex -1.007752682050443 -0.5540167252169726 2
      vertex -1.15 -1.9918584287042087 2
      vertex -1.0692429587714891 -0.4233432355873795 2
    endloop
  endfacet
  facet normal 0 0 -1
    outer loop
      vertex -1.15 -1.9918584287042087 2
      vertex -0.7330375882109931 -0.8860902291921577 2
      vertex -0.6162008142258463 -0.9709771143273171 2
    endloop
  endfacet
  facet normal 0 0 -1
    outer loop
      vertex -0.7330375882109931 -0.8860902291921577 2
      vertex -1.15 -1.9918584287042087 2
      vertex -0.8383139215346234 -0.7872291718179917 2
    endloop
  endfacet
  facet normal 0 0 -1
    outer loop
      vertex -1.15 -1.9918584287042087 2
      vertex -0.9303695435311895 -0.675953040136344 2
      vertex -0.8383139215346234 -0.7872291718179917 2
    endloop
  endfacet
  facet normal 0 0 -1
    outer loop
      vertex -1.1138706352979257 -0.28599337023958304 2
      vertex -1.15 -1.9918584287042087 2
      vertex -1.1409319065116494 -0.14413321859894968 2
    endloop
  endfacet
  facet normal 0 0 -1
    outer loop
      vertex -1.15 -1.9918584287042087 2
      vertex -2.3 0 2
      vertex -1.15 0 2
    endloop
  endfacet
  facet normal 0 0 -1
    outer loop
      vertex -0.48964618529983356 1.0405511103359224 2
      vertex -1.15 1.9918584287042087 2
      vertex -0.3553695435311895 1.0937149937394264 2
    endloop
  endfacet
  facet normal 0 0 -1
    outer loop
      vertex -0.3553695435311895 1.0937149937394264 2
      vertex -1.15 1.9918584287042087 2
      vertex -0.21548851177358325 1.129630338337992 2
    endloop
  endfacet
  facet normal 0 0 -1
    outer loop
      vertex -0.21548851177358325 1.129630338337992 2
      vertex -1.15 1.9918584287042087 2
      vertex -0.07220909745871026 1.147730737692512 2
    endloop
  endfacet
  facet normal 0 0 -1
    outer loop
      vertex 0.07220909745871026 1.147730737692512 2
      vertex 1.15 1.9918584287042087 2
      vertex 0.21548851177358325 1.129630338337992 2
    endloop
  endfacet
  facet normal 0 0 -1
    outer loop
      vertex 1.1409319065116494 0.1441332185989499 2
      vertex 1.1138706352979257 0.285993370239583 2
      vertex 1.15 1.9918584287042087 2
    endloop
  endfacet
  facet normal 0 0 -1
    outer loop
      vertex 0.9303695435311895 0.675953040136344 2
      vertex 0.8383139215346233 0.787229171817992 2
      vertex 1.15 1.9918584287042087 2
    endloop
  endfacet
  facet normal 0 0 -1
    outer loop
      vertex 0.48964618529983356 1.0405511103359224 2
      vertex 1.15 1.9918584287042087 2
      vertex 0.6162008142258462 0.9709771143273173 2
    endloop
  endfacet
  facet normal 0 0 -1
    outer loop
      vertex 0.7330375882109932 0.8860902291921574 2
      vertex 1.15 1.9918584287042087 2
      vertex 0.8383139215346233 0.787229171817992 2
    endloop
  endfacet
  facet normal 0 0 -1
    outer loop
      vertex 0.7330375882109932 0.8860902291921574 2
      vertex 0.6162008142258462 0.9709771143273173 2
      vertex 1.15 1.9918584287042087 2
    endloop
  endfacet
  facet normal 0 0 -1
    outer loop
      vertex 1.069242958771489 0.42334323558737963 2
      vertex 1.007752682050443 0.5540167252169725 2
      vertex 1.15 1.9918584287042087 2
    endloop
  endfacet
  facet normal 0 0 -1
    outer loop
      vertex 0.9303695435311895 0.675953040136344 2
      vertex 1.15 1.9918584287042087 2
      vertex 1.007752682050443 0.5540167252169725 2
    endloop
  endfacet
  facet normal 0 0 -1
    outer loop
      vertex 1.1138706352979257 0.285993370239583 2
      vertex 1.069242958771489 0.42334323558737963 2
      vertex 1.15 1.9918584287042087 2
    endloop
  endfacet
  facet normal 0 0 -1
    outer loop
      vertex 1.15 0 2
      vertex 1.1409319065116494 0.1441332185989499 2
      vertex 1.15 1.9918584287042087 2
    endloop
  endfacet
  facet normal 0 0 -1
    outer loop
      vertex 0.48964618529983356 1.0405511103359224 2
      vertex 0.3553695435311895 1.0937149937394264 2
      vertex 1.15 1.9918584287042087 2
    endloop
  endfacet
  facet normal 0 0 -1
    outer loop
      vertex 0.21548851177358325 1.129630338337992 2
      vertex 1.15 1.9918584287042087 2
      vertex 0.3553695435311895 1.0937149937394264 2
    endloop
  endfacet
  facet normal 0 0 -1
    outer loop
      vertex -0.4896461852998333 -1.0405511103359224 2
      vertex -1.15 -1.9918584287042087 2
      vertex -0.6162008142258463 -0.9709771143273171 2
    endloop
  endfacet
  facet normal 0 0 -1
    outer loop
      vertex -0.07220909745871026 1.147730737692512 2
      vertex 1.15 1.9918584287042087 2
      vertex 0.07220909745871026 1.147730737692512 2
    endloop
  endfacet
  facet normal -0.8660254037844386 0.5 0
    outer loop
      vertex 1.15 -1.9918584287042087 0
      vertex 1.15 -1.9918584287042087 2
      vertex 2.3 0 0
    endloop
  endfacet
  facet normal 0.8660254037844386 -0.5 0
    outer loop
      vertex -1.15 1.9918584287042087 2
      vertex -2.3 0 0
      vertex -1.15 1.9918584287042087 0
    endloop
  endfacet
  facet normal 0.8660254037844386 -0.5 0
    outer loop
      vertex -2.3 0 2
      vertex -2.3 0 0
      vertex -1.15 1.9918584287042087 2
    endloop
  endfacet
  facet normal 0 -1 0
    outer loop
      vertex -1.15 1.9918584287042087 0
      vertex 1.15 1.9918584287042087 2
      vertex -1.15 1.9918584287042087 2
    endloop
  endfacet
  facet normal 0 0 -1
    outer loop
      vertex 1.15 0 2
      vertex 1.15 1.9918584287042087 2
      vertex 2.3 0 2
    endloop
  endfacet
  facet normal -0.8660254037844386 -0.5 0
    outer loop
      vertex 1.15 1.9918584287042087 0
      vertex 2.3 0 2
      vertex 1.15 1.9918584287042087 2
    endloop
  endfacet
  facet normal -0.8660254037844386 -0.5 0
    outer loop
      vertex 2.3 0 0
      vertex 2.3 0 2
      vertex 1.15 1.9918584287042087 0
    endloop
  endfacet
  facet normal 0 0 -1
    outer loop
      vertex -2.3 0 2
      vertex -1.15 1.9918584287042087 2
      vertex -1.15 0 2
    endloop
  endfacet
  facet normal 0 0 -1
    outer loop
      vertex -1.15 0 2
      vertex -1.15 1.9918584287042087 2
      vertex -1.1409319065116494 0.14413321859894968 2
    endloop
  endfacet
  facet normal 0 0 -1
    outer loop
      vertex 1.15 -1.9918584287042087 2
      vertex 0.6162008142258456 -0.9709771143273175 2
      vertex 0.7330375882109934 -0.8860902291921573 2
    endloop
  endfacet
  facet normal 0 0 -1
    outer loop
      vertex 0.07220909745871082 -1.147730737692512 2
      vertex 0.21548851177358352 -1.1296303383379918 2
      vertex 1.15 -1.9918584287042087 2
    endloop
  endfacet
  facet normal 0.8660254037844387 0.5 0
    outer loop
      vertex -1.15 -1.9918584287042087 0
      vertex -2.07 -0.39837168574084175 0
      vertex -2.3 0 2
    endloop
  endfacet
  facet normal 0.8660254037844387 0.5 0
    outer loop
      vertex -2.3 0 2
      vertex -2.07 -0.39837168574084175 0
      vertex -2.3 0 0
    endloop
  endfacet
  facet normal 0 1 0
    outer loop
      vertex 1.15 -1.9918584287042087 0
      vertex -1.15 -1.9918584287042087 0
      vertex -1.15 -1.9918584287042087 2
    endloop
  endfacet
  facet normal 0.8660254037844386 0.5 0
    outer loop
      vertex -1.15 -1.9918584287042087 0
      vertex -2.3 0 2
      vertex -1.15 -1.9918584287042087 2
    endloop
  endfacet
  facet normal 0 0 -1
    outer loop
      vertex 1.15 -1.9918584287042087 2
      vertex 1.15 0 2
      vertex 2.3 0 2
    endloop
  endfacet
  facet normal 0 0 -1
    outer loop
      vertex 1.15 -1.9918584287042087 2
      vertex 0.21548851177358352 -1.1296303383379918 2
      vertex 0.3553695435311895 -1.0937149937394264 2
    endloop
  endfacet
  facet normal 0 -1 0
    outer loop
      vertex -1.15 1.9918584287042087 0
      vertex 1.15 1.9918584287042087 0
      vertex 1.15 1.9918584287042087 2
    endloop
  endfacet
  facet normal 0 0 -1
    outer loop
      vertex -0.07220909745871026 1.147730737692512 2
      vertex -1.15 1.9918584287042087 2
      vertex 1.15 1.9918584287042087 2
    endloop
  endfacet
  facet normal 0 0 -1
    outer loop
      vertex 0.3553695435311895 -1.0937149937394264 2
      vertex 0.4896461852998333 -1.0405511103359224 2
      vertex 1.15 -1.9918584287042087 2
    endloop
  endfacet
  facet normal 0 0 -1
    outer loop
      vertex 1.15 -1.9918584287042087 2
      vertex 0.4896461852998333 -1.0405511103359224 2
      vertex 0.6162008142258456 -0.9709771143273175 2
    endloop
  endfacet
  facet normal 0 0 -1
    outer loop
      vertex 1.15 -1.9918584287042087 2
      vertex 0.7330375882109934 -0.8860902291921573 2
      vertex 0.8383139215346234 -0.7872291718179917 2
    endloop
  endfacet
  facet normal 0 0 -1
    outer loop
      vertex 1.15 -1.9918584287042087 2
      vertex 0.8383139215346234 -0.7872291718179917 2
      vertex 0.9303695435311895 -0.675953040136344 2
    endloop
  endfacet
  facet normal 0 0 -1
    outer loop
      vertex 1.15 -1.9918584287042087 2
      vertex 0.9303695435311895 -0.675953040136344 2
      vertex 1.007752682050443 -0.5540167252169726 2
    endloop
  endfacet
  facet normal 0 0 -1
    outer loop
      vertex 1.15 -1.9918584287042087 2
      vertex 1.007752682050443 -0.5540167252169726 2
      vertex 1.069242958771489 -0.4233432355873801 2
    endloop
  endfacet
  facet normal 0 0 -1
    outer loop
      vertex 1.15 -1.9918584287042087 2
      vertex 1.069242958771489 -0.4233432355873801 2
      vertex 1.1138706352979257 -0.2859933702395826 2
    endloop
  endfacet
  facet normal 0 0 -1
    outer loop
      vertex 1.15 -1.9918584287042087 2
      vertex 1.1138706352979257 -0.2859933702395826 2
      vertex 1.1409319065116494 -0.14413321859894968 2
    endloop
  endfacet
  facet normal -0.8660254037844386 0.5 0
    outer loop
      vertex 2.3 0 2
      vertex 2.3 0 0
      vertex 1.15 -1.9918584287042087 2
    endloop
  endfacet
  facet normal 0 1 0
    outer loop
      vertex 1.15 -1.9918584287042087 0
      vertex -1.15 -1.9918584287042087 2
      vertex 1.15 -1.9918584287042087 2
    endloop
  endfacet
  facet normal 0 0 -1
    outer loop
      vertex 1.15 -1.9918584287042087 2
      vertex 1.1409319065116494 -0.14413321859894968 2
      vertex 1.15 0 2
    endloop
  endfacet
  facet normal 0 0 -1
    outer loop
      vertex -1.15 -1.9918584287042087 2
      vertex 0.07220909745871082 -1.147730737692512 2
      vertex 1.15 -1.9918584287042087 2
    endloop
  endfacet
  facet normal -0.4817536741017149 0.8763066800438637 0
    outer loop
      vertex 0.6162008142258456 -0.9709771143273175 4
      vertex 0.6162008142258456 -0.9709771143273175 2
      vertex 0.4896461852998333 -1.0405511103359224 4
    endloop
  endfacet
  facet normal -0.24868988716485524 0.968583161128631 0
    outer loop
      vertex 0.3553695435311895 -1.0937149937394264 4
      vertex 0.3553695435311895 -1.0937149937394264 2
      vertex 0.21548851177358352 -1.1296303383379918 4
    endloop
  endfacet
  facet normal -0.3681245526846774 0.9297764858882516 0
    outer loop
      vertex 0.4896461852998333 -1.0405511103359224 4
      vertex 0.4896461852998333 -1.0405511103359224 2
      vertex 0.3553695435311895 -1.0937149937394264 4
    endloop
  endfacet
  facet normal 0.48175367410171566 -0.8763066800438635 0
    outer loop
      vertex -0.6162008142258463 0.9709771143273171 4
      vertex -0.6162008142258463 0.9709771143273171 2
      vertex -0.48964618529983356 1.0405511103359224 4
    endloop
  endfacet
  facet normal -0.5877852522924728 0.8090169943749477 0
    outer loop
      vertex 0.7330375882109934 -0.8860902291921573 4
      vertex 0.7330375882109934 -0.8860902291921573 2
      vertex 0.6162008142258456 -0.9709771143273175 4
    endloop
  endfacet
  facet normal -0.684547105928689 0.7289686274214111 0
    outer loop
      vertex 0.7330375882109934 -0.8860902291921573 4
      vertex 0.8383139215346234 -0.7872291718179917 4
      vertex 0.8383139215346234 -0.7872291718179917 2
    endloop
  endfacet
  facet normal -0.9980267284282716 0.0627905195293133 0
    outer loop
      vertex 1.15 0 4
      vertex 1.15 0 2
      vertex 1.1409319065116494 -0.14413321859894968 4
    endloop
  endfacet
  facet normal 0.36812455268467675 -0.9297764858882519 0
    outer loop
      vertex -0.48964618529983356 1.0405511103359224 4
      vertex -0.48964618529983356 1.0405511103359224 2
      vertex -0.3553695435311895 1.0937149937394264 4
    endloop
  endfacet
  facet normal 0.24868988716485618 -0.9685831611286307 0
    outer loop
      vertex -0.3553695435311895 1.0937149937394264 4
      vertex -0.3553695435311895 1.0937149937394264 2
      vertex -0.21548851177358325 1.129630338337992 4
    endloop
  endfacet
  facet normal -0.12533323356430467 0.9921147013144778 0
    outer loop
      vertex 0.21548851177358352 -1.1296303383379918 4
      vertex 0.21548851177358352 -1.1296303383379918 2
      vertex 0.07220909745871082 -1.147730737692512 4
    endloop
  endfacet
  facet normal 0 1 0
    outer loop
      vertex 0.07220909745871082 -1.147730737692512 4
      vertex 0.07220909745871082 -1.147730737692512 2
      vertex -0.07220909745871082 -1.147730737692512 4
    endloop
  endfacet
  facet normal 0.1253332335643019 -0.9921147013144781 0
    outer loop
      vertex -0.21548851177358325 1.129630338337992 4
      vertex -0.21548851177358325 1.129630338337992 2
      vertex -0.07220909745870908 1.147730737692512 4
    endloop
  endfacet
  facet normal 0 -1 0
    outer loop
      vertex -0.07220909745870908 1.147730737692512 4
      vertex -0.07220909745871026 1.147730737692512 2
      vertex 0.07220909745871017 1.147730737692512 4
    endloop
  endfacet
  facet normal 0.9980267284282716 -0.0627905195293133 0
    outer loop
      vertex -1.15 0 4
      vertex -1.15 0 2
      vertex -1.1409319065116494 0.14413321859894968 4
    endloop
  endfacet
  facet normal 0.9822872507286888 -0.1873813145857242 0
    outer loop
      vertex -1.1138706352979257 0.28599337023958304 2
      vertex -1.1138706352979257 0.28599337023958304 4
      vertex -1.1409319065116494 0.14413321859894968 2
    endloop
  endfacet
  facet normal 0.9510565162951535 -0.30901699437494745 0
    outer loop
      vertex -1.0692429587714891 0.4233432355873795 2
      vertex -1.0692429587714891 0.4233432355873795 4
      vertex -1.1138706352979257 0.28599337023958304 2
    endloop
  endfacet
  facet normal 0.9048270524660194 -0.42577929156507277 0
    outer loop
      vertex -1.007752682050443 0.5540167252169726 2
      vertex -1.007752682050443 0.5540167252169726 4
      vertex -1.0692429587714891 0.4233432355873795 2
    endloop
  endfacet
  facet normal 0.8443279255020151 -0.5358267949789965 0
    outer loop
      vertex -0.9303695435311895 0.675953040136344 2
      vertex -0.9303695435311895 0.675953040136344 4
      vertex -1.007752682050443 0.5540167252169726 2
    endloop
  endfacet
  facet normal -0.24868988716485524 0.968583161128631 0
    outer loop
      vertex 0.21548851177358352 -1.1296303383379918 2
      vertex 0.21548851177358352 -1.1296303383379918 4
      vertex 0.3553695435311895 -1.0937149937394264 2
    endloop
  endfacet
  facet normal 0.7705132427757889 -0.6374239897486899 0
    outer loop
      vertex -0.8383139215346234 0.7872291718179917 2
      vertex -0.8383139215346234 0.7872291718179917 4
      vertex -0.9303695435311895 0.675953040136344 2
    endloop
  endfacet
  facet normal 0.6845471059286895 -0.7289686274214108 0
    outer loop
      vertex -0.8383139215346234 0.7872291718179917 2
      vertex -0.7330375882109931 0.8860902291921577 2
      vertex -0.7330375882109931 0.8860902291921577 4
    endloop
  endfacet
  facet normal 0.5877852522924726 -0.8090169943749479 0
    outer loop
      vertex -0.6162008142258463 0.9709771143273171 2
      vertex -0.6162008142258463 0.9709771143273171 4
      vertex -0.7330375882109931 0.8860902291921577 2
    endloop
  endfacet
  facet normal 0.48175367410171566 -0.8763066800438635 0
    outer loop
      vertex -0.48964618529983356 1.0405511103359224 2
      vertex -0.48964618529983356 1.0405511103359224 4
      vertex -0.6162008142258463 0.9709771143273171 2
    endloop
  endfacet
  facet normal 0.36812455268467675 -0.9297764858882519 0
    outer loop
      vertex -0.3553695435311895 1.0937149937394264 2
      vertex -0.3553695435311895 1.0937149937394264 4
      vertex -0.48964618529983356 1.0405511103359224 2
    endloop
  endfacet
  facet normal 0.24868988716485618 -0.9685831611286307 0
    outer loop
      vertex -0.21548851177358325 1.129630338337992 2
      vertex -0.21548851177358325 1.129630338337992 4
      vertex -0.3553695435311895 1.0937149937394264 2
    endloop
  endfacet
  facet normal 0.12533323356430293 -0.992114701314478 -7.392229087858741e-17
    outer loop
      vertex -0.07220909745871026 1.147730737692512 2
      vertex -0.07220909745870908 1.147730737692512 4
      vertex -0.21548851177358325 1.129630338337992 2
    endloop
  endfacet
  facet normal -0.7705132427757889 0.6374239897486899 0
    outer loop
      vertex 0.9303695435311895 -0.675953040136344 4
      vertex 0.9303695435311895 -0.675953040136344 2
      vertex 0.8383139215346234 -0.7872291718179917 4
    endloop
  endfacet
  facet normal 0.9822872507286888 -0.1873813145857242 0
    outer loop
      vertex -1.1409319065116494 0.14413321859894968 4
      vertex -1.1409319065116494 0.14413321859894968 2
      vertex -1.1138706352979257 0.28599337023958304 4
    endloop
  endfacet
  facet normal 0.9510565162951535 -0.30901699437494745 0
    outer loop
      vertex -1.1138706352979257 0.28599337023958304 4
      vertex -1.1138706352979257 0.28599337023958304 2
      vertex -1.0692429587714891 0.4233432355873795 4
    endloop
  endfacet
  facet normal 0.9048270524660194 -0.42577929156507277 0
    outer loop
      vertex -1.0692429587714891 0.4233432355873795 4
      vertex -1.0692429587714891 0.4233432355873795 2
      vertex -1.007752682050443 0.5540167252169726 4
    endloop
  endfacet
  facet normal 0.8443279255020151 -0.5358267949789965 0
    outer loop
      vertex -1.007752682050443 0.5540167252169726 4
      vertex -1.007752682050443 0.5540167252169726 2
      vertex -0.9303695435311895 0.675953040136344 4
    endloop
  endfacet
  facet normal 0.7705132427757889 -0.6374239897486899 0
    outer loop
      vertex -0.9303695435311895 0.675953040136344 4
      vertex -0.9303695435311895 0.675953040136344 2
      vertex -0.8383139215346234 0.7872291718179917 4
    endloop
  endfacet
  facet normal 0.6845471059286895 -0.7289686274214108 0
    outer loop
      vertex -0.7330375882109931 0.8860902291921577 4
      vertex -0.8383139215346234 0.7872291718179917 4
      vertex -0.8383139215346234 0.7872291718179917 2
    endloop
  endfacet
  facet normal 0.5877852522924726 -0.8090169943749479 0
    outer loop
      vertex -0.7330375882109931 0.8860902291921577 4
      vertex -0.7330375882109931 0.8860902291921577 2
      vertex -0.6162008142258463 0.9709771143273171 4
    endloop
  endfacet
  facet normal 0.9980267284282716 -0.0627905195293133 0
    outer loop
      vertex -1.1409319065116494 0.14413321859894968 2
      vertex -1.1409319065116494 0.14413321859894968 4
      vertex -1.15 0 2
    endloop
  endfacet
  facet normal -0.9822872507286887 0.1873813145857248 0
    outer loop
      vertex 1.1409319065116494 -0.14413321859894968 4
      vertex 1.1409319065116494 -0.14413321859894968 2
      vertex 1.1138706352979257 -0.2859933702395826 4
    endloop
  endfacet
  facet normal -0.9510565162951539 0.30901699437494684 0
    outer loop
      vertex 1.1138706352979257 -0.2859933702395826 4
      vertex 1.1138706352979257 -0.2859933702395826 2
      vertex 1.069242958771489 -0.4233432355873801 4
    endloop
  endfacet
  facet normal -0.9048270524660194 0.42577929156507305 0
    outer loop
      vertex 1.069242958771489 -0.4233432355873801 4
      vertex 1.069242958771489 -0.4233432355873801 2
      vertex 1.007752682050443 -0.5540167252169726 4
    endloop
  endfacet
  facet normal -0.8443279255020151 0.5358267949789965 0
    outer loop
      vertex 1.007752682050443 -0.5540167252169726 4
      vertex 1.007752682050443 -0.5540167252169726 2
      vertex 0.9303695435311895 -0.675953040136344 4
    endloop
  endfacet
  facet normal -0.8443279255020154 -0.5358267949789962 0
    outer loop
      vertex 0.9303695435311895 0.675953040136344 4
      vertex 0.9303695435311895 0.675953040136344 2
      vertex 1.007752682050443 0.5540167252169725 4
    endloop
  endfacet
  facet normal 0 1 0
    outer loop
      vertex -0.07220909745871082 -1.147730737692512 2
      vertex -0.07220909745871082 -1.147730737692512 4
      vertex 0.07220909745871082 -1.147730737692512 2
    endloop
  endfacet
  facet normal 0.12533323356430467 0.9921147013144778 0
    outer loop
      vertex -0.21548851177358352 -1.1296303383379918 2
      vertex -0.21548851177358352 -1.1296303383379918 4
      vertex -0.07220909745871082 -1.147730737692512 2
    endloop
  endfacet
  facet normal 0.3681245526846774 0.9297764858882516 0
    outer loop
      vertex -0.3553695435311895 -1.0937149937394264 2
      vertex -0.4896461852998333 -1.0405511103359224 2
      vertex -0.4896461852998333 -1.0405511103359224 4
    endloop
  endfacet
  facet normal 0.5877852522924726 0.8090169943749479 0
    outer loop
      vertex -0.7330375882109931 -0.8860902291921577 2
      vertex -0.7330375882109931 -0.8860902291921577 4
      vertex -0.6162008142258463 -0.9709771143273171 2
    endloop
  endfacet
  facet normal 0.4817536741017148 0.8763066800438639 0
    outer loop
      vertex -0.6162008142258463 -0.9709771143273171 2
      vertex -0.6162008142258463 -0.9709771143273171 4
      vertex -0.4896461852998333 -1.0405511103359224 2
    endloop
  endfacet
  facet normal 0.9510565162951535 0.30901699437494745 0
    outer loop
      vertex -1.1138706352979257 -0.28599337023958304 2
      vertex -1.1138706352979257 -0.28599337023958304 4
      vertex -1.0692429587714891 -0.4233432355873795 2
    endloop
  endfacet
  facet normal 0.7705132427757889 0.6374239897486899 0
    outer loop
      vertex -0.9303695435311895 -0.675953040136344 2
      vertex -0.9303695435311895 -0.675953040136344 4
      vertex -0.8383139215346234 -0.7872291718179917 2
    endloop
  endfacet
  facet normal 0.9048270524660194 0.42577929156507277 0
    outer loop
      vertex -1.0692429587714891 -0.4233432355873795 2
      vertex -1.0692429587714891 -0.4233432355873795 4
      vertex -1.007752682050443 -0.5540167252169726 2
    endloop
  endfacet
  facet normal 0.8443279255020151 0.5358267949789965 0
    outer loop
      vertex -1.007752682050443 -0.5540167252169726 2
      vertex -1.007752682050443 -0.5540167252169726 4
      vertex -0.9303695435311895 -0.675953040136344 2
    endloop
  endfacet
  facet normal 0.9980267284282716 0.0627905195293133 0
    outer loop
      vertex -1.15 0 2
      vertex -1.15 0 4
      vertex -1.1409319065116494 -0.14413321859894968 2
    endloop
  endfacet
  facet normal 0.9822872507286888 0.1873813145857242 0
    outer loop
      vertex -1.1138706352979257 -0.28599337023958304 2
      vertex -1.1409319065116494 -0.14413321859894968 2
      vertex -1.1409319065116494 -0.14413321859894968 4
    endloop
  endfacet
  facet normal 0.6845471059286895 0.7289686274214108 0
    outer loop
      vertex -0.8383139215346234 -0.7872291718179917 2
      vertex -0.8383139215346234 -0.7872291718179917 4
      vertex -0.7330375882109931 -0.8860902291921577 2
    endloop
  endfacet
  facet normal -0.9822872507286887 -0.18738131458572457 0
    outer loop
      vertex 1.1409319065116494 0.1441332185989499 4
      vertex 1.1138706352979257 0.285993370239583 4
      vertex 1.1138706352979257 0.285993370239583 2
    endloop
  endfacet
  facet normal -0.9048270524660198 -0.42577929156507216 0
    outer loop
      vertex 1.007752682050443 0.5540167252169725 4
      vertex 1.007752682050443 0.5540167252169725 2
      vertex 1.069242958771489 0.42334323558737963 4
    endloop
  endfacet
  facet normal -0.9510565162951533 -0.3090169943749485 0
    outer loop
      vertex 1.069242958771489 0.42334323558737963 4
      vertex 1.069242958771489 0.42334323558737963 2
      vertex 1.1138706352979257 0.285993370239583 4
    endloop
  endfacet
  facet normal 0 -1 0
    outer loop
      vertex -0.07220909745871026 1.147730737692512 2
      vertex 0.07220909745871026 1.147730737692512 2
      vertex 0.07220909745871017 1.147730737692512 4
    endloop
  endfacet
  facet normal -0.9980267284282716 -0.06279051952931321 0
    outer loop
      vertex 1.1409319065116494 0.1441332185989499 4
      vertex 1.1409319065116494 0.1441332185989499 2
      vertex 1.15 0 4
    endloop
  endfacet
  facet normal -0.6845471059286878 -0.7289686274214123 0
    outer loop
      vertex 0.7330375882109932 0.8860902291921574 4
      vertex 0.7330375882109932 0.8860902291921574 2
      vertex 0.8383139215346233 0.787229171817992 4
    endloop
  endfacet
  facet normal -0.7705132427757896 -0.6374239897486893 0
    outer loop
      vertex 0.8383139215346233 0.787229171817992 4
      vertex 0.8383139215346233 0.787229171817992 2
      vertex 0.9303695435311895 0.675953040136344 4
    endloop
  endfacet
  facet normal -0.9980267284282716 0.0627905195293133 0
    outer loop
      vertex 1.1409319065116494 -0.14413321859894968 2
      vertex 1.1409319065116494 -0.14413321859894968 4
      vertex 1.15 0 2
    endloop
  endfacet
  facet normal -0.9822872507286887 0.1873813145857248 0
    outer loop
      vertex 1.1138706352979257 -0.2859933702395826 2
      vertex 1.1138706352979257 -0.2859933702395826 4
      vertex 1.1409319065116494 -0.14413321859894968 2
    endloop
  endfacet
  facet normal -0.9510565162951539 0.30901699437494684 0
    outer loop
      vertex 1.069242958771489 -0.4233432355873801 2
      vertex 1.069242958771489 -0.4233432355873801 4
      vertex 1.1138706352979257 -0.2859933702395826 2
    endloop
  endfacet
  facet normal -0.9048270524660194 0.42577929156507305 0
    outer loop
      vertex 1.007752682050443 -0.5540167252169726 2
      vertex 1.007752682050443 -0.5540167252169726 4
      vertex 1.069242958771489 -0.4233432355873801 2
    endloop
  endfacet
  facet normal -0.8443279255020151 0.5358267949789965 0
    outer loop
      vertex 0.9303695435311895 -0.675953040136344 2
      vertex 0.9303695435311895 -0.675953040136344 4
      vertex 1.007752682050443 -0.5540167252169726 2
    endloop
  endfacet
  facet normal -0.7705132427757889 0.6374239897486899 0
    outer loop
      vertex 0.8383139215346234 -0.7872291718179917 2
      vertex 0.8383139215346234 -0.7872291718179917 4
      vertex 0.9303695435311895 -0.675953040136344 2
    endloop
  endfacet
  facet normal -0.684547105928689 0.7289686274214111 0
    outer loop
      vertex 0.8383139215346234 -0.7872291718179917 2
      vertex 0.7330375882109934 -0.8860902291921573 2
      vertex 0.7330375882109934 -0.8860902291921573 4
    endloop
  endfacet
  facet normal -0.5877852522924728 0.8090169943749477 0
    outer loop
      vertex 0.6162008142258456 -0.9709771143273175 2
      vertex 0.6162008142258456 -0.9709771143273175 4
      vertex 0.7330375882109934 -0.8860902291921573 2
    endloop
  endfacet
  facet normal -0.4817536741017149 0.8763066800438637 0
    outer loop
      vertex 0.4896461852998333 -1.0405511103359224 2
      vertex 0.4896461852998333 -1.0405511103359224 4
      vertex 0.6162008142258456 -0.9709771143273175 2
    endloop
  endfacet
  facet normal -0.3681245526846774 0.9297764858882516 0
    outer loop
      vertex 0.3553695435311895 -1.0937149937394264 2
      vertex 0.3553695435311895 -1.0937149937394264 4
      vertex 0.4896461852998333 -1.0405511103359224 2
    endloop
  endfacet
  facet normal -0.12533323356430467 0.9921147013144778 0
    outer loop
      vertex 0.07220909745871082 -1.147730737692512 2
      vertex 0.07220909745871082 -1.147730737692512 4
      vertex 0.21548851177358352 -1.1296303383379918 2
    endloop
  endfacet
  facet normal -0.12533323356430287 -0.992114701314478 -6.087718072354254e-18
    outer loop
      vertex 0.07220909745871017 1.147730737692512 4
      vertex 0.07220909745871026 1.147730737692512 2
      vertex 0.21548851177358325 1.129630338337992 4
    endloop
  endfacet
  facet normal 0.9980267284282716 0.0627905195293133 0
    outer loop
      vertex -1.1409319065116494 -0.14413321859894968 4
      vertex -1.1409319065116494 -0.14413321859894968 2
      vertex -1.15 0 4
    endloop
  endfacet
  facet normal 0.6845471059286895 0.7289686274214108 0
    outer loop
      vertex -0.7330375882109931 -0.8860902291921577 4
      vertex -0.7330375882109931 -0.8860902291921577 2
      vertex -0.8383139215346234 -0.7872291718179917 4
    endloop
  endfacet
  facet normal 0.7705132427757889 0.6374239897486899 0
    outer loop
      vertex -0.8383139215346234 -0.7872291718179917 4
      vertex -0.8383139215346234 -0.7872291718179917 2
      vertex -0.9303695435311895 -0.675953040136344 4
    endloop
  endfacet
  facet normal 0.24868988716485524 0.968583161128631 0
    outer loop
      vertex -0.3553695435311895 -1.0937149937394264 2
      vertex -0.3553695435311895 -1.0937149937394264 4
      vertex -0.21548851177358352 -1.1296303383379918 2
    endloop
  endfacet
  facet normal -0.36812455268467675 -0.9297764858882519 0
    outer loop
      vertex 0.3553695435311895 1.0937149937394264 2
      vertex 0.48964618529983356 1.0405511103359224 2
      vertex 0.48964618529983356 1.0405511103359224 4
    endloop
  endfacet
  facet normal -0.5877852522924738 -0.809016994374947 0
    outer loop
      vertex 0.7330375882109932 0.8860902291921574 2
      vertex 0.7330375882109932 0.8860902291921574 4
      vertex 0.6162008142258462 0.9709771143273173 2
    endloop
  endfacet
  facet normal -0.4817536741017153 -0.8763066800438636 0
    outer loop
      vertex 0.6162008142258462 0.9709771143273173 2
      vertex 0.6162008142258462 0.9709771143273173 4
      vertex 0.48964618529983356 1.0405511103359224 2
    endloop
  endfacet
  facet normal -0.9510565162951533 -0.3090169943749485 0
    outer loop
      vertex 1.1138706352979257 0.285993370239583 2
      vertex 1.1138706352979257 0.285993370239583 4
      vertex 1.069242958771489 0.42334323558737963 2
    endloop
  endfacet
  facet normal -0.7705132427757896 -0.6374239897486893 0
    outer loop
      vertex 0.9303695435311895 0.675953040136344 2
      vertex 0.9303695435311895 0.675953040136344 4
      vertex 0.8383139215346233 0.787229171817992 2
    endloop
  endfacet
  facet normal -0.9048270524660198 -0.42577929156507216 0
    outer loop
      vertex 1.069242958771489 0.42334323558737963 2
      vertex 1.069242958771489 0.42334323558737963 4
      vertex 1.007752682050443 0.5540167252169725 2
    endloop
  endfacet
  facet normal -0.8443279255020154 -0.5358267949789962 0
    outer loop
      vertex 1.007752682050443 0.5540167252169725 2
      vertex 1.007752682050443 0.5540167252169725 4
      vertex 0.9303695435311895 0.675953040136344 2
    endloop
  endfacet
  facet normal -0.9980267284282716 -0.06279051952931321 0
    outer loop
      vertex 1.15 0 2
      vertex 1.15 0 4
      vertex 1.1409319065116494 0.1441332185989499 2
    endloop
  endfacet
  facet normal -0.9822872507286887 -0.18738131458572457 0
    outer loop
      vertex 1.1138706352979257 0.285993370239583 2
      vertex 1.1409319065116494 0.1441332185989499 2
      vertex 1.1409319065116494 0.1441332185989499 4
    endloop
  endfacet
  facet normal -0.6845471059286878 -0.7289686274214123 0
    outer loop
      vertex 0.8383139215346233 0.787229171817992 2
      vertex 0.8383139215346233 0.787229171817992 4
      vertex 0.7330375882109932 0.8860902291921574 2
    endloop
  endfacet
  facet normal -0.24868988716485618 -0.9685831611286307 0
    outer loop
      vertex 0.21548851177358325 1.129630338337992 4
      vertex 0.21548851177358325 1.129630338337992 2
      vertex 0.3553695435311895 1.0937149937394264 4
    endloop
  endfacet
  facet normal -0.36812455268467675 -0.9297764858882519 0
    outer loop
      vertex 0.48964618529983356 1.0405511103359224 4
      vertex 0.3553695435311895 1.0937149937394264 4
      vertex 0.3553695435311895 1.0937149937394264 2
    endloop
  endfacet
  facet normal 0.9510565162951535 0.30901699437494745 0
    outer loop
      vertex -1.0692429587714891 -0.4233432355873795 4
      vertex -1.0692429587714891 -0.4233432355873795 2
      vertex -1.1138706352979257 -0.28599337023958304 4
    endloop
  endfacet
  facet normal -0.4817536741017153 -0.8763066800438636 0
    outer loop
      vertex 0.48964618529983356 1.0405511103359224 4
      vertex 0.48964618529983356 1.0405511103359224 2
      vertex 0.6162008142258462 0.9709771143273173 4
    endloop
  endfacet
  facet normal 0.9048270524660194 0.42577929156507277 0
    outer loop
      vertex -1.007752682050443 -0.5540167252169726 4
      vertex -1.007752682050443 -0.5540167252169726 2
      vertex -1.0692429587714891 -0.4233432355873795 4
    endloop
  endfacet
  facet normal 0.9822872507286888 0.1873813145857242 0
    outer loop
      vertex -1.1409319065116494 -0.14413321859894968 4
      vertex -1.1138706352979257 -0.28599337023958304 4
      vertex -1.1138706352979257 -0.28599337023958304 2
    endloop
  endfacet
  facet normal -0.5877852522924738 -0.809016994374947 0
    outer loop
      vertex 0.6162008142258462 0.9709771143273173 4
      vertex 0.6162008142258462 0.9709771143273173 2
      vertex 0.7330375882109932 0.8860902291921574 4
    endloop
  endfacet
  facet normal 0.5877852522924726 0.8090169943749479 0
    outer loop
      vertex -0.6162008142258463 -0.9709771143273171 4
      vertex -0.6162008142258463 -0.9709771143273171 2
      vertex -0.7330375882109931 -0.8860902291921577 4
    endloop
  endfacet
  facet normal 0.4817536741017148 0.8763066800438639 0
    outer loop
      vertex -0.4896461852998333 -1.0405511103359224 4
      vertex -0.4896461852998333 -1.0405511103359224 2
      vertex -0.6162008142258463 -0.9709771143273171 4
    endloop
  endfacet
  facet normal 0.3681245526846774 0.9297764858882516 0
    outer loop
      vertex -0.4896461852998333 -1.0405511103359224 4
      vertex -0.3553695435311895 -1.0937149937394264 4
      vertex -0.3553695435311895 -1.0937149937394264 2
    endloop
  endfacet
  facet normal 0.12533323356430467 0.9921147013144778 0
    outer loop
      vertex -0.07220909745871082 -1.147730737692512 4
      vertex -0.07220909745871082 -1.147730737692512 2
      vertex -0.21548851177358352 -1.1296303383379918 4
    endloop
  endfacet
  facet normal 0.24868988716485524 0.968583161128631 0
    outer loop
      vertex -0.21548851177358352 -1.1296303383379918 4
      vertex -0.21548851177358352 -1.1296303383379918 2
      vertex -0.3553695435311895 -1.0937149937394264 4
    endloop
  endfacet
  facet normal -0.12533323356430293 -0.992114701314478 0
    outer loop
      vertex 0.21548851177358325 1.129630338337992 2
      vertex 0.21548851177358325 1.129630338337992 4
      vertex 0.07220909745871026 1.147730737692512 2
    endloop
  endfacet
  facet normal -0.24868988716485618 -0.9685831611286307 0
    outer loop
      vertex 0.3553695435311895 1.0937149937394264 2
      vertex 0.3553695435311895 1.0937149937394264 4
      vertex 0.21548851177358325 1.129630338337992 2
    endloop
  endfacet
  facet normal 0.8443279255020151 0.5358267949789965 0
    outer loop
      vertex -0.9303695435311895 -0.675953040136344 4
      vertex -0.9303695435311895 -0.675953040136344 2
      vertex -1.007752682050443 -0.5540167252169726 4
    endloop
  endfacet
  facet normal 0 0 1
    outer loop
      vertex 0.3767431171758826 -5.988160370569629 4
      vertex 0.3553695435311895 -1.0937149937394264 4
      vertex 0.21548851177358352 -1.1296303383379918 4
    endloop
  endfacet
  facet normal 0 0 1
    outer loop
      vertex 1.124287887514349 -5.893723504372131 4
      vertex 0.6162008142258456 -0.9709771143273175 4
      vertex 0.4896461852998333 -1.0405511103359224 4
    endloop
  endfacet
  facet normal 0 0 1
    outer loop
      vertex 1.124287887514349 -5.893723504372131 4
      vertex 0.4896461852998333 -1.0405511103359224 4
      vertex 0.3553695435311895 -1.0937149937394264 4
    endloop
  endfacet
  facet normal 0 0 1
    outer loop
      vertex 1.15 0 4
      vertex 1.1409319065116494 -0.14413321859894968 4
      vertex 1.8541019662496843 -5.706339097770921 4
    endloop
  endfacet
  facet normal 0 0 1
    outer loop
      vertex 4.37381176452847 -4.1072826355721315 4
      vertex 4.854101966249685 -3.526711513754839 4
      vertex 4.373811764528469 4.107282635572132 4
    endloop
  endfacet
  facet normal 0 0 1
    outer loop
      vertex 0.3767431171758826 -5.988160370569629 4
      vertex 0.21548851177358352 -1.1296303383379918 4
      vertex 0.07220909745871082 -1.147730737692512 4
    endloop
  endfacet
  facet normal 0.9980267284282717 0.0627905195293133 0
    outer loop
      vertex 6 0 4
      vertex 6 0 0
      vertex 5.952688207886867 0.7519994013858255 0
    endloop
  endfacet
  facet normal 0 0 1
    outer loop
      vertex 4.854101966249685 -3.526711513754839 4
      vertex 5.257840080263181 -2.890522044610292 4
      vertex 4.854101966249685 3.526711513754839 4
    endloop
  endfacet
  facet normal 0.9980267284282717 -0.0627905195293134 0
    outer loop
      vertex 5.952688207886867 -0.7519994013858244 4
      vertex 6 0 0
      vertex 6 0 4
    endloop
  endfacet
  facet normal 0 0 1
    outer loop
      vertex 1.8541019662496843 -5.706339097770921 4
      vertex 2.5546757493904346 -5.4289623147961175 4
      vertex 1.8541019662496843 5.706339097770921 4
    endloop
  endfacet
  facet normal 0 0 1
    outer loop
      vertex 2.5546757493904346 -5.4289623147961175 4
      vertex 3.2149607698739775 -5.065967553012092 4
      vertex 2.5546757493904364 5.428962314796117 4
    endloop
  endfacet
  facet normal 0.587785252292473 -0.8090169943749476 0
    outer loop
      vertex 3.2149607698739775 -5.065967553012092 4
      vertex 3.2149607698739775 -5.065967553012092 0
      vertex 3.82454393849214 -4.623079456654734 4
    endloop
  endfacet
  facet normal 0.6845471059286888 -0.7289686274214113 0
    outer loop
      vertex 3.82454393849214 -4.623079456654734 4
      vertex 3.82454393849214 -4.623079456654734 0
      vertex 4.37381176452847 -4.1072826355721315 4
    endloop
  endfacet
  facet normal 0.7705132427757891 -0.6374239897486897 0
    outer loop
      vertex 4.37381176452847 -4.1072826355721315 4
      vertex 4.854101966249685 -3.526711513754839 0
      vertex 4.854101966249685 -3.526711513754839 4
    endloop
  endfacet
  facet normal 0.8443279255020154 -0.5358267949789961 0
    outer loop
      vertex 4.854101966249685 -3.526711513754839 4
      vertex 5.257840080263181 -2.890522044610292 0
      vertex 5.257840080263181 -2.890522044610292 4
    endloop
  endfacet
  facet normal 0.9048270524660194 -0.42577929156507305 0
    outer loop
      vertex 5.257840080263181 -2.890522044610292 4
      vertex 5.578658915329507 -2.20874731610807 0
      vertex 5.578658915329507 -2.20874731610807 4
    endloop
  endfacet
  facet normal 0.9510565162951534 -0.3090169943749479 0
    outer loop
      vertex 5.578658915329507 -2.20874731610807 4
      vertex 5.811498966771787 -1.4921393229891267 0
      vertex 5.811498966771787 -1.4921393229891267 4
    endloop
  endfacet
  facet normal 0.9822872507286888 -0.18738131458572416 0
    outer loop
      vertex 5.811498966771787 -1.4921393229891267 4
      vertex 5.952688207886867 -0.7519994013858244 0
      vertex 5.952688207886867 -0.7519994013858244 4
    endloop
  endfacet
  facet normal 0 0 1
    outer loop
      vertex 1.124287887514349 -5.893723504372131 4
      vertex 0.7330375882109934 -0.8860902291921573 4
      vertex 0.6162008142258456 -0.9709771143273175 4
    endloop
  endfacet
  facet normal 0 0 1
    outer loop
      vertex 3.2149607698739775 -5.065967553012092 4
      vertex 3.82454393849214 -4.623079456654734 4
      vertex 3.21496076987398 5.06596755301209 4
    endloop
  endfacet
  facet normal 0 0 1
    outer loop
      vertex 3.82454393849214 -4.623079456654734 4
      vertex 4.37381176452847 -4.1072826355721315 4
      vertex 3.8245439384921385 4.623079456654735 4
    endloop
  endfacet
  facet normal 0 0 1
    outer loop
      vertex 1.1409319065116494 -0.14413321859894968 4
      vertex 1.1138706352979257 -0.2859933702395826 4
      vertex 1.8541019662496843 -5.706339097770921 4
    endloop
  endfacet
  facet normal 0 0 1
    outer loop
      vertex 1.124287887514349 -5.893723504372131 4
      vertex 1.1138706352979257 -0.2859933702395826 4
      vertex 1.069242958771489 -0.4233432355873801 4
    endloop
  endfacet
  facet normal 0 0 1
    outer loop
      vertex 1.124287887514349 -5.893723504372131 4
      vertex 1.069242958771489 -0.4233432355873801 4
      vertex 1.007752682050443 -0.5540167252169726 4
    endloop
  endfacet
  facet normal 0 0 1
    outer loop
      vertex 1.124287887514349 -5.893723504372131 4
      vertex 1.007752682050443 -0.5540167252169726 4
      vertex 0.9303695435311895 -0.675953040136344 4
    endloop
  endfacet
  facet normal 0 0 1
    outer loop
      vertex 1.124287887514349 -5.893723504372131 4
      vertex 0.9303695435311895 -0.675953040136344 4
      vertex 0.8383139215346234 -0.7872291718179917 4
    endloop
  endfacet
  facet normal 0 0 1
    outer loop
      vertex 0.7330375882109934 -0.8860902291921573 4
      vertex 1.124287887514349 -5.893723504372131 4
      vertex 0.8383139215346234 -0.7872291718179917 4
    endloop
  endfacet
  facet normal 0 0 1
    outer loop
      vertex 0.8383139215346233 0.787229171817992 4
      vertex 0.9303695435311895 0.675953040136344 4
      vertex 1.1242878875143474 5.893723504372132 4
    endloop
  endfacet
  facet normal 0.36812455268467775 0.9297764858882515 0
    outer loop
      vertex 2.5546757493904364 5.428962314796117 4
      vertex 2.5546757493904364 5.428962314796117 0
      vertex 1.8541019662496843 5.706339097770921 4
    endloop
  endfacet
  facet normal 0.48175367410171516 0.8763066800438636 0
    outer loop
      vertex 3.21496076987398 5.06596755301209 4
      vertex 3.21496076987398 5.06596755301209 0
      vertex 2.5546757493904364 5.428962314796117 4
    endloop
  endfacet
  facet normal 0.24868988716485535 0.968583161128631 0
    outer loop
      vertex 1.8541019662496843 5.706339097770921 4
      vertex 1.8541019662496843 5.706339097770921 0
      vertex 1.1242878875143474 5.893723504372132 4
    endloop
  endfacet
  facet normal 0.1253332335643036 0.9921147013144779 0
    outer loop
      vertex 1.1242878875143474 5.893723504372132 4
      vertex 1.1242878875143474 5.893723504372132 0
      vertex 0.37674311717587966 5.988160370569629 4
    endloop
  endfacet
  facet normal 0 1 0
    outer loop
      vertex 0.37674311717587966 5.988160370569629 0
      vertex -0.37674311717587966 5.988160370569629 4
      vertex 0.37674311717587966 5.988160370569629 4
    endloop
  endfacet
  facet normal 0 0 1
    outer loop
      vertex 2.5546757493904364 5.428962314796117 4
      vertex 3.2149607698739775 -5.065967553012092 4
      vertex 3.21496076987398 5.06596755301209 4
    endloop
  endfacet
  facet normal 0 0 1
    outer loop
      vertex 1.8541019662496843 5.706339097770921 4
      vertex 2.5546757493904346 -5.4289623147961175 4
      vertex 2.5546757493904364 5.428962314796117 4
    endloop
  endfacet
  facet normal 0 0 1
    outer loop
      vertex 1.1242878875143474 5.893723504372132 4
      vertex 1.8541019662496843 -5.706339097770921 4
      vertex 1.8541019662496843 5.706339097770921 4
    endloop
  endfacet
  facet normal 0 0 1
    outer loop
      vertex 1.1242878875143474 5.893723504372132 4
      vertex 0.37674311717587966 5.988160370569629 4
      vertex 0.7330375882109932 0.8860902291921574 4
    endloop
  endfacet
  facet normal 0 0 1
    outer loop
      vertex 1.007752682050443 0.5540167252169725 4
      vertex 1.069242958771489 0.42334323558737963 4
      vertex 1.1242878875143474 5.893723504372132 4
    endloop
  endfacet
  facet normal 0 0 1
    outer loop
      vertex 0.9303695435311895 0.675953040136344 4
      vertex 1.007752682050443 0.5540167252169725 4
      vertex 1.1242878875143474 5.893723504372132 4
    endloop
  endfacet
  facet normal 0 0 1
    outer loop
      vertex 0.7330375882109932 0.8860902291921574 4
      vertex 0.8383139215346233 0.787229171817992 4
      vertex 1.1242878875143474 5.893723504372132 4
    endloop
  endfacet
  facet normal 0 0 1
    outer loop
      vertex 1.1138706352979257 0.285993370239583 4
      vertex 1.1409319065116494 0.1441332185989499 4
      vertex 1.1242878875143474 5.893723504372132 4
    endloop
  endfacet
  facet normal 0 0 1
    outer loop
      vertex 1.1409319065116494 0.1441332185989499 4
      vertex 1.15 0 4
      vertex 1.1242878875143474 5.893723504372132 4
    endloop
  endfacet
  facet normal 0 0 1
    outer loop
      vertex 1.069242958771489 0.42334323558737963 4
      vertex 1.1138706352979257 0.285993370239583 4
      vertex 1.1242878875143474 5.893723504372132 4
    endloop
  endfacet
  facet normal 0 0 1
    outer loop
      vertex 0.48964618529983356 1.0405511103359224 4
      vertex 0.6162008142258462 0.9709771143273173 4
      vertex 0.37674311717587966 5.988160370569629 4
    endloop
  endfacet
  facet normal 0 0 1
    outer loop
      vertex 0.3553695435311895 1.0937149937394264 4
      vertex 0.48964618529983356 1.0405511103359224 4
      vertex 0.37674311717587966 5.988160370569629 4
    endloop
  endfacet
  facet normal 0 0 1
    outer loop
      vertex 4.854101966249685 3.526711513754839 4
      vertex 5.257840080263181 -2.890522044610292 4
      vertex 5.257840080263182 2.890522044610292 4
    endloop
  endfacet
  facet normal 0.7705132427757891 0.6374239897486899 0
    outer loop
      vertex 4.854101966249685 3.526711513754839 4
      vertex 4.373811764528469 4.107282635572132 0
      vertex 4.373811764528469 4.107282635572132 4
    endloop
  endfacet
  facet normal 0.844327925502015 0.535826794978997 0
    outer loop
      vertex 5.257840080263182 2.890522044610292 4
      vertex 4.854101966249685 3.526711513754839 0
      vertex 4.854101966249685 3.526711513754839 4
    endloop
  endfacet
  facet normal 0.5877852522924731 0.8090169943749475 0
    outer loop
      vertex 3.8245439384921385 4.623079456654735 4
      vertex 3.8245439384921385 4.623079456654735 0
      vertex 3.21496076987398 5.06596755301209 4
    endloop
  endfacet
  facet normal 0.6845471059286886 0.7289686274214117 0
    outer loop
      vertex 3.8245439384921385 4.623079456654735 4
      vertex 4.373811764528469 4.107282635572132 4
      vertex 4.373811764528469 4.107282635572132 0
    endloop
  endfacet
  facet normal 0 0 1
    outer loop
      vertex 5.257840080263182 2.890522044610292 4
      vertex 5.578658915329507 -2.20874731610807 4
      vertex 5.578658915329508 2.208747316108068 4
    endloop
  endfacet
  facet normal 0 0 1
    outer loop
      vertex 5.8114989667717865 1.4921393229891287 4
      vertex 5.952688207886867 -0.7519994013858244 4
      vertex 5.952688207886867 0.7519994013858255 4
    endloop
  endfacet
  facet normal 0 0 1
    outer loop
      vertex 5.578658915329508 2.208747316108068 4
      vertex 5.811498966771787 -1.4921393229891267 4
      vertex 5.8114989667717865 1.4921393229891287 4
    endloop
  endfacet
  facet normal 0 0 1
    outer loop
      vertex 5.952688207886867 -0.7519994013858244 4
      vertex 6 0 4
      vertex 5.952688207886867 0.7519994013858255 4
    endloop
  endfacet
  facet normal 0 0 1
    outer loop
      vertex 0.6162008142258462 0.9709771143273173 4
      vertex 0.7330375882109932 0.8860902291921574 4
      vertex 0.37674311717587966 5.988160370569629 4
    endloop
  endfacet
  facet normal 0 0 1
    outer loop
      vertex 4.373811764528469 4.107282635572132 4
      vertex 4.854101966249685 -3.526711513754839 4
      vertex 4.854101966249685 3.526711513754839 4
    endloop
  endfacet
  facet normal 0 0 1
    outer loop
      vertex 3.8245439384921385 4.623079456654735 4
      vertex 4.37381176452847 -4.1072826355721315 4
      vertex 4.373811764528469 4.107282635572132 4
    endloop
  endfacet
  facet normal 0 0 1
    outer loop
      vertex 3.21496076987398 5.06596755301209 4
      vertex 3.82454393849214 -4.623079456654734 4
      vertex 3.8245439384921385 4.623079456654735 4
    endloop
  endfacet
  facet normal 0.9048270524660199 0.42577929156507194 0
    outer loop
      vertex 5.578658915329508 2.208747316108068 4
      vertex 5.257840080263182 2.890522044610292 0
      vertex 5.257840080263182 2.890522044610292 4
    endloop
  endfacet
  facet normal 0.9510565162951535 0.3090169943749474 0
    outer loop
      vertex 5.8114989667717865 1.4921393229891287 4
      vertex 5.578658915329508 2.208747316108068 0
      vertex 5.578658915329508 2.208747316108068 4
    endloop
  endfacet
  facet normal 0.9822872507286886 0.18738131458572507 0
    outer loop
      vertex 5.952688207886867 0.7519994013858255 4
      vertex 5.8114989667717865 1.4921393229891287 0
      vertex 5.8114989667717865 1.4921393229891287 4
    endloop
  endfacet
  facet normal 0.9980267284282717 0.0627905195293133 0
    outer loop
      vertex 6 0 4
      vertex 5.952688207886867 0.7519994013858255 0
      vertex 5.952688207886867 0.7519994013858255 4
    endloop
  endfacet
  facet normal 0 0 -1
    outer loop
      vertex -1.15 1.9918584287042087 0
      vertex 1.1242878875143474 5.893723504372132 0
      vertex 1.8541019662496843 5.706339097770921 0
    endloop
  endfacet
  facet normal 0 0 -1
    outer loop
      vertex 4.854101966249685 3.526711513754839 0
      vertex 4.37381176452847 -4.1072826355721315 0
      vertex 4.373811764528469 4.107282635572132 0
    endloop
  endfacet
  facet normal 0 0 -1
    outer loop
      vertex 3.8245439384921385 4.623079456654735 0
      vertex 3.2149607698739775 -5.065967553012092 0
      vertex 3.21496076987398 5.06596755301209 0
    endloop
  endfacet
  facet normal 0 0 -1
    outer loop
      vertex 4.373811764528469 4.107282635572132 0
      vertex 3.82454393849214 -4.623079456654734 0
      vertex 3.8245439384921385 4.623079456654735 0
    endloop
  endfacet
  facet normal 0.48175367410171516 0.8763066800438636 0
    outer loop
      vertex 3.21496076987398 5.06596755301209 0
      vertex 2.5546757493904364 5.428962314796117 0
      vertex 2.5546757493904364 5.428962314796117 4
    endloop
  endfacet
  facet normal 0.36812455268467775 0.9297764858882515 0
    outer loop
      vertex 2.5546757493904364 5.428962314796117 0
      vertex 1.8541019662496843 5.706339097770921 0
      vertex 1.8541019662496843 5.706339097770921 4
    endloop
  endfacet
  facet normal 0.24868988716485535 0.968583161128631 0
    outer loop
      vertex 1.8541019662496843 5.706339097770921 0
      vertex 1.1242878875143474 5.893723504372132 0
      vertex 1.1242878875143474 5.893723504372132 4
    endloop
  endfacet
  facet normal 0.1253332335643036 0.9921147013144779 0
    outer loop
      vertex 1.1242878875143474 5.893723504372132 0
      vertex 0.37674311717587966 5.988160370569629 0
      vertex 0.37674311717587966 5.988160370569629 4
    endloop
  endfacet
  facet normal 0 0 -1
    outer loop
      vertex 1.8541019662496843 5.706339097770921 0
      vertex 2.5546757493904364 5.428962314796117 0
      vertex 1.15 1.9918584287042087 0
    endloop
  endfacet
  facet normal 0 0 -1
    outer loop
      vertex 5.257840080263182 2.890522044610292 0
      vertex 4.854101966249685 -3.526711513754839 0
      vertex 4.854101966249685 3.526711513754839 0
    endloop
  endfacet
  facet normal 0 0 -1
    outer loop
      vertex 0.37674311717587966 5.988160370569629 0
      vertex 1.1242878875143474 5.893723504372132 0
      vertex -1.15 1.9918584287042087 0
    endloop
  endfacet
  facet normal 0 0 -1
    outer loop
      vertex -1.15 1.9918584287042087 0
      vertex 1.8541019662496843 5.706339097770921 0
      vertex 1.15 1.9918584287042087 0
    endloop
  endfacet
  facet normal 0 0 -1
    outer loop
      vertex 3.21496076987398 5.06596755301209 0
      vertex 2.5546757493904346 -5.4289623147961175 0
      vertex 2.5546757493904364 5.428962314796117 0
    endloop
  endfacet
  facet normal 0 0 -1
    outer loop
      vertex 1.15 1.9918584287042087 0
      vertex 2.5546757493904364 5.428962314796117 0
      vertex 2.3 0 0
    endloop
  endfacet
  facet normal 0 0 -1
    outer loop
      vertex 2.5546757493904364 5.428962314796117 0
      vertex 2.5546757493904346 -5.4289623147961175 0
      vertex 2.3 0 0
    endloop
  endfacet
  facet normal 0 0 1
    outer loop
      vertex 5.811498966771787 -1.4921393229891267 4
      vertex 5.952688207886867 -0.7519994013858244 4
      vertex 5.8114989667717865 1.4921393229891287 4
    endloop
  endfacet
  facet normal 0 0 1
    outer loop
      vertex 5.578658915329507 -2.20874731610807 4
      vertex 5.811498966771787 -1.4921393229891267 4
      vertex 5.578658915329508 2.208747316108068 4
    endloop
  endfacet
  facet normal 0.9048270524660199 0.42577929156507194 0
    outer loop
      vertex 5.257840080263182 2.890522044610292 0
      vertex 5.578658915329508 2.208747316108068 4
      vertex 5.578658915329508 2.208747316108068 0
    endloop
  endfacet
  facet normal 0 0 1
    outer loop
      vertex 0.21548851177358325 1.129630338337992 4
      vertex 0.3553695435311895 1.0937149937394264 4
      vertex 0.37674311717587966 5.988160370569629 4
    endloop
  endfacet
  facet normal 0 0 1
    outer loop
      vertex 0.21548851177358325 1.129630338337992 4
      vertex 0.37674311717587966 5.988160370569629 4
      vertex 0.07220909745871017 1.147730737692512 4
    endloop
  endfacet
  facet normal 0 0 1
    outer loop
      vertex 0.37674311717587966 5.988160370569629 4
      vertex -0.07220909745870908 1.147730737692512 4
      vertex 0.07220909745871017 1.147730737692512 4
    endloop
  endfacet
  facet normal 0 0 1
    outer loop
      vertex 1.15 0 4
      vertex 1.8541019662496843 -5.706339097770921 4
      vertex 1.1242878875143474 5.893723504372132 4
    endloop
  endfacet
  facet normal 0.844327925502015 0.535826794978997 0
    outer loop
      vertex 4.854101966249685 3.526711513754839 0
      vertex 5.257840080263182 2.890522044610292 4
      vertex 5.257840080263182 2.890522044610292 0
    endloop
  endfacet
  facet normal 0.7705132427757891 0.6374239897486899 0
    outer loop
      vertex 4.854101966249685 3.526711513754839 0
      vertex 4.373811764528469 4.107282635572132 0
      vertex 4.854101966249685 3.526711513754839 4
    endloop
  endfacet
  facet normal 0.5877852522924731 0.8090169943749475 0
    outer loop
      vertex 3.8245439384921385 4.623079456654735 0
      vertex 3.21496076987398 5.06596755301209 0
      vertex 3.21496076987398 5.06596755301209 4
    endloop
  endfacet
  facet normal 0.6845471059286886 0.7289686274214117 0
    outer loop
      vertex 4.373811764528469 4.107282635572132 0
      vertex 3.8245439384921385 4.623079456654735 0
      vertex 3.8245439384921385 4.623079456654735 4
    endloop
  endfacet
  facet normal 0 0 1
    outer loop
      vertex 5.257840080263181 -2.890522044610292 4
      vertex 5.578658915329507 -2.20874731610807 4
      vertex 5.257840080263182 2.890522044610292 4
    endloop
  endfacet
  facet normal 0.9510565162951535 0.3090169943749474 0
    outer loop
      vertex 5.578658915329508 2.208747316108068 0
      vertex 5.8114989667717865 1.4921393229891287 4
      vertex 5.8114989667717865 1.4921393229891287 0
    endloop
  endfacet
  facet normal 0.9822872507286886 0.18738131458572507 0
    outer loop
      vertex 5.8114989667717865 1.4921393229891287 0
      vertex 5.952688207886867 0.7519994013858255 4
      vertex 5.952688207886867 0.7519994013858255 0
    endloop
  endfacet
  facet normal 0 0 1
    outer loop
      vertex 0.37674311717587966 5.988160370569629 4
      vertex -0.37674311717587966 5.988160370569629 4
      vertex -0.07220909745870908 1.147730737692512 4
    endloop
  endfacet
  facet normal 0 0 -1
    outer loop
      vertex 5.8114989667717865 1.4921393229891287 0
      vertex 5.578658915329507 -2.20874731610807 0
      vertex 5.578658915329508 2.208747316108068 0
    endloop
  endfacet
  facet normal 0 0 -1
    outer loop
      vertex 5.952688207886867 0.7519994013858255 0
      vertex 5.811498966771787 -1.4921393229891267 0
      vertex 5.8114989667717865 1.4921393229891287 0
    endloop
  endfacet
  facet normal 0 0 -1
    outer loop
      vertex 6 0 0
      vertex 5.952688207886867 -0.7519994013858244 0
      vertex 5.952688207886867 0.7519994013858255 0
    endloop
  endfacet
  facet normal 0 0 -1
    outer loop
      vertex 5.578658915329508 2.208747316108068 0
      vertex 5.257840080263181 -2.890522044610292 0
      vertex 5.257840080263182 2.890522044610292 0
    endloop
  endfacet
  facet normal 0 0 1
    outer loop
      vertex -0.8383139215346234 -0.7872291718179917 4
      vertex -0.9303695435311895 -0.675953040136344 4
      vertex -1.124287887514349 -5.893723504372131 4
    endloop
  endfacet
  facet normal 0 0 1
    outer loop
      vertex -0.21548851177358352 -1.1296303383379918 4
      vertex -0.3553695435311895 -1.0937149937394264 4
      vertex -0.3767431171758826 -5.988160370569629 4
    endloop
  endfacet
  facet normal 0 0 1
    outer loop
      vertex -0.6162008142258463 -0.9709771143273171 4
      vertex -0.7330375882109931 -0.8860902291921577 4
      vertex -0.3767431171758826 -5.988160370569629 4
    endloop
  endfacet
  facet normal 0 0 1
    outer loop
      vertex -0.3553695435311895 -1.0937149937394264 4
      vertex -0.4896461852998333 -1.0405511103359224 4
      vertex -0.3767431171758826 -5.988160370569629 4
    endloop
  endfacet
  facet normal 0 0 1
    outer loop
      vertex -0.4896461852998333 -1.0405511103359224 4
      vertex -0.6162008142258463 -0.9709771143273171 4
      vertex -0.3767431171758826 -5.988160370569629 4
    endloop
  endfacet
  facet normal 0 0 1
    outer loop
      vertex -1.0692429587714891 -0.4233432355873795 4
      vertex -1.1138706352979257 -0.28599337023958304 4
      vertex -1.124287887514349 -5.893723504372131 4
    endloop
  endfacet
  facet normal 0 0 1
    outer loop
      vertex -1.1409319065116494 -0.14413321859894968 4
      vertex -1.15 0 4
      vertex -1.124287887514349 -5.893723504372131 4
    endloop
  endfacet
  facet normal 0 0 1
    outer loop
      vertex -1.1138706352979257 -0.28599337023958304 4
      vertex -1.1409319065116494 -0.14413321859894968 4
      vertex -1.124287887514349 -5.893723504372131 4
    endloop
  endfacet
  facet normal 0 0 1
    outer loop
      vertex -0.7330375882109931 -0.8860902291921577 4
      vertex -0.8383139215346234 -0.7872291718179917 4
      vertex -1.124287887514349 -5.893723504372131 4
    endloop
  endfacet
  facet normal 0 0 1
    outer loop
      vertex -0.9303695435311895 -0.675953040136344 4
      vertex -1.007752682050443 -0.5540167252169726 4
      vertex -1.124287887514349 -5.893723504372131 4
    endloop
  endfacet
  facet normal 0 0 1
    outer loop
      vertex -1.007752682050443 -0.5540167252169726 4
      vertex -1.0692429587714891 -0.4233432355873795 4
      vertex -1.124287887514349 -5.893723504372131 4
    endloop
  endfacet
  facet normal 0 0 1
    outer loop
      vertex -0.21548851177358352 -1.1296303383379918 4
      vertex -0.3767431171758826 -5.988160370569629 4
      vertex -0.07220909745871082 -1.147730737692512 4
    endloop
  endfacet
  facet normal 0 0 1
    outer loop
      vertex -1.8541019662496843 -5.706339097770921 4
      vertex -1.124287887514349 -5.893723504372131 4
      vertex -1.8541019662496843 5.706339097770921 4
    endloop
  endfacet
  facet normal 0 0 1
    outer loop
      vertex -2.5546757493904346 -5.4289623147961175 4
      vertex -1.8541019662496843 -5.706339097770921 4
      vertex -2.5546757493904364 5.428962314796117 4
    endloop
  endfacet
  facet normal 0 0 1
    outer loop
      vertex -3.2149607698739806 -5.06596755301209 4
      vertex -2.5546757493904346 -5.4289623147961175 4
      vertex -3.2149607698739806 5.06596755301209 4
    endloop
  endfacet
  facet normal 0 0 1
    outer loop
      vertex -1.124287887514349 -5.893723504372131 4
      vertex -0.3767431171758826 -5.988160370569629 4
      vertex -0.7330375882109931 -0.8860902291921577 4
    endloop
  endfacet
  facet normal 0 -1 0
    outer loop
      vertex -0.3767431171758826 -5.988160370569629 4
      vertex -0.3767431171758826 -5.988160370569629 0
      vertex 0.3767431171758826 -5.988160370569629 4
    endloop
  endfacet
  facet normal -0.12533323356430498 -0.9921147013144777 0
    outer loop
      vertex -1.124287887514349 -5.893723504372131 4
      vertex -1.124287887514349 -5.893723504372131 0
      vertex -0.3767431171758826 -5.988160370569629 4
    endloop
  endfacet
  facet normal -0.24868988716485477 -0.9685831611286312 0
    outer loop
      vertex -1.8541019662496843 -5.706339097770921 4
      vertex -1.8541019662496843 -5.706339097770921 0
      vertex -1.124287887514349 -5.893723504372131 4
    endloop
  endfacet
  facet normal -0.4817536741017148 -0.8763066800438638 0
    outer loop
      vertex -3.2149607698739806 -5.06596755301209 4
      vertex -3.2149607698739806 -5.06596755301209 0
      vertex -2.5546757493904346 -5.4289623147961175 4
    endloop
  endfacet
  facet normal -0.36812455268467753 -0.9297764858882516 0
    outer loop
      vertex -2.5546757493904346 -5.4289623147961175 4
      vertex -2.5546757493904346 -5.4289623147961175 0
      vertex -1.8541019662496843 -5.706339097770921 4
    endloop
  endfacet
  facet normal 0 0 -1
    outer loop
      vertex -3.2149607698739806 5.06596755301209 0
      vertex -3.8245439384921376 -4.623079456654736 0
      vertex -3.8245439384921376 4.623079456654736 0
    endloop
  endfacet
  facet normal 0 0 -1
    outer loop
      vertex -2.5546757493904346 -5.4289623147961175 0
      vertex -2.5546757493904364 5.428962314796117 0
      vertex -2.3 0 0
    endloop
  endfacet
  facet normal -0.5877852522924732 0.8090169943749473 0
    outer loop
      vertex -3.2149607698739806 5.06596755301209 0
      vertex -3.8245439384921376 4.623079456654736 0
      vertex -3.8245439384921376 4.623079456654736 4
    endloop
  endfacet
  facet normal -0.6845471059286886 0.7289686274214116 0
    outer loop
      vertex -3.8245439384921376 4.623079456654736 0
      vertex -4.37381176452847 4.1072826355721315 0
      vertex -4.37381176452847 4.1072826355721315 4
    endloop
  endfacet
  facet normal -0.7705132427757891 0.6374239897486897 0
    outer loop
      vertex -4.37381176452847 4.1072826355721315 0
      vertex -4.854101966249685 3.526711513754839 0
      vertex -4.37381176452847 4.1072826355721315 4
    endloop
  endfacet
  facet normal -0.8443279255020154 0.5358267949789961 0
    outer loop
      vertex -4.854101966249685 3.526711513754839 0
      vertex -5.257840080263181 2.890522044610292 0
      vertex -4.854101966249685 3.526711513754839 4
    endloop
  endfacet
  facet normal -0.9048270524660192 0.4257792915650734 0
    outer loop
      vertex -5.257840080263181 2.890522044610292 0
      vertex -5.578658915329509 2.208747316108067 0
      vertex -5.257840080263181 2.890522044610292 4
    endloop
  endfacet
  facet normal -0.9510565162951539 0.3090169943749469 0
    outer loop
      vertex -5.578658915329509 2.208747316108067 0
      vertex -5.8114989667717865 1.492139322989129 0
      vertex -5.578658915329509 2.208747316108067 4
    endloop
  endfacet
  facet normal -0.9822872507286886 0.18738131458572468 0
    outer loop
      vertex -5.8114989667717865 1.492139322989129 0
      vertex -5.952688207886867 0.7519994013858244 0
      vertex -5.8114989667717865 1.492139322989129 4
    endloop
  endfacet
  facet normal -0.9980267284282717 0.0627905195293134 0
    outer loop
      vertex -5.952688207886867 0.7519994013858244 0
      vertex -6 0 0
      vertex -5.952688207886867 0.7519994013858244 4
    endloop
  endfacet
  facet normal 0 0 1
    outer loop
      vertex -3.8245439384921376 -4.623079456654736 4
      vertex -3.2149607698739806 -5.06596755301209 4
      vertex -3.8245439384921376 4.623079456654736 4
    endloop
  endfacet
  facet normal 0 0 -1
    outer loop
      vertex -3.8245439384921376 4.623079456654736 0
      vertex -4.37381176452847 -4.1072826355721315 0
      vertex -4.37381176452847 4.1072826355721315 0
    endloop
  endfacet
  facet normal 0 0 -1
    outer loop
      vertex -4.37381176452847 4.1072826355721315 0
      vertex -4.854101966249685 -3.526711513754839 0
      vertex -4.854101966249685 3.526711513754839 0
    endloop
  endfacet
  facet normal 0 0 -1
    outer loop
      vertex -4.854101966249685 3.526711513754839 0
      vertex -5.257840080263181 -2.890522044610292 0
      vertex -5.257840080263181 2.890522044610292 0
    endloop
  endfacet
  facet normal 0 0 -1
    outer loop
      vertex -5.257840080263181 2.890522044610292 0
      vertex -5.578658915329509 -2.208747316108067 0
      vertex -5.578658915329509 2.208747316108067 0
    endloop
  endfacet
  facet normal 0 0 -1
    outer loop
      vertex -5.578658915329509 2.208747316108067 0
      vertex -5.8114989667717865 -1.492139322989129 0
      vertex -5.8114989667717865 1.492139322989129 0
    endloop
  endfacet
  facet normal 0 0 -1
    outer loop
      vertex -5.8114989667717865 1.492139322989129 0
      vertex -5.952688207886867 -0.7519994013858244 0
      vertex -5.952688207886867 0.7519994013858244 0
    endloop
  endfacet
  facet normal 0 0 -1
    outer loop
      vertex -5.952688207886867 -0.7519994013858244 0
      vertex -6 0 0
      vertex -5.952688207886867 0.7519994013858244 0
    endloop
  endfacet
  facet normal 0 0 1
    outer loop
      vertex -1.15 0 4
      vertex -1.8541019662496843 5.706339097770921 4
      vertex -1.124287887514349 -5.893723504372131 4
    endloop
  endfacet
  facet normal 0 0 1
    outer loop
      vertex -0.3767431171758826 -5.988160370569629 4
      vertex 0.07220909745871082 -1.147730737692512 4
      vertex -0.07220909745871082 -1.147730737692512 4
    endloop
  endfacet
  facet normal 0 0 -1
    outer loop
      vertex -4.37381176452847 -4.1072826355721315 0
      vertex -3.8245439384921376 4.623079456654736 0
      vertex -3.8245439384921376 -4.623079456654736 0
    endloop
  endfacet
  facet normal -0.4817536741017148 -0.8763066800438638 0
    outer loop
      vertex -3.2149607698739806 -5.06596755301209 0
      vertex -2.5546757493904346 -5.4289623147961175 0
      vertex -2.5546757493904346 -5.4289623147961175 4
    endloop
  endfacet
  facet normal 0 0 -1
    outer loop
      vertex 1.15 -1.9918584287042087 0
      vertex -1.8541019662496843 -5.706339097770921 0
      vertex -1.15 -1.9918584287042087 0
    endloop
  endfacet
  facet normal 0 0 -1
    outer loop
      vertex -1.124287887514349 -5.893723504372131 0
      vertex 1.15 -1.9918584287042087 0
      vertex -0.3767431171758826 -5.988160370569629 0
    endloop
  endfacet
  facet normal 0 0 -1
    outer loop
      vertex 1.15 -1.9918584287042087 0
      vertex -1.124287887514349 -5.893723504372131 0
      vertex -1.8541019662496843 -5.706339097770921 0
    endloop
  endfacet
  facet normal 0 0 -1
    outer loop
      vertex -2.5546757493904346 -5.4289623147961175 0
      vertex -2.07 -0.39837168574084175 0
      vertex -1.8541019662496843 -5.706339097770921 0
    endloop
  endfacet
  facet normal -0.9980267284282717 -0.0627905195293134 0
    outer loop
      vertex -5.952688207886867 -0.7519994013858244 0
      vertex -6 0 4
      vertex -6 0 0
    endloop
  endfacet
  facet normal -0.9822872507286886 -0.18738131458572468 0
    outer loop
      vertex -5.952688207886867 -0.7519994013858244 0
      vertex -5.8114989667717865 -1.492139322989129 0
      vertex -5.952688207886867 -0.7519994013858244 4
    endloop
  endfacet
  facet normal -0.9510565162951539 -0.3090169943749469 0
    outer loop
      vertex -5.8114989667717865 -1.492139322989129 0
      vertex -5.578658915329509 -2.208747316108067 0
      vertex -5.8114989667717865 -1.492139322989129 4
    endloop
  endfacet
  facet normal -0.9048270524660192 -0.4257792915650734 0
    outer loop
      vertex -5.578658915329509 -2.208747316108067 0
      vertex -5.257840080263181 -2.890522044610292 0
      vertex -5.578658915329509 -2.208747316108067 4
    endloop
  endfacet
  facet normal -0.36812455268467753 -0.9297764858882516 0
    outer loop
      vertex -2.5546757493904346 -5.4289623147961175 0
      vertex -1.8541019662496843 -5.706339097770921 0
      vertex -1.8541019662496843 -5.706339097770921 4
    endloop
  endfacet
  facet normal 0 0 -1
    outer loop
      vertex -3.2149607698739806 -5.06596755301209 0
      vertex -3.8245439384921376 -4.623079456654736 0
      vertex -3.2149607698739806 5.06596755301209 0
    endloop
  endfacet
  facet normal 0 0 -1
    outer loop
      vertex -4.37381176452847 -4.1072826355721315 0
      vertex -4.854101966249685 -3.526711513754839 0
      vertex -4.37381176452847 4.1072826355721315 0
    endloop
  endfacet
  facet normal 0 0 -1
    outer loop
      vertex -5.257840080263181 -2.890522044610292 0
      vertex -4.854101966249685 3.526711513754839 0
      vertex -4.854101966249685 -3.526711513754839 0
    endloop
  endfacet
  facet normal 0 0 -1
    outer loop
      vertex -5.578658915329509 -2.208747316108067 0
      vertex -5.257840080263181 2.890522044610292 0
      vertex -5.257840080263181 -2.890522044610292 0
    endloop
  endfacet
  facet normal 0 0 -1
    outer loop
      vertex -5.952688207886867 -0.7519994013858244 0
      vertex -5.8114989667717865 1.492139322989129 0
      vertex -5.8114989667717865 -1.492139322989129 0
    endloop
  endfacet
  facet normal 0 0 -1
    outer loop
      vertex -5.8114989667717865 -1.492139322989129 0
      vertex -5.578658915329509 2.208747316108067 0
      vertex -5.578658915329509 -2.208747316108067 0
    endloop
  endfacet
  facet normal -0.6845471059286886 -0.7289686274214116 0
    outer loop
      vertex -3.8245439384921376 -4.623079456654736 0
      vertex -3.8245439384921376 -4.623079456654736 4
      vertex -4.37381176452847 -4.1072826355721315 0
    endloop
  endfacet
  facet normal -0.5877852522924732 -0.8090169943749473 0
    outer loop
      vertex -3.8245439384921376 -4.623079456654736 0
      vertex -3.2149607698739806 -5.06596755301209 0
      vertex -3.2149607698739806 -5.06596755301209 4
    endloop
  endfacet
  facet normal -0.7705132427757891 -0.6374239897486897 0
    outer loop
      vertex -4.37381176452847 -4.1072826355721315 0
      vertex -4.854101966249685 -3.526711513754839 4
      vertex -4.854101966249685 -3.526711513754839 0
    endloop
  endfacet
  facet normal -0.9048270524660192 -0.4257792915650734 0
    outer loop
      vertex -5.578658915329509 -2.208747316108067 4
      vertex -5.257840080263181 -2.890522044610292 0
      vertex -5.257840080263181 -2.890522044610292 4
    endloop
  endfacet
  facet normal 0 0 1
    outer loop
      vertex -4.37381176452847 -4.1072826355721315 4
      vertex -3.8245439384921376 -4.623079456654736 4
      vertex -4.37381176452847 4.1072826355721315 4
    endloop
  endfacet
  facet normal 0 0 1
    outer loop
      vertex -4.854101966249685 -3.526711513754839 4
      vertex -4.37381176452847 -4.1072826355721315 4
      vertex -4.854101966249685 3.526711513754839 4
    endloop
  endfacet
  facet normal 0 0 1
    outer loop
      vertex -5.257840080263181 -2.890522044610292 4
      vertex -4.854101966249685 -3.526711513754839 4
      vertex -5.257840080263181 2.890522044610292 4
    endloop
  endfacet
  facet normal 0 0 1
    outer loop
      vertex -5.8114989667717865 -1.492139322989129 4
      vertex -5.578658915329509 -2.208747316108067 4
      vertex -5.8114989667717865 1.492139322989129 4
    endloop
  endfacet
  facet normal 0 0 1
    outer loop
      vertex -5.952688207886867 -0.7519994013858244 4
      vertex -5.8114989667717865 -1.492139322989129 4
      vertex -5.952688207886867 0.7519994013858244 4
    endloop
  endfacet
  facet normal 0 0 1
    outer loop
      vertex -5.578658915329509 -2.208747316108067 4
      vertex -5.257840080263181 -2.890522044610292 4
      vertex -5.578658915329509 2.208747316108067 4
    endloop
  endfacet
  facet normal -0.9980267284282717 -0.0627905195293134 0
    outer loop
      vertex -6 0 4
      vertex -5.952688207886867 -0.7519994013858244 0
      vertex -5.952688207886867 -0.7519994013858244 4
    endloop
  endfacet
  facet normal -0.9822872507286886 -0.18738131458572468 0
    outer loop
      vertex -5.952688207886867 -0.7519994013858244 4
      vertex -5.8114989667717865 -1.492139322989129 0
      vertex -5.8114989667717865 -1.492139322989129 4
    endloop
  endfacet
  facet normal -0.9510565162951539 -0.3090169943749469 0
    outer loop
      vertex -5.8114989667717865 -1.492139322989129 4
      vertex -5.578658915329509 -2.208747316108067 0
      vertex -5.578658915329509 -2.208747316108067 4
    endloop
  endfacet
  facet normal 0 0 -1
    outer loop
      vertex -2.5546757493904364 5.428962314796117 0
      vertex -3.2149607698739806 -5.06596755301209 0
      vertex -3.2149607698739806 5.06596755301209 0
    endloop
  endfacet
  facet normal -0.6845471059286886 -0.7289686274214116 0
    outer loop
      vertex -4.37381176452847 -4.1072826355721315 4
      vertex -4.37381176452847 -4.1072826355721315 0
      vertex -3.8245439384921376 -4.623079456654736 4
    endloop
  endfacet
  facet normal -0.5877852522924732 -0.8090169943749473 0
    outer loop
      vertex -3.8245439384921376 -4.623079456654736 4
      vertex -3.8245439384921376 -4.623079456654736 0
      vertex -3.2149607698739806 -5.06596755301209 4
    endloop
  endfacet
  facet normal -0.8443279255020154 -0.5358267949789961 0
    outer loop
      vertex -5.257840080263181 -2.890522044610292 4
      vertex -4.854101966249685 -3.526711513754839 0
      vertex -4.854101966249685 -3.526711513754839 4
    endloop
  endfacet
  facet normal -0.7705132427757891 -0.6374239897486897 0
    outer loop
      vertex -4.854101966249685 -3.526711513754839 4
      vertex -4.37381176452847 -4.1072826355721315 0
      vertex -4.37381176452847 -4.1072826355721315 4
    endloop
  endfacet
  facet normal 0 0 -1
    outer loop
      vertex -2.07 -0.39837168574084175 0
      vertex -1.15 -1.9918584287042087 0
      vertex -1.8541019662496843 -5.706339097770921 0
    endloop
  endfacet
  facet normal 0 0 -1
    outer loop
      vertex -2.07 -0.39837168574084175 0
      vertex -2.5546757493904346 -5.4289623147961175 0
      vertex -2.3 0 0
    endloop
  endfacet
  facet normal 0 0 -1
    outer loop
      vertex -2.5546757493904346 -5.4289623147961175 0
      vertex -3.2149607698739806 -5.06596755301209 0
      vertex -2.5546757493904364 5.428962314796117 0
    endloop
  endfacet
  facet normal -0.12533323356430498 -0.9921147013144777 0
    outer loop
      vertex -1.124287887514349 -5.893723504372131 0
      vertex -0.3767431171758826 -5.988160370569629 0
      vertex -0.3767431171758826 -5.988160370569629 4
    endloop
  endfacet
  facet normal -0.24868988716485477 -0.9685831611286312 0
    outer loop
      vertex -1.8541019662496843 -5.706339097770921 0
      vertex -1.124287887514349 -5.893723504372131 0
      vertex -1.124287887514349 -5.893723504372131 4
    endloop
  endfacet
  facet normal 0 0 -1
    outer loop
      vertex 1.124287887514349 -5.893723504372131 0
      vertex 2.3 0 0
      vertex 1.8541019662496843 -5.706339097770921 0
    endloop
  endfacet
  facet normal 0.587785252292473 -0.8090169943749476 0
    outer loop
      vertex 3.2149607698739775 -5.065967553012092 0
      vertex 3.82454393849214 -4.623079456654734 0
      vertex 3.82454393849214 -4.623079456654734 4
    endloop
  endfacet
  facet normal 0 0 -1
    outer loop
      vertex 3.2149607698739775 -5.065967553012092 0
      vertex 2.5546757493904346 -5.4289623147961175 0
      vertex 3.21496076987398 5.06596755301209 0
    endloop
  endfacet
  facet normal 0 0 -1
    outer loop
      vertex 2.3 0 0
      vertex 1.124287887514349 -5.893723504372131 0
      vertex 1.15 -1.9918584287042087 0
    endloop
  endfacet
  facet normal 0.48175367410171477 -0.8763066800438638 0
    outer loop
      vertex 2.5546757493904346 -5.4289623147961175 0
      vertex 3.2149607698739775 -5.065967553012092 0
      vertex 3.2149607698739775 -5.065967553012092 4
    endloop
  endfacet
  facet normal 0.36812455268467753 -0.9297764858882516 0
    outer loop
      vertex 1.8541019662496843 -5.706339097770921 0
      vertex 2.5546757493904346 -5.4289623147961175 0
      vertex 2.5546757493904346 -5.4289623147961175 4
    endloop
  endfacet
  facet normal 0.24868988716485477 -0.9685831611286312 0
    outer loop
      vertex 1.124287887514349 -5.893723504372131 0
      vertex 1.8541019662496843 -5.706339097770921 0
      vertex 1.8541019662496843 -5.706339097770921 4
    endloop
  endfacet
  facet normal 0.12533323356430498 -0.9921147013144777 0
    outer loop
      vertex 0.3767431171758826 -5.988160370569629 0
      vertex 1.124287887514349 -5.893723504372131 0
      vertex 1.124287887514349 -5.893723504372131 4
    endloop
  endfacet
  facet normal 0 -1 0
    outer loop
      vertex 0.3767431171758826 -5.988160370569629 4
      vertex -0.3767431171758826 -5.988160370569629 0
      vertex 0.3767431171758826 -5.988160370569629 0
    endloop
  endfacet
  facet normal 0 0 -1
    outer loop
      vertex 2.5546757493904346 -5.4289623147961175 0
      vertex 1.8541019662496843 -5.706339097770921 0
      vertex 2.3 0 0
    endloop
  endfacet
  facet normal 0.6845471059286888 -0.7289686274214113 0
    outer loop
      vertex 3.82454393849214 -4.623079456654734 0
      vertex 4.37381176452847 -4.1072826355721315 0
      vertex 4.37381176452847 -4.1072826355721315 4
    endloop
  endfacet
  facet normal 0 0 -1
    outer loop
      vertex 1.124287887514349 -5.893723504372131 0
      vertex 0.3767431171758826 -5.988160370569629 0
      vertex 1.15 -1.9918584287042087 0
    endloop
  endfacet
  facet normal 0 0 -1
    outer loop
      vertex -0.3767431171758826 -5.988160370569629 0
      vertex 1.15 -1.9918584287042087 0
      vertex 0.3767431171758826 -5.988160370569629 0
    endloop
  endfacet
  facet normal -0.8443279255020154 -0.5358267949789961 0
    outer loop
      vertex -4.854101966249685 -3.526711513754839 0
      vertex -5.257840080263181 -2.890522044610292 4
      vertex -5.257840080263181 -2.890522044610292 0
    endloop
  endfacet
  facet normal 0 0 1
    outer loop
      vertex -0.3553695435311895 1.0937149937394264 4
      vertex -0.37674311717587966 5.988160370569629 4
      vertex -1.1242878875143474 5.893723504372132 4
    endloop
  endfacet
  facet normal 0 0 1
    outer loop
      vertex -1.1138706352979257 0.28599337023958304 4
      vertex -1.1242878875143474 5.893723504372132 4
      vertex -1.8541019662496843 5.706339097770921 4
    endloop
  endfacet
  facet normal -0.1253332335643036 0.9921147013144779 0
    outer loop
      vertex -0.37674311717587966 5.988160370569629 4
      vertex -0.37674311717587966 5.988160370569629 0
      vertex -1.1242878875143474 5.893723504372132 4
    endloop
  endfacet
  facet normal -0.24868988716485535 0.968583161128631 0
    outer loop
      vertex -1.1242878875143474 5.893723504372132 4
      vertex -1.1242878875143474 5.893723504372132 0
      vertex -1.8541019662496843 5.706339097770921 4
    endloop
  endfacet
  facet normal -0.36812455268467775 0.9297764858882515 0
    outer loop
      vertex -1.8541019662496843 5.706339097770921 4
      vertex -1.8541019662496843 5.706339097770921 0
      vertex -2.5546757493904364 5.428962314796117 4
    endloop
  endfacet
  facet normal -0.48175367410171493 0.8763066800438638 0
    outer loop
      vertex -2.5546757493904364 5.428962314796117 4
      vertex -2.5546757493904364 5.428962314796117 0
      vertex -3.2149607698739806 5.06596755301209 4
    endloop
  endfacet
  facet normal 0.9048270524660194 -0.42577929156507305 0
    outer loop
      vertex 5.578658915329507 -2.20874731610807 0
      vertex 5.257840080263181 -2.890522044610292 4
      vertex 5.257840080263181 -2.890522044610292 0
    endloop
  endfacet
  facet normal 0 0 1
    outer loop
      vertex 0.3553695435311895 -1.0937149937394264 4
      vertex 0.3767431171758826 -5.988160370569629 4
      vertex 1.124287887514349 -5.893723504372131 4
    endloop
  endfacet
  facet normal 0 0 1
    outer loop
      vertex -0.3767431171758826 -5.988160370569629 4
      vertex 0.3767431171758826 -5.988160370569629 4
      vertex 0.07220909745871082 -1.147730737692512 4
    endloop
  endfacet
  facet normal 0.48175367410171477 -0.8763066800438638 0
    outer loop
      vertex 2.5546757493904346 -5.4289623147961175 4
      vertex 2.5546757493904346 -5.4289623147961175 0
      vertex 3.2149607698739775 -5.065967553012092 4
    endloop
  endfacet
  facet normal 0.36812455268467753 -0.9297764858882516 0
    outer loop
      vertex 1.8541019662496843 -5.706339097770921 4
      vertex 1.8541019662496843 -5.706339097770921 0
      vertex 2.5546757493904346 -5.4289623147961175 4
    endloop
  endfacet
  facet normal 0.24868988716485477 -0.9685831611286312 0
    outer loop
      vertex 1.124287887514349 -5.893723504372131 4
      vertex 1.124287887514349 -5.893723504372131 0
      vertex 1.8541019662496843 -5.706339097770921 4
    endloop
  endfacet
  facet normal 0.12533323356430498 -0.9921147013144777 0
    outer loop
      vertex 0.3767431171758826 -5.988160370569629 4
      vertex 0.3767431171758826 -5.988160370569629 0
      vertex 1.124287887514349 -5.893723504372131 4
    endloop
  endfacet
  facet normal 0.9980267284282717 -0.0627905195293134 0
    outer loop
      vertex 5.952688207886867 -0.7519994013858244 0
      vertex 6 0 0
      vertex 5.952688207886867 -0.7519994013858244 4
    endloop
  endfacet
  facet normal 0.9822872507286888 -0.18738131458572416 0
    outer loop
      vertex 5.952688207886867 -0.7519994013858244 0
      vertex 5.811498966771787 -1.4921393229891267 4
      vertex 5.811498966771787 -1.4921393229891267 0
    endloop
  endfacet
  facet normal 0.9510565162951534 -0.3090169943749479 0
    outer loop
      vertex 5.811498966771787 -1.4921393229891267 0
      vertex 5.578658915329507 -2.20874731610807 4
      vertex 5.578658915329507 -2.20874731610807 0
    endloop
  endfacet
  facet normal 0 0 1
    outer loop
      vertex -0.37674311717587966 5.988160370569629 4
      vertex -0.21548851177358325 1.129630338337992 4
      vertex -0.07220909745870908 1.147730737692512 4
    endloop
  endfacet
  facet normal 0 0 -1
    outer loop
      vertex 5.811498966771787 -1.4921393229891267 0
      vertex 5.952688207886867 0.7519994013858255 0
      vertex 5.952688207886867 -0.7519994013858244 0
    endloop
  endfacet
  facet normal 0 0 -1
    outer loop
      vertex 5.578658915329507 -2.20874731610807 0
      vertex 5.8114989667717865 1.4921393229891287 0
      vertex 5.811498966771787 -1.4921393229891267 0
    endloop
  endfacet
  facet normal 0 0 -1
    outer loop
      vertex 5.257840080263181 -2.890522044610292 0
      vertex 5.578658915329508 2.208747316108068 0
      vertex 5.578658915329507 -2.20874731610807 0
    endloop
  endfacet
  facet normal 0 0 -1
    outer loop
      vertex 5.257840080263181 -2.890522044610292 0
      vertex 4.854101966249685 -3.526711513754839 0
      vertex 5.257840080263182 2.890522044610292 0
    endloop
  endfacet
  facet normal 0 0 -1
    outer loop
      vertex 4.854101966249685 -3.526711513754839 0
      vertex 4.37381176452847 -4.1072826355721315 0
      vertex 4.854101966249685 3.526711513754839 0
    endloop
  endfacet
  facet normal 0 0 -1
    outer loop
      vertex 4.37381176452847 -4.1072826355721315 0
      vertex 3.82454393849214 -4.623079456654734 0
      vertex 4.373811764528469 4.107282635572132 0
    endloop
  endfacet
  facet normal 0 0 -1
    outer loop
      vertex 3.82454393849214 -4.623079456654734 0
      vertex 3.2149607698739775 -5.065967553012092 0
      vertex 3.8245439384921385 4.623079456654735 0
    endloop
  endfacet
  facet normal 0.8443279255020154 -0.5358267949789961 0
    outer loop
      vertex 5.257840080263181 -2.890522044610292 0
      vertex 4.854101966249685 -3.526711513754839 4
      vertex 4.854101966249685 -3.526711513754839 0
    endloop
  endfacet
  facet normal 0.7705132427757891 -0.6374239897486897 0
    outer loop
      vertex 4.37381176452847 -4.1072826355721315 4
      vertex 4.37381176452847 -4.1072826355721315 0
      vertex 4.854101966249685 -3.526711513754839 0
    endloop
  endfacet
  facet normal 0 1 0
    outer loop
      vertex 0.37674311717587966 5.988160370569629 0
      vertex -0.37674311717587966 5.988160370569629 0
      vertex -0.37674311717587966 5.988160370569629 4
    endloop
  endfacet
  facet normal 0 0 1
    outer loop
      vertex -5.257840080263181 2.890522044610292 4
      vertex -4.854101966249685 -3.526711513754839 4
      vertex -4.854101966249685 3.526711513754839 4
    endloop
  endfacet
  facet normal 0 0 1
    outer loop
      vertex -5.578658915329509 2.208747316108067 4
      vertex -5.257840080263181 -2.890522044610292 4
      vertex -5.257840080263181 2.890522044610292 4
    endloop
  endfacet
  facet normal 0 0 1
    outer loop
      vertex -5.8114989667717865 1.492139322989129 4
      vertex -5.578658915329509 -2.208747316108067 4
      vertex -5.578658915329509 2.208747316108067 4
    endloop
  endfacet
  facet normal 0 0 1
    outer loop
      vertex -5.952688207886867 0.7519994013858244 4
      vertex -5.8114989667717865 -1.492139322989129 4
      vertex -5.8114989667717865 1.492139322989129 4
    endloop
  endfacet
  facet normal 0 0 1
    outer loop
      vertex -6 0 4
      vertex -5.952688207886867 -0.7519994013858244 4
      vertex -5.952688207886867 0.7519994013858244 4
    endloop
  endfacet
  facet normal -0.9048270524660192 0.4257792915650734 0
    outer loop
      vertex -5.257840080263181 2.890522044610292 4
      vertex -5.578658915329509 2.208747316108067 0
      vertex -5.578658915329509 2.208747316108067 4
    endloop
  endfacet
  facet normal -0.9510565162951539 0.3090169943749469 0
    outer loop
      vertex -5.578658915329509 2.208747316108067 4
      vertex -5.8114989667717865 1.492139322989129 0
      vertex -5.8114989667717865 1.492139322989129 4
    endloop
  endfacet
  facet normal -0.9822872507286886 0.18738131458572468 0
    outer loop
      vertex -5.8114989667717865 1.492139322989129 4
      vertex -5.952688207886867 0.7519994013858244 0
      vertex -5.952688207886867 0.7519994013858244 4
    endloop
  endfacet
  facet normal -0.9980267284282717 0.0627905195293134 0
    outer loop
      vertex -5.952688207886867 0.7519994013858244 4
      vertex -6 0 0
      vertex -6 0 4
    endloop
  endfacet
  facet normal 0 0 1
    outer loop
      vertex -4.854101966249685 3.526711513754839 4
      vertex -4.37381176452847 -4.1072826355721315 4
      vertex -4.37381176452847 4.1072826355721315 4
    endloop
  endfacet
  facet normal -0.1253332335643036 0.9921147013144779 0
    outer loop
      vertex -0.37674311717587966 5.988160370569629 0
      vertex -1.1242878875143474 5.893723504372132 0
      vertex -1.1242878875143474 5.893723504372132 4
    endloop
  endfacet
  facet normal -0.24868988716485535 0.968583161128631 0
    outer loop
      vertex -1.1242878875143474 5.893723504372132 0
      vertex -1.8541019662496843 5.706339097770921 0
      vertex -1.8541019662496843 5.706339097770921 4
    endloop
  endfacet
  facet normal -0.36812455268467775 0.9297764858882515 0
    outer loop
      vertex -1.8541019662496843 5.706339097770921 0
      vertex -2.5546757493904364 5.428962314796117 0
      vertex -2.5546757493904364 5.428962314796117 4
    endloop
  endfacet
  facet normal -0.48175367410171493 0.8763066800438638 0
    outer loop
      vertex -2.5546757493904364 5.428962314796117 0
      vertex -3.2149607698739806 5.06596755301209 0
      vertex -3.2149607698739806 5.06596755301209 4
    endloop
  endfacet
  facet normal 0 0 -1
    outer loop
      vertex -0.37674311717587966 5.988160370569629 0
      vertex 0.37674311717587966 5.988160370569629 0
      vertex -1.15 1.9918584287042087 0
    endloop
  endfacet
  facet normal 0 0 -1
    outer loop
      vertex -1.1242878875143474 5.893723504372132 0
      vertex -0.37674311717587966 5.988160370569629 0
      vertex -1.15 1.9918584287042087 0
    endloop
  endfacet
  facet normal 0 0 -1
    outer loop
      vertex -1.8541019662496843 5.706339097770921 0
      vertex -1.1242878875143474 5.893723504372132 0
      vertex -2.3 0 0
    endloop
  endfacet
  facet normal 0 0 -1
    outer loop
      vertex -2.5546757493904364 5.428962314796117 0
      vertex -1.8541019662496843 5.706339097770921 0
      vertex -2.3 0 0
    endloop
  endfacet
  facet normal 0 0 -1
    outer loop
      vertex -2.3 0 0
      vertex -1.1242878875143474 5.893723504372132 0
      vertex -1.15 1.9918584287042087 0
    endloop
  endfacet
  facet normal 0 0 1
    outer loop
      vertex -1.1409319065116494 0.14413321859894968 4
      vertex -1.1138706352979257 0.28599337023958304 4
      vertex -1.8541019662496843 5.706339097770921 4
    endloop
  endfacet
  facet normal 0 0 1
    outer loop
      vertex -0.37674311717587966 5.988160370569629 4
      vertex -0.3553695435311895 1.0937149937394264 4
      vertex -0.21548851177358325 1.129630338337992 4
    endloop
  endfacet
  facet normal 0 0 1
    outer loop
      vertex -1.1242878875143474 5.893723504372132 4
      vertex -0.48964618529983356 1.0405511103359224 4
      vertex -0.3553695435311895 1.0937149937394264 4
    endloop
  endfacet
  facet normal 0 0 1
    outer loop
      vertex -1.1242878875143474 5.893723504372132 4
      vertex -0.6162008142258463 0.9709771143273171 4
      vertex -0.48964618529983356 1.0405511103359224 4
    endloop
  endfacet
  facet normal 0 0 1
    outer loop
      vertex -1.1242878875143474 5.893723504372132 4
      vertex -0.7330375882109931 0.8860902291921577 4
      vertex -0.6162008142258463 0.9709771143273171 4
    endloop
  endfacet
  facet normal 0 0 1
    outer loop
      vertex -0.7330375882109931 0.8860902291921577 4
      vertex -1.1242878875143474 5.893723504372132 4
      vertex -0.8383139215346234 0.7872291718179917 4
    endloop
  endfacet
  facet normal 0 0 1
    outer loop
      vertex -1.1242878875143474 5.893723504372132 4
      vertex -0.9303695435311895 0.675953040136344 4
      vertex -0.8383139215346234 0.7872291718179917 4
    endloop
  endfacet
  facet normal 0 0 1
    outer loop
      vertex -1.1242878875143474 5.893723504372132 4
      vertex -1.007752682050443 0.5540167252169726 4
      vertex -0.9303695435311895 0.675953040136344 4
    endloop
  endfacet
  facet normal 0 0 1
    outer loop
      vertex -1.1242878875143474 5.893723504372132 4
      vertex -1.0692429587714891 0.4233432355873795 4
      vertex -1.007752682050443 0.5540167252169726 4
    endloop
  endfacet
  facet normal 0 0 1
    outer loop
      vertex -1.1242878875143474 5.893723504372132 4
      vertex -1.1138706352979257 0.28599337023958304 4
      vertex -1.0692429587714891 0.4233432355873795 4
    endloop
  endfacet
  facet normal 0 0 1
    outer loop
      vertex 1.1138706352979257 -0.2859933702395826 4
      vertex 1.124287887514349 -5.893723504372131 4
      vertex 1.8541019662496843 -5.706339097770921 4
    endloop
  endfacet
  facet normal 0 0 1
    outer loop
      vertex -1.15 0 4
      vertex -1.1409319065116494 0.14413321859894968 4
      vertex -1.8541019662496843 5.706339097770921 4
    endloop
  endfacet
  facet normal 0 0 1
    outer loop
      vertex -2.5546757493904364 5.428962314796117 4
      vertex -1.8541019662496843 -5.706339097770921 4
      vertex -1.8541019662496843 5.706339097770921 4
    endloop
  endfacet
  facet normal 0 0 1
    outer loop
      vertex -3.2149607698739806 5.06596755301209 4
      vertex -2.5546757493904346 -5.4289623147961175 4
      vertex -2.5546757493904364 5.428962314796117 4
    endloop
  endfacet
  facet normal -0.5877852522924732 0.8090169943749473 0
    outer loop
      vertex -3.2149607698739806 5.06596755301209 4
      vertex -3.2149607698739806 5.06596755301209 0
      vertex -3.8245439384921376 4.623079456654736 4
    endloop
  endfacet
  facet normal -0.6845471059286886 0.7289686274214116 0
    outer loop
      vertex -3.8245439384921376 4.623079456654736 4
      vertex -3.8245439384921376 4.623079456654736 0
      vertex -4.37381176452847 4.1072826355721315 4
    endloop
  endfacet
  facet normal -0.7705132427757891 0.6374239897486897 0
    outer loop
      vertex -4.37381176452847 4.1072826355721315 4
      vertex -4.854101966249685 3.526711513754839 0
      vertex -4.854101966249685 3.526711513754839 4
    endloop
  endfacet
  facet normal -0.8443279255020154 0.5358267949789961 0
    outer loop
      vertex -4.854101966249685 3.526711513754839 4
      vertex -5.257840080263181 2.890522044610292 0
      vertex -5.257840080263181 2.890522044610292 4
    endloop
  endfacet
  facet normal 0 0 1
    outer loop
      vertex -3.8245439384921376 4.623079456654736 4
      vertex -3.2149607698739806 -5.06596755301209 4
      vertex -3.2149607698739806 5.06596755301209 4
    endloop
  endfacet
  facet normal 0 0 1
    outer loop
      vertex -4.37381176452847 4.1072826355721315 4
      vertex -3.8245439384921376 -4.623079456654736 4
      vertex -3.8245439384921376 4.623079456654736 4
    endloop
  endfacet
endsolid OpenSCAD_Model
