solid OpenSCAD_Model
  facet normal 0 -1 0
    outer loop
      vertex -0.56 2.8000000000000003 0
      vertex 2.24 2.8000000000000003 0
      vertex -0.56 2.8000000000000003 14
    endloop
  endfacet
  facet normal 1 0 0
    outer loop
      vertex -0.56 2.8000000000000003 0
      vertex -0.56 1.4000000000000001 14
      vertex -0.56 1.4000000000000001 0
    endloop
  endfacet
  facet normal -1 0 0
    outer loop
      vertex 2.24 2.8000000000000003 14
      vertex 2.24 2.8000000000000003 0
      vertex 2.24 -2.8000000000000003 14
    endloop
  endfacet
  facet normal 1 0 0
    outer loop
      vertex -0.56 -1.4000000000000001 0
      vertex -0.56 -2.8000000000000003 14
      vertex -0.56 -2.8000000000000003 0
    endloop
  endfacet
  facet normal -1 0 0
    outer loop
      vertex 2.24 2.8000000000000003 0
      vertex 2.24 -2.8000000000000003 0
      vertex 2.24 -2.8000000000000003 14
    endloop
  endfacet
  facet normal 0 -1 0
    outer loop
      vertex 2.24 2.8000000000000003 14
      vertex -0.56 2.8000000000000003 14
      vertex 2.24 2.8000000000000003 0
    endloop
  endfacet
  facet normal 1 0 0
    outer loop
      vertex -0.56 1.4000000000000001 14
      vertex -0.56 2.8000000000000003 0
      vertex -0.56 2.8000000000000003 14
    endloop
  endfacet
  facet normal 0 1 0
    outer loop
      vertex 2.24 -2.8000000000000003 0
      vertex -0.56 -2.8000000000000003 0
      vertex 2.24 -2.8000000000000003 14
    endloop
  endfacet
  facet normal 1 0 0
    outer loop
      vertex -0.56 -2.8000000000000003 14
      vertex -0.56 -1.4000000000000001 0
      vertex -0.56 -1.4000000000000001 14
    endloop
  endfacet
  facet normal 0 1 0
    outer loop
      vertex -0.56 -2.8000000000000003 14
      vertex 2.24 -2.8000000000000003 14
      vertex -0.56 -2.8000000000000003 0
    endloop
  endfacet
  facet normal 1 0 0
    outer loop
      vertex -3.3600000000000003 -1.4000000000000001 14
      vertex -3.3600000000000003 -1.4000000000000001 0
      vertex -3.3600000000000003 1.4000000000000001 14
    endloop
  endfacet
  facet normal 0 -1 0
    outer loop
      vertex -3.3600000000000003 1.4000000000000001 0
      vertex -0.56 1.4000000000000001 0
      vertex -3.3600000000000003 1.4000000000000001 14
    endloop
  endfacet
  facet normal 0 1 0
    outer loop
      vertex -3.3600000000000003 -1.4000000000000001 14
      vertex -0.56 -1.4000000000000001 14
      vertex -3.3600000000000003 -1.4000000000000001 0
    endloop
  endfacet
  facet normal 0 -1 0
    outer loop
      vertex -0.56 1.4000000000000001 14
      vertex -3.3600000000000003 1.4000000000000001 14
      vertex -0.56 1.4000000000000001 0
    endloop
  endfacet
  facet normal 0 1 0
    outer loop
      vertex -0.56 -1.4000000000000001 0
      vertex -3.3600000000000003 -1.4000000000000001 0
      vertex -0.56 -1.4000000000000001 14
    endloop
  endfacet
  facet normal 1 0 0
    outer loop
      vertex -3.3600000000000003 -1.4000000000000001 0
      vertex -3.3600000000000003 1.4000000000000001 0
      vertex -3.3600000000000003 1.4000000000000001 14
    endloop
  endfacet
  facet normal 0.8443279255020153 -0.5358267949789961 0
    outer loop
      vertex 3.23606797749979 -2.3511410091698925 14
      vertex 3.505226720175454 -1.9270146964068615 0
      vertex 3.505226720175454 -1.9270146964068615 14
    endloop
  endfacet
  facet normal 0 0 1
    outer loop
      vertex 0.7495252583428993 -3.9291490029147544 14
      vertex 1.2360679774997896 -3.804226065180614 14
      vertex -0.56 -2.8000000000000003 14
    endloop
  endfacet
  facet normal 0 0 1
    outer loop
      vertex 1.2360679774997896 -3.804226065180614 14
      vertex 1.7031171662602897 -3.6193082098640783 14
      vertex -0.56 -2.8000000000000003 14
    endloop
  endfacet
  facet normal 0 0 1
    outer loop
      vertex 0.25116207811725505 -3.9921069137130862 14
      vertex 0.7495252583428993 -3.9291490029147544 14
      vertex -0.56 -2.8000000000000003 14
    endloop
  endfacet
  facet normal 0.4817536741017149 -0.8763066800438638 0
    outer loop
      vertex 1.7031171662602897 -3.6193082098640783 14
      vertex 1.7031171662602897 -3.6193082098640783 0
      vertex 2.143307179915985 -3.377311702008061 14
    endloop
  endfacet
  facet normal 0 0 1
    outer loop
      vertex 1.7031171662602897 -3.6193082098640783 14
      vertex 2.143307179915985 -3.377311702008061 14
      vertex -0.56 -2.8000000000000003 14
    endloop
  endfacet
  facet normal 0 0 1
    outer loop
      vertex -0.56 -2.8000000000000003 14
      vertex 2.143307179915985 -3.377311702008061 14
      vertex 2.24 -2.8000000000000003 14
    endloop
  endfacet
  facet normal 0.5877852522924728 -0.8090169943749477 0
    outer loop
      vertex 2.143307179915985 -3.377311702008061 14
      vertex 2.143307179915985 -3.377311702008061 0
      vertex 2.54969595899476 -3.082052971103156 14
    endloop
  endfacet
  facet normal 0.6845471059286891 -0.7289686274214112 0
    outer loop
      vertex 2.54969595899476 -3.082052971103156 14
      vertex 2.54969595899476 -3.082052971103156 0
      vertex 2.9158745096856467 -2.738188423714754 14
    endloop
  endfacet
  facet normal 0.770513242775789 -0.6374239897486899 0
    outer loop
      vertex 2.9158745096856467 -2.738188423714754 14
      vertex 3.23606797749979 -2.3511410091698925 0
      vertex 3.23606797749979 -2.3511410091698925 14
    endloop
  endfacet
  facet normal 0.9822872507286887 -0.1873813145857247 0
    outer loop
      vertex 3.9684588052579115 -0.5013329342572163 0
      vertex 3.8743326445145247 -0.9947595486594177 14
      vertex 3.8743326445145247 -0.9947595486594177 0
    endloop
  endfacet
  facet normal 0 0 1
    outer loop
      vertex 2.143307179915985 -3.377311702008061 14
      vertex 2.54969595899476 -3.082052971103156 14
      vertex 2.24 -2.8000000000000003 14
    endloop
  endfacet
  facet normal 0.9048270524660192 -0.42577929156507327 0
    outer loop
      vertex 3.505226720175454 -1.9270146964068615 14
      vertex 3.719105943553005 -1.4724982107387135 0
      vertex 3.719105943553005 -1.4724982107387135 14
    endloop
  endfacet
  facet normal 0.9510565162951535 -0.30901699437494734 0
    outer loop
      vertex 3.719105943553005 -1.4724982107387135 14
      vertex 3.8743326445145247 -0.9947595486594177 0
      vertex 3.8743326445145247 -0.9947595486594177 14
    endloop
  endfacet
  facet normal 0.9822872507286887 -0.1873813145857247 0
    outer loop
      vertex 3.8743326445145247 -0.9947595486594177 14
      vertex 3.9684588052579115 -0.5013329342572163 0
      vertex 3.9684588052579115 -0.5013329342572163 14
    endloop
  endfacet
  facet normal 0.9980267284282716 -0.06279051952931311 0
    outer loop
      vertex 3.9684588052579115 -0.5013329342572163 14
      vertex 4 0 0
      vertex 4 0 14
    endloop
  endfacet
  facet normal 0 0 1
    outer loop
      vertex 2.24 -2.8000000000000003 14
      vertex 2.54969595899476 -3.082052971103156 14
      vertex 2.24 2.8000000000000003 14
    endloop
  endfacet
  facet normal 0 0 1
    outer loop
      vertex 2.54969595899476 -3.082052971103156 14
      vertex 2.9158745096856467 -2.738188423714754 14
      vertex 2.549695958994759 3.0820529711031566 14
    endloop
  endfacet
  facet normal 0 0 1
    outer loop
      vertex 2.9158745096856467 -2.738188423714754 14
      vertex 3.23606797749979 -2.3511410091698925 14
      vertex 2.915874509685646 2.738188423714755 14
    endloop
  endfacet
  facet normal 0 0 1
    outer loop
      vertex 3.23606797749979 -2.3511410091698925 14
      vertex 3.505226720175454 -1.9270146964068615 14
      vertex 3.23606797749979 2.3511410091698925 14
    endloop
  endfacet
  facet normal 0 0 1
    outer loop
      vertex 3.505226720175454 -1.9270146964068615 14
      vertex 3.719105943553005 -1.4724982107387135 14
      vertex 3.5052267201754543 1.9270146964068613 14
    endloop
  endfacet
  facet normal 0.8443279255020153 -0.5358267949789961 0
    outer loop
      vertex 3.505226720175454 -1.9270146964068615 0
      vertex 3.23606797749979 -2.3511410091698925 14
      vertex 3.23606797749979 -2.3511410091698925 0
    endloop
  endfacet
  facet normal 0 0 -1
    outer loop
      vertex 0.25116207811725505 -3.9921069137130862 0
      vertex 2.24 -2.8000000000000003 0
      vertex 0.7495252583428993 -3.9291490029147544 0
    endloop
  endfacet
  facet normal 0 0 -1
    outer loop
      vertex 0.7495252583428993 -3.9291490029147544 0
      vertex 2.24 -2.8000000000000003 0
      vertex 1.2360679774997896 -3.804226065180614 0
    endloop
  endfacet
  facet normal 0 0 -1
    outer loop
      vertex 1.2360679774997896 -3.804226065180614 0
      vertex 2.24 -2.8000000000000003 0
      vertex 1.7031171662602897 -3.6193082098640783 0
    endloop
  endfacet
  facet normal 0 -1 0
    outer loop
      vertex 0.25116207811725505 -3.9921069137130862 14
      vertex -0.25116207811725505 -3.9921069137130862 0
      vertex 0.25116207811725505 -3.9921069137130862 0
    endloop
  endfacet
  facet normal 0.12533323356430495 -0.9921147013144778 0
    outer loop
      vertex 0.25116207811725505 -3.9921069137130862 0
      vertex 0.7495252583428993 -3.9291490029147544 0
      vertex 0.7495252583428993 -3.9291490029147544 14
    endloop
  endfacet
  facet normal 0.24868988716485502 -0.9685831611286312 0
    outer loop
      vertex 0.7495252583428993 -3.9291490029147544 0
      vertex 1.2360679774997896 -3.804226065180614 0
      vertex 1.2360679774997896 -3.804226065180614 14
    endloop
  endfacet
  facet normal 0.3681245526846778 -0.9297764858882515 0
    outer loop
      vertex 1.2360679774997896 -3.804226065180614 0
      vertex 1.7031171662602897 -3.6193082098640783 0
      vertex 1.7031171662602897 -3.6193082098640783 14
    endloop
  endfacet
  facet normal 0.4817536741017149 -0.8763066800438638 0
    outer loop
      vertex 1.7031171662602897 -3.6193082098640783 0
      vertex 2.143307179915985 -3.377311702008061 0
      vertex 2.143307179915985 -3.377311702008061 14
    endloop
  endfacet
  facet normal 0 0 -1
    outer loop
      vertex 1.7031171662602897 -3.6193082098640783 0
      vertex 2.24 -2.8000000000000003 0
      vertex 2.143307179915985 -3.377311702008061 0
    endloop
  endfacet
  facet normal 0 0 -1
    outer loop
      vertex 2.54969595899476 -3.082052971103156 0
      vertex 2.143307179915985 -3.377311702008061 0
      vertex 2.24 -2.8000000000000003 0
    endloop
  endfacet
  facet normal 0.5877852522924728 -0.8090169943749477 0
    outer loop
      vertex 2.143307179915985 -3.377311702008061 0
      vertex 2.54969595899476 -3.082052971103156 0
      vertex 2.54969595899476 -3.082052971103156 14
    endloop
  endfacet
  facet normal 0.6845471059286891 -0.7289686274214112 0
    outer loop
      vertex 2.54969595899476 -3.082052971103156 0
      vertex 2.9158745096856467 -2.738188423714754 0
      vertex 2.9158745096856467 -2.738188423714754 14
    endloop
  endfacet
  facet normal 0.770513242775789 -0.6374239897486899 0
    outer loop
      vertex 2.9158745096856467 -2.738188423714754 14
      vertex 2.9158745096856467 -2.738188423714754 0
      vertex 3.23606797749979 -2.3511410091698925 0
    endloop
  endfacet
  facet normal 0.3681245526846778 -0.9297764858882515 0
    outer loop
      vertex 1.2360679774997896 -3.804226065180614 14
      vertex 1.2360679774997896 -3.804226065180614 0
      vertex 1.7031171662602897 -3.6193082098640783 14
    endloop
  endfacet
  facet normal 0 0 -1
    outer loop
      vertex 2.9158745096856467 -2.738188423714754 0
      vertex 2.54969595899476 -3.082052971103156 0
      vertex 2.915874509685646 2.738188423714755 0
    endloop
  endfacet
  facet normal 0 0 -1
    outer loop
      vertex 2.549695958994759 3.0820529711031566 0
      vertex 2.54969595899476 -3.082052971103156 0
      vertex 2.24 -2.8000000000000003 0
    endloop
  endfacet
  facet normal 0 0 -1
    outer loop
      vertex 3.23606797749979 -2.3511410091698925 0
      vertex 2.9158745096856467 -2.738188423714754 0
      vertex 3.23606797749979 2.3511410091698925 0
    endloop
  endfacet
  facet normal 0 0 -1
    outer loop
      vertex 3.505226720175454 -1.9270146964068615 0
      vertex 3.23606797749979 -2.3511410091698925 0
      vertex 3.5052267201754543 1.9270146964068613 0
    endloop
  endfacet
  facet normal 0 0 -1
    outer loop
      vertex 3.505226720175454 -1.9270146964068615 0
      vertex 3.7191059435530054 1.472498210738712 0
      vertex 3.719105943553005 -1.4724982107387135 0
    endloop
  endfacet
  facet normal 0 0 -1
    outer loop
      vertex 3.719105943553005 -1.4724982107387135 0
      vertex 3.8743326445145243 0.9947595486594192 0
      vertex 3.8743326445145247 -0.9947595486594177 0
    endloop
  endfacet
  facet normal 0 0 -1
    outer loop
      vertex 3.8743326445145247 -0.9947595486594177 0
      vertex 3.9684588052579115 0.501332934257217 0
      vertex 3.9684588052579115 -0.5013329342572163 0
    endloop
  endfacet
  facet normal 0.9048270524660192 -0.42577929156507327 0
    outer loop
      vertex 3.719105943553005 -1.4724982107387135 0
      vertex 3.505226720175454 -1.9270146964068615 14
      vertex 3.505226720175454 -1.9270146964068615 0
    endloop
  endfacet
  facet normal 0.9510565162951535 -0.30901699437494734 0
    outer loop
      vertex 3.8743326445145247 -0.9947595486594177 0
      vertex 3.719105943553005 -1.4724982107387135 14
      vertex 3.719105943553005 -1.4724982107387135 0
    endloop
  endfacet
  facet normal 0 0 -1
    outer loop
      vertex 1.2360679774997896 3.804226065180614 0
      vertex 1.7031171662602909 3.619308209864078 0
      vertex -0.56 2.8000000000000003 0
    endloop
  endfacet
  facet normal 0.9980267284282716 -0.06279051952931311 0
    outer loop
      vertex 3.9684588052579115 -0.5013329342572163 0
      vertex 4 0 0
      vertex 3.9684588052579115 -0.5013329342572163 14
    endloop
  endfacet
  facet normal 0.12533323356430495 -0.9921147013144778 0
    outer loop
      vertex 0.25116207811725505 -3.9921069137130862 14
      vertex 0.25116207811725505 -3.9921069137130862 0
      vertex 0.7495252583428993 -3.9291490029147544 14
    endloop
  endfacet
  facet normal 0.24868988716485502 -0.9685831611286312 0
    outer loop
      vertex 0.7495252583428993 -3.9291490029147544 14
      vertex 0.7495252583428993 -3.9291490029147544 0
      vertex 1.2360679774997896 -3.804226065180614 14
    endloop
  endfacet
  facet normal 0 0 1
    outer loop
      vertex 2.54969595899476 -3.082052971103156 14
      vertex 2.549695958994759 3.0820529711031566 14
      vertex 2.24 2.8000000000000003 14
    endloop
  endfacet
  facet normal 0.12533323356430387 0.9921147013144779 0
    outer loop
      vertex 0.7495252583428983 3.929149002914755 14
      vertex 0.7495252583428983 3.929149002914755 0
      vertex 0.2511620781172531 3.9921069137130862 14
    endloop
  endfacet
  facet normal 0.24868988716485535 0.968583161128631 0
    outer loop
      vertex 1.2360679774997896 3.804226065180614 14
      vertex 1.2360679774997896 3.804226065180614 0
      vertex 0.7495252583428983 3.929149002914755 14
    endloop
  endfacet
  facet normal 0.481753674101715 0.8763066800438638 0
    outer loop
      vertex 2.1433071799159866 3.3773117020080603 14
      vertex 2.1433071799159866 3.3773117020080603 0
      vertex 1.7031171662602909 3.619308209864078 14
    endloop
  endfacet
  facet normal 0.36812455268467786 0.9297764858882515 0
    outer loop
      vertex 1.7031171662602909 3.619308209864078 14
      vertex 1.7031171662602909 3.619308209864078 0
      vertex 1.2360679774997896 3.804226065180614 14
    endloop
  endfacet
  facet normal 0 0 1
    outer loop
      vertex -0.56 2.8000000000000003 14
      vertex 2.24 2.8000000000000003 14
      vertex -0.2511620781172531 3.9921069137130862 14
    endloop
  endfacet
  facet normal 0 0 1
    outer loop
      vertex -0.2511620781172531 3.9921069137130862 14
      vertex 2.24 2.8000000000000003 14
      vertex 0.2511620781172531 3.9921069137130862 14
    endloop
  endfacet
  facet normal 0 0 1
    outer loop
      vertex 0.2511620781172531 3.9921069137130862 14
      vertex 2.24 2.8000000000000003 14
      vertex 0.7495252583428983 3.929149002914755 14
    endloop
  endfacet
  facet normal 0 0 1
    outer loop
      vertex 0.7495252583428983 3.929149002914755 14
      vertex 2.24 2.8000000000000003 14
      vertex 1.2360679774997896 3.804226065180614 14
    endloop
  endfacet
  facet normal 0 0 1
    outer loop
      vertex 1.2360679774997896 3.804226065180614 14
      vertex 2.24 2.8000000000000003 14
      vertex 1.7031171662602909 3.619308209864078 14
    endloop
  endfacet
  facet normal 0.9980267284282716 0.06279051952931301 0
    outer loop
      vertex 4 0 14
      vertex 3.9684588052579115 0.501332934257217 0
      vertex 3.9684588052579115 0.501332934257217 14
    endloop
  endfacet
  facet normal 0.9822872507286886 0.18738131458572532 0
    outer loop
      vertex 3.9684588052579115 0.501332934257217 14
      vertex 3.8743326445145243 0.9947595486594192 0
      vertex 3.8743326445145243 0.9947595486594192 14
    endloop
  endfacet
  facet normal 0.9510565162951535 0.3090169943749475 0
    outer loop
      vertex 3.8743326445145243 0.9947595486594192 14
      vertex 3.7191059435530054 1.472498210738712 0
      vertex 3.7191059435530054 1.472498210738712 14
    endloop
  endfacet
  facet normal 0.9048270524660197 0.42577929156507216 0
    outer loop
      vertex 3.7191059435530054 1.472498210738712 14
      vertex 3.5052267201754543 1.9270146964068613 0
      vertex 3.5052267201754543 1.9270146964068613 14
    endloop
  endfacet
  facet normal 0 1 0
    outer loop
      vertex 0.2511620781172531 3.9921069137130862 0
      vertex -0.2511620781172531 3.9921069137130862 14
      vertex 0.2511620781172531 3.9921069137130862 14
    endloop
  endfacet
  facet normal 0 0 1
    outer loop
      vertex 2.549695958994759 3.0820529711031566 14
      vertex 2.9158745096856467 -2.738188423714754 14
      vertex 2.915874509685646 2.738188423714755 14
    endloop
  endfacet
  facet normal 0 0 1
    outer loop
      vertex 2.915874509685646 2.738188423714755 14
      vertex 3.23606797749979 -2.3511410091698925 14
      vertex 3.23606797749979 2.3511410091698925 14
    endloop
  endfacet
  facet normal 0 0 1
    outer loop
      vertex 3.23606797749979 2.3511410091698925 14
      vertex 3.505226720175454 -1.9270146964068615 14
      vertex 3.5052267201754543 1.9270146964068613 14
    endloop
  endfacet
  facet normal 0 0 1
    outer loop
      vertex 3.9684588052579115 -0.5013329342572163 14
      vertex 4 0 14
      vertex 3.9684588052579115 0.501332934257217 14
    endloop
  endfacet
  facet normal 0 0 1
    outer loop
      vertex 3.7191059435530054 1.472498210738712 14
      vertex 3.8743326445145247 -0.9947595486594177 14
      vertex 3.8743326445145243 0.9947595486594192 14
    endloop
  endfacet
  facet normal 0 0 1
    outer loop
      vertex 3.8743326445145243 0.9947595486594192 14
      vertex 3.9684588052579115 -0.5013329342572163 14
      vertex 3.9684588052579115 0.501332934257217 14
    endloop
  endfacet
  facet normal 0 0 1
    outer loop
      vertex 3.5052267201754543 1.9270146964068613 14
      vertex 3.719105943553005 -1.4724982107387135 14
      vertex 3.7191059435530054 1.472498210738712 14
    endloop
  endfacet
  facet normal 0.6845471059286882 0.7289686274214121 0
    outer loop
      vertex 2.549695958994759 3.0820529711031566 14
      vertex 2.915874509685646 2.738188423714755 14
      vertex 2.915874509685646 2.738188423714755 0
    endloop
  endfacet
  facet normal 0.5877852522924736 0.8090169943749471 0
    outer loop
      vertex 2.549695958994759 3.0820529711031566 14
      vertex 2.549695958994759 3.0820529711031566 0
      vertex 2.1433071799159866 3.3773117020080603 14
    endloop
  endfacet
  facet normal 0.8443279255020151 0.5358267949789965 0
    outer loop
      vertex 3.5052267201754543 1.9270146964068613 14
      vertex 3.23606797749979 2.3511410091698925 0
      vertex 3.23606797749979 2.3511410091698925 14
    endloop
  endfacet
  facet normal 0.7705132427757894 0.6374239897486895 0
    outer loop
      vertex 3.23606797749979 2.3511410091698925 14
      vertex 2.915874509685646 2.738188423714755 0
      vertex 2.915874509685646 2.738188423714755 14
    endloop
  endfacet
  facet normal 0 0 1
    outer loop
      vertex 1.7031171662602909 3.619308209864078 14
      vertex 2.24 2.8000000000000003 14
      vertex 2.1433071799159866 3.3773117020080603 14
    endloop
  endfacet
  facet normal 0 0 1
    outer loop
      vertex 2.549695958994759 3.0820529711031566 14
      vertex 2.1433071799159866 3.3773117020080603 14
      vertex 2.24 2.8000000000000003 14
    endloop
  endfacet
  facet normal 0 0 -1
    outer loop
      vertex 3.5052267201754543 1.9270146964068613 0
      vertex 3.23606797749979 -2.3511410091698925 0
      vertex 3.23606797749979 2.3511410091698925 0
    endloop
  endfacet
  facet normal 0 0 1
    outer loop
      vertex 3.8743326445145247 -0.9947595486594177 14
      vertex 3.9684588052579115 -0.5013329342572163 14
      vertex 3.8743326445145243 0.9947595486594192 14
    endloop
  endfacet
  facet normal 0 0 -1
    outer loop
      vertex 0.2511620781172531 3.9921069137130862 0
      vertex 0.7495252583428983 3.929149002914755 0
      vertex -0.56 2.8000000000000003 0
    endloop
  endfacet
  facet normal 0 0 -1
    outer loop
      vertex 0.7495252583428983 3.929149002914755 0
      vertex 1.2360679774997896 3.804226065180614 0
      vertex -0.56 2.8000000000000003 0
    endloop
  endfacet
  facet normal 0 0 1
    outer loop
      vertex -1.7031171662602909 3.619308209864078 14
      vertex -0.56 1.4000000000000001 14
      vertex -1.2360679774997896 3.804226065180614 14
    endloop
  endfacet
  facet normal 0 0 -1
    outer loop
      vertex 2.24 2.8000000000000003 0
      vertex -0.56 2.8000000000000003 0
      vertex 2.1433071799159866 3.3773117020080603 0
    endloop
  endfacet
  facet normal 0 0 -1
    outer loop
      vertex 1.7031171662602909 3.619308209864078 0
      vertex 2.1433071799159866 3.3773117020080603 0
      vertex -0.56 2.8000000000000003 0
    endloop
  endfacet
  facet normal 0.12533323356430387 0.9921147013144779 0
    outer loop
      vertex 0.7495252583428983 3.929149002914755 0
      vertex 0.2511620781172531 3.9921069137130862 0
      vertex 0.2511620781172531 3.9921069137130862 14
    endloop
  endfacet
  facet normal 0.24868988716485535 0.968583161128631 0
    outer loop
      vertex 1.2360679774997896 3.804226065180614 0
      vertex 0.7495252583428983 3.929149002914755 0
      vertex 0.7495252583428983 3.929149002914755 14
    endloop
  endfacet
  facet normal 0.36812455268467786 0.9297764858882515 0
    outer loop
      vertex 1.7031171662602909 3.619308209864078 0
      vertex 1.2360679774997896 3.804226065180614 0
      vertex 1.2360679774997896 3.804226065180614 14
    endloop
  endfacet
  facet normal 0.481753674101715 0.8763066800438638 0
    outer loop
      vertex 2.1433071799159866 3.3773117020080603 0
      vertex 1.7031171662602909 3.619308209864078 0
      vertex 1.7031171662602909 3.619308209864078 14
    endloop
  endfacet
  facet normal 0 0 -1
    outer loop
      vertex 2.915874509685646 2.738188423714755 0
      vertex 2.54969595899476 -3.082052971103156 0
      vertex 2.549695958994759 3.0820529711031566 0
    endloop
  endfacet
  facet normal 0 0 -1
    outer loop
      vertex 2.24 2.8000000000000003 0
      vertex 2.549695958994759 3.0820529711031566 0
      vertex 2.24 -2.8000000000000003 0
    endloop
  endfacet
  facet normal 0 0 -1
    outer loop
      vertex 3.23606797749979 2.3511410091698925 0
      vertex 2.9158745096856467 -2.738188423714754 0
      vertex 2.915874509685646 2.738188423714755 0
    endloop
  endfacet
  facet normal 0 0 1
    outer loop
      vertex 3.719105943553005 -1.4724982107387135 14
      vertex 3.8743326445145247 -0.9947595486594177 14
      vertex 3.7191059435530054 1.472498210738712 14
    endloop
  endfacet
  facet normal 0 0 -1
    outer loop
      vertex 3.7191059435530054 1.472498210738712 0
      vertex 3.505226720175454 -1.9270146964068615 0
      vertex 3.5052267201754543 1.9270146964068613 0
    endloop
  endfacet
  facet normal 0 0 -1
    outer loop
      vertex 4 0 0
      vertex 3.9684588052579115 -0.5013329342572163 0
      vertex 3.9684588052579115 0.501332934257217 0
    endloop
  endfacet
  facet normal 0 0 -1
    outer loop
      vertex 3.9684588052579115 0.501332934257217 0
      vertex 3.8743326445145247 -0.9947595486594177 0
      vertex 3.8743326445145243 0.9947595486594192 0
    endloop
  endfacet
  facet normal 0 0 -1
    outer loop
      vertex 3.8743326445145243 0.9947595486594192 0
      vertex 3.719105943553005 -1.4724982107387135 0
      vertex 3.7191059435530054 1.472498210738712 0
    endloop
  endfacet
  facet normal 0.9980267284282716 0.06279051952931301 0
    outer loop
      vertex 4 0 14
      vertex 4 0 0
      vertex 3.9684588052579115 0.501332934257217 0
    endloop
  endfacet
  facet normal 0.9822872507286886 0.18738131458572532 0
    outer loop
      vertex 3.8743326445145243 0.9947595486594192 0
      vertex 3.9684588052579115 0.501332934257217 14
      vertex 3.9684588052579115 0.501332934257217 0
    endloop
  endfacet
  facet normal 0.9510565162951535 0.3090169943749475 0
    outer loop
      vertex 3.7191059435530054 1.472498210738712 0
      vertex 3.8743326445145243 0.9947595486594192 14
      vertex 3.8743326445145243 0.9947595486594192 0
    endloop
  endfacet
  facet normal 0.9048270524660197 0.42577929156507216 0
    outer loop
      vertex 3.5052267201754543 1.9270146964068613 0
      vertex 3.7191059435530054 1.472498210738712 14
      vertex 3.7191059435530054 1.472498210738712 0
    endloop
  endfacet
  facet normal 0 0 -1
    outer loop
      vertex 2.24 2.8000000000000003 0
      vertex 2.1433071799159866 3.3773117020080603 0
      vertex 2.549695958994759 3.0820529711031566 0
    endloop
  endfacet
  facet normal 0.6845471059286882 0.7289686274214121 0
    outer loop
      vertex 2.915874509685646 2.738188423714755 0
      vertex 2.549695958994759 3.0820529711031566 0
      vertex 2.549695958994759 3.0820529711031566 14
    endloop
  endfacet
  facet normal 0.5877852522924736 0.8090169943749471 0
    outer loop
      vertex 2.549695958994759 3.0820529711031566 0
      vertex 2.1433071799159866 3.3773117020080603 0
      vertex 2.1433071799159866 3.3773117020080603 14
    endloop
  endfacet
  facet normal 0.7705132427757894 0.6374239897486895 0
    outer loop
      vertex 3.23606797749979 2.3511410091698925 0
      vertex 2.915874509685646 2.738188423714755 0
      vertex 3.23606797749979 2.3511410091698925 14
    endloop
  endfacet
  facet normal 0.8443279255020151 0.5358267949789965 0
    outer loop
      vertex 3.23606797749979 2.3511410091698925 0
      vertex 3.5052267201754543 1.9270146964068613 14
      vertex 3.5052267201754543 1.9270146964068613 0
    endloop
  endfacet
  facet normal 0 0 1
    outer loop
      vertex -3.8743326445145243 -0.9947595486594194 14
      vertex -3.719105943553006 -1.4724982107387115 14
      vertex -3.8743326445145243 0.9947595486594194 14
    endloop
  endfacet
  facet normal -0.6845471059286891 -0.7289686274214111 0
    outer loop
      vertex -2.9158745096856467 -2.738188423714754 14
      vertex -2.9158745096856467 -2.738188423714754 0
      vertex -2.5496959589947585 -3.0820529711031575 14
    endloop
  endfacet
  facet normal 0 0 1
    outer loop
      vertex -3.23606797749979 -2.3511410091698925 14
      vertex -2.9158745096856467 -2.738188423714754 14
      vertex -3.3600000000000003 -1.4000000000000001 14
    endloop
  endfacet
  facet normal 0 0 1
    outer loop
      vertex -2.5496959589947585 -3.0820529711031575 14
      vertex -2.143307179915987 -3.37731170200806 14
      vertex -3.3600000000000003 -1.4000000000000001 14
    endloop
  endfacet
  facet normal 0 0 1
    outer loop
      vertex -2.5496959589947585 -3.0820529711031575 14
      vertex -3.3600000000000003 -1.4000000000000001 14
      vertex -2.9158745096856467 -2.738188423714754 14
    endloop
  endfacet
  facet normal 0 0 1
    outer loop
      vertex -2.143307179915987 -3.37731170200806 14
      vertex -1.7031171662602897 -3.6193082098640783 14
      vertex -3.3600000000000003 -1.4000000000000001 14
    endloop
  endfacet
  facet normal 0 0 1
    outer loop
      vertex -1.7031171662602897 -3.6193082098640783 14
      vertex -1.2360679774997896 -3.804226065180614 14
      vertex -3.3600000000000003 -1.4000000000000001 14
    endloop
  endfacet
  facet normal -0.9048270524660192 -0.42577929156507316 0
    outer loop
      vertex -3.719105943553006 -1.4724982107387115 14
      vertex -3.505226720175454 -1.9270146964068615 0
      vertex -3.505226720175454 -1.9270146964068615 14
    endloop
  endfacet
  facet normal -0.9510565162951538 -0.3090169943749471 0
    outer loop
      vertex -3.8743326445145243 -0.9947595486594194 14
      vertex -3.719105943553006 -1.4724982107387115 0
      vertex -3.719105943553006 -1.4724982107387115 14
    endloop
  endfacet
  facet normal -0.9822872507286886 -0.18738131458572496 0
    outer loop
      vertex -3.9684588052579115 -0.5013329342572163 14
      vertex -3.8743326445145243 -0.9947595486594194 0
      vertex -3.8743326445145243 -0.9947595486594194 14
    endloop
  endfacet
  facet normal -0.9980267284282716 -0.06279051952931311 0
    outer loop
      vertex -4 0 14
      vertex -3.9684588052579115 -0.5013329342572163 0
      vertex -3.9684588052579115 -0.5013329342572163 14
    endloop
  endfacet
  facet normal 0 0 1
    outer loop
      vertex -3.505226720175454 -1.9270146964068615 14
      vertex -3.23606797749979 -2.3511410091698925 14
      vertex -3.3600000000000003 -1.4000000000000001 14
    endloop
  endfacet
  facet normal 0 0 1
    outer loop
      vertex -3.719105943553006 -1.4724982107387115 14
      vertex -3.505226720175454 -1.9270146964068615 14
      vertex -3.719105943553006 1.4724982107387115 14
    endloop
  endfacet
  facet normal 0 0 1
    outer loop
      vertex -3.9684588052579115 -0.5013329342572163 14
      vertex -3.8743326445145243 -0.9947595486594194 14
      vertex -3.9684588052579115 0.5013329342572163 14
    endloop
  endfacet
  facet normal -0.5877852522924727 -0.8090169943749478 0
    outer loop
      vertex -2.5496959589947585 -3.0820529711031575 14
      vertex -2.5496959589947585 -3.0820529711031575 0
      vertex -2.143307179915987 -3.37731170200806 14
    endloop
  endfacet
  facet normal 0 0 1
    outer loop
      vertex -3.505226720175454 1.9270146964068615 14
      vertex -3.505226720175454 -1.9270146964068615 14
      vertex -3.3600000000000003 -1.4000000000000001 14
    endloop
  endfacet
  facet normal -0.3681245526846778 -0.9297764858882515 0
    outer loop
      vertex -1.7031171662602897 -3.6193082098640783 14
      vertex -1.7031171662602897 -3.6193082098640783 0
      vertex -1.2360679774997896 -3.804226065180614 14
    endloop
  endfacet
  facet normal -0.48175367410171505 -0.8763066800438637 0
    outer loop
      vertex -2.143307179915987 -3.37731170200806 14
      vertex -2.143307179915987 -3.37731170200806 0
      vertex -1.7031171662602897 -3.6193082098640783 14
    endloop
  endfacet
  facet normal -0.24868988716485502 -0.9685831611286312 0
    outer loop
      vertex -1.2360679774997896 -3.804226065180614 14
      vertex -1.2360679774997896 -3.804226065180614 0
      vertex -0.7495252583428993 -3.9291490029147544 14
    endloop
  endfacet
  facet normal -0.12533323356430495 -0.9921147013144778 0
    outer loop
      vertex -0.7495252583428993 -3.9291490029147544 14
      vertex -0.7495252583428993 -3.9291490029147544 0
      vertex -0.25116207811725505 -3.9921069137130862 14
    endloop
  endfacet
  facet normal 0 -1 0
    outer loop
      vertex -0.25116207811725505 -3.9921069137130862 14
      vertex -0.25116207811725505 -3.9921069137130862 0
      vertex 0.25116207811725505 -3.9921069137130862 14
    endloop
  endfacet
  facet normal 0 0 1
    outer loop
      vertex -1.2360679774997896 -3.804226065180614 14
      vertex -0.7495252583428993 -3.9291490029147544 14
      vertex -3.3600000000000003 -1.4000000000000001 14
    endloop
  endfacet
  facet normal 0 0 1
    outer loop
      vertex -0.56 -2.8000000000000003 14
      vertex -3.3600000000000003 -1.4000000000000001 14
      vertex -0.7495252583428993 -3.9291490029147544 14
    endloop
  endfacet
  facet normal 0 0 1
    outer loop
      vertex -0.56 -2.8000000000000003 14
      vertex -0.7495252583428993 -3.9291490029147544 14
      vertex -0.25116207811725505 -3.9921069137130862 14
    endloop
  endfacet
  facet normal 0 0 1
    outer loop
      vertex -0.25116207811725505 -3.9921069137130862 14
      vertex 0.25116207811725505 -3.9921069137130862 14
      vertex -0.56 -2.8000000000000003 14
    endloop
  endfacet
  facet normal 0 0 1
    outer loop
      vertex -0.56 -2.8000000000000003 14
      vertex -0.56 -1.4000000000000001 14
      vertex -3.3600000000000003 -1.4000000000000001 14
    endloop
  endfacet
  facet normal 0 0 -1
    outer loop
      vertex -3.9684588052579115 -0.5013329342572163 0
      vertex -4 0 0
      vertex -3.9684588052579115 0.5013329342572163 0
    endloop
  endfacet
  facet normal 0 0 -1
    outer loop
      vertex -3.8743326445145243 0.9947595486594194 0
      vertex -3.9684588052579115 -0.5013329342572163 0
      vertex -3.9684588052579115 0.5013329342572163 0
    endloop
  endfacet
  facet normal -0.9822872507286886 -0.18738131458572496 0
    outer loop
      vertex -3.9684588052579115 -0.5013329342572163 0
      vertex -3.8743326445145243 -0.9947595486594194 0
      vertex -3.9684588052579115 -0.5013329342572163 14
    endloop
  endfacet
  facet normal 0 0 -1
    outer loop
      vertex -3.23606797749979 -2.3511410091698925 0
      vertex -0.56 -1.4000000000000001 0
      vertex -2.9158745096856467 -2.738188423714754 0
    endloop
  endfacet
  facet normal -0.8443279255020153 -0.5358267949789961 0
    outer loop
      vertex -3.23606797749979 -2.3511410091698925 0
      vertex -3.505226720175454 -1.9270146964068615 14
      vertex -3.505226720175454 -1.9270146964068615 0
    endloop
  endfacet
  facet normal -0.770513242775789 -0.6374239897486899 0
    outer loop
      vertex -2.9158745096856467 -2.738188423714754 0
      vertex -3.23606797749979 -2.3511410091698925 14
      vertex -3.23606797749979 -2.3511410091698925 0
    endloop
  endfacet
  facet normal -0.5877852522924727 -0.8090169943749478 0
    outer loop
      vertex -2.5496959589947585 -3.0820529711031575 0
      vertex -2.143307179915987 -3.37731170200806 0
      vertex -2.143307179915987 -3.37731170200806 14
    endloop
  endfacet
  facet normal -0.6845471059286891 -0.7289686274214111 0
    outer loop
      vertex -2.5496959589947585 -3.0820529711031575 0
      vertex -2.5496959589947585 -3.0820529711031575 14
      vertex -2.9158745096856467 -2.738188423714754 0
    endloop
  endfacet
  facet normal 0 0 -1
    outer loop
      vertex -3.8743326445145243 -0.9947595486594194 0
      vertex -3.719105943553006 1.4724982107387115 0
      vertex -3.719105943553006 -1.4724982107387115 0
    endloop
  endfacet
  facet normal 0 0 -1
    outer loop
      vertex -3.9684588052579115 -0.5013329342572163 0
      vertex -3.8743326445145243 0.9947595486594194 0
      vertex -3.8743326445145243 -0.9947595486594194 0
    endloop
  endfacet
  facet normal 0 0 -1
    outer loop
      vertex -3.719105943553006 -1.4724982107387115 0
      vertex -3.505226720175454 1.9270146964068615 0
      vertex -3.505226720175454 -1.9270146964068615 0
    endloop
  endfacet
  facet normal 0 0 -1
    outer loop
      vertex -3.3600000000000003 -1.4000000000000001 0
      vertex -3.505226720175454 -1.9270146964068615 0
      vertex -3.3600000000000003 1.4000000000000001 0
    endloop
  endfacet
  facet normal 0 0 -1
    outer loop
      vertex -0.56 -1.4000000000000001 0
      vertex -3.23606797749979 -2.3511410091698925 0
      vertex -3.505226720175454 -1.9270146964068615 0
    endloop
  endfacet
  facet normal 0 0 -1
    outer loop
      vertex -0.56 -1.4000000000000001 0
      vertex -3.505226720175454 -1.9270146964068615 0
      vertex -3.3600000000000003 -1.4000000000000001 0
    endloop
  endfacet
  facet normal -0.9048270524660192 -0.42577929156507316 0
    outer loop
      vertex -3.719105943553006 -1.4724982107387115 0
      vertex -3.505226720175454 -1.9270146964068615 0
      vertex -3.719105943553006 -1.4724982107387115 14
    endloop
  endfacet
  facet normal -0.9510565162951538 -0.3090169943749471 0
    outer loop
      vertex -3.8743326445145243 -0.9947595486594194 0
      vertex -3.719105943553006 -1.4724982107387115 0
      vertex -3.8743326445145243 -0.9947595486594194 14
    endloop
  endfacet
  facet normal 0 0 -1
    outer loop
      vertex -3.719105943553006 1.4724982107387115 0
      vertex -3.8743326445145243 -0.9947595486594194 0
      vertex -3.8743326445145243 0.9947595486594194 0
    endloop
  endfacet
  facet normal -0.9980267284282716 -0.06279051952931311 0
    outer loop
      vertex -3.9684588052579115 -0.5013329342572163 0
      vertex -4 0 14
      vertex -4 0 0
    endloop
  endfacet
  facet normal 0 0 -1
    outer loop
      vertex -2.5496959589947585 -3.0820529711031575 0
      vertex -0.56 -1.4000000000000001 0
      vertex -2.143307179915987 -3.37731170200806 0
    endloop
  endfacet
  facet normal 0 0 -1
    outer loop
      vertex -2.143307179915987 -3.37731170200806 0
      vertex -0.56 -1.4000000000000001 0
      vertex -1.7031171662602897 -3.6193082098640783 0
    endloop
  endfacet
  facet normal 0 0 -1
    outer loop
      vertex -1.7031171662602897 -3.6193082098640783 0
      vertex -0.56 -1.4000000000000001 0
      vertex -1.2360679774997896 -3.804226065180614 0
    endloop
  endfacet
  facet normal 0 0 -1
    outer loop
      vertex -0.56 -2.8000000000000003 0
      vertex -0.25116207811725505 -3.9921069137130862 0
      vertex -0.7495252583428993 -3.9291490029147544 0
    endloop
  endfacet
  facet normal 0 0 -1
    outer loop
      vertex -1.2360679774997896 -3.804226065180614 0
      vertex -0.56 -1.4000000000000001 0
      vertex -0.7495252583428993 -3.9291490029147544 0
    endloop
  endfacet
  facet normal 0 0 -1
    outer loop
      vertex -0.7495252583428993 -3.9291490029147544 0
      vertex -0.56 -1.4000000000000001 0
      vertex -0.56 -2.8000000000000003 0
    endloop
  endfacet
  facet normal -0.48175367410171505 -0.8763066800438637 0
    outer loop
      vertex -2.143307179915987 -3.37731170200806 0
      vertex -1.7031171662602897 -3.6193082098640783 0
      vertex -1.7031171662602897 -3.6193082098640783 14
    endloop
  endfacet
  facet normal -0.3681245526846778 -0.9297764858882515 0
    outer loop
      vertex -1.7031171662602897 -3.6193082098640783 0
      vertex -1.2360679774997896 -3.804226065180614 0
      vertex -1.2360679774997896 -3.804226065180614 14
    endloop
  endfacet
  facet normal -0.24868988716485502 -0.9685831611286312 0
    outer loop
      vertex -1.2360679774997896 -3.804226065180614 0
      vertex -0.7495252583428993 -3.9291490029147544 0
      vertex -0.7495252583428993 -3.9291490029147544 14
    endloop
  endfacet
  facet normal -0.12533323356430495 -0.9921147013144778 0
    outer loop
      vertex -0.7495252583428993 -3.9291490029147544 0
      vertex -0.25116207811725505 -3.9921069137130862 0
      vertex -0.25116207811725505 -3.9921069137130862 14
    endloop
  endfacet
  facet normal -0.770513242775789 -0.6374239897486899 0
    outer loop
      vertex -3.23606797749979 -2.3511410091698925 14
      vertex -2.9158745096856467 -2.738188423714754 0
      vertex -2.9158745096856467 -2.738188423714754 14
    endloop
  endfacet
  facet normal -0.8443279255020153 -0.5358267949789961 0
    outer loop
      vertex -3.505226720175454 -1.9270146964068615 14
      vertex -3.23606797749979 -2.3511410091698925 0
      vertex -3.23606797749979 -2.3511410091698925 14
    endloop
  endfacet
  facet normal -0.5877852522924727 0.8090169943749478 0
    outer loop
      vertex -2.143307179915987 3.37731170200806 14
      vertex -2.143307179915987 3.37731170200806 0
      vertex -2.5496959589947585 3.0820529711031575 14
    endloop
  endfacet
  facet normal -0.9822872507286886 0.18738131458572496 0
    outer loop
      vertex -3.8743326445145243 0.9947595486594194 14
      vertex -3.9684588052579115 0.5013329342572163 0
      vertex -3.9684588052579115 0.5013329342572163 14
    endloop
  endfacet
  facet normal -0.9510565162951538 0.3090169943749471 0
    outer loop
      vertex -3.719105943553006 1.4724982107387115 14
      vertex -3.8743326445145243 0.9947595486594194 0
      vertex -3.8743326445145243 0.9947595486594194 14
    endloop
  endfacet
  facet normal -0.9048270524660192 0.42577929156507316 0
    outer loop
      vertex -3.505226720175454 1.9270146964068615 14
      vertex -3.719105943553006 1.4724982107387115 0
      vertex -3.719105943553006 1.4724982107387115 14
    endloop
  endfacet
  facet normal 0 0 1
    outer loop
      vertex -4 0 14
      vertex -3.9684588052579115 -0.5013329342572163 14
      vertex -3.9684588052579115 0.5013329342572163 14
    endloop
  endfacet
  facet normal 0 0 1
    outer loop
      vertex -3.9684588052579115 0.5013329342572163 14
      vertex -3.8743326445145243 -0.9947595486594194 14
      vertex -3.8743326445145243 0.9947595486594194 14
    endloop
  endfacet
  facet normal 0 0 1
    outer loop
      vertex -3.8743326445145243 0.9947595486594194 14
      vertex -3.719105943553006 -1.4724982107387115 14
      vertex -3.719105943553006 1.4724982107387115 14
    endloop
  endfacet
  facet normal 0 0 1
    outer loop
      vertex -3.719105943553006 1.4724982107387115 14
      vertex -3.505226720175454 -1.9270146964068615 14
      vertex -3.505226720175454 1.9270146964068615 14
    endloop
  endfacet
  facet normal 0 0 1
    outer loop
      vertex -3.3600000000000003 1.4000000000000001 14
      vertex -3.505226720175454 1.9270146964068615 14
      vertex -3.3600000000000003 -1.4000000000000001 14
    endloop
  endfacet
  facet normal 0 0 1
    outer loop
      vertex -0.56 1.4000000000000001 14
      vertex -3.505226720175454 1.9270146964068615 14
      vertex -3.3600000000000003 1.4000000000000001 14
    endloop
  endfacet
  facet normal 0 0 1
    outer loop
      vertex -0.56 1.4000000000000001 14
      vertex -3.23606797749979 2.3511410091698925 14
      vertex -3.505226720175454 1.9270146964068615 14
    endloop
  endfacet
  facet normal -0.8443279255020153 0.5358267949789961 0
    outer loop
      vertex -3.23606797749979 2.3511410091698925 14
      vertex -3.505226720175454 1.9270146964068615 0
      vertex -3.505226720175454 1.9270146964068615 14
    endloop
  endfacet
  facet normal -0.770513242775789 0.6374239897486899 0
    outer loop
      vertex -2.9158745096856467 2.738188423714754 14
      vertex -3.23606797749979 2.3511410091698925 0
      vertex -3.23606797749979 2.3511410091698925 14
    endloop
  endfacet
  facet normal -0.6845471059286891 0.7289686274214111 0
    outer loop
      vertex -2.5496959589947585 3.0820529711031575 14
      vertex -2.5496959589947585 3.0820529711031575 0
      vertex -2.9158745096856467 2.738188423714754 14
    endloop
  endfacet
  facet normal -0.9980267284282716 0.06279051952931311 0
    outer loop
      vertex -3.9684588052579115 0.5013329342572163 14
      vertex -4 0 0
      vertex -4 0 14
    endloop
  endfacet
  facet normal 0 0 1
    outer loop
      vertex -3.23606797749979 2.3511410091698925 14
      vertex -0.56 1.4000000000000001 14
      vertex -2.9158745096856467 2.738188423714754 14
    endloop
  endfacet
  facet normal 0 0 1
    outer loop
      vertex -2.9158745096856467 2.738188423714754 14
      vertex -0.56 1.4000000000000001 14
      vertex -2.5496959589947585 3.0820529711031575 14
    endloop
  endfacet
  facet normal -0.4817536741017153 0.8763066800438635 0
    outer loop
      vertex -1.7031171662602909 3.619308209864078 14
      vertex -1.7031171662602909 3.619308209864078 0
      vertex -2.143307179915987 3.37731170200806 14
    endloop
  endfacet
  facet normal -0.36812455268467786 0.9297764858882515 0
    outer loop
      vertex -1.2360679774997896 3.804226065180614 14
      vertex -1.2360679774997896 3.804226065180614 0
      vertex -1.7031171662602909 3.619308209864078 14
    endloop
  endfacet
  facet normal -0.24868988716485535 0.968583161128631 0
    outer loop
      vertex -0.7495252583428983 3.929149002914755 14
      vertex -0.7495252583428983 3.929149002914755 0
      vertex -1.2360679774997896 3.804226065180614 14
    endloop
  endfacet
  facet normal -0.12533323356430387 0.9921147013144779 0
    outer loop
      vertex -0.2511620781172531 3.9921069137130862 14
      vertex -0.2511620781172531 3.9921069137130862 0
      vertex -0.7495252583428983 3.929149002914755 14
    endloop
  endfacet
  facet normal 0 0 1
    outer loop
      vertex -2.5496959589947585 3.0820529711031575 14
      vertex -0.56 1.4000000000000001 14
      vertex -2.143307179915987 3.37731170200806 14
    endloop
  endfacet
  facet normal 0 0 1
    outer loop
      vertex -2.143307179915987 3.37731170200806 14
      vertex -0.56 1.4000000000000001 14
      vertex -1.7031171662602909 3.619308209864078 14
    endloop
  endfacet
  facet normal 0 0 -1
    outer loop
      vertex -2.5496959589947585 -3.0820529711031575 0
      vertex -2.9158745096856467 -2.738188423714754 0
      vertex -0.56 -1.4000000000000001 0
    endloop
  endfacet
  facet normal 0 0 1
    outer loop
      vertex -0.7495252583428983 3.929149002914755 14
      vertex -0.56 1.4000000000000001 14
      vertex -0.56 2.8000000000000003 14
    endloop
  endfacet
  facet normal 0 0 1
    outer loop
      vertex -1.2360679774997896 3.804226065180614 14
      vertex -0.56 1.4000000000000001 14
      vertex -0.7495252583428983 3.929149002914755 14
    endloop
  endfacet
  facet normal 0 0 1
    outer loop
      vertex -0.7495252583428983 3.929149002914755 14
      vertex -0.56 2.8000000000000003 14
      vertex -0.2511620781172531 3.9921069137130862 14
    endloop
  endfacet
  facet normal 0 0 -1
    outer loop
      vertex -0.56 -2.8000000000000003 0
      vertex 2.24 -2.8000000000000003 0
      vertex -0.25116207811725505 -3.9921069137130862 0
    endloop
  endfacet
  facet normal -0.770513242775789 0.6374239897486899 0
    outer loop
      vertex -2.9158745096856467 2.738188423714754 0
      vertex -3.23606797749979 2.3511410091698925 0
      vertex -2.9158745096856467 2.738188423714754 14
    endloop
  endfacet
  facet normal 0 0 -1
    outer loop
      vertex -3.505226720175454 1.9270146964068615 0
      vertex -3.719105943553006 -1.4724982107387115 0
      vertex -3.719105943553006 1.4724982107387115 0
    endloop
  endfacet
  facet normal 0 0 -1
    outer loop
      vertex -3.505226720175454 -1.9270146964068615 0
      vertex -3.505226720175454 1.9270146964068615 0
      vertex -3.3600000000000003 1.4000000000000001 0
    endloop
  endfacet
  facet normal 0 0 -1
    outer loop
      vertex -3.505226720175454 1.9270146964068615 0
      vertex -3.23606797749979 2.3511410091698925 0
      vertex -3.3600000000000003 1.4000000000000001 0
    endloop
  endfacet
  facet normal -0.9980267284282716 0.06279051952931311 0
    outer loop
      vertex -3.9684588052579115 0.5013329342572163 0
      vertex -4 0 0
      vertex -3.9684588052579115 0.5013329342572163 14
    endloop
  endfacet
  facet normal -0.9822872507286886 0.18738131458572496 0
    outer loop
      vertex -3.8743326445145243 0.9947595486594194 0
      vertex -3.9684588052579115 0.5013329342572163 0
      vertex -3.8743326445145243 0.9947595486594194 14
    endloop
  endfacet
  facet normal -0.9510565162951538 0.3090169943749471 0
    outer loop
      vertex -3.719105943553006 1.4724982107387115 0
      vertex -3.8743326445145243 0.9947595486594194 0
      vertex -3.719105943553006 1.4724982107387115 14
    endloop
  endfacet
  facet normal -0.9048270524660192 0.42577929156507316 0
    outer loop
      vertex -3.505226720175454 1.9270146964068615 0
      vertex -3.719105943553006 1.4724982107387115 0
      vertex -3.505226720175454 1.9270146964068615 14
    endloop
  endfacet
  facet normal 0 0 -1
    outer loop
      vertex -3.23606797749979 2.3511410091698925 0
      vertex -2.9158745096856467 2.738188423714754 0
      vertex -3.3600000000000003 1.4000000000000001 0
    endloop
  endfacet
  facet normal 0 0 -1
    outer loop
      vertex -2.9158745096856467 2.738188423714754 0
      vertex -2.5496959589947585 3.0820529711031575 0
      vertex -3.3600000000000003 1.4000000000000001 0
    endloop
  endfacet
  facet normal 0 0 -1
    outer loop
      vertex -2.5496959589947585 3.0820529711031575 0
      vertex -2.143307179915987 3.37731170200806 0
      vertex -3.3600000000000003 1.4000000000000001 0
    endloop
  endfacet
  facet normal 0 0 -1
    outer loop
      vertex -2.143307179915987 3.37731170200806 0
      vertex -1.7031171662602909 3.619308209864078 0
      vertex -3.3600000000000003 1.4000000000000001 0
    endloop
  endfacet
  facet normal 0 0 -1
    outer loop
      vertex -1.7031171662602909 3.619308209864078 0
      vertex -1.2360679774997896 3.804226065180614 0
      vertex -3.3600000000000003 1.4000000000000001 0
    endloop
  endfacet
  facet normal -0.8443279255020153 0.5358267949789961 0
    outer loop
      vertex -3.23606797749979 2.3511410091698925 0
      vertex -3.505226720175454 1.9270146964068615 0
      vertex -3.23606797749979 2.3511410091698925 14
    endloop
  endfacet
  facet normal 0 0 -1
    outer loop
      vertex -0.25116207811725505 -3.9921069137130862 0
      vertex 2.24 -2.8000000000000003 0
      vertex 0.25116207811725505 -3.9921069137130862 0
    endloop
  endfacet
  facet normal -0.6845471059286891 0.7289686274214111 0
    outer loop
      vertex -2.5496959589947585 3.0820529711031575 0
      vertex -2.9158745096856467 2.738188423714754 0
      vertex -2.9158745096856467 2.738188423714754 14
    endloop
  endfacet
  facet normal -0.5877852522924727 0.8090169943749478 0
    outer loop
      vertex -2.143307179915987 3.37731170200806 0
      vertex -2.5496959589947585 3.0820529711031575 0
      vertex -2.5496959589947585 3.0820529711031575 14
    endloop
  endfacet
  facet normal 0 0 -1
    outer loop
      vertex -0.56 2.8000000000000003 0
      vertex -0.56 1.4000000000000001 0
      vertex -3.3600000000000003 1.4000000000000001 0
    endloop
  endfacet
  facet normal 0 0 -1
    outer loop
      vertex -0.56 2.8000000000000003 0
      vertex -3.3600000000000003 1.4000000000000001 0
      vertex -0.7495252583428983 3.929149002914755 0
    endloop
  endfacet
  facet normal 0 0 -1
    outer loop
      vertex -1.2360679774997896 3.804226065180614 0
      vertex -0.7495252583428983 3.929149002914755 0
      vertex -3.3600000000000003 1.4000000000000001 0
    endloop
  endfacet
  facet normal 0 0 -1
    outer loop
      vertex -0.56 2.8000000000000003 0
      vertex -0.7495252583428983 3.929149002914755 0
      vertex -0.2511620781172531 3.9921069137130862 0
    endloop
  endfacet
  facet normal 0 0 -1
    outer loop
      vertex -0.2511620781172531 3.9921069137130862 0
      vertex 0.2511620781172531 3.9921069137130862 0
      vertex -0.56 2.8000000000000003 0
    endloop
  endfacet
  facet normal -0.4817536741017153 0.8763066800438635 0
    outer loop
      vertex -1.7031171662602909 3.619308209864078 0
      vertex -2.143307179915987 3.37731170200806 0
      vertex -2.143307179915987 3.37731170200806 14
    endloop
  endfacet
  facet normal -0.36812455268467786 0.9297764858882515 0
    outer loop
      vertex -1.2360679774997896 3.804226065180614 0
      vertex -1.7031171662602909 3.619308209864078 0
      vertex -1.7031171662602909 3.619308209864078 14
    endloop
  endfacet
  facet normal -0.24868988716485535 0.968583161128631 0
    outer loop
      vertex -0.7495252583428983 3.929149002914755 0
      vertex -1.2360679774997896 3.804226065180614 0
      vertex -1.2360679774997896 3.804226065180614 14
    endloop
  endfacet
  facet normal -0.12533323356430387 0.9921147013144779 0
    outer loop
      vertex -0.2511620781172531 3.9921069137130862 0
      vertex -0.7495252583428983 3.929149002914755 0
      vertex -0.7495252583428983 3.929149002914755 14
    endloop
  endfacet
  facet normal 0 1 0
    outer loop
      vertex 0.2511620781172531 3.9921069137130862 0
      vertex -0.2511620781172531 3.9921069137130862 0
      vertex -0.2511620781172531 3.9921069137130862 14
    endloop
  endfacet
endsolid OpenSCAD_Model
