solid OpenSCAD_Model
  facet normal -0.13218687536632484 0.9912248130373289 0
    outer loop
      vertex 7.17369981110096 35.007200837135315 24
      vertex 7.17369981110096 35.007200837135315 -24
      vertex -5.382713817143544 33.33271381714354 24
    endloop
  endfacet
  facet normal -0.08302265469133123 0.9965476600785353 0
    outer loop
      vertex 27.807700857520103 37.34990142285824 -24
      vertex 27.807700857520103 37.34990142285824 24
      vertex 48.53860184550285 39.07699838280678 24
    endloop
  endfacet
  facet normal -0.05865777017491419 0.9982781506164036 0
    outer loop
      vertex 48.53860184550285 39.07699838280678 -24
      vertex 69.29799906909466 40.29679864645004 24
      vertex 69.29799906909466 40.29679864645004 -24
    endloop
  endfacet
  facet normal -0.05865777017491419 0.9982781506164036 0
    outer loop
      vertex 69.29799906909466 40.29679864645004 24
      vertex 48.53860184550285 39.07699838280678 -24
      vertex 48.53860184550285 39.07699838280678 24
    endloop
  endfacet
  facet normal -0.08302265469133123 0.9965476600785353 0
    outer loop
      vertex 48.53860184550285 39.07699838280678 24
      vertex 48.53860184550285 39.07699838280678 -24
      vertex 27.807700857520103 37.34990142285824 -24
    endloop
  endfacet
  facet normal 0.00482126843117642 0.9999883776178173 0
    outer loop
      vertex 110.40070176124573 41.374100744724274 -24
      vertex 110.40070176124573 41.374100744724274 24
      vertex 130.49890138208866 41.27720080316067 24
    endloop
  endfacet
  facet normal -0.015614395875949207 0.9998780878894332 0
    outer loop
      vertex 110.40070176124573 41.374100744724274 24
      vertex 89.9605005979538 41.05490043759346 -24
      vertex 89.9605005979538 41.05490043759346 24
    endloop
  endfacet
  facet normal -0.11281117134129637 0.9936164449225893 0
    outer loop
      vertex 7.17369981110096 35.007200837135315 -24
      vertex 27.807700857520103 37.34990142285824 24
      vertex 27.807700857520103 37.34990142285824 -24
    endloop
  endfacet
  facet normal 0.02555084945659736 0.9996735237526532 0
    outer loop
      vertex 130.49890138208866 41.27720080316067 -24
      vertex 130.49890138208866 41.27720080316067 24
      vertex 150.12399978935719 40.77559910714626 24
    endloop
  endfacet
  facet normal -0.0366650693403549 0.9993276102911732 0
    outer loop
      vertex 69.29799906909466 40.29679864645004 -24
      vertex 69.29799906909466 40.29679864645004 24
      vertex 89.9605005979538 41.05490043759346 24
    endloop
  endfacet
  facet normal -0.11281117134129637 0.9936164449225893 0
    outer loop
      vertex 7.17369981110096 35.007200837135315 -24
      vertex 7.17369981110096 35.007200837135315 24
      vertex 27.807700857520103 37.34990142285824 24
    endloop
  endfacet
  facet normal 0.04668346972896325 0.9989097324854057 0
    outer loop
      vertex 150.12399978935719 40.77559910714626 24
      vertex 152.70497855442585 40.65497855442586 24
      vertex 152.70497855442585 40.65497855442586 -24
    endloop
  endfacet
  facet normal -0.0366650693403549 0.9993276102911732 0
    outer loop
      vertex 89.9605005979538 41.05490043759346 24
      vertex 89.9605005979538 41.05490043759346 -24
      vertex 69.29799906909466 40.29679864645004 -24
    endloop
  endfacet
  facet normal -0.015614395875949207 0.9998780878894332 0
    outer loop
      vertex 89.9605005979538 41.05490043759346 -24
      vertex 110.40070176124573 41.374100744724274 24
      vertex 110.40070176124573 41.374100744724274 -24
    endloop
  endfacet
  facet normal 0.02555084945659736 0.9996735237526532 0
    outer loop
      vertex 150.12399978935719 40.77559910714626 24
      vertex 150.12399978935719 40.77559910714626 -24
      vertex 130.49890138208866 41.27720080316067 -24
    endloop
  endfacet
  facet normal 0.04668346972896325 0.9989097324854057 0
    outer loop
      vertex 152.70497855442585 40.65497855442586 -24
      vertex 150.12399978935719 40.77559910714626 -24
      vertex 150.12399978935719 40.77559910714626 24
    endloop
  endfacet
  facet normal -0.13218687536632484 0.9912248130373289 0
    outer loop
      vertex 7.17369981110096 35.007200837135315 -24
      vertex -5.382713817143544 33.33271381714354 -24
      vertex -5.382713817143544 33.33271381714354 24
    endloop
  endfacet
  facet normal 0.00482126843117642 0.9999883776178173 0
    outer loop
      vertex 130.49890138208866 41.27720080316067 24
      vertex 130.49890138208866 41.27720080316067 -24
      vertex 110.40070176124573 41.374100744724274 -24
    endloop
  endfacet
  facet normal 0.03666506923498455 -0.9993276102950392 0
    outer loop
      vertex 69.39333351701498 38.298950754106045 24
      vertex 90.01278612017632 39.05547308921814 -24
      vertex 90.01278612017632 39.05547308921814 24
    endloop
  endfacet
  facet normal -0.04668346943120727 -0.9989097324993214 0
    outer loop
      vertex 150.79218875707883 38.74218875707882 24
      vertex 150.05175717175007 38.77679239958525 24
      vertex 150.05175717175007 38.77679239958525 -24
    endloop
  endfacet
  facet normal 0.015614395979427102 -0.9998780878878173 0
    outer loop
      vertex 90.01278612017632 39.05547308921814 24
      vertex 90.01278612017632 39.05547308921814 -24
      vertex 110.41149590164423 39.37402545660734 -24
    endloop
  endfacet
  facet normal 0.015614395979427102 -0.9998780878878173 0
    outer loop
      vertex 110.41149590164423 39.37402545660734 -24
      vertex 110.41149590164423 39.37402545660734 24
      vertex 90.01278612017632 39.05547308921814 24
    endloop
  endfacet
  facet normal -0.04668346943120727 -0.9989097324993214 0
    outer loop
      vertex 150.05175717175007 38.77679239958525 -24
      vertex 150.79218875707883 38.74218875707882 -24
      vertex 150.79218875707883 38.74218875707882 24
    endloop
  endfacet
  facet normal 0.03666506923498455 -0.9993276102950392 0
    outer loop
      vertex 90.01278612017632 39.05547308921814 -24
      vertex 69.39333351701498 38.298950754106045 24
      vertex 69.39333351701498 38.298950754106045 -24
    endloop
  endfacet
  facet normal -0.025550849644392463 -0.9996735237478532 0
    outer loop
      vertex 150.05175717175007 38.77679239958525 -24
      vertex 130.4685260206461 39.27732400596142 24
      vertex 130.4685260206461 39.27732400596142 -24
    endloop
  endfacet
  facet normal 0.05865777015702787 -0.9982781506174546 0
    outer loop
      vertex 69.39333351701498 38.298950754106045 -24
      vertex 69.39333351701498 38.298950754106045 24
      vertex 48.680303417146206 37.08187497407198 24
    endloop
  endfacet
  facet normal -0.004821268461529573 -0.999988377617671 0
    outer loop
      vertex 130.4685260206461 39.27732400596142 -24
      vertex 110.41149590164423 39.37402545660734 24
      vertex 110.41149590164423 39.37402545660734 -24
    endloop
  endfacet
  facet normal 0.1321858462565834 -0.9912249502758851 0
    outer loop
      vertex -3.602238384409293 31.552238384409293 -24
      vertex 7.429840728640556 33.02343290299177 -24
      vertex 7.429840728640556 33.02343290299177 24
    endloop
  endfacet
  facet normal 0.11281117122113622 -0.9936164449362316 0
    outer loop
      vertex 28.003578327596188 35.359291419386864 -24
      vertex 7.429840728640556 33.02343290299177 24
      vertex 7.429840728640556 33.02343290299177 -24
    endloop
  endfacet
  facet normal 0.05865777015702787 -0.9982781506174546 0
    outer loop
      vertex 48.680303417146206 37.08187497407198 24
      vertex 48.680303417146206 37.08187497407198 -24
      vertex 69.39333351701498 38.298950754106045 -24
    endloop
  endfacet
  facet normal -0.004821268461529573 -0.999988377617671 0
    outer loop
      vertex 110.41149590164423 39.37402545660734 24
      vertex 130.4685260206461 39.27732400596142 -24
      vertex 130.4685260206461 39.27732400596142 24
    endloop
  endfacet
  facet normal -0.025550849644392463 -0.9996735237478532 0
    outer loop
      vertex 130.4685260206461 39.27732400596142 24
      vertex 150.05175717175007 38.77679239958525 -24
      vertex 150.05175717175007 38.77679239958525 24
    endloop
  endfacet
  facet normal 0.11281117122113622 -0.9936164449362316 0
    outer loop
      vertex 28.003578327596188 35.359291419386864 -24
      vertex 28.003578327596188 35.359291419386864 24
      vertex 7.429840728640556 33.02343290299177 24
    endloop
  endfacet
  facet normal 0.0830226548572238 -0.9965476600647148 0
    outer loop
      vertex 28.003578327596188 35.359291419386864 24
      vertex 48.680303417146206 37.08187497407198 -24
      vertex 48.680303417146206 37.08187497407198 24
    endloop
  endfacet
  facet normal 0.1321858462565834 -0.9912249502758851 0
    outer loop
      vertex 7.429840728640556 33.02343290299177 24
      vertex -3.602238384409293 31.552238384409293 24
      vertex -3.602238384409293 31.552238384409293 -24
    endloop
  endfacet
  facet normal 0.0830226548572238 -0.9965476600647148 0
    outer loop
      vertex 48.680303417146206 37.08187497407198 -24
      vertex 28.003578327596188 35.359291419386864 24
      vertex 28.003578327596188 35.359291419386864 -24
    endloop
  endfacet
  facet normal 0 0 1
    outer loop
      vertex 110.41149590164423 39.37402545660734 24
      vertex 130.4685260206461 39.27732400596142 24
      vertex 130.49890138208866 41.27720080316067 24
    endloop
  endfacet
  facet normal 0 0 1
    outer loop
      vertex 130.4685260206461 39.27732400596142 24
      vertex 150.12399978935719 40.77559910714626 24
      vertex 130.49890138208866 41.27720080316067 24
    endloop
  endfacet
  facet normal 0 0 1
    outer loop
      vertex 150.05175717175007 38.77679239958525 24
      vertex 152.70497855442585 40.65497855442586 24
      vertex 150.12399978935719 40.77559910714626 24
    endloop
  endfacet
  facet normal 0.7071067811865516 -0.7071067811865437 0
    outer loop
      vertex 150.79218875707883 38.74218875707882 24
      vertex 150.79218875707883 38.74218875707882 -24
      vertex 152.70497855442585 40.65497855442586 -24
    endloop
  endfacet
  facet normal 0 0 1
    outer loop
      vertex 130.4685260206461 39.27732400596142 24
      vertex 150.05175717175007 38.77679239958525 24
      vertex 150.12399978935719 40.77559910714626 24
    endloop
  endfacet
  facet normal 0 0 1
    outer loop
      vertex 152.70497855442585 40.65497855442586 24
      vertex 150.05175717175007 38.77679239958525 24
      vertex 150.79218875707883 38.74218875707882 24
    endloop
  endfacet
  facet normal 0 0 1
    outer loop
      vertex 110.41149590164423 39.37402545660734 24
      vertex 130.49890138208866 41.27720080316067 24
      vertex 110.40070176124573 41.374100744724274 24
    endloop
  endfacet
  facet normal 0.7071067811865516 -0.7071067811865437 0
    outer loop
      vertex 150.79218875707883 38.74218875707882 24
      vertex 152.70497855442585 40.65497855442586 -24
      vertex 152.70497855442585 40.65497855442586 24
    endloop
  endfacet
  facet normal 0 0 1
    outer loop
      vertex 69.39333351701498 38.298950754106045 24
      vertex 90.01278612017632 39.05547308921814 24
      vertex 89.9605005979538 41.05490043759346 24
    endloop
  endfacet
  facet normal 0 0 1
    outer loop
      vertex 69.39333351701498 38.298950754106045 24
      vertex 89.9605005979538 41.05490043759346 24
      vertex 69.29799906909466 40.29679864645004 24
    endloop
  endfacet
  facet normal 0 0 1
    outer loop
      vertex 90.01278612017632 39.05547308921814 24
      vertex 110.41149590164423 39.37402545660734 24
      vertex 110.40070176124573 41.374100744724274 24
    endloop
  endfacet
  facet normal 0 0 1
    outer loop
      vertex 90.01278612017632 39.05547308921814 24
      vertex 110.40070176124573 41.374100744724274 24
      vertex 89.9605005979538 41.05490043759346 24
    endloop
  endfacet
  facet normal 0 0 -1
    outer loop
      vertex 110.41149590164423 39.37402545660734 -24
      vertex 89.9605005979538 41.05490043759346 -24
      vertex 110.40070176124573 41.374100744724274 -24
    endloop
  endfacet
  facet normal 0 0 1
    outer loop
      vertex 28.003578327596188 35.359291419386864 24
      vertex 48.53860184550285 39.07699838280678 24
      vertex 27.807700857520103 37.34990142285824 24
    endloop
  endfacet
  facet normal 0 0 -1
    outer loop
      vertex 7.429840728640556 33.02343290299177 -24
      vertex -3.602238384409293 31.552238384409293 -24
      vertex 7.17369981110096 35.007200837135315 -24
    endloop
  endfacet
  facet normal -0.7071067811865472 -0.7071067811865477 0
    outer loop
      vertex -5.382713817143544 33.33271381714354 24
      vertex -5.382713817143544 33.33271381714354 -24
      vertex -3.602238384409293 31.552238384409293 -24
    endloop
  endfacet
  facet normal 0 0 -1
    outer loop
      vertex 28.003578327596188 35.359291419386864 -24
      vertex 7.429840728640556 33.02343290299177 -24
      vertex 7.17369981110096 35.007200837135315 -24
    endloop
  endfacet
  facet normal 0 0 -1
    outer loop
      vertex 28.003578327596188 35.359291419386864 -24
      vertex 7.17369981110096 35.007200837135315 -24
      vertex 27.807700857520103 37.34990142285824 -24
    endloop
  endfacet
  facet normal -0.7071067811865472 -0.7071067811865477 0
    outer loop
      vertex -3.602238384409293 31.552238384409293 -24
      vertex -3.602238384409293 31.552238384409293 24
      vertex -5.382713817143544 33.33271381714354 24
    endloop
  endfacet
  facet normal 0 0 1
    outer loop
      vertex 7.17369981110096 35.007200837135315 24
      vertex -5.382713817143544 33.33271381714354 24
      vertex -3.602238384409293 31.552238384409293 24
    endloop
  endfacet
  facet normal 0 0 1
    outer loop
      vertex 7.17369981110096 35.007200837135315 24
      vertex -3.602238384409293 31.552238384409293 24
      vertex 7.429840728640556 33.02343290299177 24
    endloop
  endfacet
  facet normal 0 0 1
    outer loop
      vertex 7.429840728640556 33.02343290299177 24
      vertex 27.807700857520103 37.34990142285824 24
      vertex 7.17369981110096 35.007200837135315 24
    endloop
  endfacet
  facet normal 0 0 1
    outer loop
      vertex 27.807700857520103 37.34990142285824 24
      vertex 7.429840728640556 33.02343290299177 24
      vertex 28.003578327596188 35.359291419386864 24
    endloop
  endfacet
  facet normal 0 0 -1
    outer loop
      vertex 48.680303417146206 37.08187497407198 -24
      vertex 28.003578327596188 35.359291419386864 -24
      vertex 27.807700857520103 37.34990142285824 -24
    endloop
  endfacet
  facet normal 0 0 -1
    outer loop
      vertex 48.680303417146206 37.08187497407198 -24
      vertex 27.807700857520103 37.34990142285824 -24
      vertex 48.53860184550285 39.07699838280678 -24
    endloop
  endfacet
  facet normal 0 0 -1
    outer loop
      vertex 69.39333351701498 38.298950754106045 -24
      vertex 48.680303417146206 37.08187497407198 -24
      vertex 48.53860184550285 39.07699838280678 -24
    endloop
  endfacet
  facet normal 0 0 -1
    outer loop
      vertex 69.39333351701498 38.298950754106045 -24
      vertex 48.53860184550285 39.07699838280678 -24
      vertex 69.29799906909466 40.29679864645004 -24
    endloop
  endfacet
  facet normal 0 0 -1
    outer loop
      vertex 130.49890138208866 41.27720080316067 -24
      vertex 150.12399978935719 40.77559910714626 -24
      vertex 150.05175717175007 38.77679239958525 -24
    endloop
  endfacet
  facet normal 0 0 1
    outer loop
      vertex 28.003578327596188 35.359291419386864 24
      vertex 48.680303417146206 37.08187497407198 24
      vertex 48.53860184550285 39.07699838280678 24
    endloop
  endfacet
  facet normal 0 0 1
    outer loop
      vertex 48.680303417146206 37.08187497407198 24
      vertex 69.29799906909466 40.29679864645004 24
      vertex 48.53860184550285 39.07699838280678 24
    endloop
  endfacet
  facet normal 0 0 1
    outer loop
      vertex 48.680303417146206 37.08187497407198 24
      vertex 69.39333351701498 38.298950754106045 24
      vertex 69.29799906909466 40.29679864645004 24
    endloop
  endfacet
  facet normal 0 0 -1
    outer loop
      vertex 90.01278612017632 39.05547308921814 -24
      vertex 69.39333351701498 38.298950754106045 -24
      vertex 69.29799906909466 40.29679864645004 -24
    endloop
  endfacet
  facet normal 0 0 -1
    outer loop
      vertex 90.01278612017632 39.05547308921814 -24
      vertex 69.29799906909466 40.29679864645004 -24
      vertex 89.9605005979538 41.05490043759346 -24
    endloop
  endfacet
  facet normal 0 0 -1
    outer loop
      vertex 110.41149590164423 39.37402545660734 -24
      vertex 90.01278612017632 39.05547308921814 -24
      vertex 89.9605005979538 41.05490043759346 -24
    endloop
  endfacet
  facet normal 0 0 -1
    outer loop
      vertex -3.602238384409293 31.552238384409293 -24
      vertex -5.382713817143544 33.33271381714354 -24
      vertex 7.17369981110096 35.007200837135315 -24
    endloop
  endfacet
  facet normal 0 0 -1
    outer loop
      vertex 130.4685260206461 39.27732400596142 -24
      vertex 110.41149590164423 39.37402545660734 -24
      vertex 110.40070176124573 41.374100744724274 -24
    endloop
  endfacet
  facet normal 0 0 -1
    outer loop
      vertex 130.4685260206461 39.27732400596142 -24
      vertex 110.40070176124573 41.374100744724274 -24
      vertex 130.49890138208866 41.27720080316067 -24
    endloop
  endfacet
  facet normal 0 0 -1
    outer loop
      vertex 150.05175717175007 38.77679239958525 -24
      vertex 130.4685260206461 39.27732400596142 -24
      vertex 130.49890138208866 41.27720080316067 -24
    endloop
  endfacet
  facet normal 0 0 -1
    outer loop
      vertex 150.12399978935719 40.77559910714626 -24
      vertex 150.79218875707883 38.74218875707882 -24
      vertex 150.05175717175007 38.77679239958525 -24
    endloop
  endfacet
  facet normal 0 0 -1
    outer loop
      vertex 150.12399978935719 40.77559910714626 -24
      vertex 152.70497855442585 40.65497855442586 -24
      vertex 150.79218875707883 38.74218875707882 -24
    endloop
  endfacet
endsolid OpenSCAD_Model
