solid OpenSCAD_Model
  facet normal -0.0366650693403549 0.9993276102911732 0
    outer loop
      vertex 69.29799906909466 40.29679864645004 -24
      vertex 69.29799906909466 40.29679864645004 24
      vertex 89.9605005979538 41.05490043759346 24
    endloop
  endfacet
  facet normal -0.05865777017491419 0.9982781506164036 0
    outer loop
      vertex 48.53860184550285 39.07699838280678 -24
      vertex 69.29799906909466 40.29679864645004 24
      vertex 69.29799906909466 40.29679864645004 -24
    endloop
  endfacet
  facet normal -0.0366650693403549 0.9993276102911732 0
    outer loop
      vertex 89.9605005979538 41.05490043759346 24
      vertex 89.9605005979538 41.05490043759346 -24
      vertex 69.29799906909466 40.29679864645004 -24
    endloop
  endfacet
  facet normal -0.015614395875949207 0.9998780878894332 0
    outer loop
      vertex 89.9605005979538 41.05490043759346 -24
      vertex 110.40070176124573 41.374100744724274 24
      vertex 110.40070176124573 41.374100744724274 -24
    endloop
  endfacet
  facet normal -0.08302265469133123 0.9965476600785353 0
    outer loop
      vertex 48.53860184550285 39.07699838280678 24
      vertex 48.53860184550285 39.07699838280678 -24
      vertex 27.807700857520103 37.34990142285824 -24
    endloop
  endfacet
  facet normal -0.08302265469133123 0.9965476600785353 0
    outer loop
      vertex 27.807700857520103 37.34990142285824 -24
      vertex 27.807700857520103 37.34990142285824 24
      vertex 48.53860184550285 39.07699838280678 24
    endloop
  endfacet
  facet normal 0.00482126843117642 0.9999883776178173 0
    outer loop
      vertex 110.40070176124573 41.374100744724274 -24
      vertex 110.40070176124573 41.374100744724274 24
      vertex 130.49890138208866 41.27720080316067 24
    endloop
  endfacet
  facet normal -0.1128111713412963 0.9936164449225892 0
    outer loop
      vertex 10.558502434796774 35.391497565203224 24
      vertex 27.807700857520103 37.34990142285824 24
      vertex 10.558502434796774 35.391497565203224 -24
    endloop
  endfacet
  facet normal 0.025550849456596768 0.9996735237526531 0
    outer loop
      vertex 135.20686894716604 41.15686894716605 -24
      vertex 130.49890138208866 41.27720080316067 24
      vertex 135.20686894716604 41.15686894716605 24
    endloop
  endfacet
  facet normal -0.05865777017491419 0.9982781506164036 0
    outer loop
      vertex 69.29799906909466 40.29679864645004 24
      vertex 48.53860184550285 39.07699838280678 -24
      vertex 48.53860184550285 39.07699838280678 24
    endloop
  endfacet
  facet normal -0.015614395875949207 0.9998780878894332 0
    outer loop
      vertex 110.40070176124573 41.374100744724274 24
      vertex 89.9605005979538 41.05490043759346 -24
      vertex 89.9605005979538 41.05490043759346 24
    endloop
  endfacet
  facet normal -0.1128111713412963 0.9936164449225892 0
    outer loop
      vertex 27.807700857520103 37.34990142285824 24
      vertex 27.807700857520103 37.34990142285824 -24
      vertex 10.558502434796774 35.391497565203224 -24
    endloop
  endfacet
  facet normal 0.025550849456596768 0.9996735237526531 0
    outer loop
      vertex 130.49890138208866 41.27720080316067 -24
      vertex 130.49890138208866 41.27720080316067 24
      vertex 135.20686894716604 41.15686894716605 -24
    endloop
  endfacet
  facet normal 0.00482126843117642 0.9999883776178173 0
    outer loop
      vertex 130.49890138208866 41.27720080316067 24
      vertex 130.49890138208866 41.27720080316067 -24
      vertex 110.40070176124573 41.374100744724274 -24
    endloop
  endfacet
  facet normal 0.015614395979427102 -0.9998780878878173 0
    outer loop
      vertex 110.41149590164423 39.37402545660734 -24
      vertex 110.41149590164423 39.37402545660734 24
      vertex 90.01278612017632 39.05547308921814 24
    endloop
  endfacet
  facet normal 0.03666506923498455 -0.9993276102950392 0
    outer loop
      vertex 90.01278612017632 39.05547308921814 -24
      vertex 69.39333351701498 38.298950754106045 24
      vertex 69.39333351701498 38.298950754106045 -24
    endloop
  endfacet
  facet normal 0.03666506923498455 -0.9993276102950392 0
    outer loop
      vertex 90.01278612017632 39.05547308921814 -24
      vertex 90.01278612017632 39.05547308921814 24
      vertex 69.39333351701498 38.298950754106045 24
    endloop
  endfacet
  facet normal 0.05865777015702787 -0.9982781506174546 0
    outer loop
      vertex 69.39333351701498 38.298950754106045 -24
      vertex 69.39333351701498 38.298950754106045 24
      vertex 48.680303417146206 37.08187497407198 24
    endloop
  endfacet
  facet normal 0.015614395979427102 -0.9998780878878173 0
    outer loop
      vertex 90.01278612017632 39.05547308921814 24
      vertex 90.01278612017632 39.05547308921814 -24
      vertex 110.41149590164423 39.37402545660734 -24
    endloop
  endfacet
  facet normal -0.004821268461529573 -0.999988377617671 0
    outer loop
      vertex 110.41149590164423 39.37402545660734 24
      vertex 130.4685260206461 39.27732400596142 -24
      vertex 130.4685260206461 39.27732400596142 24
    endloop
  endfacet
  facet normal 0.05865777015702787 -0.9982781506174546 0
    outer loop
      vertex 48.680303417146206 37.08187497407198 24
      vertex 48.680303417146206 37.08187497407198 -24
      vertex 69.39333351701498 38.298950754106045 -24
    endloop
  endfacet
  facet normal -0.025550849644393265 -0.9996735237478533 0
    outer loop
      vertex 133.25607646309936 39.206076463099365 24
      vertex 130.4685260206461 39.27732400596142 24
      vertex 130.4685260206461 39.27732400596142 -24
    endloop
  endfacet
  facet normal 0.0830226548572238 -0.9965476600647148 0
    outer loop
      vertex 28.003578327596188 35.359291419386864 24
      vertex 48.680303417146206 37.08187497407198 -24
      vertex 48.680303417146206 37.08187497407198 24
    endloop
  endfacet
  facet normal -0.004821268461529573 -0.999988377617671 0
    outer loop
      vertex 130.4685260206461 39.27732400596142 -24
      vertex 110.41149590164423 39.37402545660734 24
      vertex 110.41149590164423 39.37402545660734 -24
    endloop
  endfacet
  facet normal 0.11281117122113615 -0.9936164449362317 0
    outer loop
      vertex 28.003578327596188 35.359291419386864 24
      vertex 12.366121813067066 33.583878186932935 24
      vertex 12.366121813067066 33.583878186932935 -24
    endloop
  endfacet
  facet normal -0.025550849644393265 -0.9996735237478533 0
    outer loop
      vertex 130.4685260206461 39.27732400596142 -24
      vertex 133.25607646309936 39.206076463099365 -24
      vertex 133.25607646309936 39.206076463099365 24
    endloop
  endfacet
  facet normal 0.0830226548572238 -0.9965476600647148 0
    outer loop
      vertex 48.680303417146206 37.08187497407198 -24
      vertex 28.003578327596188 35.359291419386864 24
      vertex 28.003578327596188 35.359291419386864 -24
    endloop
  endfacet
  facet normal 0.11281117122113615 -0.9936164449362317 0
    outer loop
      vertex 28.003578327596188 35.359291419386864 -24
      vertex 28.003578327596188 35.359291419386864 24
      vertex 12.366121813067066 33.583878186932935 -24
    endloop
  endfacet
  facet normal 0.7071067811865488 -0.7071067811865461 0
    outer loop
      vertex 135.20686894716604 41.15686894716605 -24
      vertex 133.25607646309936 39.206076463099365 24
      vertex 133.25607646309936 39.206076463099365 -24
    endloop
  endfacet
  facet normal 0 0 -1
    outer loop
      vertex 110.41149590164423 39.37402545660734 -24
      vertex 90.01278612017632 39.05547308921814 -24
      vertex 89.9605005979538 41.05490043759346 -24
    endloop
  endfacet
  facet normal 0 0 1
    outer loop
      vertex 89.9605005979538 41.05490043759346 24
      vertex 69.29799906909466 40.29679864645004 24
      vertex 69.39333351701498 38.298950754106045 24
    endloop
  endfacet
  facet normal 0 0 1
    outer loop
      vertex 89.9605005979538 41.05490043759346 24
      vertex 69.39333351701498 38.298950754106045 24
      vertex 90.01278612017632 39.05547308921814 24
    endloop
  endfacet
  facet normal 0 0 1
    outer loop
      vertex 110.41149590164423 39.37402545660734 24
      vertex 110.40070176124573 41.374100744724274 24
      vertex 90.01278612017632 39.05547308921814 24
    endloop
  endfacet
  facet normal 0 0 1
    outer loop
      vertex 110.40070176124573 41.374100744724274 24
      vertex 89.9605005979538 41.05490043759346 24
      vertex 90.01278612017632 39.05547308921814 24
    endloop
  endfacet
  facet normal 0.7071067811865488 -0.7071067811865461 0
    outer loop
      vertex 135.20686894716604 41.15686894716605 -24
      vertex 135.20686894716604 41.15686894716605 24
      vertex 133.25607646309936 39.206076463099365 24
    endloop
  endfacet
  facet normal 0 0 1
    outer loop
      vertex 110.41149590164423 39.37402545660734 24
      vertex 130.49890138208866 41.27720080316067 24
      vertex 110.40070176124573 41.374100744724274 24
    endloop
  endfacet
  facet normal 0 0 1
    outer loop
      vertex 110.41149590164423 39.37402545660734 24
      vertex 130.4685260206461 39.27732400596142 24
      vertex 130.49890138208866 41.27720080316067 24
    endloop
  endfacet
  facet normal 0 0 1
    outer loop
      vertex 135.20686894716604 41.15686894716605 24
      vertex 130.4685260206461 39.27732400596142 24
      vertex 133.25607646309936 39.206076463099365 24
    endloop
  endfacet
  facet normal 0 0 1
    outer loop
      vertex 130.4685260206461 39.27732400596142 24
      vertex 135.20686894716604 41.15686894716605 24
      vertex 130.49890138208866 41.27720080316067 24
    endloop
  endfacet
  facet normal 0 0 -1
    outer loop
      vertex 69.39333351701498 38.298950754106045 -24
      vertex 48.53860184550285 39.07699838280678 -24
      vertex 69.29799906909466 40.29679864645004 -24
    endloop
  endfacet
  facet normal 0 0 -1
    outer loop
      vertex 28.003578327596188 35.359291419386864 -24
      vertex 12.366121813067066 33.583878186932935 -24
      vertex 27.807700857520103 37.34990142285824 -24
    endloop
  endfacet
  facet normal -0.7071067811865468 -0.7071067811865482 0
    outer loop
      vertex 10.558502434796774 35.391497565203224 24
      vertex 10.558502434796774 35.391497565203224 -24
      vertex 12.366121813067066 33.583878186932935 -24
    endloop
  endfacet
  facet normal 0 0 -1
    outer loop
      vertex 27.807700857520103 37.34990142285824 -24
      vertex 48.680303417146206 37.08187497407198 -24
      vertex 28.003578327596188 35.359291419386864 -24
    endloop
  endfacet
  facet normal -0.7071067811865468 -0.7071067811865482 0
    outer loop
      vertex 12.366121813067066 33.583878186932935 24
      vertex 10.558502434796774 35.391497565203224 24
      vertex 12.366121813067066 33.583878186932935 -24
    endloop
  endfacet
  facet normal 0 0 1
    outer loop
      vertex 27.807700857520103 37.34990142285824 24
      vertex 10.558502434796774 35.391497565203224 24
      vertex 12.366121813067066 33.583878186932935 24
    endloop
  endfacet
  facet normal 0 0 1
    outer loop
      vertex 27.807700857520103 37.34990142285824 24
      vertex 12.366121813067066 33.583878186932935 24
      vertex 28.003578327596188 35.359291419386864 24
    endloop
  endfacet
  facet normal 0 0 1
    outer loop
      vertex 48.53860184550285 39.07699838280678 24
      vertex 27.807700857520103 37.34990142285824 24
      vertex 28.003578327596188 35.359291419386864 24
    endloop
  endfacet
  facet normal 0 0 1
    outer loop
      vertex 48.53860184550285 39.07699838280678 24
      vertex 28.003578327596188 35.359291419386864 24
      vertex 48.680303417146206 37.08187497407198 24
    endloop
  endfacet
  facet normal 0 0 -1
    outer loop
      vertex 27.807700857520103 37.34990142285824 -24
      vertex 48.53860184550285 39.07699838280678 -24
      vertex 48.680303417146206 37.08187497407198 -24
    endloop
  endfacet
  facet normal 0 0 -1
    outer loop
      vertex 48.53860184550285 39.07699838280678 -24
      vertex 69.39333351701498 38.298950754106045 -24
      vertex 48.680303417146206 37.08187497407198 -24
    endloop
  endfacet
  facet normal 0 0 -1
    outer loop
      vertex 133.25607646309936 39.206076463099365 -24
      vertex 130.49890138208866 41.27720080316067 -24
      vertex 135.20686894716604 41.15686894716605 -24
    endloop
  endfacet
  facet normal 0 0 1
    outer loop
      vertex 69.29799906909466 40.29679864645004 24
      vertex 48.53860184550285 39.07699838280678 24
      vertex 48.680303417146206 37.08187497407198 24
    endloop
  endfacet
  facet normal 0 0 1
    outer loop
      vertex 69.29799906909466 40.29679864645004 24
      vertex 48.680303417146206 37.08187497407198 24
      vertex 69.39333351701498 38.298950754106045 24
    endloop
  endfacet
  facet normal 0 0 -1
    outer loop
      vertex 90.01278612017632 39.05547308921814 -24
      vertex 69.39333351701498 38.298950754106045 -24
      vertex 69.29799906909466 40.29679864645004 -24
    endloop
  endfacet
  facet normal 0 0 -1
    outer loop
      vertex 90.01278612017632 39.05547308921814 -24
      vertex 69.29799906909466 40.29679864645004 -24
      vertex 89.9605005979538 41.05490043759346 -24
    endloop
  endfacet
  facet normal 0 0 -1
    outer loop
      vertex 12.366121813067066 33.583878186932935 -24
      vertex 10.558502434796774 35.391497565203224 -24
      vertex 27.807700857520103 37.34990142285824 -24
    endloop
  endfacet
  facet normal 0 0 -1
    outer loop
      vertex 110.41149590164423 39.37402545660734 -24
      vertex 89.9605005979538 41.05490043759346 -24
      vertex 110.40070176124573 41.374100744724274 -24
    endloop
  endfacet
  facet normal 0 0 -1
    outer loop
      vertex 130.4685260206461 39.27732400596142 -24
      vertex 110.41149590164423 39.37402545660734 -24
      vertex 110.40070176124573 41.374100744724274 -24
    endloop
  endfacet
  facet normal 0 0 -1
    outer loop
      vertex 133.25607646309936 39.206076463099365 -24
      vertex 130.4685260206461 39.27732400596142 -24
      vertex 130.49890138208866 41.27720080316067 -24
    endloop
  endfacet
  facet normal 0 0 -1
    outer loop
      vertex 130.4685260206461 39.27732400596142 -24
      vertex 110.40070176124573 41.374100744724274 -24
      vertex 130.49890138208866 41.27720080316067 -24
    endloop
  endfacet
endsolid OpenSCAD_Model
