solid OpenSCAD_Model
  facet normal -0.12621014629276933 0.9920035277017707 -2.582236849541629e-14
    outer loop
      vertex -113.96429252624512 22.37406188188925 -25.941670417785645
      vertex -114.91452503204346 22.253166159021415 -25.767534255981445
      vertex -113 22.49674642625612 -26
    endloop
  endfacet
  facet normal -0.09787195487634304 0.9951990154982484 -8.14437386980584e-17
    outer loop
      vertex -39.455482482910156 30.72213184825636 -24.583870887756348
      vertex -40.2822151184082 30.64082756847293 -25.08364772796631
      vertex -44 30.275205347686338 26
    endloop
  endfacet
  facet normal -0.09787195487634871 0.995199015498248 -1.0541437544975945e-15
    outer loop
      vertex -36.232465744018555 31.039096539661898 -19.914525032043457
      vertex -36.51987075805664 31.01083195124579 -20.836838722229004
      vertex -44 30.275205347686338 26
    endloop
  endfacet
  facet normal -0.0978719548763397 0.9951990154982487 1.6165924982164844e-16
    outer loop
      vertex -40.2822151184082 30.64082756847293 -25.08364772796631
      vertex -41.163161277770996 30.55419170829327 -25.48012924194336
      vertex -44 30.275205347686338 26
    endloop
  endfacet
  facet normal -0.12621014629276575 0.9920035277017712 0
    outer loop
      vertex -96.54474170124485 24.590308091286303 26
      vertex -96.54474170124485 24.590308091286303 -26
      vertex -113 22.49674642625612 -26
    endloop
  endfacet
  facet normal -0.09787195487633905 0.995199015498249 2.9588802077752445e-14
    outer loop
      vertex -43.03570747375488 30.370037831588068 25.941670417785645
      vertex -42.08547496795654 30.46348759538528 25.767534255981445
      vertex -44 30.275205347686338 26
    endloop
  endfacet
  facet normal -0.1262101462927656 0.992003527701771 0
    outer loop
      vertex -121 21.47892628535268 -18
      vertex -121 21.47892628535268 18
      vertex -113 22.49674642625612 -26
    endloop
  endfacet
  facet normal -0.09787195487634259 0.9951990154982485 2.467470176413357e-16
    outer loop
      vertex -42.08547496795654 30.46348759538528 25.767534255981445
      vertex -41.163161277770996 30.55419170829327 25.48012924194336
      vertex -44 30.275205347686338 26
    endloop
  endfacet
  facet normal -0.09787195487634467 0.9951990154982483 -1.130948652333757e-14
    outer loop
      vertex -41.163161277770996 30.55419170829327 25.48012924194336
      vertex -40.2822151184082 30.64082756847293 25.08364772796631
      vertex -44 30.275205347686338 26
    endloop
  endfacet
  facet normal -0.09787195487633754 0.995199015498249 7.465631215933612e-16
    outer loop
      vertex -36.51987075805664 31.01083195124579 -20.836838722229004
      vertex -36.91635227203369 30.971840332241992 -21.717784881591797
      vertex -44 30.275205347686338 26
    endloop
  endfacet
  facet normal -0.1262101462927666 0.9920035277017711 -3.1154266665101433e-15
    outer loop
      vertex -114.91452503204346 22.253166159021415 -25.767534255981445
      vertex -115.836838722229 22.135822477758687 -25.48012924194336
      vertex -113 22.49674642625612 -26
    endloop
  endfacet
  facet normal -0.12621014629276697 0.9920035277017711 -5.2855902034580325e-15
    outer loop
      vertex -115.836838722229 22.135822477758687 -25.48012924194336
      vertex -116.7177848815918 22.023741884752315 -25.08364772796631
      vertex -113 22.49674642625612 -26
    endloop
  endfacet
  facet normal -0.09787195487634266 0.9951990154982485 -1.1438726163560337e-18
    outer loop
      vertex -41.163161277770996 30.55419170829327 -25.48012924194336
      vertex -42.08547496795654 30.46348759538528 -25.767534255981445
      vertex -44 30.275205347686338 26
    endloop
  endfacet
  facet normal -0.09787195487634441 0.9951990154982484 -6.6929966097641e-17
    outer loop
      vertex -42.08547496795654 30.46348759538528 -25.767534255981445
      vertex -43.03570747375488 30.370037831588068 -25.941670417785645
      vertex -44 30.275205347686338 26
    endloop
  endfacet
  facet normal -0.09787195487634083 0.9951990154982486 0
    outer loop
      vertex -43.03570747375488 30.370037831588068 -25.941670417785645
      vertex -44 30.275205347686338 -26
      vertex -44 30.275205347686338 26
    endloop
  endfacet
  facet normal -0.12621014629276853 0.9920035277017708 -7.63208990336518e-15
    outer loop
      vertex -117.54451751708984 21.9185587438083 -24.583870887756348
      vertex -118.30498123168945 21.821806833165088 -23.988085746765137
      vertex -113 22.49674642625612 -26
    endloop
  endfacet
  facet normal -0.12621014629276384 0.9920035277017714 7.7560613896133e-15
    outer loop
      vertex -116.7177848815918 22.023741884752315 -25.08364772796631
      vertex -117.54451751708984 21.9185587438083 -24.583870887756348
      vertex -113 22.49674642625612 -26
    endloop
  endfacet
  facet normal -0.12621014629276858 0.9920035277017708 -3.004965686298165e-15
    outer loop
      vertex -120.94167041778564 21.48634741330121 -18.964292526245117
      vertex -121 21.47892628535268 -18
      vertex -113 22.49674642625612 -26
    endloop
  endfacet
  facet normal -0.12621014629276703 0.9920035277017709 -1.6313738210308893e-16
    outer loop
      vertex -120.08364772796631 21.595511510182494 21.717784881591797
      vertex -119.58387088775635 21.659096876922842 22.544517517089844
      vertex -113 22.49674642625612 -26
    endloop
  endfacet
  facet normal -0.12621014629276775 0.9920035277017708 0
    outer loop
      vertex -113.96429252624512 22.37406188188925 25.941670417785645
      vertex -113 22.49674642625612 26
      vertex -113 22.49674642625612 -26
    endloop
  endfacet
  facet normal -0.12621014629276464 0.9920035277017712 5.893163673001115e-17
    outer loop
      vertex -114.91452503204346 22.253166159021415 25.767534255981445
      vertex -113.96429252624512 22.37406188188925 25.941670417785645
      vertex -113 22.49674642625612 -26
    endloop
  endfacet
  facet normal -0.12621014629276564 0.9920035277017711 2.1663795288093418e-17
    outer loop
      vertex -115.836838722229 22.135822477758687 25.48012924194336
      vertex -114.91452503204346 22.253166159021415 25.767534255981445
      vertex -113 22.49674642625612 -26
    endloop
  endfacet
  facet normal -0.1262101462927647 0.9920035277017714 7.701552606072734e-17
    outer loop
      vertex -116.7177848815918 22.023741884752315 25.08364772796631
      vertex -115.836838722229 22.135822477758687 25.48012924194336
      vertex -113 22.49674642625612 -26
    endloop
  endfacet
  facet normal -0.12621014629276833 0.9920035277017708 -1.935883963543508e-16
    outer loop
      vertex -117.54451751708984 21.9185587438083 24.583870887756348
      vertex -116.7177848815918 22.023741884752315 25.08364772796631
      vertex -113 22.49674642625612 -26
    endloop
  endfacet
  facet normal -0.1262101462927629 0.9920035277017716 3.0225317590813653e-16
    outer loop
      vertex -118.30498123168945 21.821806833165088 23.988085746765137
      vertex -117.54451751708984 21.9185587438083 24.583870887756348
      vertex -113 22.49674642625612 -26
    endloop
  endfacet
  facet normal -0.12621014629276622 0.992003527701771 -6.123291087629549e-17
    outer loop
      vertex -118.98808574676514 21.734897141441824 23.304981231689453
      vertex -118.30498123168945 21.821806833165088 23.988085746765137
      vertex -113 22.49674642625612 -26
    endloop
  endfacet
  facet normal -0.12621014629276667 0.992003527701771 -1.1523437654974535e-16
    outer loop
      vertex -119.58387088775635 21.659096876922842 22.544517517089844
      vertex -118.98808574676514 21.734897141441824 23.304981231689453
      vertex -113 22.49674642625612 -26
    endloop
  endfacet
  facet normal -0.11335852691669068 0.9935541476815836 0
    outer loop
      vertex -63.69163278008301 28.338649377593356 26
      vertex -63.69163278008301 28.338649377593356 -26
      vertex -96.54474170124485 24.590308091286303 -26
    endloop
  endfacet
  facet normal -0.12621014629276675 0.9920035277017709 -1.2256851428829187e-16
    outer loop
      vertex -120.48012924194336 21.545068151379777 20.836838722229004
      vertex -120.08364772796631 21.595511510182494 21.717784881591797
      vertex -113 22.49674642625612 -26
    endloop
  endfacet
  facet normal -0.12621014629276503 0.9920035277017712 1.5957472599698212e-16
    outer loop
      vertex -120.76753425598145 21.508502324894202 19.914525032043457
      vertex -120.48012924194336 21.545068151379777 20.836838722229004
      vertex -113 22.49674642625612 -26
    endloop
  endfacet
  facet normal -0.1262101462927658 0.992003527701771 2.5069082580696537e-17
    outer loop
      vertex -120.94167041778564 21.48634741330121 18.964292526245117
      vertex -120.76753425598145 21.508502324894202 19.914525032043457
      vertex -113 22.49674642625612 -26
    endloop
  endfacet
  facet normal -0.12621014629275415 0.9920035277017726 2.118416064035923e-15
    outer loop
      vertex -121 21.47892628535268 18
      vertex -120.94167041778564 21.48634741330121 18.964292526245117
      vertex -113 22.49674642625612 -26
    endloop
  endfacet
  facet normal -0.09787195487634417 0.9951990154982484 -1.851561924126301e-16
    outer loop
      vertex -38.69501876831055 30.796918970431243 -23.988085746765137
      vertex -39.455482482910156 30.72213184825636 -24.583870887756348
      vertex -44 30.275205347686338 26
    endloop
  endfacet
  facet normal -0.09787195487634293 0.9951990154982484 -5.119179764189098e-17
    outer loop
      vertex -38.01191425323486 30.864098271489777 -23.304981231689453
      vertex -38.69501876831055 30.796918970431243 -23.988085746765137
      vertex -44 30.275205347686338 26
    endloop
  endfacet
  facet normal -0.09787195487634204 0.9951990154982487 6.024515873550637e-17
    outer loop
      vertex -37.41612911224365 30.922690226995172 -22.544517517089844
      vertex -38.01191425323486 30.864098271489777 -23.304981231689453
      vertex -44 30.275205347686338 26
    endloop
  endfacet
  facet normal -0.09787195487634315 0.9951990154982484 -9.299027716395742e-17
    outer loop
      vertex -36.91635227203369 30.971840332241992 -21.717784881591797
      vertex -37.41612911224365 30.922690226995172 -22.544517517089844
      vertex -44 30.275205347686338 26
    endloop
  endfacet
  facet normal -0.11335852691669068 0.9935541476815836 0
    outer loop
      vertex -96.54474170124485 24.590308091286303 -26
      vertex -96.54474170124485 24.590308091286303 26
      vertex -63.69163278008301 28.338649377593356 26
    endloop
  endfacet
  facet normal -0.09787195487634252 0.9951990154982486 0
    outer loop
      vertex -44 30.275205347686338 -26
      vertex -63.69163278008301 28.338649377593356 -26
      vertex -44 30.275205347686338 26
    endloop
  endfacet
  facet normal -0.09787195487634234 0.9951990154982485 0
    outer loop
      vertex -36 31.061958174826888 18
      vertex -36 31.061958174826888 -18
      vertex -44 30.275205347686338 26
    endloop
  endfacet
  facet normal -0.09787195487634252 0.9951990154982486 0
    outer loop
      vertex -63.69163278008301 28.338649377593356 -26
      vertex -63.69163278008301 28.338649377593356 26
      vertex -44 30.275205347686338 26
    endloop
  endfacet
  facet normal -0.12621014629276575 0.9920035277017712 0
    outer loop
      vertex -113 22.49674642625612 26
      vertex -96.54474170124485 24.590308091286303 26
      vertex -113 22.49674642625612 -26
    endloop
  endfacet
  facet normal -0.09787195487634154 0.9951990154982487 8.279794156230014e-16
    outer loop
      vertex -36.058329582214355 31.056221804362753 18.964292526245117
      vertex -36 31.061958174826888 18
      vertex -44 30.275205347686338 26
    endloop
  endfacet
  facet normal -0.09787195487634462 0.9951990154982484 -2.7005040972515436e-15
    outer loop
      vertex -36.232465744018555 31.039096539661898 19.914525032043457
      vertex -36.058329582214355 31.056221804362753 18.964292526245117
      vertex -44 30.275205347686338 26
    endloop
  endfacet
  facet normal -0.09787195487633946 0.995199015498249 3.968557868691316e-15
    outer loop
      vertex -36.51987075805664 31.01083195124579 20.836838722229004
      vertex -36.232465744018555 31.039096539661898 19.914525032043457
      vertex -44 30.275205347686338 26
    endloop
  endfacet
  facet normal -0.09787195487633604 0.9951990154982492 1.1083892128804479e-15
    outer loop
      vertex -36.058329582214355 31.056221804362753 -18.964292526245117
      vertex -36.232465744018555 31.039096539661898 -19.914525032043457
      vertex -44 30.275205347686338 26
    endloop
  endfacet
  facet normal -0.12621014629276642 0.992003527701771 -5.898130652013208e-16
    outer loop
      vertex -120.48012924194336 21.545068151379777 -20.836838722229004
      vertex -120.76753425598145 21.508502324894202 -19.914525032043457
      vertex -113 22.49674642625612 -26
    endloop
  endfacet
  facet normal -0.09787195487634555 0.9951990154982482 -5.843738317393211e-16
    outer loop
      vertex -36 31.061958174826888 -18
      vertex -36.058329582214355 31.056221804362753 -18.964292526245117
      vertex -44 30.275205347686338 26
    endloop
  endfacet
  facet normal -0.09787195487634281 0.9951990154982485 -6.746133196592683e-16
    outer loop
      vertex -38.01191425323486 30.864098271489777 23.304981231689453
      vertex -37.41612911224365 30.922690226995172 22.544517517089844
      vertex -44 30.275205347686338 26
    endloop
  endfacet
  facet normal -0.0978719548763407 0.9951990154982487 4.675314667619794e-15
    outer loop
      vertex -39.455482482910156 30.72213184825636 24.583870887756348
      vertex -38.69501876831055 30.796918970431243 23.988085746765137
      vertex -44 30.275205347686338 26
    endloop
  endfacet
  facet normal -0.09787195487634213 0.9951990154982487 8.595487168283858e-16
    outer loop
      vertex -38.69501876831055 30.796918970431243 23.988085746765137
      vertex -38.01191425323486 30.864098271489777 23.304981231689453
      vertex -44 30.275205347686338 26
    endloop
  endfacet
  facet normal -0.09787195487634111 0.9951990154982486 3.2630191118764765e-15
    outer loop
      vertex -40.2822151184082 30.64082756847293 25.08364772796631
      vertex -39.455482482910156 30.72213184825636 24.583870887756348
      vertex -44 30.275205347686338 26
    endloop
  endfacet
  facet normal -0.09787195487634207 0.9951990154982486 7.581748158830583e-16
    outer loop
      vertex -37.41612911224365 30.922690226995172 22.544517517089844
      vertex -36.91635227203369 30.971840332241992 21.717784881591797
      vertex -44 30.275205347686338 26
    endloop
  endfacet
  facet normal -0.09787195487634502 0.9951990154982483 -4.147155043558853e-15
    outer loop
      vertex -36.91635227203369 30.971840332241992 21.717784881591797
      vertex -36.51987075805664 31.01083195124579 20.836838722229004
      vertex -44 30.275205347686338 26
    endloop
  endfacet
  facet normal -0.126210146292766 0.9920035277017711 -6.098003649923103e-17
    outer loop
      vertex -120.76753425598145 21.508502324894202 -19.914525032043457
      vertex -120.94167041778564 21.48634741330121 -18.964292526245117
      vertex -113 22.49674642625612 -26
    endloop
  endfacet
  facet normal -0.1262101462927652 0.9920035277017712 1.3040226335007396e-15
    outer loop
      vertex -119.58387088775635 21.659096876922842 -22.544517517089844
      vertex -120.08364772796631 21.595511510182494 -21.717784881591797
      vertex -113 22.49674642625612 -26
    endloop
  endfacet
  facet normal -0.12621014629276556 0.9920035277017712 6.667482144792168e-16
    outer loop
      vertex -120.08364772796631 21.595511510182494 -21.717784881591797
      vertex -120.48012924194336 21.545068151379777 -20.836838722229004
      vertex -113 22.49674642625612 -26
    endloop
  endfacet
  facet normal -0.12621014629276514 0.9920035277017711 1.3262153141273993e-15
    outer loop
      vertex -118.98808574676514 21.734897141441824 -23.304981231689453
      vertex -119.58387088775635 21.659096876922842 -22.544517517089844
      vertex -113 22.49674642625612 -26
    endloop
  endfacet
  facet normal -0.12621014629276534 0.9920035277017712 1.0036668671408322e-15
    outer loop
      vertex -118.30498123168945 21.821806833165088 -23.988085746765137
      vertex -118.98808574676514 21.734897141441824 -23.304981231689453
      vertex -113 22.49674642625612 -26
    endloop
  endfacet
  facet normal 0.12621014629276828 -0.9920035277017709 8.067642803532769e-16
    outer loop
      vertex -96.3650576689898 23.101077447696547 -26
      vertex -113.96429252624512 20.861970484921006 25.941670417785645
      vertex -114.91452503204346 20.741074762053167 25.767534255981445
    endloop
  endfacet
  facet normal 0.12621014629276542 -0.9920035277017711 -1.327993984020358e-16
    outer loop
      vertex -96.3650576689898 23.101077447696547 -26
      vertex -114.91452503204346 20.741074762053167 25.767534255981445
      vertex -115.836838722229 20.62373108079044 25.48012924194336
    endloop
  endfacet
  facet normal 0.12621014629276814 -0.9920035277017709 5.355721145183406e-16
    outer loop
      vertex -96.3650576689898 23.101077447696547 -26
      vertex -120.94167041778564 19.974256016332966 18.964292526245117
      vertex -121 19.966834888384433 18
    endloop
  endfacet
  facet normal 0.09787195487634254 -0.9951990154982485 6.035902028154463e-16
    outer loop
      vertex -63.533200312205246 26.846994058873307 26
      vertex -36.232465744018555 29.531860321940133 19.914525032043457
      vertex -36.51987075805664 29.50359573352403 20.836838722229004
    endloop
  endfacet
  facet normal 0.0978719548763429 -0.9951990154982486 4.988509140784808e-15
    outer loop
      vertex -63.533200312205246 26.846994058873307 26
      vertex -38.01191425323486 29.356862053768012 23.304981231689453
      vertex -38.69501876831055 29.28968275270948 23.988085746765137
    endloop
  endfacet
  facet normal 0.0978719548763423 -0.9951990154982485 -1.301941074905065e-15
    outer loop
      vertex -63.533200312205246 26.846994058873307 26
      vertex -39.455482482910156 29.2148956305346 24.583870887756348
      vertex -40.2822151184082 29.133591350751168 25.08364772796631
    endloop
  endfacet
  facet normal 0.11335852691669067 -0.9935541476815835 0
    outer loop
      vertex -96.3650576689898 23.101077447696547 26
      vertex -63.533200312205246 26.846994058873307 -26
      vertex -63.533200312205246 26.846994058873307 26
    endloop
  endfacet
  facet normal 0.09787195487634229 -0.9951990154982485 -2.6647538524100117e-15
    outer loop
      vertex -63.533200312205246 26.846994058873307 26
      vertex -38.69501876831055 29.28968275270948 23.988085746765137
      vertex -39.455482482910156 29.2148956305346 24.583870887756348
    endloop
  endfacet
  facet normal 0.09787195487634222 -0.9951990154982486 -1.0844150956893829e-15
    outer loop
      vertex -63.533200312205246 26.846994058873307 26
      vertex -36 29.554721957105127 18
      vertex -36.058329582214355 29.548985586640992 18.964292526245117
    endloop
  endfacet
  facet normal 0.09787195487634191 -0.9951990154982485 -1.1367601483259093e-15
    outer loop
      vertex -63.533200312205246 26.846994058873307 26
      vertex -36.058329582214355 29.548985586640992 18.964292526245117
      vertex -36.232465744018555 29.531860321940133 19.914525032043457
    endloop
  endfacet
  facet normal 0.09787195487634076 -0.9951990154982487 -5.344300991687227e-16
    outer loop
      vertex -63.533200312205246 26.846994058873307 26
      vertex -43.03570747375488 28.862801613866306 -25.941670417785645
      vertex -42.08547496795654 28.956251377663516 -25.767534255981445
    endloop
  endfacet
  facet normal 0.1262101462927644 -0.9920035277017714 -5.516042660869494e-16
    outer loop
      vertex -96.3650576689898 23.101077447696547 -26
      vertex -113 20.98465502928787 26
      vertex -113.96429252624512 20.861970484921006 25.941670417785645
    endloop
  endfacet
  facet normal 0.1262101462927658 -0.9920035277017711 0
    outer loop
      vertex -96.3650576689898 23.101077447696547 -26
      vertex -96.3650576689898 23.101077447696547 26
      vertex -113 20.98465502928787 26
    endloop
  endfacet
  facet normal 0.09787195487634212 -0.9951990154982486 -6.50230090975703e-16
    outer loop
      vertex -63.533200312205246 26.846994058873307 26
      vertex -36.51987075805664 29.50359573352403 20.836838722229004
      vertex -36.91635227203369 29.464604114520228 21.717784881591797
    endloop
  endfacet
  facet normal 0.09787195487634223 -0.9951990154982486 -7.119418445861378e-16
    outer loop
      vertex -63.533200312205246 26.846994058873307 26
      vertex -36.91635227203369 29.464604114520228 21.717784881591797
      vertex -37.41612911224365 29.415454009273407 22.544517517089844
    endloop
  endfacet
  facet normal 0.09787195487634245 -0.9951990154982486 3.103186493030725e-14
    outer loop
      vertex -63.533200312205246 26.846994058873307 26
      vertex -43.03570747375488 28.862801613866306 25.941670417785645
      vertex -44 28.767969129964577 26
    endloop
  endfacet
  facet normal 0.0978719548763424 -0.9951990154982486 8.049469632078816e-15
    outer loop
      vertex -63.533200312205246 26.846994058873307 26
      vertex -42.08547496795654 28.956251377663516 25.767534255981445
      vertex -43.03570747375488 28.862801613866306 25.941670417785645
    endloop
  endfacet
  facet normal 0.09787195487634232 -0.9951990154982486 -1.188500637553563e-15
    outer loop
      vertex -63.533200312205246 26.846994058873307 26
      vertex -41.163161277770996 29.046955490571506 25.48012924194336
      vertex -42.08547496795654 28.956251377663516 25.767534255981445
    endloop
  endfacet
  facet normal 0.09787195487634233 -0.9951990154982485 0
    outer loop
      vertex -63.533200312205246 26.846994058873307 26
      vertex -37.41612911224365 29.415454009273407 22.544517517089844
      vertex -38.01191425323486 29.356862053768012 23.304981231689453
    endloop
  endfacet
  facet normal 0.09787195487634243 -0.9951990154982485 0
    outer loop
      vertex -63.533200312205246 26.846994058873307 26
      vertex -36 29.554721957105127 -18
      vertex -36 29.554721957105127 18
    endloop
  endfacet
  facet normal 0.09787195487634245 -0.9951990154982486 0
    outer loop
      vertex -63.533200312205246 26.846994058873307 26
      vertex -63.533200312205246 26.846994058873307 -26
      vertex -44 28.767969129964577 -26
    endloop
  endfacet
  facet normal 0.0978719548763422 -0.9951990154982486 -3.3627572918018947e-15
    outer loop
      vertex -63.533200312205246 26.846994058873307 26
      vertex -40.2822151184082 29.133591350751168 25.08364772796631
      vertex -41.163161277770996 29.046955490571506 25.48012924194336
    endloop
  endfacet
  facet normal 0.09787195487634082 -0.9951990154982486 -6.894461073330965e-16
    outer loop
      vertex -63.533200312205246 26.846994058873307 26
      vertex -44 28.767969129964577 -26
      vertex -43.03570747375488 28.862801613866306 -25.941670417785645
    endloop
  endfacet
  facet normal 0.09787195487634257 -0.9951990154982485 1.3116866240755365e-16
    outer loop
      vertex -63.533200312205246 26.846994058873307 26
      vertex -42.08547496795654 28.956251377663516 -25.767534255981445
      vertex -41.163161277770996 29.046955490571506 -25.48012924194336
    endloop
  endfacet
  facet normal 0.12621014629276575 -0.9920035277017711 -9.037640006678358e-16
    outer loop
      vertex -96.3650576689898 23.101077447696547 -26
      vertex -119.58387088775635 20.147005479954593 -22.544517517089844
      vertex -118.98808574676514 20.222805744473575 -23.304981231689453
    endloop
  endfacet
  facet normal 0.09787195487634416 -0.9951990154982484 8.334532627267357e-16
    outer loop
      vertex -63.533200312205246 26.846994058873307 26
      vertex -36.232465744018555 29.531860321940133 -19.914525032043457
      vertex -36.058329582214355 29.548985586640992 -18.964292526245117
    endloop
  endfacet
  facet normal 0.09787195487634137 -0.9951990154982487 -3.685288534495111e-16
    outer loop
      vertex -63.533200312205246 26.846994058873307 26
      vertex -36.51987075805664 29.50359573352403 -20.836838722229004
      vertex -36.232465744018555 29.531860321940133 -19.914525032043457
    endloop
  endfacet
  facet normal 0.09787195487634347 -0.9951990154982485 3.338105592267022e-16
    outer loop
      vertex -63.533200312205246 26.846994058873307 26
      vertex -36.91635227203369 29.464604114520228 -21.717784881591797
      vertex -36.51987075805664 29.50359573352403 -20.836838722229004
    endloop
  endfacet
  facet normal 0.09787195487634305 -0.9951990154982485 3.084323429256864e-16
    outer loop
      vertex -63.533200312205246 26.846994058873307 26
      vertex -37.41612911224365 29.415454009273407 -22.544517517089844
      vertex -36.91635227203369 29.464604114520228 -21.717784881591797
    endloop
  endfacet
  facet normal 0.09787195487634207 -0.9951990154982486 0
    outer loop
      vertex -63.533200312205246 26.846994058873307 26
      vertex -38.01191425323486 29.356862053768012 -23.304981231689453
      vertex -37.41612911224365 29.415454009273407 -22.544517517089844
    endloop
  endfacet
  facet normal 0.1262101462927655 -0.9920035277017712 -6.053255777934761e-16
    outer loop
      vertex -96.3650576689898 23.101077447696547 -26
      vertex -121 19.966834888384433 -18
      vertex -120.94167041778564 19.974256016332966 -18.964292526245117
    endloop
  endfacet
  facet normal 0.1262101462927658 -0.9920035277017711 6.370666495623135e-16
    outer loop
      vertex -96.3650576689898 23.101077447696547 -26
      vertex -120.94167041778564 19.974256016332966 -18.964292526245117
      vertex -120.76753425598145 19.996410927925957 -19.914525032043457
    endloop
  endfacet
  facet normal 0.12621014629276572 -0.9920035277017712 6.791306041450939e-16
    outer loop
      vertex -96.3650576689898 23.101077447696547 -26
      vertex -120.76753425598145 19.996410927925957 -19.914525032043457
      vertex -120.48012924194336 20.032976754411532 -20.836838722229004
    endloop
  endfacet
  facet normal 0.12621014629276414 -0.9920035277017712 -5.380171908680314e-16
    outer loop
      vertex -96.3650576689898 23.101077447696547 -26
      vertex -116.7177848815918 20.511650487784067 25.08364772796631
      vertex -117.54451751708984 20.406467346840056 24.583870887756348
    endloop
  endfacet
  facet normal 0.12621014629276645 -0.9920035277017711 4.034974847246493e-15
    outer loop
      vertex -96.3650576689898 23.101077447696547 -26
      vertex -120.08364772796631 20.08342011321425 -21.717784881591797
      vertex -119.58387088775635 20.147005479954593 -22.544517517089844
    endloop
  endfacet
  facet normal 0.12621014629276547 -0.9920035277017712 -7.343455466450596e-16
    outer loop
      vertex -96.3650576689898 23.101077447696547 -26
      vertex -120.48012924194336 20.032976754411532 -20.836838722229004
      vertex -120.08364772796631 20.08342011321425 -21.717784881591797
    endloop
  endfacet
  facet normal 0.12621014629276553 -0.9920035277017711 -1.8321570376052923e-15
    outer loop
      vertex -96.3650576689898 23.101077447696547 -26
      vertex -118.30498123168945 20.30971543619684 -23.988085746765137
      vertex -117.54451751708984 20.406467346840056 -24.583870887756348
    endloop
  endfacet
  facet normal 0.12621014629276578 -0.9920035277017712 -5.177884361907688e-16
    outer loop
      vertex -96.3650576689898 23.101077447696547 -26
      vertex -118.98808574676514 20.222805744473575 -23.304981231689453
      vertex -118.30498123168945 20.30971543619684 -23.988085746765137
    endloop
  endfacet
  facet normal 0.09787195487633966 -0.9951990154982489 -1.5217790109338737e-15
    outer loop
      vertex -63.533200312205246 26.846994058873307 26
      vertex -38.69501876831055 29.28968275270948 -23.988085746765137
      vertex -38.01191425323486 29.356862053768012 -23.304981231689453
    endloop
  endfacet
  facet normal 0.0978719548763437 -0.9951990154982484 6.694755107870236e-16
    outer loop
      vertex -63.533200312205246 26.846994058873307 26
      vertex -39.455482482910156 29.2148956305346 -24.583870887756348
      vertex -38.69501876831055 29.28968275270948 -23.988085746765137
    endloop
  endfacet
  facet normal 0.09787195487634275 -0.9951990154982485 2.626162925462485e-16
    outer loop
      vertex -63.533200312205246 26.846994058873307 26
      vertex -40.2822151184082 29.133591350751168 -25.08364772796631
      vertex -39.455482482910156 29.2148956305346 -24.583870887756348
    endloop
  endfacet
  facet normal 0.09787195487634362 -0.9951990154982484 5.216706240631901e-16
    outer loop
      vertex -63.533200312205246 26.846994058873307 26
      vertex -41.163161277770996 29.046955490571506 -25.48012924194336
      vertex -40.2822151184082 29.133591350751168 -25.08364772796631
    endloop
  endfacet
  facet normal 0.12621014629276442 -0.9920035277017714 -4.520743556398646e-16
    outer loop
      vertex -96.3650576689898 23.101077447696547 -26
      vertex -120.76753425598145 19.996410927925957 19.914525032043457
      vertex -120.94167041778564 19.974256016332966 18.964292526245117
    endloop
  endfacet
  facet normal 0.1262101462927648 -0.9920035277017712 -3.9844092490005093e-16
    outer loop
      vertex -96.3650576689898 23.101077447696547 -26
      vertex -115.836838722229 20.62373108079044 25.48012924194336
      vertex -116.7177848815918 20.511650487784067 25.08364772796631
    endloop
  endfacet
  facet normal 0.12621014629276717 -0.9920035277017709 4.139292599522674e-16
    outer loop
      vertex -96.3650576689898 23.101077447696547 -26
      vertex -117.54451751708984 20.406467346840056 24.583870887756348
      vertex -118.30498123168945 20.30971543619684 23.988085746765137
    endloop
  endfacet
  facet normal 0.1262101462927659 -0.992003527701771 1.4345583696537903e-16
    outer loop
      vertex -96.3650576689898 23.101077447696547 -26
      vertex -118.30498123168945 20.30971543619684 23.988085746765137
      vertex -118.98808574676514 20.222805744473575 23.304981231689453
    endloop
  endfacet
  facet normal 0.12621014629276628 -0.992003527701771 3.026507099202862e-16
    outer loop
      vertex -96.3650576689898 23.101077447696547 -26
      vertex -118.98808574676514 20.222805744473575 23.304981231689453
      vertex -119.58387088775635 20.147005479954593 22.544517517089844
    endloop
  endfacet
  facet normal 0.12621014629276298 -0.9920035277017716 -1.6219666388204567e-15
    outer loop
      vertex -96.3650576689898 23.101077447696547 -26
      vertex -119.58387088775635 20.147005479954593 22.544517517089844
      vertex -120.08364772796631 20.08342011321425 21.717784881591797
    endloop
  endfacet
  facet normal 0.1262101462927669 -0.992003527701771 3.540767263254566e-16
    outer loop
      vertex -96.3650576689898 23.101077447696547 -26
      vertex -120.08364772796631 20.08342011321425 21.717784881591797
      vertex -120.48012924194336 20.032976754411532 20.836838722229004
    endloop
  endfacet
  facet normal 0.1262101462927653 -0.9920035277017711 -3.948490551859054e-16
    outer loop
      vertex -96.3650576689898 23.101077447696547 -26
      vertex -120.48012924194336 20.032976754411532 20.836838722229004
      vertex -120.76753425598145 19.996410927925957 19.914525032043457
    endloop
  endfacet
  facet normal 0.09787195487634334 -0.9951990154982485 9.714491123803854e-16
    outer loop
      vertex -63.533200312205246 26.846994058873307 26
      vertex -36.058329582214355 29.548985586640992 -18.964292526245117
      vertex -36 29.554721957105127 -18
    endloop
  endfacet
  facet normal 0.11335852691669067 -0.9935541476815835 0
    outer loop
      vertex -63.533200312205246 26.846994058873307 -26
      vertex -96.3650576689898 23.101077447696547 26
      vertex -96.3650576689898 23.101077447696547 -26
    endloop
  endfacet
  facet normal 0.12621014629276575 -0.9920035277017711 0
    outer loop
      vertex -121 19.966834888384433 -18
      vertex -96.3650576689898 23.101077447696547 -26
      vertex -121 19.966834888384433 18
    endloop
  endfacet
  facet normal 0.1262101462927658 -0.9920035277017711 2.905716545065724e-14
    outer loop
      vertex -96.3650576689898 23.101077447696547 -26
      vertex -113.96429252624512 20.861970484921006 -25.941670417785645
      vertex -113 20.98465502928787 -26
    endloop
  endfacet
  facet normal 0.1262101462927657 -0.9920035277017711 -1.4053948040896786e-14
    outer loop
      vertex -96.3650576689898 23.101077447696547 -26
      vertex -114.91452503204346 20.741074762053167 -25.767534255981445
      vertex -113.96429252624512 20.861970484921006 -25.941670417785645
    endloop
  endfacet
  facet normal 0.12621014629276586 -0.9920035277017711 1.3775414438027117e-15
    outer loop
      vertex -96.3650576689898 23.101077447696547 -26
      vertex -115.836838722229 20.62373108079044 -25.48012924194336
      vertex -114.91452503204346 20.741074762053167 -25.767534255981445
    endloop
  endfacet
  facet normal 0.12621014629276595 -0.992003527701771 2.911756740147325e-15
    outer loop
      vertex -96.3650576689898 23.101077447696547 -26
      vertex -116.7177848815918 20.511650487784067 -25.08364772796631
      vertex -115.836838722229 20.62373108079044 -25.48012924194336
    endloop
  endfacet
  facet normal 0.12621014629276592 -0.9920035277017712 2.9948701046870227e-15
    outer loop
      vertex -96.3650576689898 23.101077447696547 -26
      vertex -117.54451751708984 20.406467346840056 -24.583870887756348
      vertex -116.7177848815918 20.511650487784067 -25.08364772796631
    endloop
  endfacet
  facet normal 0 0 -1
    outer loop
      vertex -96.54474170124485 24.590308091286303 -26
      vertex -63.69163278008301 28.338649377593356 -26
      vertex -63.533200312205246 26.846994058873307 -26
    endloop
  endfacet
  facet normal 0.998175514895307 0 -0.060379147588293595
    outer loop
      vertex -36.058329582214355 31.056221804362753 -18.964292526245117
      vertex -36 31.061958174826888 -18
      vertex -36 29.554721957105127 -18
    endloop
  endfacet
  facet normal 1 0 0
    outer loop
      vertex -36 29.554721957105127 -18
      vertex -36 31.061958174826888 -18
      vertex -36 29.554721957105127 18
    endloop
  endfacet
  facet normal 0.9836199817680586 0 -0.18025462952890853
    outer loop
      vertex -36.058329582214355 31.056221804362753 -18.964292526245117
      vertex -36.058329582214355 29.548985586640992 -18.964292526245117
      vertex -36.232465744018555 31.039096539661898 -19.914525032043457
    endloop
  endfacet
  facet normal 0.8557814834959435 0 0.5173374648191276
    outer loop
      vertex -36.91635227203369 30.971840332241992 21.717784881591797
      vertex -37.41612911224365 29.415454009273407 22.544517517089844
      vertex -36.91635227203369 29.464604114520228 21.717784881591797
    endloop
  endfacet
  facet normal 0.7871835468495754 0 0.6167187880787504
    outer loop
      vertex -38.01191425323486 29.356862053768012 23.304981231689453
      vertex -37.41612911224365 30.922690226995172 22.544517517089844
      vertex -38.01191425323486 30.864098271489777 23.304981231689453
    endloop
  endfacet
  facet normal 0.8557814834959435 0 0.5173374648191276
    outer loop
      vertex -37.41612911224365 29.415454009273407 22.544517517089844
      vertex -36.91635227203369 30.971840332241992 21.717784881591797
      vertex -37.41612911224365 30.922690226995172 22.544517517089844
    endloop
  endfacet
  facet normal 0.9118999110691429 0 0.4104126608574462
    outer loop
      vertex -36.91635227203369 29.464604114520228 21.717784881591797
      vertex -36.51987075805664 31.01083195124579 20.836838722229004
      vertex -36.91635227203369 30.971840332241992 21.717784881591797
    endloop
  endfacet
  facet normal 0.9836199817680585 0 0.1802546295289085
    outer loop
      vertex -36.232465744018555 29.531860321940133 19.914525032043457
      vertex -36.058329582214355 31.056221804362753 18.964292526245117
      vertex -36.232465744018555 31.039096539661898 19.914525032043457
    endloop
  endfacet
  facet normal 0.9547207357506042 0 0.2975034734718654
    outer loop
      vertex -36.51987075805664 29.50359573352403 20.836838722229004
      vertex -36.232465744018555 31.039096539661898 19.914525032043457
      vertex -36.51987075805664 31.01083195124579 20.836838722229004
    endloop
  endfacet
  facet normal 0.7071067811865475 0 0.7071067811865475
    outer loop
      vertex -38.69501876831055 29.28968275270948 23.988085746765137
      vertex -38.01191425323486 30.864098271489777 23.304981231689453
      vertex -38.69501876831055 30.796918970431243 23.988085746765137
    endloop
  endfacet
  facet normal 0.7871835468495754 0 0.6167187880787504
    outer loop
      vertex -37.41612911224365 30.922690226995172 22.544517517089844
      vertex -38.01191425323486 29.356862053768012 23.304981231689453
      vertex -37.41612911224365 29.415454009273407 22.544517517089844
    endloop
  endfacet
  facet normal 0.7071067811865475 0 0.7071067811865475
    outer loop
      vertex -38.01191425323486 30.864098271489777 23.304981231689453
      vertex -38.69501876831055 29.28968275270948 23.988085746765137
      vertex -38.01191425323486 29.356862053768012 23.304981231689453
    endloop
  endfacet
  facet normal 0.6167187880787502 0 0.7871835468495753
    outer loop
      vertex -39.455482482910156 29.2148956305346 24.583870887756348
      vertex -38.69501876831055 30.796918970431243 23.988085746765137
      vertex -39.455482482910156 30.72213184825636 24.583870887756348
    endloop
  endfacet
  facet normal 0.4104126608574462 0 0.9118999110691429
    outer loop
      vertex -41.163161277770996 29.046955490571506 25.48012924194336
      vertex -40.2822151184082 30.64082756847293 25.08364772796631
      vertex -41.163161277770996 30.55419170829327 25.48012924194336
    endloop
  endfacet
  facet normal 0.5173374648191277 0 0.8557814834959435
    outer loop
      vertex -40.2822151184082 29.133591350751168 25.08364772796631
      vertex -39.455482482910156 30.72213184825636 24.583870887756348
      vertex -40.2822151184082 30.64082756847293 25.08364772796631
    endloop
  endfacet
  facet normal 0.5173374648191277 0 0.8557814834959435
    outer loop
      vertex -39.455482482910156 30.72213184825636 24.583870887756348
      vertex -40.2822151184082 29.133591350751168 25.08364772796631
      vertex -39.455482482910156 29.2148956305346 24.583870887756348
    endloop
  endfacet
  facet normal 0.6167187880787502 0 0.7871835468495753
    outer loop
      vertex -38.69501876831055 30.796918970431243 23.988085746765137
      vertex -39.455482482910156 29.2148956305346 24.583870887756348
      vertex -38.69501876831055 29.28968275270948 23.988085746765137
    endloop
  endfacet
  facet normal 0.9547207357506041 0 0.2975034734718654
    outer loop
      vertex -36.232465744018555 31.039096539661898 19.914525032043457
      vertex -36.51987075805664 29.50359573352403 20.836838722229004
      vertex -36.232465744018555 29.531860321940133 19.914525032043457
    endloop
  endfacet
  facet normal 0 0 1
    outer loop
      vertex -63.69163278008301 28.338649377593356 26
      vertex -96.3650576689898 23.101077447696547 26
      vertex -63.533200312205246 26.846994058873307 26
    endloop
  endfacet
  facet normal 0.9118999110691429 0 0.41041266085744627
    outer loop
      vertex -36.51987075805664 31.01083195124579 20.836838722229004
      vertex -36.91635227203369 29.464604114520228 21.717784881591797
      vertex -36.51987075805664 29.50359573352403 20.836838722229004
    endloop
  endfacet
  facet normal 0.2975034734718654 0 0.9547207357506041
    outer loop
      vertex -42.08547496795654 28.956251377663516 25.767534255981445
      vertex -41.163161277770996 30.55419170829327 25.48012924194336
      vertex -42.08547496795654 30.46348759538528 25.767534255981445
    endloop
  endfacet
  facet normal 0.18025462952890853 0 0.9836199817680586
    outer loop
      vertex -43.03570747375488 28.862801613866306 25.941670417785645
      vertex -42.08547496795654 30.46348759538528 25.767534255981445
      vertex -43.03570747375488 30.370037831588068 25.941670417785645
    endloop
  endfacet
  facet normal 0.0603791475882936 0 0.998175514895307
    outer loop
      vertex -44 28.767969129964577 26
      vertex -43.03570747375488 30.370037831588068 25.941670417785645
      vertex -44 30.275205347686338 26
    endloop
  endfacet
  facet normal 0.998175514895307 0 0.0603791475882936
    outer loop
      vertex -36.058329582214355 31.056221804362753 18.964292526245117
      vertex -36.058329582214355 29.548985586640992 18.964292526245117
      vertex -36 31.061958174826888 18
    endloop
  endfacet
  facet normal 0.9836199817680586 0 0.18025462952890853
    outer loop
      vertex -36.058329582214355 31.056221804362753 18.964292526245117
      vertex -36.232465744018555 29.531860321940133 19.914525032043457
      vertex -36.058329582214355 29.548985586640992 18.964292526245117
    endloop
  endfacet
  facet normal 0.998175514895307 0 0.0603791475882936
    outer loop
      vertex -36 29.554721957105127 18
      vertex -36 31.061958174826888 18
      vertex -36.058329582214355 29.548985586640992 18.964292526245117
    endloop
  endfacet
  facet normal 0.41041266085744627 0 0.9118999110691429
    outer loop
      vertex -40.2822151184082 30.64082756847293 25.08364772796631
      vertex -41.163161277770996 29.046955490571506 25.48012924194336
      vertex -40.2822151184082 29.133591350751168 25.08364772796631
    endloop
  endfacet
  facet normal 0.2975034734718654 0 0.9547207357506041
    outer loop
      vertex -41.163161277770996 30.55419170829327 25.48012924194336
      vertex -42.08547496795654 28.956251377663516 25.767534255981445
      vertex -41.163161277770996 29.046955490571506 25.48012924194336
    endloop
  endfacet
  facet normal 0.1802546295289085 0 0.9836199817680585
    outer loop
      vertex -42.08547496795654 30.46348759538528 25.767534255981445
      vertex -43.03570747375488 28.862801613866306 25.941670417785645
      vertex -42.08547496795654 28.956251377663516 25.767534255981445
    endloop
  endfacet
  facet normal 0.0603791475882936 0 0.998175514895307
    outer loop
      vertex -43.03570747375488 30.370037831588068 25.941670417785645
      vertex -44 28.767969129964577 26
      vertex -43.03570747375488 28.862801613866306 25.941670417785645
    endloop
  endfacet
  facet normal 0 0 1
    outer loop
      vertex -63.533200312205246 26.846994058873307 26
      vertex -44 28.767969129964577 26
      vertex -44 30.275205347686338 26
    endloop
  endfacet
  facet normal 0 0 1
    outer loop
      vertex -44 30.275205347686338 26
      vertex -63.69163278008301 28.338649377593356 26
      vertex -63.533200312205246 26.846994058873307 26
    endloop
  endfacet
  facet normal 1 0 0
    outer loop
      vertex -36 31.061958174826888 18
      vertex -36 29.554721957105127 18
      vertex -36 31.061958174826888 -18
    endloop
  endfacet
  facet normal -0.998175514895307 0 0.0603791475882936
    outer loop
      vertex -121 19.966834888384433 18
      vertex -120.94167041778564 21.48634741330121 18.964292526245117
      vertex -121 21.47892628535268 18
    endloop
  endfacet
  facet normal -0.060379147588293595 0 -0.998175514895307
    outer loop
      vertex -113.96429252624512 20.861970484921006 -25.941670417785645
      vertex -113.96429252624512 22.37406188188925 -25.941670417785645
      vertex -113 20.98465502928787 -26
    endloop
  endfacet
  facet normal -0.2975034734718654 0 -0.9547207357506042
    outer loop
      vertex -114.91452503204346 22.253166159021415 -25.767534255981445
      vertex -114.91452503204346 20.741074762053167 -25.767534255981445
      vertex -115.836838722229 22.135822477758687 -25.48012924194336
    endloop
  endfacet
  facet normal -0.1802546295289085 0 -0.9836199817680585
    outer loop
      vertex -113.96429252624512 22.37406188188925 -25.941670417785645
      vertex -113.96429252624512 20.861970484921006 -25.941670417785645
      vertex -114.91452503204346 22.253166159021415 -25.767534255981445
    endloop
  endfacet
  facet normal -0.0603791475882936 0 -0.998175514895307
    outer loop
      vertex -113 22.49674642625612 -26
      vertex -113 20.98465502928787 -26
      vertex -113.96429252624512 22.37406188188925 -25.941670417785645
    endloop
  endfacet
  facet normal 0 0 -1
    outer loop
      vertex -113 22.49674642625612 -26
      vertex -96.3650576689898 23.101077447696547 -26
      vertex -113 20.98465502928787 -26
    endloop
  endfacet
  facet normal -1 0 0
    outer loop
      vertex -121 19.966834888384433 -18
      vertex -121 21.47892628535268 18
      vertex -121 21.47892628535268 -18
    endloop
  endfacet
  facet normal 0 0 -1
    outer loop
      vertex -113 22.49674642625612 -26
      vertex -96.54474170124485 24.590308091286303 -26
      vertex -96.3650576689898 23.101077447696547 -26
    endloop
  endfacet
  facet normal 0 0 -1
    outer loop
      vertex -96.54474170124485 24.590308091286303 -26
      vertex -63.533200312205246 26.846994058873307 -26
      vertex -96.3650576689898 23.101077447696547 -26
    endloop
  endfacet
  facet normal -1 0 0
    outer loop
      vertex -121 19.966834888384433 -18
      vertex -121 19.966834888384433 18
      vertex -121 21.47892628535268 18
    endloop
  endfacet
  facet normal -0.998175514895307 0 0.060379147588293595
    outer loop
      vertex -120.94167041778564 21.48634741330121 18.964292526245117
      vertex -121 19.966834888384433 18
      vertex -120.94167041778564 19.974256016332966 18.964292526245117
    endloop
  endfacet
  facet normal -0.41041266085744627 0 -0.911899911069143
    outer loop
      vertex -115.836838722229 22.135822477758687 -25.48012924194336
      vertex -115.836838722229 20.62373108079044 -25.48012924194336
      vertex -116.7177848815918 22.023741884752315 -25.08364772796631
    endloop
  endfacet
  facet normal -0.9836199817680585 0 0.1802546295289085
    outer loop
      vertex -120.94167041778564 19.974256016332966 18.964292526245117
      vertex -120.76753425598145 21.508502324894202 19.914525032043457
      vertex -120.94167041778564 21.48634741330121 18.964292526245117
    endloop
  endfacet
  facet normal -0.9836199817680585 0 0.1802546295289085
    outer loop
      vertex -120.76753425598145 21.508502324894202 19.914525032043457
      vertex -120.94167041778564 19.974256016332966 18.964292526245117
      vertex -120.76753425598145 19.996410927925957 19.914525032043457
    endloop
  endfacet
  facet normal -0.9547207357506042 0 0.29750347347186545
    outer loop
      vertex -120.48012924194336 21.545068151379777 20.836838722229004
      vertex -120.76753425598145 19.996410927925957 19.914525032043457
      vertex -120.48012924194336 20.032976754411532 20.836838722229004
    endloop
  endfacet
  facet normal -0.911899911069143 0 0.4104126608574463
    outer loop
      vertex -120.08364772796631 21.595511510182494 21.717784881591797
      vertex -120.48012924194336 20.032976754411532 20.836838722229004
      vertex -120.08364772796631 20.08342011321425 21.717784881591797
    endloop
  endfacet
  facet normal -0.8557814834959436 0 0.5173374648191277
    outer loop
      vertex -119.58387088775635 21.659096876922842 22.544517517089844
      vertex -120.08364772796631 20.08342011321425 21.717784881591797
      vertex -119.58387088775635 20.147005479954593 22.544517517089844
    endloop
  endfacet
  facet normal -0.9547207357506042 0 0.29750347347186545
    outer loop
      vertex -120.76753425598145 19.996410927925957 19.914525032043457
      vertex -120.48012924194336 21.545068151379777 20.836838722229004
      vertex -120.76753425598145 21.508502324894202 19.914525032043457
    endloop
  endfacet
  facet normal -0.911899911069143 0 0.4104126608574463
    outer loop
      vertex -120.48012924194336 20.032976754411532 20.836838722229004
      vertex -120.08364772796631 21.595511510182494 21.717784881591797
      vertex -120.48012924194336 21.545068151379777 20.836838722229004
    endloop
  endfacet
  facet normal -0.8557814834959435 0 0.5173374648191277
    outer loop
      vertex -120.08364772796631 20.08342011321425 21.717784881591797
      vertex -119.58387088775635 21.659096876922842 22.544517517089844
      vertex -120.08364772796631 21.595511510182494 21.717784881591797
    endloop
  endfacet
  facet normal -0.7871835468495754 0 0.6167187880787502
    outer loop
      vertex -118.98808574676514 21.734897141441824 23.304981231689453
      vertex -119.58387088775635 20.147005479954593 22.544517517089844
      vertex -118.98808574676514 20.222805744473575 23.304981231689453
    endloop
  endfacet
  facet normal -0.7071067811865475 0 0.7071067811865475
    outer loop
      vertex -118.30498123168945 21.821806833165088 23.988085746765137
      vertex -118.98808574676514 20.222805744473575 23.304981231689453
      vertex -118.30498123168945 20.30971543619684 23.988085746765137
    endloop
  endfacet
  facet normal -0.8557814834959436 0 -0.5173374648191277
    outer loop
      vertex -119.58387088775635 21.659096876922842 -22.544517517089844
      vertex -119.58387088775635 20.147005479954593 -22.544517517089844
      vertex -120.08364772796631 21.595511510182494 -21.717784881591797
    endloop
  endfacet
  facet normal -0.911899911069143 0 -0.4104126608574463
    outer loop
      vertex -120.48012924194336 20.032976754411532 -20.836838722229004
      vertex -120.48012924194336 21.545068151379777 -20.836838722229004
      vertex -120.08364772796631 20.08342011321425 -21.717784881591797
    endloop
  endfacet
  facet normal -0.9547207357506042 0 -0.29750347347186545
    outer loop
      vertex -120.76753425598145 19.996410927925957 -19.914525032043457
      vertex -120.76753425598145 21.508502324894202 -19.914525032043457
      vertex -120.48012924194336 20.032976754411532 -20.836838722229004
    endloop
  endfacet
  facet normal -0.7871835468495754 0 -0.6167187880787502
    outer loop
      vertex -119.58387088775635 20.147005479954593 -22.544517517089844
      vertex -119.58387088775635 21.659096876922842 -22.544517517089844
      vertex -118.98808574676514 20.222805744473575 -23.304981231689453
    endloop
  endfacet
  facet normal -0.7071067811865475 0 -0.7071067811865475
    outer loop
      vertex -118.98808574676514 20.222805744473575 -23.304981231689453
      vertex -118.98808574676514 21.734897141441824 -23.304981231689453
      vertex -118.30498123168945 20.30971543619684 -23.988085746765137
    endloop
  endfacet
  facet normal -0.7071067811865475 0 -0.7071067811865475
    outer loop
      vertex -118.30498123168945 21.821806833165088 -23.988085746765137
      vertex -118.30498123168945 20.30971543619684 -23.988085746765137
      vertex -118.98808574676514 21.734897141441824 -23.304981231689453
    endloop
  endfacet
  facet normal -0.7871835468495754 0 -0.6167187880787502
    outer loop
      vertex -118.98808574676514 21.734897141441824 -23.304981231689453
      vertex -118.98808574676514 20.222805744473575 -23.304981231689453
      vertex -119.58387088775635 21.659096876922842 -22.544517517089844
    endloop
  endfacet
  facet normal -0.5173374648191277 0 -0.8557814834959435
    outer loop
      vertex -117.54451751708984 20.406467346840056 -24.583870887756348
      vertex -117.54451751708984 21.9185587438083 -24.583870887756348
      vertex -116.7177848815918 20.511650487784067 -25.08364772796631
    endloop
  endfacet
  facet normal -0.6167187880787502 0 -0.7871835468495754
    outer loop
      vertex -118.30498123168945 20.30971543619684 -23.988085746765137
      vertex -118.30498123168945 21.821806833165088 -23.988085746765137
      vertex -117.54451751708984 20.406467346840056 -24.583870887756348
    endloop
  endfacet
  facet normal -0.41041266085744627 0 -0.911899911069143
    outer loop
      vertex -116.7177848815918 20.511650487784067 -25.08364772796631
      vertex -116.7177848815918 22.023741884752315 -25.08364772796631
      vertex -115.836838722229 20.62373108079044 -25.48012924194336
    endloop
  endfacet
  facet normal -0.9836199817680585 0 -0.1802546295289085
    outer loop
      vertex -120.76753425598145 21.508502324894202 -19.914525032043457
      vertex -120.76753425598145 19.996410927925957 -19.914525032043457
      vertex -120.94167041778564 21.48634741330121 -18.964292526245117
    endloop
  endfacet
  facet normal -0.7871835468495754 0 0.6167187880787502
    outer loop
      vertex -119.58387088775635 20.147005479954593 22.544517517089844
      vertex -118.98808574676514 21.734897141441824 23.304981231689453
      vertex -119.58387088775635 21.659096876922842 22.544517517089844
    endloop
  endfacet
  facet normal -0.911899911069143 0 -0.4104126608574463
    outer loop
      vertex -120.08364772796631 21.595511510182494 -21.717784881591797
      vertex -120.08364772796631 20.08342011321425 -21.717784881591797
      vertex -120.48012924194336 21.545068151379777 -20.836838722229004
    endloop
  endfacet
  facet normal -0.9547207357506042 0 -0.29750347347186545
    outer loop
      vertex -120.48012924194336 21.545068151379777 -20.836838722229004
      vertex -120.48012924194336 20.032976754411532 -20.836838722229004
      vertex -120.76753425598145 21.508502324894202 -19.914525032043457
    endloop
  endfacet
  facet normal -0.2975034734718654 0 -0.9547207357506042
    outer loop
      vertex -115.836838722229 20.62373108079044 -25.48012924194336
      vertex -115.836838722229 22.135822477758687 -25.48012924194336
      vertex -114.91452503204346 20.741074762053167 -25.767534255981445
    endloop
  endfacet
  facet normal -0.18025462952890847 0 -0.9836199817680586
    outer loop
      vertex -114.91452503204346 20.741074762053167 -25.767534255981445
      vertex -114.91452503204346 22.253166159021415 -25.767534255981445
      vertex -113.96429252624512 20.861970484921006 -25.941670417785645
    endloop
  endfacet
  facet normal -0.9836199817680585 0 -0.1802546295289085
    outer loop
      vertex -120.94167041778564 19.974256016332966 -18.964292526245117
      vertex -120.94167041778564 21.48634741330121 -18.964292526245117
      vertex -120.76753425598145 19.996410927925957 -19.914525032043457
    endloop
  endfacet
  facet normal -0.998175514895307 0 -0.0603791475882936
    outer loop
      vertex -121 19.966834888384433 -18
      vertex -121 21.47892628535268 -18
      vertex -120.94167041778564 19.974256016332966 -18.964292526245117
    endloop
  endfacet
  facet normal -0.998175514895307 0 -0.060379147588293595
    outer loop
      vertex -120.94167041778564 21.48634741330121 -18.964292526245117
      vertex -120.94167041778564 19.974256016332966 -18.964292526245117
      vertex -121 21.47892628535268 -18
    endloop
  endfacet
  facet normal -0.6167187880787502 0 -0.7871835468495754
    outer loop
      vertex -117.54451751708984 21.9185587438083 -24.583870887756348
      vertex -117.54451751708984 20.406467346840056 -24.583870887756348
      vertex -118.30498123168945 21.821806833165088 -23.988085746765137
    endloop
  endfacet
  facet normal -0.5173374648191277 0 -0.8557814834959436
    outer loop
      vertex -116.7177848815918 22.023741884752315 -25.08364772796631
      vertex -116.7177848815918 20.511650487784067 -25.08364772796631
      vertex -117.54451751708984 21.9185587438083 -24.583870887756348
    endloop
  endfacet
  facet normal 0.7071067811865475 0 -0.7071067811865475
    outer loop
      vertex -38.69501876831055 29.28968275270948 -23.988085746765137
      vertex -38.69501876831055 30.796918970431243 -23.988085746765137
      vertex -38.01191425323486 29.356862053768012 -23.304981231689453
    endloop
  endfacet
  facet normal 0.2975034734718654 0 -0.9547207357506041
    outer loop
      vertex -42.08547496795654 28.956251377663516 -25.767534255981445
      vertex -42.08547496795654 30.46348759538528 -25.767534255981445
      vertex -41.163161277770996 29.046955490571506 -25.48012924194336
    endloop
  endfacet
  facet normal 0.4104126608574462 0 -0.9118999110691429
    outer loop
      vertex -41.163161277770996 29.046955490571506 -25.48012924194336
      vertex -41.163161277770996 30.55419170829327 -25.48012924194336
      vertex -40.2822151184082 29.133591350751168 -25.08364772796631
    endloop
  endfacet
  facet normal 0.5173374648191277 0 -0.8557814834959435
    outer loop
      vertex -40.2822151184082 29.133591350751168 -25.08364772796631
      vertex -40.2822151184082 30.64082756847293 -25.08364772796631
      vertex -39.455482482910156 29.2148956305346 -24.583870887756348
    endloop
  endfacet
  facet normal 0.0603791475882936 0 -0.998175514895307
    outer loop
      vertex -43.03570747375488 30.370037831588068 -25.941670417785645
      vertex -43.03570747375488 28.862801613866306 -25.941670417785645
      vertex -44 30.275205347686338 -26
    endloop
  endfacet
  facet normal 0.1802546295289085 0 -0.9836199817680585
    outer loop
      vertex -42.08547496795654 30.46348759538528 -25.767534255981445
      vertex -42.08547496795654 28.956251377663516 -25.767534255981445
      vertex -43.03570747375488 30.370037831588068 -25.941670417785645
    endloop
  endfacet
  facet normal 0.2975034734718654 0 -0.9547207357506041
    outer loop
      vertex -41.163161277770996 30.55419170829327 -25.48012924194336
      vertex -41.163161277770996 29.046955490571506 -25.48012924194336
      vertex -42.08547496795654 30.46348759538528 -25.767534255981445
    endloop
  endfacet
  facet normal 0.6167187880787502 0 -0.7871835468495753
    outer loop
      vertex -39.455482482910156 29.2148956305346 -24.583870887756348
      vertex -39.455482482910156 30.72213184825636 -24.583870887756348
      vertex -38.69501876831055 29.28968275270948 -23.988085746765137
    endloop
  endfacet
  facet normal 0.41041266085744627 0 -0.9118999110691429
    outer loop
      vertex -40.2822151184082 30.64082756847293 -25.08364772796631
      vertex -40.2822151184082 29.133591350751168 -25.08364772796631
      vertex -41.163161277770996 30.55419170829327 -25.48012924194336
    endloop
  endfacet
  facet normal 0.5173374648191277 0 -0.8557814834959435
    outer loop
      vertex -39.455482482910156 30.72213184825636 -24.583870887756348
      vertex -39.455482482910156 29.2148956305346 -24.583870887756348
      vertex -40.2822151184082 30.64082756847293 -25.08364772796631
    endloop
  endfacet
  facet normal 0.6167187880787502 0 -0.7871835468495753
    outer loop
      vertex -38.69501876831055 30.796918970431243 -23.988085746765137
      vertex -38.69501876831055 29.28968275270948 -23.988085746765137
      vertex -39.455482482910156 30.72213184825636 -24.583870887756348
    endloop
  endfacet
  facet normal 0.18025462952890853 0 -0.9836199817680586
    outer loop
      vertex -43.03570747375488 28.862801613866306 -25.941670417785645
      vertex -43.03570747375488 30.370037831588068 -25.941670417785645
      vertex -42.08547496795654 28.956251377663516 -25.767534255981445
    endloop
  endfacet
  facet normal 0.7871835468495754 0 -0.6167187880787504
    outer loop
      vertex -38.01191425323486 29.356862053768012 -23.304981231689453
      vertex -38.01191425323486 30.864098271489777 -23.304981231689453
      vertex -37.41612911224365 29.415454009273407 -22.544517517089844
    endloop
  endfacet
  facet normal 0.7071067811865475 0 -0.7071067811865475
    outer loop
      vertex -38.01191425323486 30.864098271489777 -23.304981231689453
      vertex -38.01191425323486 29.356862053768012 -23.304981231689453
      vertex -38.69501876831055 30.796918970431243 -23.988085746765137
    endloop
  endfacet
  facet normal 0.8557814834959435 0 -0.5173374648191276
    outer loop
      vertex -37.41612911224365 29.415454009273407 -22.544517517089844
      vertex -37.41612911224365 30.922690226995172 -22.544517517089844
      vertex -36.91635227203369 29.464604114520228 -21.717784881591797
    endloop
  endfacet
  facet normal 0.9118999110691429 0 -0.4104126608574462
    outer loop
      vertex -36.91635227203369 29.464604114520228 -21.717784881591797
      vertex -36.91635227203369 30.971840332241992 -21.717784881591797
      vertex -36.51987075805664 29.50359573352403 -20.836838722229004
    endloop
  endfacet
  facet normal 0.9547207357506042 0 -0.2975034734718654
    outer loop
      vertex -36.51987075805664 29.50359573352403 -20.836838722229004
      vertex -36.51987075805664 31.01083195124579 -20.836838722229004
      vertex -36.232465744018555 29.531860321940133 -19.914525032043457
    endloop
  endfacet
  facet normal 0.9836199817680585 0 -0.1802546295289085
    outer loop
      vertex -36.232465744018555 29.531860321940133 -19.914525032043457
      vertex -36.232465744018555 31.039096539661898 -19.914525032043457
      vertex -36.058329582214355 29.548985586640992 -18.964292526245117
    endloop
  endfacet
  facet normal 0.7871835468495754 0 -0.6167187880787504
    outer loop
      vertex -37.41612911224365 30.922690226995172 -22.544517517089844
      vertex -37.41612911224365 29.415454009273407 -22.544517517089844
      vertex -38.01191425323486 30.864098271489777 -23.304981231689453
    endloop
  endfacet
  facet normal 0.8557814834959435 0 -0.5173374648191276
    outer loop
      vertex -36.91635227203369 30.971840332241992 -21.717784881591797
      vertex -36.91635227203369 29.464604114520228 -21.717784881591797
      vertex -37.41612911224365 30.922690226995172 -22.544517517089844
    endloop
  endfacet
  facet normal 0.9118999110691429 0 -0.41041266085744627
    outer loop
      vertex -36.51987075805664 31.01083195124579 -20.836838722229004
      vertex -36.51987075805664 29.50359573352403 -20.836838722229004
      vertex -36.91635227203369 30.971840332241992 -21.717784881591797
    endloop
  endfacet
  facet normal 0.9547207357506041 0 -0.2975034734718654
    outer loop
      vertex -36.232465744018555 31.039096539661898 -19.914525032043457
      vertex -36.232465744018555 29.531860321940133 -19.914525032043457
      vertex -36.51987075805664 31.01083195124579 -20.836838722229004
    endloop
  endfacet
  facet normal -0.0603791475882936 0 0.998175514895307
    outer loop
      vertex -113 22.49674642625612 26
      vertex -113.96429252624512 20.861970484921006 25.941670417785645
      vertex -113 20.98465502928787 26
    endloop
  endfacet
  facet normal -0.7071067811865475 0 0.7071067811865475
    outer loop
      vertex -118.98808574676514 20.222805744473575 23.304981231689453
      vertex -118.30498123168945 21.821806833165088 23.988085746765137
      vertex -118.98808574676514 21.734897141441824 23.304981231689453
    endloop
  endfacet
  facet normal -0.6167187880787502 0 0.7871835468495754
    outer loop
      vertex -117.54451751708984 21.9185587438083 24.583870887756348
      vertex -118.30498123168945 20.30971543619684 23.988085746765137
      vertex -117.54451751708984 20.406467346840056 24.583870887756348
    endloop
  endfacet
  facet normal -0.5173374648191277 0 0.8557814834959436
    outer loop
      vertex -116.7177848815918 22.023741884752315 25.08364772796631
      vertex -117.54451751708984 20.406467346840056 24.583870887756348
      vertex -116.7177848815918 20.511650487784067 25.08364772796631
    endloop
  endfacet
  facet normal -0.6167187880787502 0 0.7871835468495754
    outer loop
      vertex -118.30498123168945 20.30971543619684 23.988085746765137
      vertex -117.54451751708984 21.9185587438083 24.583870887756348
      vertex -118.30498123168945 21.821806833165088 23.988085746765137
    endloop
  endfacet
  facet normal -0.41041266085744627 0 0.911899911069143
    outer loop
      vertex -115.836838722229 22.135822477758687 25.48012924194336
      vertex -116.7177848815918 20.511650487784067 25.08364772796631
      vertex -115.836838722229 20.62373108079044 25.48012924194336
    endloop
  endfacet
  facet normal -0.2975034734718654 0 0.9547207357506042
    outer loop
      vertex -114.91452503204346 22.253166159021415 25.767534255981445
      vertex -115.836838722229 20.62373108079044 25.48012924194336
      vertex -114.91452503204346 20.741074762053167 25.767534255981445
    endloop
  endfacet
  facet normal -0.1802546295289085 0 0.9836199817680585
    outer loop
      vertex -113.96429252624512 22.37406188188925 25.941670417785645
      vertex -114.91452503204346 20.741074762053167 25.767534255981445
      vertex -113.96429252624512 20.861970484921006 25.941670417785645
    endloop
  endfacet
  facet normal -0.5173374648191277 0 0.8557814834959435
    outer loop
      vertex -117.54451751708984 20.406467346840056 24.583870887756348
      vertex -116.7177848815918 22.023741884752315 25.08364772796631
      vertex -117.54451751708984 21.9185587438083 24.583870887756348
    endloop
  endfacet
  facet normal -0.41041266085744627 0 0.911899911069143
    outer loop
      vertex -116.7177848815918 20.511650487784067 25.08364772796631
      vertex -115.836838722229 22.135822477758687 25.48012924194336
      vertex -116.7177848815918 22.023741884752315 25.08364772796631
    endloop
  endfacet
  facet normal -0.2975034734718654 0 0.9547207357506042
    outer loop
      vertex -115.836838722229 20.62373108079044 25.48012924194336
      vertex -114.91452503204346 22.253166159021415 25.767534255981445
      vertex -115.836838722229 22.135822477758687 25.48012924194336
    endloop
  endfacet
  facet normal 0.998175514895307 0 -0.0603791475882936
    outer loop
      vertex -36.058329582214355 31.056221804362753 -18.964292526245117
      vertex -36 29.554721957105127 -18
      vertex -36.058329582214355 29.548985586640992 -18.964292526245117
    endloop
  endfacet
  facet normal -0.18025462952890847 0 0.9836199817680586
    outer loop
      vertex -114.91452503204346 20.741074762053167 25.767534255981445
      vertex -113.96429252624512 22.37406188188925 25.941670417785645
      vertex -114.91452503204346 22.253166159021415 25.767534255981445
    endloop
  endfacet
  facet normal -0.060379147588293595 0 0.998175514895307
    outer loop
      vertex -113.96429252624512 20.861970484921006 25.941670417785645
      vertex -113 22.49674642625612 26
      vertex -113.96429252624512 22.37406188188925 25.941670417785645
    endloop
  endfacet
  facet normal 0 0 1
    outer loop
      vertex -113 22.49674642625612 26
      vertex -113 20.98465502928787 26
      vertex -96.3650576689898 23.101077447696547 26
    endloop
  endfacet
  facet normal 0 0 1
    outer loop
      vertex -96.54474170124485 24.590308091286303 26
      vertex -113 22.49674642625612 26
      vertex -96.3650576689898 23.101077447696547 26
    endloop
  endfacet
  facet normal 0 0 1
    outer loop
      vertex -63.69163278008301 28.338649377593356 26
      vertex -96.54474170124485 24.590308091286303 26
      vertex -96.3650576689898 23.101077447696547 26
    endloop
  endfacet
  facet normal -0.8557814834959435 0 -0.5173374648191277
    outer loop
      vertex -120.08364772796631 20.08342011321425 -21.717784881591797
      vertex -120.08364772796631 21.595511510182494 -21.717784881591797
      vertex -119.58387088775635 20.147005479954593 -22.544517517089844
    endloop
  endfacet
  facet normal 0 0 -1
    outer loop
      vertex -63.69163278008301 28.338649377593356 -26
      vertex -44 28.767969129964577 -26
      vertex -63.533200312205246 26.846994058873307 -26
    endloop
  endfacet
  facet normal 0 0 -1
    outer loop
      vertex -63.69163278008301 28.338649377593356 -26
      vertex -44 30.275205347686338 -26
      vertex -44 28.767969129964577 -26
    endloop
  endfacet
  facet normal 0.0603791475882936 0 -0.998175514895307
    outer loop
      vertex -44 28.767969129964577 -26
      vertex -44 30.275205347686338 -26
      vertex -43.03570747375488 28.862801613866306 -25.941670417785645
    endloop
  endfacet
endsolid OpenSCAD_Model
