solid OpenSCAD_Model
  facet normal 0.046683469728962694 0.9989097324854058 0
    outer loop
      vertex 169.15060080587864 39.886401891708374 24
      vertex 169.15060080587864 39.886401891708374 -24
      vertex 165.9122559298383 40.0377440701617 24
    endloop
  endfacet
  facet normal 0.382679221331478 0.9238812767672768 0
    outer loop
      vertex 287.7390994876623 19.72550205886364 24
      vertex 292.0074967969932 17.957496796993198 24
      vertex 292.0074967969932 17.957496796993198 -24
    endloop
  endfacet
  facet normal 0.3240172520984166 0.946051172158563 0
    outer loop
      vertex 276.9547012448311 23.4190983325243 -24
      vertex 276.9547012448311 23.4190983325243 24
      vertex 287.7390994876623 19.72550205886364 24
    endloop
  endfacet
  facet normal 0.382679221331478 0.9238812767672768 0
    outer loop
      vertex 287.7390994876623 19.72550205886364 -24
      vertex 287.7390994876623 19.72550205886364 24
      vertex 292.0074967969932 17.957496796993198 -24
    endloop
  endfacet
  facet normal 0.12235670885695762 0.992486189222648 0
    outer loop
      vertex 221.55640117824078 34.881800413131714 24
      vertex 204.9579979479313 36.92810192704201 -24
      vertex 204.9579979479313 36.92810192704201 24
    endloop
  endfacet
  facet normal 0.2698332022535142 0.9629070790899887 0
    outer loop
      vertex 276.9547012448311 23.4190983325243 24
      vertex 264.9334007501602 26.787799298763275 -24
      vertex 264.9334007501602 26.787799298763275 24
    endloop
  endfacet
  facet normal 0.15097145901053222 0.9885381219579906 0
    outer loop
      vertex 221.55640117824078 34.881800413131714 -24
      vertex 221.55640117824078 34.881800413131714 24
      vertex 237.15730026364326 32.499200850725174 24
    endloop
  endfacet
  facet normal 0.3240172520984166 0.946051172158563 0
    outer loop
      vertex 287.7390994876623 19.72550205886364 24
      vertex 287.7390994876623 19.72550205886364 -24
      vertex 276.9547012448311 23.4190983325243 -24
    endloop
  endfacet
  facet normal 0.09532931300844064 0.9954457906291727 0
    outer loop
      vertex 187.4589990079403 38.60390141606331 -24
      vertex 187.4589990079403 38.60390141606331 24
      vertex 204.9579979479313 36.92810192704201 24
    endloop
  endfacet
  facet normal 0.06987860936405708 0.9975555021919059 0
    outer loop
      vertex 187.4589990079403 38.60390141606331 24
      vertex 169.15060080587864 39.886401891708374 -24
      vertex 169.15060080587864 39.886401891708374 24
    endloop
  endfacet
  facet normal 0.12235670885695762 0.992486189222648 0
    outer loop
      vertex 204.9579979479313 36.92810192704201 -24
      vertex 221.55640117824078 34.881800413131714 24
      vertex 221.55640117824078 34.881800413131714 -24
    endloop
  endfacet
  facet normal 0.09532931300844064 0.9954457906291727 0
    outer loop
      vertex 204.9579979479313 36.92810192704201 24
      vertex 204.9579979479313 36.92810192704201 -24
      vertex 187.4589990079403 38.60390141606331 -24
    endloop
  endfacet
  facet normal 0.15097145901053222 0.9885381219579906 0
    outer loop
      vertex 237.15730026364326 32.499200850725174 24
      vertex 237.15730026364326 32.499200850725174 -24
      vertex 221.55640117824078 34.881800413131714 -24
    endloop
  endfacet
  facet normal 0.18286449745543798 0.9831381263944402 0
    outer loop
      vertex 237.15730026364326 32.499200850725174 -24
      vertex 251.65240101516247 29.80310022830963 24
      vertex 251.65240101516247 29.80310022830963 -24
    endloop
  endfacet
  facet normal 0.22140408912522527 0.9751821518663214 0
    outer loop
      vertex 251.65240101516247 29.80310022830963 -24
      vertex 264.9334007501602 26.787799298763275 24
      vertex 264.9334007501602 26.787799298763275 -24
    endloop
  endfacet
  facet normal 0.18286449745543798 0.9831381263944402 0
    outer loop
      vertex 251.65240101516247 29.80310022830963 24
      vertex 237.15730026364326 32.499200850725174 -24
      vertex 237.15730026364326 32.499200850725174 24
    endloop
  endfacet
  facet normal 0.2698332022535142 0.9629070790899887 0
    outer loop
      vertex 264.9334007501602 26.787799298763275 -24
      vertex 276.9547012448311 23.4190983325243 24
      vertex 276.9547012448311 23.4190983325243 -24
    endloop
  endfacet
  facet normal 0.06987860936405708 0.9975555021919059 0
    outer loop
      vertex 169.15060080587864 39.886401891708374 -24
      vertex 187.4589990079403 38.60390141606331 24
      vertex 187.4589990079403 38.60390141606331 -24
    endloop
  endfacet
  facet normal 0.22140408912522527 0.9751821518663214 0
    outer loop
      vertex 264.9334007501602 26.787799298763275 24
      vertex 251.65240101516247 29.80310022830963 -24
      vertex 251.65240101516247 29.80310022830963 24
    endloop
  endfacet
  facet normal 0.046683469728962694 0.9989097324854058 0
    outer loop
      vertex 169.15060080587864 39.886401891708374 -24
      vertex 165.9122559298383 40.0377440701617 -24
      vertex 165.9122559298383 40.0377440701617 24
    endloop
  endfacet
  facet normal -0.2214040892126723 -0.9751821518464675 0
    outer loop
      vertex 264.56474266946316 25.333324775099754 -24
      vertex 264.56474266946316 25.333324775099754 24
      vertex 251.34908208996058 28.333791188895702 24
    endloop
  endfacet
  facet normal -0.1509714587984598 -0.9885381219903787 0
    outer loop
      vertex 236.90685784816742 31.0200567394495 -24
      vertex 236.90685784816742 31.0200567394495 24
      vertex 221.35136231034994 33.395722180604935 24
    endloop
  endfacet
  facet normal -0.2214040892126723 -0.9751821518464675 0
    outer loop
      vertex 251.34908208996058 28.333791188895702 24
      vertex 251.34908208996058 28.333791188895702 -24
      vertex 264.56474266946316 25.333324775099754 -24
    endloop
  endfacet
  facet normal -0.38267922140897526 -0.923881276735177 0
    outer loop
      vertex 290.85944433286693 16.80944433286693 24
      vertex 287.20855548232794 18.321672514081 24
      vertex 290.85944433286693 16.80944433286693 -24
    endloop
  endfacet
  facet normal -0.32401725207635385 -0.9460511721661193 0
    outer loop
      vertex 276.5089546665549 21.98622614145279 24
      vertex 287.20855548232794 18.321672514081 -24
      vertex 287.20855548232794 18.321672514081 24
    endloop
  endfacet
  facet normal -0.38267922140897526 -0.923881276735177 0
    outer loop
      vertex 287.20855548232794 18.321672514081 24
      vertex 287.20855548232794 18.321672514081 -24
      vertex 290.85944433286693 16.80944433286693 -24
    endloop
  endfacet
  facet normal -0.26983320203468275 -0.9629070791513116 0
    outer loop
      vertex 276.5089546665549 21.98622614145279 -24
      vertex 276.5089546665549 21.98622614145279 24
      vertex 264.56474266946316 25.333324775099754 24
    endloop
  endfacet
  facet normal -0.09532931305895508 -0.9954457906243351 0
    outer loop
      vertex 204.79470341652632 35.43687732517719 -24
      vertex 204.79470341652632 35.43687732517719 24
      vertex 187.33507283776999 37.108906686306 24
    endloop
  endfacet
  facet normal -0.04668346954981307 -0.9989097324937782 0
    outer loop
      vertex 167.4875117905088 38.46248820949123 -24
      vertex 169.06316727399826 38.38885086029768 -24
      vertex 169.06316727399826 38.38885086029768 24
    endloop
  endfacet
  facet normal -0.1828644976063656 -0.9831381263663673 0
    outer loop
      vertex 236.90685784816742 31.0200567394495 24
      vertex 251.34908208996058 28.333791188895702 -24
      vertex 251.34908208996058 28.333791188895702 24
    endloop
  endfacet
  facet normal -0.12235670880538715 -0.9924861892290057 0
    outer loop
      vertex 204.79470341652632 35.43687732517719 24
      vertex 221.35136231034994 33.395722180604935 -24
      vertex 221.35136231034994 33.395722180604935 24
    endloop
  endfacet
  facet normal -0.32401725207635385 -0.9460511721661193 0
    outer loop
      vertex 287.20855548232794 18.321672514081 -24
      vertex 276.5089546665549 21.98622614145279 24
      vertex 276.5089546665549 21.98622614145279 -24
    endloop
  endfacet
  facet normal -0.26983320203468275 -0.9629070791513116 0
    outer loop
      vertex 264.56474266946316 25.333324775099754 24
      vertex 264.56474266946316 25.333324775099754 -24
      vertex 276.5089546665549 21.98622614145279 -24
    endloop
  endfacet
  facet normal -0.06987860947494791 -0.997555502184138 0
    outer loop
      vertex 169.06316727399826 38.38885086029768 24
      vertex 169.06316727399826 38.38885086029768 -24
      vertex 187.33507283776999 37.108906686306 -24
    endloop
  endfacet
  facet normal -0.06987860947494791 -0.997555502184138 0
    outer loop
      vertex 187.33507283776999 37.108906686306 -24
      vertex 187.33507283776999 37.108906686306 24
      vertex 169.06316727399826 38.38885086029768 24
    endloop
  endfacet
  facet normal -0.1828644976063656 -0.9831381263663673 0
    outer loop
      vertex 251.34908208996058 28.333791188895702 -24
      vertex 236.90685784816742 31.0200567394495 24
      vertex 236.90685784816742 31.0200567394495 -24
    endloop
  endfacet
  facet normal -0.04668346954981307 -0.9989097324937782 0
    outer loop
      vertex 169.06316727399826 38.38885086029768 24
      vertex 167.4875117905088 38.46248820949123 24
      vertex 167.4875117905088 38.46248820949123 -24
    endloop
  endfacet
  facet normal -0.09532931305895508 -0.9954457906243351 0
    outer loop
      vertex 187.33507283776999 37.108906686306 24
      vertex 187.33507283776999 37.108906686306 -24
      vertex 204.79470341652632 35.43687732517719 -24
    endloop
  endfacet
  facet normal -0.12235670880538715 -0.9924861892290057 0
    outer loop
      vertex 221.35136231034994 33.395722180604935 -24
      vertex 204.79470341652632 35.43687732517719 24
      vertex 204.79470341652632 35.43687732517719 -24
    endloop
  endfacet
  facet normal -0.1509714587984598 -0.9885381219903787 0
    outer loop
      vertex 221.35136231034994 33.395722180604935 24
      vertex 221.35136231034994 33.395722180604935 -24
      vertex 236.90685784816742 31.0200567394495 -24
    endloop
  endfacet
  facet normal 0 0 1
    outer loop
      vertex 251.34908208996058 28.333791188895702 24
      vertex 264.9334007501602 26.787799298763275 24
      vertex 251.65240101516247 29.80310022830963 24
    endloop
  endfacet
  facet normal 0 0 1
    outer loop
      vertex 251.34908208996058 28.333791188895702 24
      vertex 264.56474266946316 25.333324775099754 24
      vertex 264.9334007501602 26.787799298763275 24
    endloop
  endfacet
  facet normal 0 0 1
    outer loop
      vertex 264.56474266946316 25.333324775099754 24
      vertex 276.9547012448311 23.4190983325243 24
      vertex 264.9334007501602 26.787799298763275 24
    endloop
  endfacet
  facet normal 0.7071067811865388 -0.7071067811865563 0
    outer loop
      vertex 290.85944433286693 16.80944433286693 24
      vertex 292.0074967969932 17.957496796993198 -24
      vertex 292.0074967969932 17.957496796993198 24
    endloop
  endfacet
  facet normal 0 0 1
    outer loop
      vertex 292.0074967969932 17.957496796993198 24
      vertex 287.20855548232794 18.321672514081 24
      vertex 290.85944433286693 16.80944433286693 24
    endloop
  endfacet
  facet normal 0 0 1
    outer loop
      vertex 287.20855548232794 18.321672514081 24
      vertex 292.0074967969932 17.957496796993198 24
      vertex 287.7390994876623 19.72550205886364 24
    endloop
  endfacet
  facet normal 0 0 1
    outer loop
      vertex 276.5089546665549 21.98622614145279 24
      vertex 287.20855548232794 18.321672514081 24
      vertex 287.7390994876623 19.72550205886364 24
    endloop
  endfacet
  facet normal 0 0 1
    outer loop
      vertex 276.5089546665549 21.98622614145279 24
      vertex 287.7390994876623 19.72550205886364 24
      vertex 276.9547012448311 23.4190983325243 24
    endloop
  endfacet
  facet normal 0 0 1
    outer loop
      vertex 264.56474266946316 25.333324775099754 24
      vertex 276.5089546665549 21.98622614145279 24
      vertex 276.9547012448311 23.4190983325243 24
    endloop
  endfacet
  facet normal 0 0 -1
    outer loop
      vertex 290.85944433286693 16.80944433286693 -24
      vertex 287.20855548232794 18.321672514081 -24
      vertex 287.7390994876623 19.72550205886364 -24
    endloop
  endfacet
  facet normal 0 0 -1
    outer loop
      vertex 237.15730026364326 32.499200850725174 -24
      vertex 251.34908208996058 28.333791188895702 -24
      vertex 236.90685784816742 31.0200567394495 -24
    endloop
  endfacet
  facet normal 0 0 -1
    outer loop
      vertex 221.55640117824078 34.881800413131714 -24
      vertex 237.15730026364326 32.499200850725174 -24
      vertex 236.90685784816742 31.0200567394495 -24
    endloop
  endfacet
  facet normal 0 0 -1
    outer loop
      vertex 237.15730026364326 32.499200850725174 -24
      vertex 251.65240101516247 29.80310022830963 -24
      vertex 251.34908208996058 28.333791188895702 -24
    endloop
  endfacet
  facet normal 0 0 1
    outer loop
      vertex 236.90685784816742 31.0200567394495 24
      vertex 251.65240101516247 29.80310022830963 24
      vertex 237.15730026364326 32.499200850725174 24
    endloop
  endfacet
  facet normal 0 0 1
    outer loop
      vertex 221.35136231034994 33.395722180604935 24
      vertex 236.90685784816742 31.0200567394495 24
      vertex 237.15730026364326 32.499200850725174 24
    endloop
  endfacet
  facet normal 0 0 1
    outer loop
      vertex 236.90685784816742 31.0200567394495 24
      vertex 251.34908208996058 28.333791188895702 24
      vertex 251.65240101516247 29.80310022830963 24
    endloop
  endfacet
  facet normal 0 0 1
    outer loop
      vertex 187.4589990079403 38.60390141606331 24
      vertex 169.15060080587864 39.886401891708374 24
      vertex 169.06316727399826 38.38885086029768 24
    endloop
  endfacet
  facet normal 0 0 -1
    outer loop
      vertex 165.9122559298383 40.0377440701617 -24
      vertex 169.15060080587864 39.886401891708374 -24
      vertex 167.4875117905088 38.46248820949123 -24
    endloop
  endfacet
  facet normal 0 0 -1
    outer loop
      vertex 169.15060080587864 39.886401891708374 -24
      vertex 187.33507283776999 37.108906686306 -24
      vertex 169.06316727399826 38.38885086029768 -24
    endloop
  endfacet
  facet normal 0 0 -1
    outer loop
      vertex 169.15060080587864 39.886401891708374 -24
      vertex 187.4589990079403 38.60390141606331 -24
      vertex 187.33507283776999 37.108906686306 -24
    endloop
  endfacet
  facet normal 0 0 -1
    outer loop
      vertex 187.4589990079403 38.60390141606331 -24
      vertex 204.79470341652632 35.43687732517719 -24
      vertex 187.33507283776999 37.108906686306 -24
    endloop
  endfacet
  facet normal -0.7071067811865428 -0.7071067811865523 0
    outer loop
      vertex 165.9122559298383 40.0377440701617 -24
      vertex 167.4875117905088 38.46248820949123 -24
      vertex 165.9122559298383 40.0377440701617 24
    endloop
  endfacet
  facet normal 0 0 -1
    outer loop
      vertex 221.55640117824078 34.881800413131714 -24
      vertex 236.90685784816742 31.0200567394495 -24
      vertex 221.35136231034994 33.395722180604935 -24
    endloop
  endfacet
  facet normal 0 0 -1
    outer loop
      vertex 187.4589990079403 38.60390141606331 -24
      vertex 204.9579979479313 36.92810192704201 -24
      vertex 204.79470341652632 35.43687732517719 -24
    endloop
  endfacet
  facet normal 0 0 -1
    outer loop
      vertex 204.9579979479313 36.92810192704201 -24
      vertex 221.35136231034994 33.395722180604935 -24
      vertex 204.79470341652632 35.43687732517719 -24
    endloop
  endfacet
  facet normal 0 0 -1
    outer loop
      vertex 204.9579979479313 36.92810192704201 -24
      vertex 221.55640117824078 34.881800413131714 -24
      vertex 221.35136231034994 33.395722180604935 -24
    endloop
  endfacet
  facet normal -0.7071067811865428 -0.7071067811865523 0
    outer loop
      vertex 167.4875117905088 38.46248820949123 -24
      vertex 167.4875117905088 38.46248820949123 24
      vertex 165.9122559298383 40.0377440701617 24
    endloop
  endfacet
  facet normal 0 0 1
    outer loop
      vertex 169.15060080587864 39.886401891708374 24
      vertex 167.4875117905088 38.46248820949123 24
      vertex 169.06316727399826 38.38885086029768 24
    endloop
  endfacet
  facet normal 0 0 1
    outer loop
      vertex 169.15060080587864 39.886401891708374 24
      vertex 165.9122559298383 40.0377440701617 24
      vertex 167.4875117905088 38.46248820949123 24
    endloop
  endfacet
  facet normal 0 0 1
    outer loop
      vertex 187.4589990079403 38.60390141606331 24
      vertex 169.06316727399826 38.38885086029768 24
      vertex 187.33507283776999 37.108906686306 24
    endloop
  endfacet
  facet normal 0 0 -1
    outer loop
      vertex 276.5089546665549 21.98622614145279 -24
      vertex 264.56474266946316 25.333324775099754 -24
      vertex 264.9334007501602 26.787799298763275 -24
    endloop
  endfacet
  facet normal 0 0 1
    outer loop
      vertex 204.9579979479313 36.92810192704201 24
      vertex 187.4589990079403 38.60390141606331 24
      vertex 187.33507283776999 37.108906686306 24
    endloop
  endfacet
  facet normal 0 0 1
    outer loop
      vertex 221.35136231034994 33.395722180604935 24
      vertex 237.15730026364326 32.499200850725174 24
      vertex 221.55640117824078 34.881800413131714 24
    endloop
  endfacet
  facet normal 0 0 1
    outer loop
      vertex 187.33507283776999 37.108906686306 24
      vertex 204.79470341652632 35.43687732517719 24
      vertex 204.9579979479313 36.92810192704201 24
    endloop
  endfacet
  facet normal 0 0 1
    outer loop
      vertex 204.79470341652632 35.43687732517719 24
      vertex 221.55640117824078 34.881800413131714 24
      vertex 204.9579979479313 36.92810192704201 24
    endloop
  endfacet
  facet normal 0 0 1
    outer loop
      vertex 204.79470341652632 35.43687732517719 24
      vertex 221.35136231034994 33.395722180604935 24
      vertex 221.55640117824078 34.881800413131714 24
    endloop
  endfacet
  facet normal 0 0 -1
    outer loop
      vertex 251.65240101516247 29.80310022830963 -24
      vertex 264.56474266946316 25.333324775099754 -24
      vertex 251.34908208996058 28.333791188895702 -24
    endloop
  endfacet
  facet normal 0 0 -1
    outer loop
      vertex 264.56474266946316 25.333324775099754 -24
      vertex 251.65240101516247 29.80310022830963 -24
      vertex 264.9334007501602 26.787799298763275 -24
    endloop
  endfacet
  facet normal 0 0 -1
    outer loop
      vertex 290.85944433286693 16.80944433286693 -24
      vertex 287.7390994876623 19.72550205886364 -24
      vertex 292.0074967969932 17.957496796993198 -24
    endloop
  endfacet
  facet normal 0 0 -1
    outer loop
      vertex 169.15060080587864 39.886401891708374 -24
      vertex 169.06316727399826 38.38885086029768 -24
      vertex 167.4875117905088 38.46248820949123 -24
    endloop
  endfacet
  facet normal 0 0 -1
    outer loop
      vertex 287.20855548232794 18.321672514081 -24
      vertex 276.9547012448311 23.4190983325243 -24
      vertex 287.7390994876623 19.72550205886364 -24
    endloop
  endfacet
  facet normal 0 0 -1
    outer loop
      vertex 287.20855548232794 18.321672514081 -24
      vertex 276.5089546665549 21.98622614145279 -24
      vertex 276.9547012448311 23.4190983325243 -24
    endloop
  endfacet
  facet normal 0.7071067811865388 -0.7071067811865563 0
    outer loop
      vertex 290.85944433286693 16.80944433286693 24
      vertex 290.85944433286693 16.80944433286693 -24
      vertex 292.0074967969932 17.957496796993198 -24
    endloop
  endfacet
  facet normal 0 0 -1
    outer loop
      vertex 276.5089546665549 21.98622614145279 -24
      vertex 264.9334007501602 26.787799298763275 -24
      vertex 276.9547012448311 23.4190983325243 -24
    endloop
  endfacet
endsolid OpenSCAD_Model
