solid OpenSCAD_Model
  facet normal -0.08302265469133123 0.9965476600785353 0
    outer loop
      vertex 27.807700857520103 37.34990142285824 -24
      vertex 27.807700857520103 37.34990142285824 24
      vertex 48.53860184550285 39.07699838280678 24
    endloop
  endfacet
  facet normal 0.12235670885695762 0.992486189222648 0
    outer loop
      vertex 221.55640117824078 34.881800413131714 24
      vertex 204.9579979479313 36.92810192704201 -24
      vertex 204.9579979479313 36.92810192704201 24
    endloop
  endfacet
  facet normal 0.09532931300844064 0.9954457906291727 0
    outer loop
      vertex 187.4589990079403 38.60390141606331 -24
      vertex 187.4589990079403 38.60390141606331 24
      vertex 204.9579979479313 36.92810192704201 24
    endloop
  endfacet
  facet normal 0.06987860936405708 0.9975555021919059 0
    outer loop
      vertex 187.4589990079403 38.60390141606331 24
      vertex 169.15060080587864 39.886401891708374 -24
      vertex 169.15060080587864 39.886401891708374 24
    endloop
  endfacet
  facet normal -0.015614395875949207 0.9998780878894332 0
    outer loop
      vertex 89.9605005979538 41.05490043759346 -24
      vertex 110.40070176124573 41.374100744724274 24
      vertex 110.40070176124573 41.374100744724274 -24
    endloop
  endfacet
  facet normal 0.00482126843117642 0.9999883776178173 0
    outer loop
      vertex 130.49890138208866 41.27720080316067 24
      vertex 130.49890138208866 41.27720080316067 -24
      vertex 110.40070176124573 41.374100744724274 -24
    endloop
  endfacet
  facet normal 0.32401725209841664 0.946051172158563 0
    outer loop
      vertex 276.9547012448311 23.4190983325243 -24
      vertex 276.9547012448311 23.4190983325243 24
      vertex 281.0622766548819 22.01227665488188 -24
    endloop
  endfacet
  facet normal 0.02555084945659736 0.9996735237526532 0
    outer loop
      vertex 150.12399978935719 40.77559910714626 24
      vertex 150.12399978935719 40.77559910714626 -24
      vertex 130.49890138208866 41.27720080316067 -24
    endloop
  endfacet
  facet normal 0.046683469728962666 0.9989097324854058 0
    outer loop
      vertex 169.15060080587864 39.886401891708374 24
      vertex 150.12399978935719 40.77559910714626 -24
      vertex 150.12399978935719 40.77559910714626 24
    endloop
  endfacet
  facet normal -0.11281117134129581 0.9936164449225892 0
    outer loop
      vertex 27.807700857520103 37.34990142285824 24
      vertex 27.807700857520103 37.34990142285824 -24
      vertex 24.029104989138787 36.920895010861216 24
    endloop
  endfacet
  facet normal 0.2698332022535142 0.9629070790899887 0
    outer loop
      vertex 264.9334007501602 26.787799298763275 -24
      vertex 276.9547012448311 23.4190983325243 24
      vertex 276.9547012448311 23.4190983325243 -24
    endloop
  endfacet
  facet normal -0.05865777017491419 0.9982781506164036 0
    outer loop
      vertex 69.29799906909466 40.29679864645004 24
      vertex 48.53860184550285 39.07699838280678 -24
      vertex 48.53860184550285 39.07699838280678 24
    endloop
  endfacet
  facet normal 0.046683469728962666 0.9989097324854058 0
    outer loop
      vertex 150.12399978935719 40.77559910714626 -24
      vertex 169.15060080587864 39.886401891708374 24
      vertex 169.15060080587864 39.886401891708374 -24
    endloop
  endfacet
  facet normal -0.0366650693403549 0.9993276102911732 0
    outer loop
      vertex 69.29799906909466 40.29679864645004 -24
      vertex 69.29799906909466 40.29679864645004 24
      vertex 89.9605005979538 41.05490043759346 24
    endloop
  endfacet
  facet normal 0.06987860936405708 0.9975555021919059 0
    outer loop
      vertex 169.15060080587864 39.886401891708374 -24
      vertex 187.4589990079403 38.60390141606331 24
      vertex 187.4589990079403 38.60390141606331 -24
    endloop
  endfacet
  facet normal 0.09532931300844064 0.9954457906291727 0
    outer loop
      vertex 204.9579979479313 36.92810192704201 24
      vertex 204.9579979479313 36.92810192704201 -24
      vertex 187.4589990079403 38.60390141606331 -24
    endloop
  endfacet
  facet normal 0.02555084945659736 0.9996735237526532 0
    outer loop
      vertex 130.49890138208866 41.27720080316067 -24
      vertex 130.49890138208866 41.27720080316067 24
      vertex 150.12399978935719 40.77559910714626 24
    endloop
  endfacet
  facet normal 0.15097145901053222 0.9885381219579906 0
    outer loop
      vertex 237.15730026364326 32.499200850725174 24
      vertex 237.15730026364326 32.499200850725174 -24
      vertex 221.55640117824078 34.881800413131714 -24
    endloop
  endfacet
  facet normal 0.00482126843117642 0.9999883776178173 0
    outer loop
      vertex 110.40070176124573 41.374100744724274 -24
      vertex 110.40070176124573 41.374100744724274 24
      vertex 130.49890138208866 41.27720080316067 24
    endloop
  endfacet
  facet normal -0.015614395875949207 0.9998780878894332 0
    outer loop
      vertex 110.40070176124573 41.374100744724274 24
      vertex 89.9605005979538 41.05490043759346 -24
      vertex 89.9605005979538 41.05490043759346 24
    endloop
  endfacet
  facet normal 0.22140408912522527 0.9751821518663214 0
    outer loop
      vertex 264.9334007501602 26.787799298763275 24
      vertex 251.65240101516247 29.80310022830963 -24
      vertex 251.65240101516247 29.80310022830963 24
    endloop
  endfacet
  facet normal 0.32401725209841664 0.946051172158563 0
    outer loop
      vertex 276.9547012448311 23.4190983325243 24
      vertex 281.0622766548819 22.01227665488188 24
      vertex 281.0622766548819 22.01227665488188 -24
    endloop
  endfacet
  facet normal 0.2698332022535142 0.9629070790899887 0
    outer loop
      vertex 276.9547012448311 23.4190983325243 24
      vertex 264.9334007501602 26.787799298763275 -24
      vertex 264.9334007501602 26.787799298763275 24
    endloop
  endfacet
  facet normal 0.18286449745543798 0.9831381263944402 0
    outer loop
      vertex 251.65240101516247 29.80310022830963 24
      vertex 237.15730026364326 32.499200850725174 -24
      vertex 237.15730026364326 32.499200850725174 24
    endloop
  endfacet
  facet normal 0.12235670885695762 0.992486189222648 0
    outer loop
      vertex 204.9579979479313 36.92810192704201 -24
      vertex 221.55640117824078 34.881800413131714 24
      vertex 221.55640117824078 34.881800413131714 -24
    endloop
  endfacet
  facet normal -0.11281117134129581 0.9936164449225892 0
    outer loop
      vertex 27.807700857520103 37.34990142285824 -24
      vertex 24.029104989138787 36.920895010861216 -24
      vertex 24.029104989138787 36.920895010861216 24
    endloop
  endfacet
  facet normal 0.15097145901053222 0.9885381219579906 0
    outer loop
      vertex 221.55640117824078 34.881800413131714 -24
      vertex 221.55640117824078 34.881800413131714 24
      vertex 237.15730026364326 32.499200850725174 24
    endloop
  endfacet
  facet normal -0.08302265469133123 0.9965476600785353 0
    outer loop
      vertex 48.53860184550285 39.07699838280678 24
      vertex 48.53860184550285 39.07699838280678 -24
      vertex 27.807700857520103 37.34990142285824 -24
    endloop
  endfacet
  facet normal 0.22140408912522527 0.9751821518663214 0
    outer loop
      vertex 251.65240101516247 29.80310022830963 -24
      vertex 264.9334007501602 26.787799298763275 24
      vertex 264.9334007501602 26.787799298763275 -24
    endloop
  endfacet
  facet normal -0.05865777017491419 0.9982781506164036 0
    outer loop
      vertex 48.53860184550285 39.07699838280678 -24
      vertex 69.29799906909466 40.29679864645004 24
      vertex 69.29799906909466 40.29679864645004 -24
    endloop
  endfacet
  facet normal -0.0366650693403549 0.9993276102911732 0
    outer loop
      vertex 89.9605005979538 41.05490043759346 24
      vertex 89.9605005979538 41.05490043759346 -24
      vertex 69.29799906909466 40.29679864645004 -24
    endloop
  endfacet
  facet normal 0.18286449745543798 0.9831381263944402 0
    outer loop
      vertex 237.15730026364326 32.499200850725174 -24
      vertex 251.65240101516247 29.80310022830963 24
      vertex 251.65240101516247 29.80310022830963 -24
    endloop
  endfacet
  facet normal -0.025550849592207988 -0.9996735237491869 0
    outer loop
      vertex 130.47611968964338 39.77729320526123 24
      vertex 150.06981816887856 39.276494063436985 -24
      vertex 150.06981816887856 39.276494063436985 24
    endloop
  endfacet
  facet normal -0.004821268445690312 -0.9999883776177473 0
    outer loop
      vertex 130.47611968964338 39.77729320526123 -24
      vertex 130.47611968964338 39.77729320526123 24
      vertex 110.40879754722118 39.87404427677393 24
    endloop
  endfacet
  facet normal -0.1828644976063656 -0.9831381263663673 0
    outer loop
      vertex 236.90685784816742 31.0200567394495 24
      vertex 251.34908208996058 28.333791188895702 -24
      vertex 251.34908208996058 28.333791188895702 24
    endloop
  endfacet
  facet normal -0.2214040892126723 -0.9751821518464675 0
    outer loop
      vertex 264.56474266946316 25.333324775099754 -24
      vertex 264.56474266946316 25.333324775099754 24
      vertex 251.34908208996058 28.333791188895702 24
    endloop
  endfacet
  facet normal -0.09532931305895508 -0.9954457906243351 0
    outer loop
      vertex 187.33507283776999 37.108906686306 24
      vertex 187.33507283776999 37.108906686306 -24
      vertex 204.79470341652632 35.43687732517719 -24
    endloop
  endfacet
  facet normal -0.06987860947494791 -0.997555502184138 0
    outer loop
      vertex 169.06316727399826 38.38885086029768 24
      vertex 169.06316727399826 38.38885086029768 -24
      vertex 187.33507283776999 37.108906686306 -24
    endloop
  endfacet
  facet normal -0.26983320203468275 -0.9629070791513116 0
    outer loop
      vertex 276.5089546665549 21.98622614145279 -24
      vertex 276.5089546665549 21.98622614145279 24
      vertex 264.56474266946316 25.333324775099754 24
    endloop
  endfacet
  facet normal -0.04668346954981195 -0.9989097324937783 0
    outer loop
      vertex 150.06981816887856 39.276494063436985 24
      vertex 150.06981816887856 39.276494063436985 -24
      vertex 169.06316727399826 38.38885086029768 -24
    endloop
  endfacet
  facet normal -0.12235670880538715 -0.9924861892290057 0
    outer loop
      vertex 221.35136231034994 33.395722180604935 -24
      vertex 204.79470341652632 35.43687732517719 24
      vertex 204.79470341652632 35.43687732517719 -24
    endloop
  endfacet
  facet normal -0.3240172520763549 -0.9460511721661191 0
    outer loop
      vertex 279.88123792609343 20.831237926093447 24
      vertex 276.5089546665549 21.98622614145279 24
      vertex 279.88123792609343 20.831237926093447 -24
    endloop
  endfacet
  facet normal -0.3240172520763549 -0.9460511721661191 0
    outer loop
      vertex 276.5089546665549 21.98622614145279 24
      vertex 276.5089546665549 21.98622614145279 -24
      vertex 279.88123792609343 20.831237926093447 -24
    endloop
  endfacet
  facet normal -0.2214040892126723 -0.9751821518464675 0
    outer loop
      vertex 251.34908208996058 28.333791188895702 24
      vertex 251.34908208996058 28.333791188895702 -24
      vertex 264.56474266946316 25.333324775099754 -24
    endloop
  endfacet
  facet normal -0.26983320203468275 -0.9629070791513116 0
    outer loop
      vertex 264.56474266946316 25.333324775099754 24
      vertex 264.56474266946316 25.333324775099754 -24
      vertex 276.5089546665549 21.98622614145279 -24
    endloop
  endfacet
  facet normal -0.09532931305895508 -0.9954457906243351 0
    outer loop
      vertex 204.79470341652632 35.43687732517719 -24
      vertex 204.79470341652632 35.43687732517719 24
      vertex 187.33507283776999 37.108906686306 24
    endloop
  endfacet
  facet normal -0.1828644976063656 -0.9831381263663673 0
    outer loop
      vertex 251.34908208996058 28.333791188895702 -24
      vertex 236.90685784816742 31.0200567394495 24
      vertex 236.90685784816742 31.0200567394495 -24
    endloop
  endfacet
  facet normal -0.1509714587984598 -0.9885381219903787 0
    outer loop
      vertex 221.35136231034994 33.395722180604935 24
      vertex 221.35136231034994 33.395722180604935 -24
      vertex 236.90685784816742 31.0200567394495 -24
    endloop
  endfacet
  facet normal 0.11281117134854468 -0.9936164449217663 0
    outer loop
      vertex 25.38481953024028 35.565180469759724 -24
      vertex 27.954609282314777 35.85694395005703 -24
      vertex 27.954609282314777 35.85694395005703 24
    endloop
  endfacet
  facet normal -0.1509714587984598 -0.9885381219903787 0
    outer loop
      vertex 236.90685784816742 31.0200567394495 -24
      vertex 236.90685784816742 31.0200567394495 24
      vertex 221.35136231034994 33.395722180604935 24
    endloop
  endfacet
  facet normal 0.08302265474097457 -0.9965476600743995 0
    outer loop
      vertex 48.644877940416336 37.580655820667744 -24
      vertex 27.954609282314777 35.85694395005703 24
      vertex 27.954609282314777 35.85694395005703 -24
    endloop
  endfacet
  facet normal 0.058657770056627624 -0.998278150623354 0
    outer loop
      vertex 48.644877940416336 37.580655820667744 24
      vertex 48.644877940416336 37.580655820667744 -24
      vertex 69.3694999217987 38.7984127253294 -24
    endloop
  endfacet
  facet normal 0.03666506951008486 -0.9993276102849459 0
    outer loop
      vertex 89.9997144639492 39.55532991886139 -24
      vertex 69.3694999217987 38.7984127253294 24
      vertex 69.3694999217987 38.7984127253294 -24
    endloop
  endfacet
  facet normal 0.015614395878161047 -0.9998780878893987 0
    outer loop
      vertex 110.40879754722118 39.87404427677393 -24
      vertex 89.9997144639492 39.55532991886139 24
      vertex 89.9997144639492 39.55532991886139 -24
    endloop
  endfacet
  facet normal -0.004821268445690312 -0.9999883776177473 0
    outer loop
      vertex 110.40879754722118 39.87404427677393 24
      vertex 110.40879754722118 39.87404427677393 -24
      vertex 130.47611968964338 39.77729320526123 -24
    endloop
  endfacet
  facet normal -0.025550849592207988 -0.9996735237491869 0
    outer loop
      vertex 150.06981816887856 39.276494063436985 -24
      vertex 130.47611968964338 39.77729320526123 24
      vertex 130.47611968964338 39.77729320526123 -24
    endloop
  endfacet
  facet normal 0.11281117134854468 -0.9936164449217663 0
    outer loop
      vertex 27.954609282314777 35.85694395005703 24
      vertex 25.38481953024028 35.565180469759724 24
      vertex 25.38481953024028 35.565180469759724 -24
    endloop
  endfacet
  facet normal 0.08302265474097457 -0.9965476600743995 0
    outer loop
      vertex 27.954609282314777 35.85694395005703 24
      vertex 48.644877940416336 37.580655820667744 -24
      vertex 48.644877940416336 37.580655820667744 24
    endloop
  endfacet
  facet normal 0.03666506951008486 -0.9993276102849459 0
    outer loop
      vertex 89.9997144639492 39.55532991886139 -24
      vertex 89.9997144639492 39.55532991886139 24
      vertex 69.3694999217987 38.7984127253294 24
    endloop
  endfacet
  facet normal 0.015614395878161047 -0.9998780878893987 0
    outer loop
      vertex 89.9997144639492 39.55532991886139 24
      vertex 110.40879754722118 39.87404427677393 -24
      vertex 110.40879754722118 39.87404427677393 24
    endloop
  endfacet
  facet normal -0.12235670880538715 -0.9924861892290057 0
    outer loop
      vertex 204.79470341652632 35.43687732517719 24
      vertex 221.35136231034994 33.395722180604935 -24
      vertex 221.35136231034994 33.395722180604935 24
    endloop
  endfacet
  facet normal -0.04668346954981195 -0.9989097324937783 0
    outer loop
      vertex 169.06316727399826 38.38885086029768 -24
      vertex 169.06316727399826 38.38885086029768 24
      vertex 150.06981816887856 39.276494063436985 24
    endloop
  endfacet
  facet normal -0.06987860947494791 -0.997555502184138 0
    outer loop
      vertex 187.33507283776999 37.108906686306 -24
      vertex 187.33507283776999 37.108906686306 24
      vertex 169.06316727399826 38.38885086029768 24
    endloop
  endfacet
  facet normal 0.058657770056627624 -0.998278150623354 0
    outer loop
      vertex 69.3694999217987 38.7984127253294 -24
      vertex 69.3694999217987 38.7984127253294 24
      vertex 48.644877940416336 37.580655820667744 24
    endloop
  endfacet
  facet normal 0 0 -1
    outer loop
      vertex 187.4589990079403 38.60390141606331 -24
      vertex 204.9579979479313 36.92810192704201 -24
      vertex 204.79470341652632 35.43687732517719 -24
    endloop
  endfacet
  facet normal 0 0 1
    outer loop
      vertex 237.15730026364326 32.499200850725174 24
      vertex 221.55640117824078 34.881800413131714 24
      vertex 221.35136231034994 33.395722180604935 24
    endloop
  endfacet
  facet normal 0 0 1
    outer loop
      vertex 237.15730026364326 32.499200850725174 24
      vertex 221.35136231034994 33.395722180604935 24
      vertex 236.90685784816742 31.0200567394495 24
    endloop
  endfacet
  facet normal 0 0 1
    outer loop
      vertex 264.9334007501602 26.787799298763275 24
      vertex 251.34908208996058 28.333791188895702 24
      vertex 264.56474266946316 25.333324775099754 24
    endloop
  endfacet
  facet normal 0 0 1
    outer loop
      vertex 264.9334007501602 26.787799298763275 24
      vertex 251.65240101516247 29.80310022830963 24
      vertex 251.34908208996058 28.333791188895702 24
    endloop
  endfacet
  facet normal 0 0 -1
    outer loop
      vertex 204.9579979479313 36.92810192704201 -24
      vertex 221.35136231034994 33.395722180604935 -24
      vertex 204.79470341652632 35.43687732517719 -24
    endloop
  endfacet
  facet normal 0 0 -1
    outer loop
      vertex 221.35136231034994 33.395722180604935 -24
      vertex 204.9579979479313 36.92810192704201 -24
      vertex 221.55640117824078 34.881800413131714 -24
    endloop
  endfacet
  facet normal 0 0 1
    outer loop
      vertex 251.65240101516247 29.80310022830963 24
      vertex 237.15730026364326 32.499200850725174 24
      vertex 236.90685784816742 31.0200567394495 24
    endloop
  endfacet
  facet normal 0 0 1
    outer loop
      vertex 204.9579979479313 36.92810192704201 24
      vertex 187.4589990079403 38.60390141606331 24
      vertex 187.33507283776999 37.108906686306 24
    endloop
  endfacet
  facet normal 0 0 1
    outer loop
      vertex 204.9579979479313 36.92810192704201 24
      vertex 187.33507283776999 37.108906686306 24
      vertex 204.79470341652632 35.43687732517719 24
    endloop
  endfacet
  facet normal 0 0 1
    outer loop
      vertex 187.4589990079403 38.60390141606331 24
      vertex 169.15060080587864 39.886401891708374 24
      vertex 169.06316727399826 38.38885086029768 24
    endloop
  endfacet
  facet normal 0 0 -1
    outer loop
      vertex 150.12399978935719 40.77559910714626 -24
      vertex 169.15060080587864 39.886401891708374 -24
      vertex 169.06316727399826 38.38885086029768 -24
    endloop
  endfacet
  facet normal 0 0 1
    outer loop
      vertex 221.55640117824078 34.881800413131714 24
      vertex 204.79470341652632 35.43687732517719 24
      vertex 221.35136231034994 33.395722180604935 24
    endloop
  endfacet
  facet normal 0 0 -1
    outer loop
      vertex 236.90685784816742 31.0200567394495 -24
      vertex 221.35136231034994 33.395722180604935 -24
      vertex 221.55640117824078 34.881800413131714 -24
    endloop
  endfacet
  facet normal 0 0 1
    outer loop
      vertex 169.15060080587864 39.886401891708374 24
      vertex 150.06981816887856 39.276494063436985 24
      vertex 169.06316727399826 38.38885086029768 24
    endloop
  endfacet
  facet normal 0 0 1
    outer loop
      vertex 169.15060080587864 39.886401891708374 24
      vertex 150.12399978935719 40.77559910714626 24
      vertex 150.06981816887856 39.276494063436985 24
    endloop
  endfacet
  facet normal 0 0 1
    outer loop
      vertex 187.4589990079403 38.60390141606331 24
      vertex 169.06316727399826 38.38885086029768 24
      vertex 187.33507283776999 37.108906686306 24
    endloop
  endfacet
  facet normal 0 0 -1
    outer loop
      vertex 169.15060080587864 39.886401891708374 -24
      vertex 187.33507283776999 37.108906686306 -24
      vertex 169.06316727399826 38.38885086029768 -24
    endloop
  endfacet
  facet normal 0 0 -1
    outer loop
      vertex 169.15060080587864 39.886401891708374 -24
      vertex 187.4589990079403 38.60390141606331 -24
      vertex 187.33507283776999 37.108906686306 -24
    endloop
  endfacet
  facet normal 0 0 -1
    outer loop
      vertex 150.12399978935719 40.77559910714626 -24
      vertex 169.06316727399826 38.38885086029768 -24
      vertex 150.06981816887856 39.276494063436985 -24
    endloop
  endfacet
  facet normal 0 0 -1
    outer loop
      vertex 236.90685784816742 31.0200567394495 -24
      vertex 221.55640117824078 34.881800413131714 -24
      vertex 237.15730026364326 32.499200850725174 -24
    endloop
  endfacet
  facet normal 0 0 1
    outer loop
      vertex 221.55640117824078 34.881800413131714 24
      vertex 204.9579979479313 36.92810192704201 24
      vertex 204.79470341652632 35.43687732517719 24
    endloop
  endfacet
  facet normal 0 0 -1
    outer loop
      vertex 187.4589990079403 38.60390141606331 -24
      vertex 204.79470341652632 35.43687732517719 -24
      vertex 187.33507283776999 37.108906686306 -24
    endloop
  endfacet
  facet normal 0 0 -1
    outer loop
      vertex 89.9605005979538 41.05490043759346 -24
      vertex 110.40070176124573 41.374100744724274 -24
      vertex 110.40879754722118 39.87404427677393 -24
    endloop
  endfacet
  facet normal 0 0 1
    outer loop
      vertex 69.29799906909466 40.29679864645004 24
      vertex 48.644877940416336 37.580655820667744 24
      vertex 69.3694999217987 38.7984127253294 24
    endloop
  endfacet
  facet normal 0 0 1
    outer loop
      vertex 69.29799906909466 40.29679864645004 24
      vertex 48.53860184550285 39.07699838280678 24
      vertex 48.644877940416336 37.580655820667744 24
    endloop
  endfacet
  facet normal 0 0 1
    outer loop
      vertex 48.53860184550285 39.07699838280678 24
      vertex 27.954609282314777 35.85694395005703 24
      vertex 48.644877940416336 37.580655820667744 24
    endloop
  endfacet
  facet normal 0 0 1
    outer loop
      vertex 48.53860184550285 39.07699838280678 24
      vertex 27.807700857520103 37.34990142285824 24
      vertex 27.954609282314777 35.85694395005703 24
    endloop
  endfacet
  facet normal 0 0 1
    outer loop
      vertex 27.807700857520103 37.34990142285824 24
      vertex 24.029104989138787 36.920895010861216 24
      vertex 25.38481953024028 35.565180469759724 24
    endloop
  endfacet
  facet normal 0 0 1
    outer loop
      vertex 27.807700857520103 37.34990142285824 24
      vertex 25.38481953024028 35.565180469759724 24
      vertex 27.954609282314777 35.85694395005703 24
    endloop
  endfacet
  facet normal -0.7071067811865476 -0.7071067811865476 0
    outer loop
      vertex 25.38481953024028 35.565180469759724 -24
      vertex 25.38481953024028 35.565180469759724 24
      vertex 24.029104989138787 36.920895010861216 24
    endloop
  endfacet
  facet normal 0 0 -1
    outer loop
      vertex 130.49890138208866 41.27720080316067 -24
      vertex 150.12399978935719 40.77559910714626 -24
      vertex 150.06981816887856 39.276494063436985 -24
    endloop
  endfacet
  facet normal 0 0 -1
    outer loop
      vertex 130.49890138208866 41.27720080316067 -24
      vertex 150.06981816887856 39.276494063436985 -24
      vertex 130.47611968964338 39.77729320526123 -24
    endloop
  endfacet
  facet normal 0 0 -1
    outer loop
      vertex 110.40070176124573 41.374100744724274 -24
      vertex 130.49890138208866 41.27720080316067 -24
      vertex 130.47611968964338 39.77729320526123 -24
    endloop
  endfacet
  facet normal 0 0 -1
    outer loop
      vertex 110.40070176124573 41.374100744724274 -24
      vertex 130.47611968964338 39.77729320526123 -24
      vertex 110.40879754722118 39.87404427677393 -24
    endloop
  endfacet
  facet normal 0 0 1
    outer loop
      vertex 89.9605005979538 41.05490043759346 24
      vertex 69.29799906909466 40.29679864645004 24
      vertex 69.3694999217987 38.7984127253294 24
    endloop
  endfacet
  facet normal 0 0 -1
    outer loop
      vertex 89.9605005979538 41.05490043759346 -24
      vertex 110.40879754722118 39.87404427677393 -24
      vertex 89.9997144639492 39.55532991886139 -24
    endloop
  endfacet
  facet normal -0.7071067811865476 -0.7071067811865476 0
    outer loop
      vertex 24.029104989138787 36.920895010861216 -24
      vertex 25.38481953024028 35.565180469759724 -24
      vertex 24.029104989138787 36.920895010861216 24
    endloop
  endfacet
  facet normal 0 0 -1
    outer loop
      vertex 69.29799906909466 40.29679864645004 -24
      vertex 89.9605005979538 41.05490043759346 -24
      vertex 89.9997144639492 39.55532991886139 -24
    endloop
  endfacet
  facet normal 0 0 -1
    outer loop
      vertex 69.29799906909466 40.29679864645004 -24
      vertex 89.9997144639492 39.55532991886139 -24
      vertex 69.3694999217987 38.7984127253294 -24
    endloop
  endfacet
  facet normal 0 0 -1
    outer loop
      vertex 48.53860184550285 39.07699838280678 -24
      vertex 69.29799906909466 40.29679864645004 -24
      vertex 69.3694999217987 38.7984127253294 -24
    endloop
  endfacet
  facet normal 0 0 -1
    outer loop
      vertex 48.53860184550285 39.07699838280678 -24
      vertex 69.3694999217987 38.7984127253294 -24
      vertex 48.644877940416336 37.580655820667744 -24
    endloop
  endfacet
  facet normal 0 0 -1
    outer loop
      vertex 27.807700857520103 37.34990142285824 -24
      vertex 48.53860184550285 39.07699838280678 -24
      vertex 48.644877940416336 37.580655820667744 -24
    endloop
  endfacet
  facet normal 0 0 -1
    outer loop
      vertex 27.807700857520103 37.34990142285824 -24
      vertex 48.644877940416336 37.580655820667744 -24
      vertex 27.954609282314777 35.85694395005703 -24
    endloop
  endfacet
  facet normal 0 0 -1
    outer loop
      vertex 24.029104989138787 36.920895010861216 -24
      vertex 27.807700857520103 37.34990142285824 -24
      vertex 25.38481953024028 35.565180469759724 -24
    endloop
  endfacet
  facet normal 0 0 -1
    outer loop
      vertex 27.807700857520103 37.34990142285824 -24
      vertex 27.954609282314777 35.85694395005703 -24
      vertex 25.38481953024028 35.565180469759724 -24
    endloop
  endfacet
  facet normal 0 0 -1
    outer loop
      vertex 276.5089546665549 21.98622614145279 -24
      vertex 264.56474266946316 25.333324775099754 -24
      vertex 264.9334007501602 26.787799298763275 -24
    endloop
  endfacet
  facet normal 0 0 1
    outer loop
      vertex 276.9547012448311 23.4190983325243 24
      vertex 264.9334007501602 26.787799298763275 24
      vertex 264.56474266946316 25.333324775099754 24
    endloop
  endfacet
  facet normal 0 0 1
    outer loop
      vertex 276.5089546665549 21.98622614145279 24
      vertex 276.9547012448311 23.4190983325243 24
      vertex 264.56474266946316 25.333324775099754 24
    endloop
  endfacet
  facet normal 0 0 1
    outer loop
      vertex 276.5089546665549 21.98622614145279 24
      vertex 281.0622766548819 22.01227665488188 24
      vertex 276.9547012448311 23.4190983325243 24
    endloop
  endfacet
  facet normal 0 0 1
    outer loop
      vertex 281.0622766548819 22.01227665488188 24
      vertex 276.5089546665549 21.98622614145279 24
      vertex 279.88123792609343 20.831237926093447 24
    endloop
  endfacet
  facet normal 0.7071067811865421 -0.7071067811865528 0
    outer loop
      vertex 279.88123792609343 20.831237926093447 24
      vertex 281.0622766548819 22.01227665488188 -24
      vertex 281.0622766548819 22.01227665488188 24
    endloop
  endfacet
  facet normal 0 0 -1
    outer loop
      vertex 264.56474266946316 25.333324775099754 -24
      vertex 251.65240101516247 29.80310022830963 -24
      vertex 264.9334007501602 26.787799298763275 -24
    endloop
  endfacet
  facet normal 0 0 -1
    outer loop
      vertex 264.56474266946316 25.333324775099754 -24
      vertex 251.34908208996058 28.333791188895702 -24
      vertex 251.65240101516247 29.80310022830963 -24
    endloop
  endfacet
  facet normal 0 0 -1
    outer loop
      vertex 251.34908208996058 28.333791188895702 -24
      vertex 236.90685784816742 31.0200567394495 -24
      vertex 237.15730026364326 32.499200850725174 -24
    endloop
  endfacet
  facet normal 0 0 -1
    outer loop
      vertex 251.34908208996058 28.333791188895702 -24
      vertex 237.15730026364326 32.499200850725174 -24
      vertex 251.65240101516247 29.80310022830963 -24
    endloop
  endfacet
  facet normal 0.7071067811865421 -0.7071067811865528 0
    outer loop
      vertex 281.0622766548819 22.01227665488188 -24
      vertex 279.88123792609343 20.831237926093447 24
      vertex 279.88123792609343 20.831237926093447 -24
    endloop
  endfacet
  facet normal 0 0 1
    outer loop
      vertex 251.65240101516247 29.80310022830963 24
      vertex 236.90685784816742 31.0200567394495 24
      vertex 251.34908208996058 28.333791188895702 24
    endloop
  endfacet
  facet normal 0 0 -1
    outer loop
      vertex 276.5089546665549 21.98622614145279 -24
      vertex 264.9334007501602 26.787799298763275 -24
      vertex 276.9547012448311 23.4190983325243 -24
    endloop
  endfacet
  facet normal 0 0 -1
    outer loop
      vertex 279.88123792609343 20.831237926093447 -24
      vertex 276.9547012448311 23.4190983325243 -24
      vertex 281.0622766548819 22.01227665488188 -24
    endloop
  endfacet
  facet normal 0 0 -1
    outer loop
      vertex 279.88123792609343 20.831237926093447 -24
      vertex 276.5089546665549 21.98622614145279 -24
      vertex 276.9547012448311 23.4190983325243 -24
    endloop
  endfacet
  facet normal 0 0 1
    outer loop
      vertex 150.12399978935719 40.77559910714626 24
      vertex 130.49890138208866 41.27720080316067 24
      vertex 130.47611968964338 39.77729320526123 24
    endloop
  endfacet
  facet normal 0 0 1
    outer loop
      vertex 150.12399978935719 40.77559910714626 24
      vertex 130.47611968964338 39.77729320526123 24
      vertex 150.06981816887856 39.276494063436985 24
    endloop
  endfacet
  facet normal 0 0 1
    outer loop
      vertex 130.49890138208866 41.27720080316067 24
      vertex 110.40879754722118 39.87404427677393 24
      vertex 130.47611968964338 39.77729320526123 24
    endloop
  endfacet
  facet normal 0 0 1
    outer loop
      vertex 130.49890138208866 41.27720080316067 24
      vertex 110.40070176124573 41.374100744724274 24
      vertex 110.40879754722118 39.87404427677393 24
    endloop
  endfacet
  facet normal 0 0 1
    outer loop
      vertex 110.40070176124573 41.374100744724274 24
      vertex 89.9997144639492 39.55532991886139 24
      vertex 110.40879754722118 39.87404427677393 24
    endloop
  endfacet
  facet normal 0 0 1
    outer loop
      vertex 110.40070176124573 41.374100744724274 24
      vertex 89.9605005979538 41.05490043759346 24
      vertex 89.9997144639492 39.55532991886139 24
    endloop
  endfacet
  facet normal 0 0 1
    outer loop
      vertex 89.9605005979538 41.05490043759346 24
      vertex 69.3694999217987 38.7984127253294 24
      vertex 89.9997144639492 39.55532991886139 24
    endloop
  endfacet
endsolid OpenSCAD_Model
