solid OpenSCAD_Model
  facet normal 0.07624939829157955 0.9970887770204678 3.680858013951667e-16
    outer loop
      vertex 168.69501873407364 34.05796727494732 -23.98808598536881
      vertex 168.0119140146312 34.1102056764097 -23.30498126592636
      vertex 166 34.26406081605777 18
    endloop
  endfacet
  facet normal 0.07624939829156588 0.9970887770204689 -7.602506708338545e-16
    outer loop
      vertex 171.16316090365973 33.869223444241136 -25.48012994148332
      vertex 170.28221462364985 33.93659119055022 -25.08364820522568
      vertex 166 34.26406081605777 18
    endloop
  endfacet
  facet normal 0.07624939829156477 0.9970887770204688 -5.849852511898532e-16
    outer loop
      vertex 169.45548202615075 33.99981310675282 -24.583870927149253
      vertex 168.69501873407364 34.05796727494732 -23.98808598536881
      vertex 166 34.26406081605777 18
    endloop
  endfacet
  facet normal 0.07624939829158016 0.9970887770204677 6.695809010850456e-16
    outer loop
      vertex 169.45548202615075 33.99981310675282 -24.583870927149253
      vertex 166 34.26406081605777 18
      vertex 170.28221462364985 33.93659119055022 -25.08364820522568
    endloop
  endfacet
  facet normal 0.07624939829157608 0.9970887770204679 4.629373595476296e-16
    outer loop
      vertex 171.16316090365973 33.869223444241136 -25.48012994148332
      vertex 166 34.26406081605777 18
      vertex 172.08547468569952 33.7986922412657 -25.767534539408416
    endloop
  endfacet
  facet normal 0.07624939829157422 0.9970887770204682 2.0075161317994324e-16
    outer loop
      vertex 172.08547468569952 33.7986922412657 -25.767534539408416
      vertex 166 34.26406081605777 18
      vertex 173.0357065579574 33.726026085385726 -25.94167099278443
    endloop
  endfacet
  facet normal 0.07624939829157133 0.9970887770204683 -2.638061930569404e-16
    outer loop
      vertex 174 33.65228461278389 -26
      vertex 173.0357065579574 33.726026085385726 -25.94167099278443
      vertex 166 34.26406081605777 18
    endloop
  endfacet
  facet normal 0.0762493982915679 0.9970887770204687 -2.026542343657374e-16
    outer loop
      vertex 168.0119140146312 34.1102056764097 -23.30498126592636
      vertex 167.41612907285077 34.15576655761597 -22.544517973849246
      vertex 166 34.26406081605777 18
    endloop
  endfacet
  facet normal 0.07624939829158109 0.9970887770204677 2.6054987952271754e-16
    outer loop
      vertex 167.41612907285077 34.15576655761597 -22.544517973849246
      vertex 166.91635179477433 34.19398553832399 -21.71778537635015
      vertex 166 34.26406081605777 18
    endloop
  endfacet
  facet normal 0.07624939829156079 0.9970887770204692 -2.1070817800895566e-16
    outer loop
      vertex 166.91635179477433 34.19398553832399 -21.71778537635015
      vertex 166.5198700585167 34.22430529973338 -20.836839096340285
      vertex 166 34.26406081605777 18
    endloop
  endfacet
  facet normal 0.07624939829157372 0.9970887770204683 -3.6593468247479116e-17
    outer loop
      vertex 166.5198700585167 34.22430529973338 -20.836839096340285
      vertex 166.23246546059158 34.24628371144864 -19.914525314300462
      vertex 166 34.26406081605777 18
    endloop
  endfacet
  facet normal 0.07624939829159455 0.9970887770204665 9.195336782009696e-17
    outer loop
      vertex 166.23246546059158 34.24628371144864 -19.914525314300462
      vertex 166.05832900721558 34.25960027873589 -18.964293442042585
      vertex 166 34.26406081605777 18
    endloop
  endfacet
  facet normal 0.07624939829153664 0.9970887770204712 0
    outer loop
      vertex 166.05832900721558 34.25960027873589 -18.964293442042585
      vertex 166 34.26406081605777 -18
      vertex 166 34.26406081605777 18
    endloop
  endfacet
  facet normal 0.07624939829157282 0.9970887770204683 0
    outer loop
      vertex 174 33.65228461278389 -26
      vertex 185.4694989626556 32.77518879668049 26
      vertex 185.4694989626556 32.77518879668049 -26
    endloop
  endfacet
  facet normal 0.10810967557324895 0.9941389732061845 0
    outer loop
      vertex 185.4694989626556 32.77518879668049 -26
      vertex 210.90610373443982 30.00903319502075 26
      vertex 210.90610373443982 30.00903319502075 -26
    endloop
  endfacet
  facet normal 0.07624939829156371 0.997088777020469 -1.6366647450105528e-15
    outer loop
      vertex 174 33.65228461278389 -26
      vertex 166 34.26406081605777 18
      vertex 166.05832900721558 34.25960027873589 18.964293442042585
    endloop
  endfacet
  facet normal 0.07624939829158392 0.9970887770204674 1.9006173382414766e-15
    outer loop
      vertex 174 33.65228461278389 -26
      vertex 166.05832900721558 34.25960027873589 18.964293442042585
      vertex 166.23246546059158 34.24628371144864 19.914525314300462
    endloop
  endfacet
  facet normal 0.07624939829157346 0.9970887770204683 1.3048912817657164e-16
    outer loop
      vertex 174 33.65228461278389 -26
      vertex 166.23246546059158 34.24628371144864 19.914525314300462
      vertex 166.5198700585167 34.22430529973338 20.836839096340285
    endloop
  endfacet
  facet normal 0.07624939829156424 0.9970887770204689 -1.3375649413132415e-15
    outer loop
      vertex 174 33.65228461278389 -26
      vertex 166.5198700585167 34.22430529973338 20.836839096340285
      vertex 166.91635179477433 34.19398553832399 21.71778537635015
    endloop
  endfacet
  facet normal 0.07624939829157906 0.9970887770204678 9.093078475044257e-16
    outer loop
      vertex 174 33.65228461278389 -26
      vertex 166.91635179477433 34.19398553832399 21.71778537635015
      vertex 167.41612907285077 34.15576655761597 22.544517973849246
    endloop
  endfacet
  facet normal 0.0762493982915688 0.9970887770204686 -5.089780678394062e-16
    outer loop
      vertex 174 33.65228461278389 -26
      vertex 167.41612907285077 34.15576655761597 22.544517973849246
      vertex 168.0119140146312 34.1102056764097 23.30498126592636
    endloop
  endfacet
  facet normal 0.07624939829157854 0.9970887770204679 6.682222569871625e-16
    outer loop
      vertex 174 33.65228461278389 -26
      vertex 168.0119140146312 34.1102056764097 23.30498126592636
      vertex 168.69501873407364 34.05796727494732 23.98808598536881
    endloop
  endfacet
  facet normal 0.0762493982915658 0.9970887770204687 -6.882611216493399e-16
    outer loop
      vertex 174 33.65228461278389 -26
      vertex 168.69501873407364 34.05796727494732 23.98808598536881
      vertex 169.45548202615075 33.99981310675282 24.583870927149253
    endloop
  endfacet
  facet normal 0.07624939829157941 0.9970887770204678 5.42315452302678e-16
    outer loop
      vertex 174 33.65228461278389 -26
      vertex 169.45548202615075 33.99981310675282 24.583870927149253
      vertex 170.28221462364985 33.93659119055022 25.08364820522568
    endloop
  endfacet
  facet normal 0.07624939829156632 0.9970887770204686 -4.1206105367686524e-16
    outer loop
      vertex 174 33.65228461278389 -26
      vertex 170.28221462364985 33.93659119055022 25.08364820522568
      vertex 171.16316090365973 33.869223444241136 25.48012994148332
    endloop
  endfacet
  facet normal 0.07624939829157594 0.9970887770204679 1.1804259265152553e-16
    outer loop
      vertex 174 33.65228461278389 -26
      vertex 171.16316090365973 33.869223444241136 25.48012994148332
      vertex 172.08547468569952 33.7986922412657 25.767534539408416
    endloop
  endfacet
  facet normal 0.07624939829157418 0.9970887770204682 5.3086871750557925e-17
    outer loop
      vertex 174 33.65228461278389 -26
      vertex 172.08547468569952 33.7986922412657 25.767534539408416
      vertex 173.0357065579574 33.726026085385726 25.94167099278443
    endloop
  endfacet
  facet normal 0.07624939829157136 0.9970887770204684 0
    outer loop
      vertex 174 33.65228461278389 -26
      vertex 173.0357065579574 33.726026085385726 25.94167099278443
      vertex 174 33.65228461278389 26
    endloop
  endfacet
  facet normal 0.07624939829157282 0.9970887770204683 0
    outer loop
      vertex 174 33.65228461278389 -26
      vertex 174 33.65228461278389 26
      vertex 185.4694989626556 32.77518879668049 26
    endloop
  endfacet
  facet normal 0.10810967557324895 0.9941389732061845 0
    outer loop
      vertex 185.4694989626556 32.77518879668049 -26
      vertex 185.4694989626556 32.77518879668049 26
      vertex 210.90610373443982 30.00903319502075 26
    endloop
  endfacet
  facet normal 0.14416216541344562 0.9895540763714263 0
    outer loop
      vertex 210.90610373443982 30.00903319502075 -26
      vertex 210.90610373443982 30.00903319502075 26
      vertex 234.204617219917 26.6148132780083 26
    endloop
  endfacet
  facet normal 0.2967051791852058 0.9549691286343633 1.932393344632639e-15
    outer loop
      vertex 275.9880859853688 17.425888800113277 -23.30498126592636
      vertex 275.30498126592636 17.638126768972302 -23.98808598536881
      vertex 278 16.800794972137876 -18
    endloop
  endfacet
  facet normal 0.2967051791852146 0.9549691286343605 -1.7230069335171217e-15
    outer loop
      vertex 275.9880859853688 17.425888800113277 -23.30498126592636
      vertex 278 16.800794972137876 -18
      vertex 276.58387092714923 17.240780745196773 -22.544517973849246
    endloop
  endfacet
  facet normal 0.29670517918520206 0.9549691286343645 1.3219818065835879e-15
    outer loop
      vertex 277.4801299414833 16.96231656926615 -20.836839096340285
      vertex 278 16.800794972137876 -18
      vertex 277.7675345394084 16.87302108298382 -19.914525314300462
    endloop
  endfacet
  facet normal 0.29670517918521094 0.9549691286343617 -4.576235347155493e-16
    outer loop
      vertex 276.58387092714923 17.240780745196773 -22.544517973849246
      vertex 278 16.800794972137876 -18
      vertex 277.0836482052257 17.085501896490502 -21.71778537635015
    endloop
  endfacet
  facet normal 0.2967051791852106 0.9549691286343617 -3.9751980172401886e-16
    outer loop
      vertex 277.4801299414833 16.96231656926615 -20.836839096340285
      vertex 277.0836482052257 17.085501896490502 -21.71778537635015
      vertex 278 16.800794972137876 -18
    endloop
  endfacet
  facet normal 0.2967051791852057 0.9549691286343632 2.9798014995655034e-15
    outer loop
      vertex 278 16.800794972137876 -18
      vertex 273.71778537635015 18.131262333984946 -25.08364820522568
      vertex 273.5521784232365 18.182715767634853 -25.158181844559618
    endloop
  endfacet
  facet normal 0.29670517918521133 0.9549691286343615 -7.192701889249839e-16
    outer loop
      vertex 278 16.800794972137876 -18
      vertex 275.30498126592636 17.638126768972302 -23.98808598536881
      vertex 274.5445179738492 17.874399744269613 -24.583870927149253
    endloop
  endfacet
  facet normal 0.2967051791852097 0.954969128634362 2.282436644106497e-16
    outer loop
      vertex 278 16.800794972137876 -18
      vertex 274.5445179738492 17.874399744269613 -24.583870927149253
      vertex 273.71778537635015 18.131262333984946 -25.08364820522568
    endloop
  endfacet
  facet normal 0.2967051791852037 0.9549691286343638 1.1192043435096932e-15
    outer loop
      vertex 277.7675345394084 16.87302108298382 -19.914525314300462
      vertex 278 16.800794972137876 -18
      vertex 277.94167099278445 16.81891756690943 -18.964293442042585
    endloop
  endfacet
  facet normal 0.2967051791852098 0.954969128634362 4.11645489393616e-18
    outer loop
      vertex 278 16.800794972137876 -18
      vertex 273.5521784232365 18.182715767634853 -25.158181844559618
      vertex 275.30498126592636 17.638126768972302 23.98808598536881
    endloop
  endfacet
  facet normal 0.23589268006620628 0.9717791124999458 -4.356996872799239e-18
    outer loop
      vertex 270.96429344204256 18.810907005812922 -25.94167099278443
      vertex 270 19.04498259098218 26
      vertex 271.9145253143005 18.58024476976773 -25.767534539408416
    endloop
  endfacet
  facet normal 0.23589268006620653 0.9717791124999458 0
    outer loop
      vertex 270 19.04498259098218 -26
      vertex 270 19.04498259098218 26
      vertex 270.96429344204256 18.810907005812922 -25.94167099278443
    endloop
  endfacet
  facet normal 0.23589268006620603 0.9717791124999461 0
    outer loop
      vertex 270 19.04498259098218 -26
      vertex 255.137867219917 22.65266286307054 -26
      vertex 270 19.04498259098218 26
    endloop
  endfacet
  facet normal 0.23589268006620756 0.9717791124999456 4.3561201916107904e-17
    outer loop
      vertex 271.9145253143005 18.58024476976773 -25.767534539408416
      vertex 270 19.04498259098218 26
      vertex 272.83683909634027 18.356359457654296 -25.48012994148332
    endloop
  endfacet
  facet normal 0.23589268006620523 0.9717791124999461 0
    outer loop
      vertex 273.5521784232365 18.182715767634853 -25.158181844559618
      vertex 272.83683909634027 18.356359457654296 -25.48012994148332
      vertex 273.5521784232365 18.182715767634853 25.158181844559618
    endloop
  endfacet
  facet normal 0.29670517918521055 0.9549691286343617 -2.7597024126306648e-17
    outer loop
      vertex 273.5521784232365 18.182715767634853 -25.158181844559618
      vertex 274.5445179738492 17.874399744269613 24.583870927149253
      vertex 275.30498126592636 17.638126768972302 23.98808598536881
    endloop
  endfacet
  facet normal 0.29670517918520983 0.954969128634362 -1.0189773216992262e-17
    outer loop
      vertex 273.5521784232365 18.182715767634853 -25.158181844559618
      vertex 273.71778537635015 18.131262333984946 25.08364820522568
      vertex 274.5445179738492 17.874399744269613 24.583870927149253
    endloop
  endfacet
  facet normal 0.2967051791852097 0.954969128634362 0
    outer loop
      vertex 278 16.800794972137876 -18
      vertex 275.30498126592636 17.638126768972302 23.98808598536881
      vertex 278 16.800794972137876 18
    endloop
  endfacet
  facet normal 0.23589268006620756 0.9717791124999455 0
    outer loop
      vertex 272.83683909634027 18.356359457654296 -25.48012994148332
      vertex 271.9145253143005 18.58024476976773 25.767534539408416
      vertex 272.83683909634027 18.356359457654296 25.48012994148332
    endloop
  endfacet
  facet normal 0.2358926800662066 0.9717791124999459 -1.3083689567599493e-17
    outer loop
      vertex 272.83683909634027 18.356359457654296 -25.48012994148332
      vertex 270 19.04498259098218 26
      vertex 270.96429344204256 18.810907005812922 25.94167099278443
    endloop
  endfacet
  facet normal 0.23589268006620628 0.9717791124999459 -2.3339853973473783e-17
    outer loop
      vertex 272.83683909634027 18.356359457654296 -25.48012994148332
      vertex 270.96429344204256 18.810907005812922 25.94167099278443
      vertex 271.9145253143005 18.58024476976773 25.767534539408416
    endloop
  endfacet
  facet normal 0.2358926800662052 0.9717791124999461 0
    outer loop
      vertex 272.83683909634027 18.356359457654296 -25.48012994148332
      vertex 272.83683909634027 18.356359457654296 25.48012994148332
      vertex 273.5521784232365 18.182715767634853 25.158181844559618
    endloop
  endfacet
  facet normal 0.29670517918520695 0.9549691286343628 0
    outer loop
      vertex 273.5521784232365 18.182715767634853 -25.158181844559618
      vertex 273.5521784232365 18.182715767634853 25.158181844559618
      vertex 273.71778537635015 18.131262333984946 25.08364820522568
    endloop
  endfacet
  facet normal 0.2967051791852015 0.9549691286343646 -1.5609955317379305e-15
    outer loop
      vertex 277.94167099278445 16.81891756690943 18.964293442042585
      vertex 277.4801299414833 16.96231656926615 20.836839096340285
      vertex 277.7675345394084 16.87302108298382 19.914525314300462
    endloop
  endfacet
  facet normal 0.29670517918520856 0.9549691286343623 -7.84293250398049e-16
    outer loop
      vertex 278 16.800794972137876 18
      vertex 275.9880859853688 17.425888800113277 23.30498126592636
      vertex 277.94167099278445 16.81891756690943 18.964293442042585
    endloop
  endfacet
  facet normal 0.296705179185213 0.9549691286343609 1.5784857392046842e-15
    outer loop
      vertex 277.94167099278445 16.81891756690943 18.964293442042585
      vertex 277.0836482052257 17.085501896490502 21.71778537635015
      vertex 277.4801299414833 16.96231656926615 20.836839096340285
    endloop
  endfacet
  facet normal 0.29670517918521216 0.9549691286343611 1.272063365516503e-15
    outer loop
      vertex 277.94167099278445 16.81891756690943 18.964293442042585
      vertex 276.58387092714923 17.240780745196773 22.544517973849246
      vertex 277.0836482052257 17.085501896490502 21.71778537635015
    endloop
  endfacet
  facet normal 0.296705179185206 0.9549691286343631 -1.8852617996415995e-15
    outer loop
      vertex 278 16.800794972137876 18
      vertex 275.30498126592636 17.638126768972302 23.98808598536881
      vertex 275.9880859853688 17.425888800113277 23.30498126592636
    endloop
  endfacet
  facet normal 0.29670517918521594 0.9549691286343601 2.7939121066849273e-15
    outer loop
      vertex 277.94167099278445 16.81891756690943 18.964293442042585
      vertex 275.9880859853688 17.425888800113277 23.30498126592636
      vertex 276.58387092714923 17.240780745196773 22.544517973849246
    endloop
  endfacet
  facet normal 0.14416216541344562 0.9895540763714263 0
    outer loop
      vertex 210.90610373443982 30.00903319502075 -26
      vertex 234.204617219917 26.6148132780083 26
      vertex 234.204617219917 26.6148132780083 -26
    endloop
  endfacet
  facet normal 0.18597349921463865 0.9825547606061775 0
    outer loop
      vertex 255.137867219917 22.65266286307054 -26
      vertex 234.204617219917 26.6148132780083 -26
      vertex 255.137867219917 22.65266286307054 26
    endloop
  endfacet
  facet normal 0.18597349921463865 0.9825547606061775 0
    outer loop
      vertex 255.137867219917 22.65266286307054 26
      vertex 234.204617219917 26.6148132780083 -26
      vertex 234.204617219917 26.6148132780083 26
    endloop
  endfacet
  facet normal 0.23589268006620603 0.9717791124999461 0
    outer loop
      vertex 255.137867219917 22.65266286307054 -26
      vertex 255.137867219917 22.65266286307054 26
      vertex 270 19.04498259098218 26
    endloop
  endfacet
  facet normal -0.07624939829157507 -0.997088777020468 -1.973943638176746e-15
    outer loop
      vertex 171.16316090365973 32.364843859825044 -25.48012994148332
      vertex 166 32.75968123164168 -18
      vertex 170.28221462364985 32.43221160613413 -25.08364820522568
    endloop
  endfacet
  facet normal -0.07624939829156577 -0.9970887770204688 5.5338549025056854e-15
    outer loop
      vertex 172.08547468569952 32.294312656849606 -25.767534539408416
      vertex 173.0357065579574 32.22164650096964 -25.94167099278443
      vertex 166 32.75968123164168 -18
    endloop
  endfacet
  facet normal -0.07624939829157698 -0.9970887770204679 -3.3014843350095122e-15
    outer loop
      vertex 171.16316090365973 32.364843859825044 -25.48012994148332
      vertex 172.08547468569952 32.294312656849606 -25.767534539408416
      vertex 166 32.75968123164168 -18
    endloop
  endfacet
  facet normal -0.07624939829157905 -0.9970887770204678 -6.292745065629812e-15
    outer loop
      vertex 174 32.147905028367795 -26
      vertex 166 32.75968123164168 -18
      vertex 173.0357065579574 32.22164650096964 -25.94167099278443
    endloop
  endfacet
  facet normal -0.0762493982915669 -0.9970887770204686 1.943807563230326e-15
    outer loop
      vertex 168.69501873407364 32.55358769053124 -23.98808598536881
      vertex 166 32.75968123164168 -18
      vertex 168.0119140146312 32.605826091993606 -23.30498126592636
    endloop
  endfacet
  facet normal -0.0762493982915709 -0.9970887770204684 5.585402974017105e-16
    outer loop
      vertex 169.45548202615075 32.495433522336725 -24.583870927149253
      vertex 170.28221462364985 32.43221160613413 -25.08364820522568
      vertex 166 32.75968123164168 -18
    endloop
  endfacet
  facet normal -0.07624939829157629 -0.9970887770204679 -2.2905321702354598e-15
    outer loop
      vertex 169.45548202615075 32.495433522336725 -24.583870927149253
      vertex 166 32.75968123164168 -18
      vertex 168.69501873407364 32.55358769053124 -23.98808598536881
    endloop
  endfacet
  facet normal -0.0762493982915645 -0.9970887770204688 2.868219341373859e-15
    outer loop
      vertex 168.0119140146312 32.605826091993606 -23.30498126592636
      vertex 166 32.75968123164168 -18
      vertex 167.41612907285077 32.65138697319988 -22.544517973849246
    endloop
  endfacet
  facet normal -0.07624939829158807 -0.9970887770204673 -4.520309225317339e-15
    outer loop
      vertex 167.41612907285077 32.65138697319988 -22.544517973849246
      vertex 166 32.75968123164168 -18
      vertex 166.91635179477433 32.6896059539079 -21.71778537635015
    endloop
  endfacet
  facet normal -0.07624939829155082 -0.99708877702047 4.721224673165075e-15
    outer loop
      vertex 166.91635179477433 32.6896059539079 -21.71778537635015
      vertex 166 32.75968123164168 -18
      vertex 166.5198700585167 32.71992571531729 -20.836839096340285
    endloop
  endfacet
  facet normal -0.07624939829157013 -0.9970887770204685 1.1639749102236184e-15
    outer loop
      vertex 166.5198700585167 32.71992571531729 -20.836839096340285
      vertex 166 32.75968123164168 -18
      vertex 166.23246546059158 32.74190412703255 -19.914525314300462
    endloop
  endfacet
  facet normal -0.0762493982915724 -0.9970887770204683 3.8100702193818933e-16
    outer loop
      vertex 174 32.147905028367795 -26
      vertex 185.33119425890763 31.281385653083632 -26
      vertex 166 32.75968123164168 -18
    endloop
  endfacet
  facet normal -0.07624939829162236 -0.9970887770204645 -5.216271005894027e-15
    outer loop
      vertex 166.23246546059158 32.74190412703255 -19.914525314300462
      vertex 166 32.75968123164168 -18
      vertex 166.05832900721558 32.755220694319796 -18.964293442042585
    endloop
  endfacet
  facet normal -0.07624939829157253 -0.9970887770204683 5.701146538886411e-17
    outer loop
      vertex 166 32.75968123164168 -18
      vertex 185.33119425890763 31.281385653083632 -26
      vertex 166.05832900721558 32.755220694319796 18.964293442042585
    endloop
  endfacet
  facet normal -0.10810967557324902 -0.9941389732061845 0
    outer loop
      vertex 185.33119425890763 31.281385653083632 -26
      vertex 210.71683735778583 28.52077198275646 -26
      vertex 185.33119425890763 31.281385653083632 26
    endloop
  endfacet
  facet normal -0.1441621654134457 -0.9895540763714262 0
    outer loop
      vertex 210.71683735778583 28.52077198275646 -26
      vertex 233.95690417533405 25.13506680830435 -26
      vertex 210.71683735778583 28.52077198275646 26
    endloop
  endfacet
  facet normal -0.07624939829157935 -0.9970887770204678 -2.7099321582906534e-15
    outer loop
      vertex 185.33119425890763 31.281385653083632 -26
      vertex 166.23246546059158 32.74190412703255 19.914525314300462
      vertex 166.05832900721558 32.755220694319796 18.964293442042585
    endloop
  endfacet
  facet normal -0.07624939829156645 -0.9970887770204686 2.4192586154595127e-15
    outer loop
      vertex 185.33119425890763 31.281385653083632 -26
      vertex 166.91635179477433 32.6896059539079 21.71778537635015
      vertex 166.5198700585167 32.71992571531729 20.836839096340285
    endloop
  endfacet
  facet normal -0.07624939829157294 -0.9970887770204683 -2.299414685786798e-16
    outer loop
      vertex 185.33119425890763 31.281385653083632 -26
      vertex 166.5198700585167 32.71992571531729 20.836839096340285
      vertex 166.23246546059158 32.74190412703255 19.914525314300462
    endloop
  endfacet
  facet normal -0.07624939829153662 -0.9970887770204712 0
    outer loop
      vertex 166 32.75968123164168 -18
      vertex 166.05832900721558 32.755220694319796 18.964293442042585
      vertex 166 32.75968123164168 18
    endloop
  endfacet
  facet normal -0.07624939829157773 -0.9970887770204679 -1.9038953402938752e-15
    outer loop
      vertex 185.33119425890763 31.281385653083632 -26
      vertex 167.41612907285077 32.65138697319988 22.544517973849246
      vertex 166.91635179477433 32.6896059539079 21.71778537635015
    endloop
  endfacet
  facet normal -0.07624939829156939 -0.9970887770204686 1.0823812558831844e-15
    outer loop
      vertex 185.33119425890763 31.281385653083632 -26
      vertex 168.0119140146312 32.605826091993606 23.30498126592636
      vertex 167.41612907285077 32.65138697319988 22.544517973849246
    endloop
  endfacet
  facet normal -0.07624939829156988 -0.9970887770204685 9.340187362288851e-16
    outer loop
      vertex 185.33119425890763 31.281385653083632 -26
      vertex 168.69501873407364 32.55358769053124 23.98808598536881
      vertex 168.0119140146312 32.605826091993606 23.30498126592636
    endloop
  endfacet
  facet normal -0.07624939829157398 -0.997088777020468 -4.434829591433111e-16
    outer loop
      vertex 185.33119425890763 31.281385653083632 -26
      vertex 169.45548202615075 32.495433522336725 24.583870927149253
      vertex 168.69501873407364 32.55358769053124 23.98808598536881
    endloop
  endfacet
  facet normal -0.07624939829157132 -0.9970887770204684 4.271892289247425e-16
    outer loop
      vertex 185.33119425890763 31.281385653083632 -26
      vertex 170.28221462364985 32.43221160613413 25.08364820522568
      vertex 169.45548202615075 32.495433522336725 24.583870927149253
    endloop
  endfacet
  facet normal -0.07624939829157407 -0.9970887770204682 -3.475052536944027e-16
    outer loop
      vertex 185.33119425890763 31.281385653083632 -26
      vertex 171.16316090365973 32.364843859825044 25.48012994148332
      vertex 170.28221462364985 32.43221160613413 25.08364820522568
    endloop
  endfacet
  facet normal -0.07624939829157575 -0.9970887770204679 -8.245615842125944e-16
    outer loop
      vertex 185.33119425890763 31.281385653083632 -26
      vertex 172.08547468569952 32.294312656849606 25.767534539408416
      vertex 171.16316090365973 32.364843859825044 25.48012994148332
    endloop
  endfacet
  facet normal -0.07624939829156706 -0.9970887770204686 1.4101323071394824e-15
    outer loop
      vertex 185.33119425890763 31.281385653083632 -26
      vertex 173.0357065579574 32.22164650096964 25.94167099278443
      vertex 172.08547468569952 32.294312656849606 25.767534539408416
    endloop
  endfacet
  facet normal -0.0762493982915786 -0.9970887770204679 -1.3596560581016932e-15
    outer loop
      vertex 185.33119425890763 31.281385653083632 -26
      vertex 174 32.147905028367795 26
      vertex 173.0357065579574 32.22164650096964 25.94167099278443
    endloop
  endfacet
  facet normal -0.0762493982915724 -0.9970887770204684 0
    outer loop
      vertex 185.33119425890763 31.281385653083632 -26
      vertex 185.33119425890763 31.281385653083632 26
      vertex 174 32.147905028367795 26
    endloop
  endfacet
  facet normal -0.10810967557324902 -0.9941389732061845 0
    outer loop
      vertex 210.71683735778583 28.52077198275646 -26
      vertex 210.71683735778583 28.52077198275646 26
      vertex 185.33119425890763 31.281385653083632 26
    endloop
  endfacet
  facet normal -0.23589268006620565 -0.971779112499946 2.173991943083064e-16
    outer loop
      vertex 272.83683909634027 16.812798806158938 -25.48012994148332
      vertex 272.32036896115045 16.93816837090567 -10
      vertex 268.40921341215716 17.887574416724433 -10
    endloop
  endfacet
  facet normal -0.23589268006620587 -0.9717791124999459 0
    outer loop
      vertex 270 17.501421939486818 -26
      vertex 254.82126115519873 21.185956151087705 26
      vertex 254.82126115519873 21.185956151087705 -26
    endloop
  endfacet
  facet normal -0.29670517918520634 -0.954969128634363 -2.8319618704781866e-16
    outer loop
      vertex 274.5445179738492 16.303668340475387 -24.583870927149253
      vertex 275.30498126592636 16.06739536517808 -23.98808598536881
      vertex 278 15.23006356834365 18
    endloop
  endfacet
  facet normal -0.2967051791852098 -0.9549691286343619 3.166894051573327e-17
    outer loop
      vertex 274.5445179738492 16.303668340475387 -24.583870927149253
      vertex 278 15.23006356834365 18
      vertex 273.71778537635015 16.56053093019072 -25.08364820522568
    endloop
  endfacet
  facet normal -0.29670517918521255 -0.9549691286343612 3.1890675378073957e-16
    outer loop
      vertex 273.71778537635015 16.56053093019072 -25.08364820522568
      vertex 278 15.23006356834365 18
      vertex 273.15233210818207 16.736215052558734 -25.33813806303327
    endloop
  endfacet
  facet normal -0.2967051791852123 -0.9549691286343612 1.3429976781631666e-16
    outer loop
      vertex 275.30498126592636 16.06739536517808 -23.98808598536881
      vertex 275.9880859853688 15.85515739631905 -23.30498126592636
      vertex 278 15.23006356834365 18
    endloop
  endfacet
  facet normal -0.29670517918521006 -0.9549691286343619 1.837572424311399e-17
    outer loop
      vertex 275.9880859853688 15.85515739631905 -23.30498126592636
      vertex 276.58387092714923 15.670049341402548 -22.544517973849246
      vertex 278 15.23006356834365 18
    endloop
  endfacet
  facet normal -0.296705179185207 -0.9549691286343629 -9.856797416012399e-17
    outer loop
      vertex 277.0836482052257 15.514770492696279 -21.71778537635015
      vertex 278 15.23006356834365 18
      vertex 276.58387092714923 15.670049341402548 -22.544517973849246
    endloop
  endfacet
  facet normal -0.29670517918520983 -0.954969128634362 -2.749901823370948e-17
    outer loop
      vertex 277.0836482052257 15.514770492696279 -21.71778537635015
      vertex 277.4801299414833 15.391585165471927 -20.836839096340285
      vertex 278 15.23006356834365 18
    endloop
  endfacet
  facet normal -0.2967051791852091 -0.9549691286343621 -1.972953639646839e-17
    outer loop
      vertex 277.7675345394084 15.302289679189593 -19.914525314300462
      vertex 277.94167099278445 15.248186163115205 -18.964293442042585
      vertex 278 15.23006356834365 18
    endloop
  endfacet
  facet normal -0.2967051791852114 -0.9549691286343615 -4.342188466491659e-18
    outer loop
      vertex 277.4801299414833 15.391585165471927 -20.836839096340285
      vertex 277.7675345394084 15.302289679189593 -19.914525314300462
      vertex 278 15.23006356834365 18
    endloop
  endfacet
  facet normal -0.23589268006621175 -0.9717791124999446 0
    outer loop
      vertex 272.83683909634027 16.812798806158938 -25.48012994148332
      vertex 272.32036896115045 16.93816837090567 10
      vertex 272.32036896115045 16.93816837090567 -10
    endloop
  endfacet
  facet normal -0.235892680066207 -0.9717791124999456 0
    outer loop
      vertex 273.15233210818207 16.736215052558734 -25.33813806303327
      vertex 272.83683909634027 16.812798806158938 25.48012994148332
      vertex 272.83683909634027 16.812798806158938 -25.48012994148332
    endloop
  endfacet
  facet normal -0.29670517918522055 -0.9549691286343588 0
    outer loop
      vertex 277.94167099278445 15.248186163115205 -18.964293442042585
      vertex 278 15.23006356834365 -18
      vertex 278 15.23006356834365 18
    endloop
  endfacet
  facet normal -0.2358926800662065 -0.9717791124999458 -2.029715655101412e-16
    outer loop
      vertex 270.96429344204256 17.26734635431756 -25.94167099278443
      vertex 254.82126115519873 21.185956151087705 26
      vertex 270 17.501421939486818 -26
    endloop
  endfacet
  facet normal -0.23589268006620623 -0.9717791124999459 -1.1581476940627368e-16
    outer loop
      vertex 270.96429344204256 17.26734635431756 -25.94167099278443
      vertex 271.9145253143005 17.03668411827237 -25.767534539408416
      vertex 254.82126115519873 21.185956151087705 26
    endloop
  endfacet
  facet normal -0.23589268006620415 -0.9717791124999464 6.064573274472077e-16
    outer loop
      vertex 272.83683909634027 16.812798806158938 -25.48012994148332
      vertex 254.82126115519873 21.185956151087705 26
      vertex 271.9145253143005 17.03668411827237 -25.767534539408416
    endloop
  endfacet
  facet normal -0.23589268006620384 -0.9717791124999465 8.131591432245873e-16
    outer loop
      vertex 272.83683909634027 16.812798806158938 -25.48012994148332
      vertex 268.40921341215716 17.887574416724433 -10
      vertex 254.82126115519873 21.185956151087705 26
    endloop
  endfacet
  facet normal -0.2358926800662057 -0.9717791124999461 0
    outer loop
      vertex 254.82126115519873 21.185956151087705 26
      vertex 268.40921341215716 17.887574416724433 -10
      vertex 268.40921341215716 17.887574416724433 10
    endloop
  endfacet
  facet normal -0.29670517918520983 -0.9549691286343619 0
    outer loop
      vertex 273.15233210818207 16.736215052558734 -25.33813806303327
      vertex 278 15.23006356834365 18
      vertex 273.15233210818207 16.736215052558734 25.33813806303327
    endloop
  endfacet
  facet normal -0.23589268006621175 -0.9717791124999445 0
    outer loop
      vertex 272.83683909634027 16.812798806158938 -25.48012994148332
      vertex 272.83683909634027 16.812798806158938 25.48012994148332
      vertex 272.32036896115045 16.93816837090567 10
    endloop
  endfacet
  facet normal -0.235892680066207 -0.9717791124999458 0
    outer loop
      vertex 273.15233210818207 16.736215052558734 -25.33813806303327
      vertex 273.15233210818207 16.736215052558734 25.33813806303327
      vertex 272.83683909634027 16.812798806158938 25.48012994148332
    endloop
  endfacet
  facet normal -0.23589268006620562 -0.9717791124999461 -2.0516330198304169e-16
    outer loop
      vertex 270 17.501421939486818 26
      vertex 268.40921341215716 17.887574416724433 10
      vertex 272.32036896115045 16.93816837090567 10
    endloop
  endfacet
  facet normal -0.2967051791852084 -0.9549691286343625 8.024191326936247e-16
    outer loop
      vertex 278 15.23006356834365 18
      vertex 277.94167099278445 15.248186163115205 18.964293442042585
      vertex 273.71778537635015 16.56053093019072 25.08364820522568
    endloop
  endfacet
  facet normal -0.29670517918521017 -0.9549691286343618 -1.5900792068956715e-16
    outer loop
      vertex 277.4801299414833 15.391585165471927 20.836839096340285
      vertex 277.0836482052257 15.514770492696279 21.71778537635015
      vertex 275.30498126592636 16.06739536517808 23.98808598536881
    endloop
  endfacet
  facet normal -0.29670517918520944 -0.9549691286343619 -4.4954386807814776e-17
    outer loop
      vertex 277.94167099278445 15.248186163115205 18.964293442042585
      vertex 277.7675345394084 15.302289679189593 19.914525314300462
      vertex 273.71778537635015 16.56053093019072 25.08364820522568
    endloop
  endfacet
  facet normal -0.2967051791852081 -0.9549691286343626 1.1311570797849537e-15
    outer loop
      vertex 277.7675345394084 15.302289679189593 19.914525314300462
      vertex 277.4801299414833 15.391585165471927 20.836839096340285
      vertex 273.71778537635015 16.56053093019072 25.08364820522568
    endloop
  endfacet
  facet normal -0.2967051791852102 -0.9549691286343618 -1.300382591333719e-15
    outer loop
      vertex 277.4801299414833 15.391585165471927 20.836839096340285
      vertex 274.5445179738492 16.303668340475387 24.583870927149253
      vertex 273.71778537635015 16.56053093019072 25.08364820522568
    endloop
  endfacet
  facet normal -0.2967051791852197 -0.9549691286343589 -8.246768846916437e-15
    outer loop
      vertex 276.58387092714923 15.670049341402548 22.544517973849246
      vertex 275.9880859853688 15.85515739631905 23.30498126592636
      vertex 275.30498126592636 16.06739536517808 23.98808598536881
    endloop
  endfacet
  facet normal -0.2967051791852027 -0.9549691286343641 5.7805078069337964e-15
    outer loop
      vertex 277.4801299414833 15.391585165471927 20.836839096340285
      vertex 275.30498126592636 16.06739536517808 23.98808598536881
      vertex 274.5445179738492 16.303668340475387 24.583870927149253
    endloop
  endfacet
  facet normal -0.2967051791852132 -0.9549691286343609 -2.618125360696331e-15
    outer loop
      vertex 278 15.23006356834365 18
      vertex 273.71778537635015 16.56053093019072 25.08364820522568
      vertex 273.15233210818207 16.736215052558734 25.33813806303327
    endloop
  endfacet
  facet normal -0.2967051791852196 -0.9549691286343588 -8.208125843864161e-15
    outer loop
      vertex 277.0836482052257 15.514770492696279 21.71778537635015
      vertex 276.58387092714923 15.670049341402548 22.544517973849246
      vertex 275.30498126592636 16.06739536517808 23.98808598536881
    endloop
  endfacet
  facet normal -0.23589268006620634 -0.9717791124999459 -3.328094120679999e-16
    outer loop
      vertex 270.96429344204256 17.26734635431756 25.94167099278443
      vertex 272.32036896115045 16.93816837090567 10
      vertex 271.9145253143005 17.03668411827237 25.767534539408416
    endloop
  endfacet
  facet normal -0.23589268006620656 -0.9717791124999459 -3.492049198821902e-16
    outer loop
      vertex 270.96429344204256 17.26734635431756 25.94167099278443
      vertex 270 17.501421939486818 26
      vertex 272.32036896115045 16.93816837090567 10
    endloop
  endfacet
  facet normal -0.23589268006620406 -0.9717791124999464 -2.711069700285162e-16
    outer loop
      vertex 272.83683909634027 16.812798806158938 25.48012994148332
      vertex 271.9145253143005 17.03668411827237 25.767534539408416
      vertex 272.32036896115045 16.93816837090567 10
    endloop
  endfacet
  facet normal -0.2358926800662059 -0.971779112499946 -1.776978240054445e-16
    outer loop
      vertex 270 17.501421939486818 26
      vertex 254.82126115519873 21.185956151087705 26
      vertex 268.40921341215716 17.887574416724433 10
    endloop
  endfacet
  facet normal -0.18597349921463874 -0.9825547606061774 0
    outer loop
      vertex 254.82126115519873 21.185956151087705 -26
      vertex 233.95690417533405 25.13506680830435 26
      vertex 233.95690417533405 25.13506680830435 -26
    endloop
  endfacet
  facet normal -0.1441621654134457 -0.9895540763714262 0
    outer loop
      vertex 210.71683735778583 28.52077198275646 26
      vertex 233.95690417533405 25.13506680830435 -26
      vertex 233.95690417533405 25.13506680830435 26
    endloop
  endfacet
  facet normal -0.18597349921463874 -0.9825547606061774 0
    outer loop
      vertex 254.82126115519873 21.185956151087705 -26
      vertex 254.82126115519873 21.185956151087705 26
      vertex 233.95690417533405 25.13506680830435 26
    endloop
  endfacet
  facet normal -0.7871834806090533 0 -0.6167188726285392
    outer loop
      vertex 168.0119140146312 32.605826091993606 -23.30498126592636
      vertex 167.41612907285077 32.65138697319988 -22.544517973849246
      vertex 167.41612907285077 34.15576655761597 -22.544517973849246
    endloop
  endfacet
  facet normal -0.6167188726285491 0 -0.7871834806090454
    outer loop
      vertex 169.45548202615075 32.495433522336725 -24.583870927149253
      vertex 168.69501873407364 32.55358769053124 -23.98808598536881
      vertex 168.69501873407364 34.05796727494732 -23.98808598536881
    endloop
  endfacet
  facet normal -0.7071067811865512 0 -0.7071067811865438
    outer loop
      vertex 168.69501873407364 32.55358769053124 -23.98808598536881
      vertex 168.0119140146312 32.605826091993606 -23.30498126592636
      vertex 168.0119140146312 34.1102056764097 -23.30498126592636
    endloop
  endfacet
  facet normal -0.6167188726285491 0 -0.7871834806090454
    outer loop
      vertex 169.45548202615075 32.495433522336725 -24.583870927149253
      vertex 168.69501873407364 34.05796727494732 -23.98808598536881
      vertex 169.45548202615075 33.99981310675282 -24.583870927149253
    endloop
  endfacet
  facet normal -0.7071067811865512 0 -0.7071067811865439
    outer loop
      vertex 168.69501873407364 32.55358769053124 -23.98808598536881
      vertex 168.0119140146312 34.1102056764097 -23.30498126592636
      vertex 168.69501873407364 34.05796727494732 -23.98808598536881
    endloop
  endfacet
  facet normal -0.7871834806090533 0 -0.6167188726285392
    outer loop
      vertex 168.0119140146312 32.605826091993606 -23.30498126592636
      vertex 167.41612907285077 34.15576655761597 -22.544517973849246
      vertex 168.0119140146312 34.1102056764097 -23.30498126592636
    endloop
  endfacet
  facet normal -0.4104128054527519 0 -0.9118998459920923
    outer loop
      vertex 171.16316090365973 32.364843859825044 -25.48012994148332
      vertex 170.28221462364985 32.43221160613413 -25.08364820522568
      vertex 170.28221462364985 33.93659119055022 -25.08364820522568
    endloop
  endfacet
  facet normal -0.5173378141776531 0 -0.8557812723014498
    outer loop
      vertex 169.45548202615075 32.495433522336725 -24.583870927149253
      vertex 169.45548202615075 33.99981310675282 -24.583870927149253
      vertex 170.28221462364985 32.43221160613413 -25.08364820522568
    endloop
  endfacet
  facet normal -0.41041280545275194 0 -0.9118998459920924
    outer loop
      vertex 171.16316090365973 32.364843859825044 -25.48012994148332
      vertex 170.28221462364985 33.93659119055022 -25.08364820522568
      vertex 171.16316090365973 33.869223444241136 -25.48012994148332
    endloop
  endfacet
  facet normal -0.517337814177653 0 -0.8557812723014497
    outer loop
      vertex 170.28221462364985 32.43221160613413 -25.08364820522568
      vertex 169.45548202615075 33.99981310675282 -24.583870927149253
      vertex 170.28221462364985 33.93659119055022 -25.08364820522568
    endloop
  endfacet
  facet normal -0.29750305385521053 0 -0.9547208665085433
    outer loop
      vertex 171.16316090365973 32.364843859825044 -25.48012994148332
      vertex 171.16316090365973 33.869223444241136 -25.48012994148332
      vertex 172.08547468569952 32.294312656849606 -25.767534539408416
    endloop
  endfacet
  facet normal -0.18025503781390295 0 -0.9836199069471441
    outer loop
      vertex 172.08547468569952 32.294312656849606 -25.767534539408416
      vertex 172.08547468569952 33.7986922412657 -25.767534539408416
      vertex 173.0357065579574 32.22164650096964 -25.94167099278443
    endloop
  endfacet
  facet normal -0.29750305385521053 0 -0.9547208665085433
    outer loop
      vertex 172.08547468569952 32.294312656849606 -25.767534539408416
      vertex 171.16316090365973 33.869223444241136 -25.48012994148332
      vertex 172.08547468569952 33.7986922412657 -25.767534539408416
    endloop
  endfacet
  facet normal -0.18025503781390298 0 -0.9836199069471441
    outer loop
      vertex 172.08547468569952 33.7986922412657 -25.767534539408416
      vertex 173.0357065579574 33.726026085385726 -25.94167099278443
      vertex 173.0357065579574 32.22164650096964 -25.94167099278443
    endloop
  endfacet
  facet normal -0.8557812723014429 0 -0.5173378141776644
    outer loop
      vertex 167.41612907285077 32.65138697319988 -22.544517973849246
      vertex 166.91635179477433 32.6896059539079 -21.71778537635015
      vertex 166.91635179477433 34.19398553832399 -21.71778537635015
    endloop
  endfacet
  facet normal -0.9118998459920897 0 -0.4104128054527574
    outer loop
      vertex 166.91635179477433 32.6896059539079 -21.71778537635015
      vertex 166.5198700585167 32.71992571531729 -20.836839096340285
      vertex 166.5198700585167 34.22430529973338 -20.836839096340285
    endloop
  endfacet
  facet normal -0.9547208665085438 0 -0.2975030538552088
    outer loop
      vertex 166.5198700585167 32.71992571531729 -20.836839096340285
      vertex 166.23246546059158 32.74190412703255 -19.914525314300462
      vertex 166.23246546059158 34.24628371144864 -19.914525314300462
    endloop
  endfacet
  facet normal -0.8557812723014429 0 -0.5173378141776644
    outer loop
      vertex 167.41612907285077 32.65138697319988 -22.544517973849246
      vertex 166.91635179477433 34.19398553832399 -21.71778537635015
      vertex 167.41612907285077 34.15576655761597 -22.544517973849246
    endloop
  endfacet
  facet normal -0.9118998459920897 0 -0.4104128054527573
    outer loop
      vertex 166.91635179477433 32.6896059539079 -21.71778537635015
      vertex 166.5198700585167 34.22430529973338 -20.836839096340285
      vertex 166.91635179477433 34.19398553832399 -21.71778537635015
    endloop
  endfacet
  facet normal -0.9547208665085438 0 -0.2975030538552088
    outer loop
      vertex 166.5198700585167 32.71992571531729 -20.836839096340285
      vertex 166.23246546059158 34.24628371144864 -19.914525314300462
      vertex 166.5198700585167 34.22430529973338 -20.836839096340285
    endloop
  endfacet
  facet normal -0.9836199069471451 0 -0.18025503781389782
    outer loop
      vertex 166.23246546059158 32.74190412703255 -19.914525314300462
      vertex 166.05832900721558 34.25960027873589 -18.964293442042585
      vertex 166.23246546059158 34.24628371144864 -19.914525314300462
    endloop
  endfacet
  facet normal 0 0 -1
    outer loop
      vertex 174 32.147905028367795 -26
      vertex 174 33.65228461278389 -26
      vertex 185.33119425890763 31.281385653083632 -26
    endloop
  endfacet
  facet normal -0.06037849742228686 0 -0.9981755542233175
    outer loop
      vertex 174 32.147905028367795 -26
      vertex 173.0357065579574 32.22164650096964 -25.94167099278443
      vertex 173.0357065579574 33.726026085385726 -25.94167099278443
    endloop
  endfacet
  facet normal -0.06037849742228686 0 -0.9981755542233175
    outer loop
      vertex 174 32.147905028367795 -26
      vertex 173.0357065579574 33.726026085385726 -25.94167099278443
      vertex 174 33.65228461278389 -26
    endloop
  endfacet
  facet normal -0.9836199069471451 0 -0.1802550378138978
    outer loop
      vertex 166.23246546059158 32.74190412703255 -19.914525314300462
      vertex 166.05832900721558 32.755220694319796 -18.964293442042585
      vertex 166.05832900721558 34.25960027873589 -18.964293442042585
    endloop
  endfacet
  facet normal -0.9981755542233169 0 -0.06037849742229441
    outer loop
      vertex 166.05832900721558 32.755220694319796 -18.964293442042585
      vertex 166 32.75968123164168 -18
      vertex 166 34.26406081605777 -18
    endloop
  endfacet
  facet normal -0.9981755542233169 0 -0.06037849742229441
    outer loop
      vertex 166.05832900721558 32.755220694319796 -18.964293442042585
      vertex 166 34.26406081605777 -18
      vertex 166.05832900721558 34.25960027873589 -18.964293442042585
    endloop
  endfacet
  facet normal 0 0 -1
    outer loop
      vertex 185.33119425890763 31.281385653083632 -26
      vertex 185.4694989626556 32.77518879668049 -26
      vertex 210.71683735778583 28.52077198275646 -26
    endloop
  endfacet
  facet normal 0 0 -1
    outer loop
      vertex 174 33.65228461278389 -26
      vertex 185.4694989626556 32.77518879668049 -26
      vertex 185.33119425890763 31.281385653083632 -26
    endloop
  endfacet
  facet normal -1 0 0
    outer loop
      vertex 166 32.75968123164168 -18
      vertex 166 34.26406081605777 18
      vertex 166 34.26406081605777 -18
    endloop
  endfacet
  facet normal 0 0 -1
    outer loop
      vertex 185.4694989626556 32.77518879668049 -26
      vertex 210.90610373443982 30.00903319502075 -26
      vertex 210.71683735778583 28.52077198275646 -26
    endloop
  endfacet
  facet normal 0 0 -1
    outer loop
      vertex 210.71683735778583 28.52077198275646 -26
      vertex 210.90610373443982 30.00903319502075 -26
      vertex 233.95690417533405 25.13506680830435 -26
    endloop
  endfacet
  facet normal -1 0 0
    outer loop
      vertex 166 32.75968123164168 -18
      vertex 166 32.75968123164168 18
      vertex 166 34.26406081605777 18
    endloop
  endfacet
  facet normal -0.9981755542233169 0 0.06037849742229442
    outer loop
      vertex 166 32.75968123164168 18
      vertex 166.05832900721558 32.755220694319796 18.964293442042585
      vertex 166.05832900721558 34.25960027873589 18.964293442042585
    endloop
  endfacet
  facet normal -0.9981755542233169 0 0.06037849742229441
    outer loop
      vertex 166 32.75968123164168 18
      vertex 166.05832900721558 34.25960027873589 18.964293442042585
      vertex 166 34.26406081605777 18
    endloop
  endfacet
  facet normal -0.9836199069471451 0 0.18025503781389782
    outer loop
      vertex 166.05832900721558 32.755220694319796 18.964293442042585
      vertex 166.23246546059158 34.24628371144864 19.914525314300462
      vertex 166.05832900721558 34.25960027873589 18.964293442042585
    endloop
  endfacet
  facet normal -0.9836199069471451 0 0.18025503781389782
    outer loop
      vertex 166.05832900721558 32.755220694319796 18.964293442042585
      vertex 166.23246546059158 32.74190412703255 19.914525314300462
      vertex 166.23246546059158 34.24628371144864 19.914525314300462
    endloop
  endfacet
  facet normal -0.9547208665085438 0 0.2975030538552089
    outer loop
      vertex 166.23246546059158 32.74190412703255 19.914525314300462
      vertex 166.5198700585167 32.71992571531729 20.836839096340285
      vertex 166.5198700585167 34.22430529973338 20.836839096340285
    endloop
  endfacet
  facet normal -0.9118998459920897 0 0.4104128054527573
    outer loop
      vertex 166.5198700585167 32.71992571531729 20.836839096340285
      vertex 166.91635179477433 32.6896059539079 21.71778537635015
      vertex 166.91635179477433 34.19398553832399 21.71778537635015
    endloop
  endfacet
  facet normal -0.8557812723014429 0 0.5173378141776644
    outer loop
      vertex 166.91635179477433 32.6896059539079 21.71778537635015
      vertex 167.41612907285077 32.65138697319988 22.544517973849246
      vertex 167.41612907285077 34.15576655761597 22.544517973849246
    endloop
  endfacet
  facet normal -0.9547208665085438 0 0.2975030538552088
    outer loop
      vertex 166.23246546059158 32.74190412703255 19.914525314300462
      vertex 166.5198700585167 34.22430529973338 20.836839096340285
      vertex 166.23246546059158 34.24628371144864 19.914525314300462
    endloop
  endfacet
  facet normal -0.9118998459920897 0 0.4104128054527573
    outer loop
      vertex 166.5198700585167 32.71992571531729 20.836839096340285
      vertex 166.91635179477433 34.19398553832399 21.71778537635015
      vertex 166.5198700585167 34.22430529973338 20.836839096340285
    endloop
  endfacet
  facet normal -0.8557812723014429 0 0.5173378141776644
    outer loop
      vertex 166.91635179477433 32.6896059539079 21.71778537635015
      vertex 167.41612907285077 34.15576655761597 22.544517973849246
      vertex 166.91635179477433 34.19398553832399 21.71778537635015
    endloop
  endfacet
  facet normal -0.7871834806090533 0 0.6167188726285392
    outer loop
      vertex 167.41612907285077 32.65138697319988 22.544517973849246
      vertex 168.0119140146312 32.605826091993606 23.30498126592636
      vertex 168.0119140146312 34.1102056764097 23.30498126592636
    endloop
  endfacet
  facet normal -0.7071067811865512 0 0.7071067811865439
    outer loop
      vertex 168.0119140146312 32.605826091993606 23.30498126592636
      vertex 168.69501873407364 32.55358769053124 23.98808598536881
      vertex 168.69501873407364 34.05796727494732 23.98808598536881
    endloop
  endfacet
  facet normal -0.6167188726285491 0 0.7871834806090455
    outer loop
      vertex 168.69501873407364 32.55358769053124 23.98808598536881
      vertex 169.45548202615075 32.495433522336725 24.583870927149253
      vertex 169.45548202615075 33.99981310675282 24.583870927149253
    endloop
  endfacet
  facet normal -0.7871834806090533 0 0.6167188726285392
    outer loop
      vertex 167.41612907285077 32.65138697319988 22.544517973849246
      vertex 168.0119140146312 34.1102056764097 23.30498126592636
      vertex 167.41612907285077 34.15576655761597 22.544517973849246
    endloop
  endfacet
  facet normal -0.7071067811865512 0 0.7071067811865439
    outer loop
      vertex 168.0119140146312 32.605826091993606 23.30498126592636
      vertex 168.69501873407364 34.05796727494732 23.98808598536881
      vertex 168.0119140146312 34.1102056764097 23.30498126592636
    endloop
  endfacet
  facet normal -0.6167188726285491 0 0.7871834806090454
    outer loop
      vertex 168.69501873407364 32.55358769053124 23.98808598536881
      vertex 169.45548202615075 33.99981310675282 24.583870927149253
      vertex 168.69501873407364 34.05796727494732 23.98808598536881
    endloop
  endfacet
  facet normal -0.5173378141776531 0 0.8557812723014497
    outer loop
      vertex 169.45548202615075 32.495433522336725 24.583870927149253
      vertex 170.28221462364985 32.43221160613413 25.08364820522568
      vertex 170.28221462364985 33.93659119055022 25.08364820522568
    endloop
  endfacet
  facet normal -0.4104128054527519 0 0.9118998459920923
    outer loop
      vertex 170.28221462364985 32.43221160613413 25.08364820522568
      vertex 171.16316090365973 32.364843859825044 25.48012994148332
      vertex 171.16316090365973 33.869223444241136 25.48012994148332
    endloop
  endfacet
  facet normal -0.4104128054527519 0 0.9118998459920923
    outer loop
      vertex 170.28221462364985 32.43221160613413 25.08364820522568
      vertex 171.16316090365973 33.869223444241136 25.48012994148332
      vertex 170.28221462364985 33.93659119055022 25.08364820522568
    endloop
  endfacet
  facet normal -0.29750305385521053 0 0.9547208665085433
    outer loop
      vertex 171.16316090365973 32.364843859825044 25.48012994148332
      vertex 172.08547468569952 32.294312656849606 25.767534539408416
      vertex 172.08547468569952 33.7986922412657 25.767534539408416
    endloop
  endfacet
  facet normal -0.18025503781390298 0 0.9836199069471441
    outer loop
      vertex 172.08547468569952 32.294312656849606 25.767534539408416
      vertex 173.0357065579574 32.22164650096964 25.94167099278443
      vertex 173.0357065579574 33.726026085385726 25.94167099278443
    endloop
  endfacet
  facet normal -0.29750305385521053 0 0.9547208665085433
    outer loop
      vertex 171.16316090365973 32.364843859825044 25.48012994148332
      vertex 172.08547468569952 33.7986922412657 25.767534539408416
      vertex 171.16316090365973 33.869223444241136 25.48012994148332
    endloop
  endfacet
  facet normal -0.18025503781390295 0 0.9836199069471441
    outer loop
      vertex 172.08547468569952 32.294312656849606 25.767534539408416
      vertex 173.0357065579574 33.726026085385726 25.94167099278443
      vertex 172.08547468569952 33.7986922412657 25.767534539408416
    endloop
  endfacet
  facet normal -0.5173378141776531 0 0.8557812723014498
    outer loop
      vertex 169.45548202615075 32.495433522336725 24.583870927149253
      vertex 170.28221462364985 33.93659119055022 25.08364820522568
      vertex 169.45548202615075 33.99981310675282 24.583870927149253
    endloop
  endfacet
  facet normal -0.06037849742228686 0 0.9981755542233175
    outer loop
      vertex 174 32.147905028367795 26
      vertex 174 33.65228461278389 26
      vertex 173.0357065579574 32.22164650096964 25.94167099278443
    endloop
  endfacet
  facet normal -0.06037849742228686 0 0.9981755542233175
    outer loop
      vertex 173.0357065579574 32.22164650096964 25.94167099278443
      vertex 174 33.65228461278389 26
      vertex 173.0357065579574 33.726026085385726 25.94167099278443
    endloop
  endfacet
  facet normal 0 0 1
    outer loop
      vertex 174 32.147905028367795 26
      vertex 185.4694989626556 32.77518879668049 26
      vertex 174 33.65228461278389 26
    endloop
  endfacet
  facet normal 0 0 1
    outer loop
      vertex 174 32.147905028367795 26
      vertex 185.33119425890763 31.281385653083632 26
      vertex 185.4694989626556 32.77518879668049 26
    endloop
  endfacet
  facet normal 0 0 1
    outer loop
      vertex 185.33119425890763 31.281385653083632 26
      vertex 210.90610373443982 30.00903319502075 26
      vertex 185.4694989626556 32.77518879668049 26
    endloop
  endfacet
  facet normal 0 0 1
    outer loop
      vertex 185.33119425890763 31.281385653083632 26
      vertex 210.71683735778583 28.52077198275646 26
      vertex 210.90610373443982 30.00903319502075 26
    endloop
  endfacet
  facet normal 0 0 1
    outer loop
      vertex 210.71683735778583 28.52077198275646 26
      vertex 234.204617219917 26.6148132780083 26
      vertex 210.90610373443982 30.00903319502075 26
    endloop
  endfacet
  facet normal 0 0 -1
    outer loop
      vertex 270 19.04498259098218 -26
      vertex 254.82126115519873 21.185956151087705 -26
      vertex 255.137867219917 22.65266286307054 -26
    endloop
  endfacet
  facet normal 0.06037849742228864 0 -0.9981755542233173
    outer loop
      vertex 270.96429344204256 17.26734635431756 -25.94167099278443
      vertex 270 17.501421939486818 -26
      vertex 270 19.04498259098218 -26
    endloop
  endfacet
  facet normal 0.7871834806090533 0 -0.6167188726285392
    outer loop
      vertex 275.9880859853688 15.85515739631905 -23.30498126592636
      vertex 275.9880859853688 17.425888800113277 -23.30498126592636
      vertex 276.58387092714923 15.670049341402548 -22.544517973849246
    endloop
  endfacet
  facet normal 0.9118998459921008 0 -0.4104128054527329
    outer loop
      vertex 277.0836482052257 15.514770492696279 -21.71778537635015
      vertex 277.0836482052257 17.085501896490502 -21.71778537635015
      vertex 277.4801299414833 15.391585165471927 -20.836839096340285
    endloop
  endfacet
  facet normal 0.8557812723014299 0 -0.517337814177686
    outer loop
      vertex 277.0836482052257 15.514770492696279 -21.71778537635015
      vertex 276.58387092714923 15.670049341402548 -22.544517973849246
      vertex 276.58387092714923 17.240780745196773 -22.544517973849246
    endloop
  endfacet
  facet normal 0.9118998459921008 0 -0.4104128054527329
    outer loop
      vertex 277.4801299414833 15.391585165471927 -20.836839096340285
      vertex 277.0836482052257 17.085501896490502 -21.71778537635015
      vertex 277.4801299414833 16.96231656926615 -20.836839096340285
    endloop
  endfacet
  facet normal 0.9547208665085438 0 -0.29750305385520887
    outer loop
      vertex 277.4801299414833 15.391585165471927 -20.836839096340285
      vertex 277.4801299414833 16.96231656926615 -20.836839096340285
      vertex 277.7675345394084 15.302289679189593 -19.914525314300462
    endloop
  endfacet
  facet normal 0.9836199069471397 0 -0.18025503781392627
    outer loop
      vertex 277.7675345394084 15.302289679189593 -19.914525314300462
      vertex 277.7675345394084 16.87302108298382 -19.914525314300462
      vertex 277.94167099278445 15.248186163115205 -18.964293442042585
    endloop
  endfacet
  facet normal 0.9547208665085438 0 -0.2975030538552088
    outer loop
      vertex 277.7675345394084 15.302289679189593 -19.914525314300462
      vertex 277.4801299414833 16.96231656926615 -20.836839096340285
      vertex 277.7675345394084 16.87302108298382 -19.914525314300462
    endloop
  endfacet
  facet normal 0.41041280545274844 0 -0.9118998459920938
    outer loop
      vertex 273.15233210818207 16.736215052558734 -25.33813806303327
      vertex 272.83683909634027 16.812798806158938 -25.48012994148332
      vertex 272.83683909634027 18.356359457654296 -25.48012994148332
    endloop
  endfacet
  facet normal 0.4104128054527542 1.3527235249610517e-15 -0.9118998459920913
    outer loop
      vertex 273.71778537635015 16.56053093019072 -25.08364820522568
      vertex 273.15233210818207 16.736215052558734 -25.33813806303327
      vertex 272.83683909634027 18.356359457654296 -25.48012994148332
    endloop
  endfacet
  facet normal 0.5173378141776662 0 -0.855781272301442
    outer loop
      vertex 274.5445179738492 16.303668340475387 -24.583870927149253
      vertex 273.71778537635015 16.56053093019072 -25.08364820522568
      vertex 273.71778537635015 18.131262333984946 -25.08364820522568
    endloop
  endfacet
  facet normal 0.18025503781389776 0 -0.9836199069471451
    outer loop
      vertex 270.96429344204256 17.26734635431756 -25.94167099278443
      vertex 270.96429344204256 18.810907005812922 -25.94167099278443
      vertex 271.9145253143005 17.03668411827237 -25.767534539408416
    endloop
  endfacet
  facet normal 0.29750305385521053 0 -0.9547208665085433
    outer loop
      vertex 272.83683909634027 16.812798806158938 -25.48012994148332
      vertex 271.9145253143005 17.03668411827237 -25.767534539408416
      vertex 271.9145253143005 18.58024476976773 -25.767534539408416
    endloop
  endfacet
  facet normal 0.29750305385521053 0 -0.9547208665085433
    outer loop
      vertex 272.83683909634027 16.812798806158938 -25.48012994148332
      vertex 271.9145253143005 18.58024476976773 -25.767534539408416
      vertex 272.83683909634027 18.356359457654296 -25.48012994148332
    endloop
  endfacet
  facet normal 0.4104128054527534 9.058117936338585e-16 -0.9118998459920916
    outer loop
      vertex 273.71778537635015 16.56053093019072 -25.08364820522568
      vertex 272.83683909634027 18.356359457654296 -25.48012994148332
      vertex 273.5521784232365 18.182715767634853 -25.158181844559618
    endloop
  endfacet
  facet normal 0.5173378141776662 0 -0.855781272301442
    outer loop
      vertex 274.5445179738492 16.303668340475387 -24.583870927149253
      vertex 273.71778537635015 18.131262333984946 -25.08364820522568
      vertex 274.5445179738492 17.874399744269613 -24.583870927149253
    endloop
  endfacet
  facet normal 0.41041280545274605 0 -0.9118998459920951
    outer loop
      vertex 273.71778537635015 16.56053093019072 -25.08364820522568
      vertex 273.5521784232365 18.182715767634853 -25.158181844559618
      vertex 273.71778537635015 18.131262333984946 -25.08364820522568
    endloop
  endfacet
  facet normal 0.6167188726285348 0 -0.7871834806090566
    outer loop
      vertex 274.5445179738492 16.303668340475387 -24.583870927149253
      vertex 274.5445179738492 17.874399744269613 -24.583870927149253
      vertex 275.30498126592636 16.06739536517808 -23.98808598536881
    endloop
  endfacet
  facet normal 0.7071067811865511 0 -0.7071067811865438
    outer loop
      vertex 275.30498126592636 16.06739536517808 -23.98808598536881
      vertex 275.30498126592636 17.638126768972302 -23.98808598536881
      vertex 275.9880859853688 15.85515739631905 -23.30498126592636
    endloop
  endfacet
  facet normal 0.6167188726285348 0 -0.7871834806090567
    outer loop
      vertex 275.30498126592636 16.06739536517808 -23.98808598536881
      vertex 274.5445179738492 17.874399744269613 -24.583870927149253
      vertex 275.30498126592636 17.638126768972302 -23.98808598536881
    endloop
  endfacet
  facet normal 0.7071067811865512 0 -0.7071067811865439
    outer loop
      vertex 275.9880859853688 15.85515739631905 -23.30498126592636
      vertex 275.30498126592636 17.638126768972302 -23.98808598536881
      vertex 275.9880859853688 17.425888800113277 -23.30498126592636
    endloop
  endfacet
  facet normal 0.7871834806090533 0 -0.6167188726285392
    outer loop
      vertex 276.58387092714923 15.670049341402548 -22.544517973849246
      vertex 275.9880859853688 17.425888800113277 -23.30498126592636
      vertex 276.58387092714923 17.240780745196773 -22.544517973849246
    endloop
  endfacet
  facet normal 0.85578127230143 0 -0.517337814177686
    outer loop
      vertex 277.0836482052257 15.514770492696279 -21.71778537635015
      vertex 276.58387092714923 17.240780745196773 -22.544517973849246
      vertex 277.0836482052257 17.085501896490502 -21.71778537635015
    endloop
  endfacet
  facet normal 0.9981755542233187 0 -0.0603784974222651
    outer loop
      vertex 277.94167099278445 15.248186163115205 -18.964293442042585
      vertex 277.94167099278445 16.81891756690943 -18.964293442042585
      vertex 278 15.23006356834365 -18
    endloop
  endfacet
  facet normal 0.9836199069471397 0 -0.18025503781392627
    outer loop
      vertex 277.7675345394084 16.87302108298382 -19.914525314300462
      vertex 277.94167099278445 16.81891756690943 -18.964293442042585
      vertex 277.94167099278445 15.248186163115205 -18.964293442042585
    endloop
  endfacet
  facet normal 0.9981755542233187 0 -0.0603784974222651
    outer loop
      vertex 278 15.23006356834365 -18
      vertex 277.94167099278445 16.81891756690943 -18.964293442042585
      vertex 278 16.800794972137876 -18
    endloop
  endfacet
  facet normal 0 0 -1
    outer loop
      vertex 270 17.501421939486818 -26
      vertex 254.82126115519873 21.185956151087705 -26
      vertex 270 19.04498259098218 -26
    endloop
  endfacet
  facet normal 0.06037849742228864 0 -0.9981755542233174
    outer loop
      vertex 270.96429344204256 17.26734635431756 -25.94167099278443
      vertex 270 19.04498259098218 -26
      vertex 270.96429344204256 18.810907005812922 -25.94167099278443
    endloop
  endfacet
  facet normal 0.18025503781389776 0 -0.9836199069471451
    outer loop
      vertex 271.9145253143005 17.03668411827237 -25.767534539408416
      vertex 270.96429344204256 18.810907005812922 -25.94167099278443
      vertex 271.9145253143005 18.58024476976773 -25.767534539408416
    endloop
  endfacet
  facet normal 1 0 0
    outer loop
      vertex 278 15.23006356834365 -18
      vertex 278 16.800794972137876 -18
      vertex 278 15.23006356834365 18
    endloop
  endfacet
  facet normal 1 0 0
    outer loop
      vertex 278 16.800794972137876 -18
      vertex 278 16.800794972137876 18
      vertex 278 15.23006356834365 18
    endloop
  endfacet
  facet normal 0 0 1
    outer loop
      vertex 270 19.04498259098218 26
      vertex 255.137867219917 22.65266286307054 26
      vertex 254.82126115519873 21.185956151087705 26
    endloop
  endfacet
  facet normal 0.9981755542233187 0 0.0603784974222651
    outer loop
      vertex 278 15.23006356834365 18
      vertex 278 16.800794972137876 18
      vertex 277.94167099278445 15.248186163115205 18.964293442042585
    endloop
  endfacet
  facet normal 0.9836199069471397 0 0.18025503781392627
    outer loop
      vertex 277.94167099278445 15.248186163115205 18.964293442042585
      vertex 277.94167099278445 16.81891756690943 18.964293442042585
      vertex 277.7675345394084 15.302289679189593 19.914525314300462
    endloop
  endfacet
  facet normal 0.9981755542233187 0 0.0603784974222651
    outer loop
      vertex 277.94167099278445 15.248186163115205 18.964293442042585
      vertex 278 16.800794972137876 18
      vertex 277.94167099278445 16.81891756690943 18.964293442042585
    endloop
  endfacet
  facet normal 0.06037849742228864 0 0.9981755542233174
    outer loop
      vertex 270.96429344204256 17.26734635431756 25.94167099278443
      vertex 270.96429344204256 18.810907005812922 25.94167099278443
      vertex 270 17.501421939486818 26
    endloop
  endfacet
  facet normal 0.9547208665085438 0 0.2975030538552088
    outer loop
      vertex 277.7675345394084 15.302289679189593 19.914525314300462
      vertex 277.7675345394084 16.87302108298382 19.914525314300462
      vertex 277.4801299414833 15.391585165471927 20.836839096340285
    endloop
  endfacet
  facet normal 0.9836199069471399 0 0.18025503781392627
    outer loop
      vertex 277.94167099278445 16.81891756690943 18.964293442042585
      vertex 277.7675345394084 16.87302108298382 19.914525314300462
      vertex 277.7675345394084 15.302289679189593 19.914525314300462
    endloop
  endfacet
  facet normal 0.9547208665085438 0 0.29750305385520887
    outer loop
      vertex 277.4801299414833 15.391585165471927 20.836839096340285
      vertex 277.7675345394084 16.87302108298382 19.914525314300462
      vertex 277.4801299414833 16.96231656926615 20.836839096340285
    endloop
  endfacet
  facet normal 0.9118998459921008 0 0.4104128054527329
    outer loop
      vertex 277.4801299414833 15.391585165471927 20.836839096340285
      vertex 277.4801299414833 16.96231656926615 20.836839096340285
      vertex 277.0836482052257 15.514770492696279 21.71778537635015
    endloop
  endfacet
  facet normal 0.85578127230143 0 0.517337814177686
    outer loop
      vertex 277.0836482052257 15.514770492696279 21.71778537635015
      vertex 277.0836482052257 17.085501896490502 21.71778537635015
      vertex 276.58387092714923 15.670049341402548 22.544517973849246
    endloop
  endfacet
  facet normal 0.7071067811865512 0 0.7071067811865439
    outer loop
      vertex 275.9880859853688 15.85515739631905 23.30498126592636
      vertex 275.9880859853688 17.425888800113277 23.30498126592636
      vertex 275.30498126592636 16.06739536517808 23.98808598536881
    endloop
  endfacet
  facet normal 0.7871834806090533 0 0.6167188726285392
    outer loop
      vertex 276.58387092714923 15.670049341402548 22.544517973849246
      vertex 276.58387092714923 17.240780745196773 22.544517973849246
      vertex 275.9880859853688 15.85515739631905 23.30498126592636
    endloop
  endfacet
  facet normal 0.9118998459921008 0 0.4104128054527329
    outer loop
      vertex 277.0836482052257 15.514770492696279 21.71778537635015
      vertex 277.4801299414833 16.96231656926615 20.836839096340285
      vertex 277.0836482052257 17.085501896490502 21.71778537635015
    endloop
  endfacet
  facet normal 0.85578127230143 0 0.517337814177686
    outer loop
      vertex 276.58387092714923 15.670049341402548 22.544517973849246
      vertex 277.0836482052257 17.085501896490502 21.71778537635015
      vertex 276.58387092714923 17.240780745196773 22.544517973849246
    endloop
  endfacet
  facet normal 0.41041280545275377 0 0.9118998459920914
    outer loop
      vertex 273.71778537635015 16.56053093019072 25.08364820522568
      vertex 273.71778537635015 18.131262333984946 25.08364820522568
      vertex 273.15233210818207 16.736215052558734 25.33813806303327
    endloop
  endfacet
  facet normal 0.5173378141776662 0 0.855781272301442
    outer loop
      vertex 274.5445179738492 16.303668340475387 24.583870927149253
      vertex 274.5445179738492 17.874399744269613 24.583870927149253
      vertex 273.71778537635015 16.56053093019072 25.08364820522568
    endloop
  endfacet
  facet normal 0.41041280545274894 2.6766474143058895e-15 0.9118998459920937
    outer loop
      vertex 273.15233210818207 16.736215052558734 25.33813806303327
      vertex 273.5521784232365 18.182715767634853 25.158181844559618
      vertex 272.83683909634027 16.812798806158938 25.48012994148332
    endloop
  endfacet
  facet normal 0.1802550378138978 0 0.9836199069471451
    outer loop
      vertex 270.96429344204256 17.26734635431756 25.94167099278443
      vertex 271.9145253143005 17.03668411827237 25.767534539408416
      vertex 271.9145253143005 18.58024476976773 25.767534539408416
    endloop
  endfacet
  facet normal 0.29750305385521053 0 0.9547208665085433
    outer loop
      vertex 272.83683909634027 16.812798806158938 25.48012994148332
      vertex 272.83683909634027 18.356359457654296 25.48012994148332
      vertex 271.9145253143005 17.03668411827237 25.767534539408416
    endloop
  endfacet
  facet normal 0.29750305385521053 0 0.9547208665085433
    outer loop
      vertex 271.9145253143005 17.03668411827237 25.767534539408416
      vertex 272.83683909634027 18.356359457654296 25.48012994148332
      vertex 271.9145253143005 18.58024476976773 25.767534539408416
    endloop
  endfacet
  facet normal 0.5173378141776662 0 0.855781272301442
    outer loop
      vertex 273.71778537635015 16.56053093019072 25.08364820522568
      vertex 274.5445179738492 17.874399744269613 24.583870927149253
      vertex 273.71778537635015 18.131262333984946 25.08364820522568
    endloop
  endfacet
  facet normal 0.4104128054527468 3.4055317336741698e-15 0.9118998459920945
    outer loop
      vertex 273.15233210818207 16.736215052558734 25.33813806303327
      vertex 273.71778537635015 18.131262333984946 25.08364820522568
      vertex 273.5521784232365 18.182715767634853 25.158181844559618
    endloop
  endfacet
  facet normal 0.41041280545275327 0 0.9118998459920917
    outer loop
      vertex 272.83683909634027 16.812798806158938 25.48012994148332
      vertex 273.5521784232365 18.182715767634853 25.158181844559618
      vertex 272.83683909634027 18.356359457654296 25.48012994148332
    endloop
  endfacet
  facet normal 0.7871834806090533 0 0.6167188726285392
    outer loop
      vertex 275.9880859853688 15.85515739631905 23.30498126592636
      vertex 276.58387092714923 17.240780745196773 22.544517973849246
      vertex 275.9880859853688 17.425888800113277 23.30498126592636
    endloop
  endfacet
  facet normal 0.6167188726285348 0 0.7871834806090567
    outer loop
      vertex 275.30498126592636 16.06739536517808 23.98808598536881
      vertex 275.30498126592636 17.638126768972302 23.98808598536881
      vertex 274.5445179738492 16.303668340475387 24.583870927149253
    endloop
  endfacet
  facet normal 0.7071067811865511 0 0.7071067811865438
    outer loop
      vertex 275.30498126592636 16.06739536517808 23.98808598536881
      vertex 275.9880859853688 17.425888800113277 23.30498126592636
      vertex 275.30498126592636 17.638126768972302 23.98808598536881
    endloop
  endfacet
  facet normal 0.6167188726285348 0 0.7871834806090566
    outer loop
      vertex 274.5445179738492 16.303668340475387 24.583870927149253
      vertex 275.30498126592636 17.638126768972302 23.98808598536881
      vertex 274.5445179738492 17.874399744269613 24.583870927149253
    endloop
  endfacet
  facet normal 0 0 1
    outer loop
      vertex 270 17.501421939486818 26
      vertex 270 19.04498259098218 26
      vertex 254.82126115519873 21.185956151087705 26
    endloop
  endfacet
  facet normal 0.06037849742228864 0 0.9981755542233174
    outer loop
      vertex 270 17.501421939486818 26
      vertex 270.96429344204256 18.810907005812922 25.94167099278443
      vertex 270 19.04498259098218 26
    endloop
  endfacet
  facet normal 0.18025503781389776 0 0.9836199069471451
    outer loop
      vertex 270.96429344204256 17.26734635431756 25.94167099278443
      vertex 271.9145253143005 18.58024476976773 25.767534539408416
      vertex 270.96429344204256 18.810907005812922 25.94167099278443
    endloop
  endfacet
  facet normal 0 0 -1
    outer loop
      vertex 210.90610373443982 30.00903319502075 -26
      vertex 234.204617219917 26.6148132780083 -26
      vertex 233.95690417533405 25.13506680830435 -26
    endloop
  endfacet
  facet normal 0 0 -1
    outer loop
      vertex 254.82126115519873 21.185956151087705 -26
      vertex 233.95690417533405 25.13506680830435 -26
      vertex 234.204617219917 26.6148132780083 -26
    endloop
  endfacet
  facet normal 0 0 -1
    outer loop
      vertex 254.82126115519873 21.185956151087705 -26
      vertex 234.204617219917 26.6148132780083 -26
      vertex 255.137867219917 22.65266286307054 -26
    endloop
  endfacet
  facet normal 0 0 1
    outer loop
      vertex 210.71683735778583 28.52077198275646 26
      vertex 233.95690417533405 25.13506680830435 26
      vertex 234.204617219917 26.6148132780083 26
    endloop
  endfacet
  facet normal 0 0 1
    outer loop
      vertex 254.82126115519873 21.185956151087705 26
      vertex 255.137867219917 22.65266286307054 26
      vertex 233.95690417533405 25.13506680830435 26
    endloop
  endfacet
  facet normal 0 0 1
    outer loop
      vertex 255.137867219917 22.65266286307054 26
      vertex 234.204617219917 26.6148132780083 26
      vertex 233.95690417533405 25.13506680830435 26
    endloop
  endfacet
  facet normal 0 0 -1
    outer loop
      vertex 275.6058589967203 8.422151654498641 -10
      vertex 266.20893278886126 11.842353087755328 -10
      vertex 270.92535967331673 13.105411852653196 -10
    endloop
  endfacet
  facet normal 0 0 -1
    outer loop
      vertex 276.56351539803217 11.053290992699184 -10
      vertex 275.6058589967203 8.422151654498641 -10
      vertex 270.92535967331673 13.105411852653196 -10
    endloop
  endfacet
  facet normal -0.3420201433256696 -0.939692620785908 0
    outer loop
      vertex 275.6058589967203 8.422151654498641 -10
      vertex 275.6058589967203 8.422151654498641 10
      vertex 266.20893278886126 11.842353087755328 -10
    endloop
  endfacet
  facet normal 0.9396926207859108 -0.3420201433256622 0
    outer loop
      vertex 276.56351539803217 11.053290992699184 -10
      vertex 276.56351539803217 11.053290992699184 10
      vertex 275.6058589967203 8.422151654498641 -10
    endloop
  endfacet
  facet normal 0 0 -1
    outer loop
      vertex 270.92535967331673 13.105411852653196 -10
      vertex 266.20893278886126 11.842353087755328 -10
      vertex 268.40921341215716 17.887574416724433 -10
    endloop
  endfacet
  facet normal 0 0 -1
    outer loop
      vertex 270.92535967331673 13.105411852653196 -10
      vertex 268.40921341215716 17.887574416724433 -10
      vertex 272.32036896115045 16.93816837090567 -10
    endloop
  endfacet
  facet normal -0.93969262078591 0.3420201433256642 0
    outer loop
      vertex 266.20893278886126 11.842353087755328 -10
      vertex 268.40921341215716 17.887574416724433 10
      vertex 268.40921341215716 17.887574416724433 -10
    endloop
  endfacet
  facet normal -0.3420201433256696 -0.939692620785908 0
    outer loop
      vertex 275.6058589967203 8.422151654498641 10
      vertex 266.20893278886126 11.842353087755328 10
      vertex 266.20893278886126 11.842353087755328 -10
    endloop
  endfacet
  facet normal 0.9396926207859108 -0.3420201433256622 0
    outer loop
      vertex 275.6058589967203 8.422151654498641 -10
      vertex 276.56351539803217 11.053290992699184 10
      vertex 275.6058589967203 8.422151654498641 10
    endloop
  endfacet
  facet normal 0 0 1
    outer loop
      vertex 275.6058589967203 8.422151654498641 10
      vertex 270.92535967331673 13.105411852653196 10
      vertex 266.20893278886126 11.842353087755328 10
    endloop
  endfacet
  facet normal 0 0 1
    outer loop
      vertex 276.56351539803217 11.053290992699184 10
      vertex 270.92535967331673 13.105411852653196 10
      vertex 275.6058589967203 8.422151654498641 10
    endloop
  endfacet
  facet normal -0.93969262078591 0.3420201433256642 0
    outer loop
      vertex 266.20893278886126 11.842353087755328 -10
      vertex 266.20893278886126 11.842353087755328 10
      vertex 268.40921341215716 17.887574416724433 10
    endloop
  endfacet
  facet normal 0 0 1
    outer loop
      vertex 270.92535967331673 13.105411852653196 10
      vertex 272.32036896115045 16.93816837090567 10
      vertex 266.20893278886126 11.842353087755328 10
    endloop
  endfacet
  facet normal 0 0 1
    outer loop
      vertex 266.20893278886126 11.842353087755328 10
      vertex 272.32036896115045 16.93816837090567 10
      vertex 268.40921341215716 17.887574416724433 10
    endloop
  endfacet
  facet normal 0.3420201433256697 0.939692620785908 0
    outer loop
      vertex 276.56351539803217 11.053290992699184 -10
      vertex 270.92535967331673 13.105411852653196 -10
      vertex 276.56351539803217 11.053290992699184 10
    endloop
  endfacet
  facet normal 0.9396926207859045 -0.3420201433256792 0
    outer loop
      vertex 270.92535967331673 13.105411852653196 -10
      vertex 272.32036896115045 16.93816837090567 -10
      vertex 270.92535967331673 13.105411852653196 10
    endloop
  endfacet
  facet normal 0.3420201433256697 0.939692620785908 0
    outer loop
      vertex 276.56351539803217 11.053290992699184 10
      vertex 270.92535967331673 13.105411852653196 -10
      vertex 270.92535967331673 13.105411852653196 10
    endloop
  endfacet
  facet normal 0.9396926207859045 -0.3420201433256792 0
    outer loop
      vertex 270.92535967331673 13.105411852653196 10
      vertex 272.32036896115045 16.93816837090567 -10
      vertex 272.32036896115045 16.93816837090567 10
    endloop
  endfacet
endsolid OpenSCAD_Model
