solid OpenSCAD_Model
  facet normal -0.1321868753663246 0.9912248130373289 0
    outer loop
      vertex -123.17436037595733 17.624360375957338 -24
      vertex -123.17436037595733 17.624360375957338 24
      vertex -37.38502140137817 29.06497859862183 24
    endloop
  endfacet
  facet normal -0.1321868753663246 0.9912248130373289 0
    outer loop
      vertex -37.38502140137817 29.06497859862183 -24
      vertex -123.17436037595733 17.624360375957338 -24
      vertex -37.38502140137817 29.06497859862183 24
    endloop
  endfacet
  facet normal 0.13218584625658328 -0.9912249502758851 0
    outer loop
      vertex -121.39399476620419 15.843994766204183 -24
      vertex -39.713404120106226 26.736595879893777 -24
      vertex -121.39399476620419 15.843994766204183 24
    endloop
  endfacet
  facet normal 0.13218584625658328 -0.9912249502758851 0
    outer loop
      vertex -39.713404120106226 26.736595879893777 -24
      vertex -39.713404120106226 26.736595879893777 24
      vertex -121.39399476620419 15.843994766204183 24
    endloop
  endfacet
  facet normal -0.7071067811865489 -0.7071067811865461 0
    outer loop
      vertex -123.17436037595733 17.624360375957338 -24
      vertex -121.39399476620419 15.843994766204183 -24
      vertex -123.17436037595733 17.624360375957338 24
    endloop
  endfacet
  facet normal 0 0 -1
    outer loop
      vertex -123.17436037595733 17.624360375957338 -24
      vertex -39.713404120106226 26.736595879893777 -24
      vertex -121.39399476620419 15.843994766204183 -24
    endloop
  endfacet
  facet normal -0.7071067811865489 -0.7071067811865461 0
    outer loop
      vertex -121.39399476620419 15.843994766204183 24
      vertex -123.17436037595733 17.624360375957338 24
      vertex -121.39399476620419 15.843994766204183 -24
    endloop
  endfacet
  facet normal 0 0 1
    outer loop
      vertex -121.39399476620419 15.843994766204183 24
      vertex -37.38502140137817 29.06497859862183 24
      vertex -123.17436037595733 17.624360375957338 24
    endloop
  endfacet
  facet normal 0 0 -1
    outer loop
      vertex -37.38502140137817 29.06497859862183 -24
      vertex -39.713404120106226 26.736595879893777 -24
      vertex -123.17436037595733 17.624360375957338 -24
    endloop
  endfacet
  facet normal 0.7071067811865469 -0.707106781186548 0
    outer loop
      vertex -39.713404120106226 26.736595879893777 24
      vertex -39.713404120106226 26.736595879893777 -24
      vertex -37.38502140137817 29.06497859862183 -24
    endloop
  endfacet
  facet normal 0 0 1
    outer loop
      vertex -37.38502140137817 29.06497859862183 24
      vertex -121.39399476620419 15.843994766204183 24
      vertex -39.713404120106226 26.736595879893777 24
    endloop
  endfacet
  facet normal 0.7071067811865469 -0.707106781186548 0
    outer loop
      vertex -37.38502140137817 29.06497859862183 -24
      vertex -37.38502140137817 29.06497859862183 24
      vertex -39.713404120106226 26.736595879893777 24
    endloop
  endfacet
endsolid OpenSCAD_Model
