solid OpenSCAD_Model
  facet normal -0.07691261714350042 0.9970378374586079 -7.00409294176478e-16
    outer loop
      vertex -1.9880859853688122 33.80007245321339 -23.30498126592636
      vertex -2.583870927149249 33.75411293452168 -22.544517973849246
      vertex -3.4801299414833125 33.684974508836056 -20.836839096340285
    endloop
  endfacet
  facet normal -0.07691261714350378 0.9970378374586075 -3.7078441991393906e-15
    outer loop
      vertex -0.5445179738492527 33.911430908849944 -24.583870927149253
      vertex -1.304981265926358 33.852767917499186 -23.98808598536881
      vertex -4 33.64487114939187 -18
    endloop
  endfacet
  facet normal -0.0769126171435055 0.9970378374586074 -3.3210227718564614e-15
    outer loop
      vertex -2.583870927149249 33.75411293452168 -22.544517973849246
      vertex -3.0836482052256855 33.71555955469841 -21.71778537635015
      vertex -3.4801299414833125 33.684974508836056 -20.836839096340285
    endloop
  endfacet
  facet normal -0.0769126171435174 0.9970378374586065 -1.0998335125924874e-14
    outer loop
      vertex -1.9880859853688122 33.80007245321339 -23.30498126592636
      vertex -3.4801299414833125 33.684974508836056 -20.836839096340285
      vertex -3.767534539408416 33.66280379577482 -19.914525314300462
    endloop
  endfacet
  facet normal -0.07691261714348559 0.9970378374586091 4.5271179666567874e-15
    outer loop
      vertex -1.9880859853688122 33.80007245321339 -23.30498126592636
      vertex -4 33.64487114939187 -18
      vertex -1.304981265926358 33.852767917499186 -23.98808598536881
    endloop
  endfacet
  facet normal -0.07691261714348689 0.997037837458609 5.129880229487746e-15
    outer loop
      vertex -1.9880859853688122 33.80007245321339 -23.30498126592636
      vertex -3.767534539408416 33.66280379577482 -19.914525314300462
      vertex -3.941670992784438 33.64937071443522 -18.964293442042585
    endloop
  endfacet
  facet normal -0.07691261714350171 0.9970378374586077 -1.6631428122897214e-15
    outer loop
      vertex -1.9880859853688122 33.80007245321339 -23.30498126592636
      vertex -3.941670992784438 33.64937071443522 -18.964293442042585
      vertex -4 33.64487114939187 -18
    endloop
  endfacet
  facet normal -0.0769126171435 0.9970378374586079 -3.968977430538178e-16
    outer loop
      vertex 0.2822146236498497 33.975205988754205 -25.08364820522568
      vertex -4 33.64487114939187 18
      vertex 1.1631609036597155 34.043163172938 -25.48012994148332
    endloop
  endfacet
  facet normal -0.07691261714348895 0.9970378374586086 9.229610789832972e-16
    outer loop
      vertex 1.1631609036597155 34.043163172938 -25.48012994148332
      vertex -4 33.64487114939187 18
      vertex 2.0854746856995376 34.11431149262967 -25.767534539408416
    endloop
  endfacet
  facet normal -0.07691261714350645 0.9970378374586074 -1.5217763768280419e-15
    outer loop
      vertex 2.0854746856995376 34.11431149262967 -25.767534539408416
      vertex -4 33.64487114939187 18
      vertex 2.3954325726141406 34.138221991701236 -25.824336430293197
    endloop
  endfacet
  facet normal -0.07691261714349287 0.9970378374586084 3.1576152698301325e-16
    outer loop
      vertex -0.5445179738492527 33.911430908849944 -24.583870927149253
      vertex -4 33.64487114939187 18
      vertex 0.2822146236498497 33.975205988754205 -25.08364820522568
    endloop
  endfacet
  facet normal -0.07691261714349676 0.9970378374586082 0
    outer loop
      vertex -0.5445179738492527 33.911430908849944 -24.583870927149253
      vertex -4 33.64487114939187 -18
      vertex -4 33.64487114939187 18
    endloop
  endfacet
  facet normal -0.053019054565997856 0.9985935008064731 0
    outer loop
      vertex 2.3954325726141406 34.138221991701236 -25.824336430293197
      vertex 3.035706557957411 34.17221652635291 25.94167099278443
      vertex 3.035706557957411 34.17221652635291 -25.94167099278443
    endloop
  endfacet
  facet normal -0.053019054565998376 0.9985935008064731 0
    outer loop
      vertex 3.035706557957411 34.17221652635291 -25.94167099278443
      vertex 4 34.22341446283057 26
      vertex 4 34.22341446283057 -26
    endloop
  endfacet
  facet normal -0.0530190545659964 0.9985935008064732 0
    outer loop
      vertex 4 34.22341446283057 -26
      vertex 35.114910788381735 35.87542116182573 26
      vertex 35.114910788381735 35.87542116182573 -26
    endloop
  endfacet
  facet normal -0.02841176217900033 0.9995963043998731 0
    outer loop
      vertex 35.114910788381735 35.87542116182573 -26
      vertex 67.31991078838172 36.79079149377593 26
      vertex 67.31991078838172 36.79079149377593 -26
    endloop
  endfacet
  facet normal -0.07691261714349608 0.9970378374586082 0
    outer loop
      vertex 2.3954325726141406 34.138221991701236 -25.824336430293197
      vertex -4 33.64487114939187 18
      vertex 2.3954325726141406 34.138221991701236 25.824336430293197
    endloop
  endfacet
  facet normal -0.053019054565997856 0.9985935008064731 0
    outer loop
      vertex 2.3954325726141406 34.138221991701236 -25.824336430293197
      vertex 2.3954325726141406 34.138221991701236 25.824336430293197
      vertex 3.035706557957411 34.17221652635291 25.94167099278443
    endloop
  endfacet
  facet normal -0.053019054565998376 0.998593500806473 0
    outer loop
      vertex 3.035706557957411 34.17221652635291 -25.94167099278443
      vertex 3.035706557957411 34.17221652635291 25.94167099278443
      vertex 4 34.22341446283057 26
    endloop
  endfacet
  facet normal -0.07691261714353403 0.9970378374586053 3.605462222224047e-15
    outer loop
      vertex -4 33.64487114939187 18
      vertex -3.941670992784438 33.64937071443522 18.964293442042585
      vertex -3.767534539408416 33.66280379577482 19.914525314300462
    endloop
  endfacet
  facet normal -0.076912617143468 0.9970378374586104 -4.465109250374809e-15
    outer loop
      vertex -4 33.64487114939187 18
      vertex -3.767534539408416 33.66280379577482 19.914525314300462
      vertex -3.4801299414833125 33.684974508836056 20.836839096340285
    endloop
  endfacet
  facet normal -0.07691261714350205 0.9970378374586077 1.815762874563119e-15
    outer loop
      vertex -4 33.64487114939187 18
      vertex -3.4801299414833125 33.684974508836056 20.836839096340285
      vertex -3.0836482052256855 33.71555955469841 21.71778537635015
    endloop
  endfacet
  facet normal -0.07691261714350352 0.9970378374586075 2.175169803189524e-15
    outer loop
      vertex -4 33.64487114939187 18
      vertex -3.0836482052256855 33.71555955469841 21.71778537635015
      vertex -2.583870927149249 33.75411293452168 22.544517973849246
    endloop
  endfacet
  facet normal -0.07691261714350149 0.9970378374586079 1.5443468971262254e-15
    outer loop
      vertex -4 33.64487114939187 18
      vertex -2.583870927149249 33.75411293452168 22.544517973849246
      vertex -1.9880859853688122 33.80007245321339 23.30498126592636
    endloop
  endfacet
  facet normal -0.07691261714348561 0.997037837458609 -4.527117966656788e-15
    outer loop
      vertex -4 33.64487114939187 18
      vertex -1.9880859853688122 33.80007245321339 23.30498126592636
      vertex -1.304981265926358 33.852767917499186 23.98808598536881
    endloop
  endfacet
  facet normal -0.07691261714350384 0.9970378374586075 3.7172311464789845e-15
    outer loop
      vertex -4 33.64487114939187 18
      vertex -1.304981265926358 33.852767917499186 23.98808598536881
      vertex -0.5445179738492527 33.911430908849944 24.583870927149253
    endloop
  endfacet
  facet normal -0.07691261714349139 0.9970378374586085 -2.8595802241654406e-15
    outer loop
      vertex -4 33.64487114939187 18
      vertex -0.5445179738492527 33.911430908849944 24.583870927149253
      vertex 0.2822146236498497 33.975205988754205 25.08364820522568
    endloop
  endfacet
  facet normal -0.07691261714350128 0.9970378374586079 3.1678958402469565e-15
    outer loop
      vertex -4 33.64487114939187 18
      vertex 0.2822146236498497 33.975205988754205 25.08364820522568
      vertex 1.1631609036597155 34.043163172938 25.48012994148332
    endloop
  endfacet
  facet normal -0.07691261714348717 0.9970378374586089 -6.5413065863847645e-15
    outer loop
      vertex -4 33.64487114939187 18
      vertex 1.1631609036597155 34.043163172938 25.48012994148332
      vertex 2.0854746856995376 34.11431149262967 25.767534539408416
    endloop
  endfacet
  facet normal -0.0769126171435082 0.9970378374586071 9.663131820805491e-15
    outer loop
      vertex -4 33.64487114939187 18
      vertex 2.0854746856995376 34.11431149262967 25.767534539408416
      vertex 2.3954325726141406 34.138221991701236 25.824336430293197
    endloop
  endfacet
  facet normal -0.0530190545659964 0.9985935008064732 0
    outer loop
      vertex 4 34.22341446283057 -26
      vertex 4 34.22341446283057 26
      vertex 35.114910788381735 35.87542116182573 26
    endloop
  endfacet
  facet normal -0.02841176217900033 0.9995963043998731 0
    outer loop
      vertex 35.114910788381735 35.87542116182573 -26
      vertex 35.114910788381735 35.87542116182573 26
      vertex 67.31991078838172 36.79079149377593 26
    endloop
  endfacet
  facet normal -0.0036139219783089135 0.9999934697626454 0
    outer loop
      vertex 67.31991078838172 36.79079149377593 -26
      vertex 98.74985269709546 36.90437759336099 26
      vertex 98.74985269709546 36.90437759336099 -26
    endloop
  endfacet
  facet normal 0.021552405752916184 0.9997677199261144 0
    outer loop
      vertex 98.74985269709546 36.90437759336099 -26
      vertex 129.12411203319505 36.24958713692947 26
      vertex 129.12411203319505 36.24958713692947 -26
    endloop
  endfacet
  facet normal 0.04764169340908518 0.9988644898328876 0
    outer loop
      vertex 143.9642934420426 35.541772032866916 -25.94167099278443
      vertex 143 35.58776483067863 -26
      vertex 143 35.58776483067863 26
    endloop
  endfacet
  facet normal 0.0476416934090808 0.9988644898328878 -4.0757037972156356e-17
    outer loop
      vertex 145.83683909634027 35.4524593714753 -25.48012994148332
      vertex 144.91452531430048 35.496449913614065 -25.767534539408416
      vertex 143 35.58776483067863 26
    endloop
  endfacet
  facet normal 0.04764169340907859 0.9988644898328878 -1.2287705660995408e-16
    outer loop
      vertex 144.91452531430048 35.496449913614065 -25.767534539408416
      vertex 143.9642934420426 35.541772032866916 -25.94167099278443
      vertex 143 35.58776483067863 26
    endloop
  endfacet
  facet normal 0.047641693409082475 0.9988644898328876 5.1897623722396893e-17
    outer loop
      vertex 146.71778537635015 35.410441887613075 -25.08364820522568
      vertex 145.83683909634027 35.4524593714753 -25.48012994148332
      vertex 143 35.58776483067863 26
    endloop
  endfacet
  facet normal 0.04764169340907722 0.998864489832888 -3.320052147394112e-16
    outer loop
      vertex 146.71778537635015 35.410441887613075 -25.08364820522568
      vertex 143 35.58776483067863 26
      vertex 147.54451797384925 35.371010171557245 -24.583870927149253
    endloop
  endfacet
  facet normal 0.047641693409084966 0.9988644898328874 3.6561655892805467e-16
    outer loop
      vertex 147.54451797384925 35.371010171557245 -24.583870927149253
      vertex 143 35.58776483067863 26
      vertex 148.30498126592636 35.334739226520384 -23.98808598536881
    endloop
  endfacet
  facet normal 0.04764169340907935 0.9988644898328878 -2.304774778205131e-16
    outer loop
      vertex 148.30498126592636 35.334739226520384 -23.98808598536881
      vertex 143 35.58776483067863 26
      vertex 148.9880859853688 35.302157964556194 -23.30498126592636
    endloop
  endfacet
  facet normal 0.0476416934090731 0.9988644898328881 -9.919868425439787e-16
    outer loop
      vertex 148.9880859853688 35.302157964556194 -23.30498126592636
      vertex 143 35.58776483067863 26
      vertex 149.58387092714923 35.27374149383073 -22.544517973849246
    endloop
  endfacet
  facet normal 0.04764169340908806 0.9988644898328874 1.0397263687265068e-15
    outer loop
      vertex 150.0836482052257 35.24990419047546 -21.71778537635015
      vertex 149.58387092714923 35.27374149383073 -22.544517973849246
      vertex 143 35.58776483067863 26
    endloop
  endfacet
  facet normal 0.04764169340907705 0.998864489832888 -5.983480468194635e-16
    outer loop
      vertex 150.0836482052257 35.24990419047546 -21.71778537635015
      vertex 143 35.58776483067863 26
      vertex 150.4801299414833 35.23099365605027 -20.836839096340285
    endloop
  endfacet
  facet normal 0.04764169340907606 0.9988644898328879 -7.557337639466794e-16
    outer loop
      vertex 150.4801299414833 35.23099365605027 -20.836839096340285
      vertex 143 35.58776483067863 26
      vertex 150.76753453940842 35.217285648729884 -19.914525314300462
    endloop
  endfacet
  facet normal 0.04764169340908871 0.9988644898328873 1.3901379280661212e-15
    outer loop
      vertex 150.76753453940842 35.217285648729884 -19.914525314300462
      vertex 143 35.58776483067863 26
      vertex 150.94167099278445 35.20898006212877 -18.964293442042585
    endloop
  endfacet
  facet normal 0.04764169340908244 0.9988644898328877 2.804543842241735e-16
    outer loop
      vertex 150.94167099278445 35.20898006212877 -18.964293442042585
      vertex 143 35.58776483067863 26
      vertex 151 35.206198010402126 -18
    endloop
  endfacet
  facet normal 0.04764169340908051 0.9988644898328878 0
    outer loop
      vertex 143 35.58776483067863 -26
      vertex 129.12411203319505 36.24958713692947 -26
      vertex 143 35.58776483067863 26
    endloop
  endfacet
  facet normal -0.0036139219783089135 0.9999934697626454 0
    outer loop
      vertex 67.31991078838172 36.79079149377593 -26
      vertex 67.31991078838172 36.79079149377593 26
      vertex 98.74985269709546 36.90437759336099 26
    endloop
  endfacet
  facet normal 0.021552405752916184 0.9997677199261144 0
    outer loop
      vertex 98.74985269709546 36.90437759336099 -26
      vertex 98.74985269709546 36.90437759336099 26
      vertex 129.12411203319505 36.24958713692947 26
    endloop
  endfacet
  facet normal 0.04764169340908707 0.9988644898328874 0
    outer loop
      vertex 151 35.206198010402126 -18
      vertex 150.94167099278445 35.20898006212877 18.964293442042585
      vertex 151 35.206198010402126 18
    endloop
  endfacet
  facet normal 0.04764169340909637 0.998864489832887 1.4696652960791946e-17
    outer loop
      vertex 151 35.206198010402126 -18
      vertex 150.76753453940842 35.217285648729884 19.914525314300462
      vertex 150.94167099278445 35.20898006212877 18.964293442042585
    endloop
  endfacet
  facet normal 0.04764169340907322 0.9988644898328881 -1.2741309612758757e-16
    outer loop
      vertex 151 35.206198010402126 -18
      vertex 150.4801299414833 35.23099365605027 20.836839096340285
      vertex 150.76753453940842 35.217285648729884 19.914525314300462
    endloop
  endfacet
  facet normal 0.04764169340907551 0.998864489832888 -9.6959200835273e-17
    outer loop
      vertex 151 35.206198010402126 -18
      vertex 150.0836482052257 35.24990419047546 21.71778537635015
      vertex 150.4801299414833 35.23099365605027 20.836839096340285
    endloop
  endfacet
  facet normal 0.04764169340909017 0.9988644898328873 2.421366704425238e-16
    outer loop
      vertex 151 35.206198010402126 -18
      vertex 149.58387092714923 35.27374149383073 22.544517973849246
      vertex 150.0836482052257 35.24990419047546 21.71778537635015
    endloop
  endfacet
  facet normal 0.04764169340907129 0.9988644898328882 -4.180430117531829e-16
    outer loop
      vertex 151 35.206198010402126 -18
      vertex 148.9880859853688 35.302157964556194 23.30498126592636
      vertex 149.58387092714923 35.27374149383073 22.544517973849246
    endloop
  endfacet
  facet normal 0.047641693409085265 0.9988644898328876 7.928280144622502e-16
    outer loop
      vertex 151 35.206198010402126 -18
      vertex 143 35.58776483067863 26
      vertex 143.9642934420426 35.541772032866916 25.94167099278443
    endloop
  endfacet
  facet normal 0.0476416934090791 0.9988644898328878 -3.9249776831418116e-17
    outer loop
      vertex 151 35.206198010402126 -18
      vertex 148.30498126592636 35.334739226520384 23.98808598536881
      vertex 148.9880859853688 35.302157964556194 23.30498126592636
    endloop
  endfacet
  facet normal 0.047641693409076806 0.9988644898328879 -3.3455856273177534e-16
    outer loop
      vertex 151 35.206198010402126 -18
      vertex 146.71778537635015 35.410441887613075 25.08364820522568
      vertex 147.54451797384925 35.371010171557245 24.583870927149253
    endloop
  endfacet
  facet normal 0.047641693409078464 0.9988644898328878 -2.8456258021023884e-16
    outer loop
      vertex 151 35.206198010402126 -18
      vertex 143.9642934420426 35.541772032866916 25.94167099278443
      vertex 144.91452531430048 35.496449913614065 25.767534539408416
    endloop
  endfacet
  facet normal 0.047641693409080865 0.9988644898328879 2.8715901144797053e-17
    outer loop
      vertex 151 35.206198010402126 -18
      vertex 144.91452531430048 35.496449913614065 25.767534539408416
      vertex 145.83683909634027 35.4524593714753 25.48012994148332
    endloop
  endfacet
  facet normal 0.0476416934090826 0.9988644898328878 2.4469224073198515e-16
    outer loop
      vertex 151 35.206198010402126 -18
      vertex 145.83683909634027 35.4524593714753 25.48012994148332
      vertex 146.71778537635015 35.410441887613075 25.08364820522568
    endloop
  endfacet
  facet normal 0.04764169340908559 0.9988644898328877 3.76666372169072e-16
    outer loop
      vertex 151 35.206198010402126 -18
      vertex 147.54451797384925 35.371010171557245 24.583870927149253
      vertex 148.30498126592636 35.334739226520384 23.98808598536881
    endloop
  endfacet
  facet normal 0.04764169340908051 0.9988644898328878 0
    outer loop
      vertex 129.12411203319505 36.24958713692947 -26
      vertex 129.12411203319505 36.24958713692947 26
      vertex 143 35.58776483067863 26
    endloop
  endfacet
  facet normal 0.07691261714348804 -0.9970378374586087 -4.5902172490611754e-15
    outer loop
      vertex -0.5445179738492527 32.40697446432482 -24.583870927149253
      vertex -4 32.14041470486674 -18
      vertex -1.304981265926358 32.34831147297407 -23.98808598536881
    endloop
  endfacet
  facet normal 0.07691261714350149 -0.9970378374586079 1.5443468971262262e-15
    outer loop
      vertex -1.9880859853688122 32.29561600868826 -23.30498126592636
      vertex -4 32.14041470486674 -18
      vertex -2.583870927149249 32.24965648999655 -22.544517973849246
    endloop
  endfacet
  facet normal 0.07691261714350218 -0.9970378374586077 1.8145377719616175e-15
    outer loop
      vertex -1.9880859853688122 32.29561600868826 -23.30498126592636
      vertex -1.304981265926358 32.34831147297407 -23.98808598536881
      vertex -4 32.14041470486674 -18
    endloop
  endfacet
  facet normal 0.07691261714349137 -0.9970378374586085 -2.8446865771645774e-15
    outer loop
      vertex -0.5445179738492527 32.40697446432482 -24.583870927149253
      vertex 0.2822146236498497 32.47074954422908 -25.08364820522568
      vertex -4 32.14041470486674 -18
    endloop
  endfacet
  facet normal 0.07691261714350399 -0.9970378374586075 2.479813297260232e-15
    outer loop
      vertex -3.0836482052256855 32.21110311017328 -21.71778537635015
      vertex -2.583870927149249 32.24965648999655 -22.544517973849246
      vertex -3.941670992784438 32.144914269910096 -18.964293442042585
    endloop
  endfacet
  facet normal 0.07691261714350246 -0.9970378374586076 1.998226515738945e-15
    outer loop
      vertex -3.0836482052256855 32.21110311017328 -21.71778537635015
      vertex -3.941670992784438 32.144914269910096 -18.964293442042585
      vertex -3.4801299414833125 32.18051806431093 -20.836839096340285
    endloop
  endfacet
  facet normal 0.07691261714343618 -0.9970378374586127 -1.4437223994323093e-14
    outer loop
      vertex -3.4801299414833125 32.18051806431093 -20.836839096340285
      vertex -3.941670992784438 32.144914269910096 -18.964293442042585
      vertex -3.767534539408416 32.158347351249695 -19.914525314300462
    endloop
  endfacet
  facet normal 0.07691261714350178 -0.9970378374586077 1.6345206613563032e-15
    outer loop
      vertex -2.583870927149249 32.24965648999655 -22.544517973849246
      vertex -4 32.14041470486674 -18
      vertex -3.941670992784438 32.144914269910096 -18.964293442042585
    endloop
  endfacet
  facet normal 0.07691261714350126 -0.9970378374586079 3.1678958402469553e-15
    outer loop
      vertex 0.2822146236498497 32.47074954422908 -25.08364820522568
      vertex 1.1631609036597155 32.538706728412876 -25.48012994148332
      vertex -4 32.14041470486674 -18
    endloop
  endfacet
  facet normal 0.07691261714349695 -0.9970378374586082 1.737534562008452e-16
    outer loop
      vertex 1.1631609036597155 32.538706728412876 -25.48012994148332
      vertex 2.0854746856995376 32.60985504810455 -25.767534539408416
      vertex -4 32.14041470486674 -18
    endloop
  endfacet
  facet normal 0.07691261714349529 -0.9970378374586083 -1.1435709830175203e-15
    outer loop
      vertex 2.0854746856995376 32.60985504810455 -25.767534539408416
      vertex 2.4928952957871857 32.641283930964114 -25.842197137185078
      vertex -4 32.14041470486674 -18
    endloop
  endfacet
  facet normal 0.05301905456600049 -0.9985935008064731 0
    outer loop
      vertex 2.4928952957871857 32.641283930964114 -25.842197137185078
      vertex 3.035706557957411 32.670103806023185 -25.94167099278443
      vertex 2.4928952957871857 32.641283930964114 25.842197137185078
    endloop
  endfacet
  facet normal 0.05301905456599104 -0.9985935008064735 0
    outer loop
      vertex 3.035706557957411 32.670103806023185 -25.94167099278443
      vertex 4 32.721301742500835 -26
      vertex 3.035706557957411 32.670103806023185 25.94167099278443
    endloop
  endfacet
  facet normal 0.07691261714349663 -0.9970378374586081 0
    outer loop
      vertex 2.4928952957871857 32.641283930964114 -25.842197137185078
      vertex 2.4928952957871857 32.641283930964114 25.842197137185078
      vertex -4 32.14041470486674 -18
    endloop
  endfacet
  facet normal 0.05301905456599652 -0.9985935008064731 1.0214840120445583e-16
    outer loop
      vertex 4 32.721301742500835 -26
      vertex 35.175993162929004 34.37655153265023 -26
      vertex 3.035706557957411 32.670103806023185 25.94167099278443
    endloop
  endfacet
  facet normal 0.028411762179000377 -0.9995963043998731 0
    outer loop
      vertex 35.175993162929004 34.37655153265023 -26
      vertex 67.34393374557374 35.290868516015856 -26
      vertex 35.175993162929004 34.37655153265023 26
    endloop
  endfacet
  facet normal 0.07691261714347482 -0.9970378374586099 0
    outer loop
      vertex -4 32.14041470486674 -18
      vertex -3.941670992784438 32.144914269910096 18.964293442042585
      vertex -4 32.14041470486674 18
    endloop
  endfacet
  facet normal 0.07691261714351483 -0.9970378374586067 -6.355773952447503e-17
    outer loop
      vertex -4 32.14041470486674 -18
      vertex -3.767534539408416 32.158347351249695 19.914525314300462
      vertex -3.941670992784438 32.144914269910096 18.964293442042585
    endloop
  endfacet
  facet normal 0.07691261714348177 -0.9970378374586093 1.4037573502656088e-16
    outer loop
      vertex -4 32.14041470486674 -18
      vertex -3.4801299414833125 32.18051806431093 20.836839096340285
      vertex -3.767534539408416 32.158347351249695 19.914525314300462
    endloop
  endfacet
  facet normal 0.07691261714349826 -0.9970378374586081 -8.103746664930487e-17
    outer loop
      vertex -4 32.14041470486674 -18
      vertex -3.0836482052256855 32.21110311017328 21.71778537635015
      vertex -3.4801299414833125 32.18051806431093 20.836839096340285
    endloop
  endfacet
  facet normal 0.07691261714350016 -0.997037837458608 -1.2537642933547376e-16
    outer loop
      vertex -4 32.14041470486674 -18
      vertex -2.583870927149249 32.24965648999655 22.544517973849246
      vertex -3.0836482052256855 32.21110311017328 21.71778537635015
    endloop
  endfacet
  facet normal 0.07691261714349963 -0.9970378374586077 -1.0911593598079201e-16
    outer loop
      vertex -4 32.14041470486674 -18
      vertex -1.9880859853688122 32.29561600868826 23.30498126592636
      vertex -2.583870927149249 32.24965648999655 22.544517973849246
    endloop
  endfacet
  facet normal 0.07691261714350056 -0.9970378374586077 -1.5258799855752883e-16
    outer loop
      vertex -4 32.14041470486674 -18
      vertex -1.304981265926358 32.34831147297407 23.98808598536881
      vertex -1.9880859853688122 32.29561600868826 23.30498126592636
    endloop
  endfacet
  facet normal 0.07691261714349132 -0.9970378374586086 4.453326337955711e-16
    outer loop
      vertex -4 32.14041470486674 -18
      vertex -0.5445179738492527 32.40697446432482 24.583870927149253
      vertex -1.304981265926358 32.34831147297407 23.98808598536881
    endloop
  endfacet
  facet normal 0.07691261714349289 -0.9970378374586084 3.174147286949663e-16
    outer loop
      vertex -4 32.14041470486674 -18
      vertex 0.2822146236498497 32.47074954422908 25.08364820522568
      vertex -0.5445179738492527 32.40697446432482 24.583870927149253
    endloop
  endfacet
  facet normal 0.053019054566000486 -0.998593500806473 0
    outer loop
      vertex 3.035706557957411 32.670103806023185 -25.94167099278443
      vertex 3.035706557957411 32.670103806023185 25.94167099278443
      vertex 2.4928952957871857 32.641283930964114 25.842197137185078
    endloop
  endfacet
  facet normal 0.07691261714349998 -0.9970378374586079 -3.9689774305381764e-16
    outer loop
      vertex -4 32.14041470486674 -18
      vertex 1.1631609036597155 32.538706728412876 25.48012994148332
      vertex 0.2822146236498497 32.47074954422908 25.08364820522568
    endloop
  endfacet
  facet normal 0.07691261714349688 -0.9970378374586081 -3.4396065055278154e-17
    outer loop
      vertex -4 32.14041470486674 -18
      vertex 2.0854746856995376 32.60985504810455 25.767534539408416
      vertex 1.1631609036597155 32.538706728412876 25.48012994148332
    endloop
  endfacet
  facet normal 0.07691261714349558 -0.9970378374586082 1.7835863772807483e-16
    outer loop
      vertex -4 32.14041470486674 -18
      vertex 2.4928952957871857 32.641283930964114 25.842197137185078
      vertex 2.0854746856995376 32.60985504810455 25.767534539408416
    endloop
  endfacet
  facet normal 0.05301905456599119 -0.9985935008064735 -3.1406766493181293e-15
    outer loop
      vertex 35.175993162929004 34.37655153265023 -26
      vertex 4 32.721301742500835 26
      vertex 3.035706557957411 32.670103806023185 25.94167099278443
    endloop
  endfacet
  facet normal 0.05301905456599653 -0.9985935008064734 0
    outer loop
      vertex 35.175993162929004 34.37655153265023 -26
      vertex 35.175993162929004 34.37655153265023 26
      vertex 4 32.721301742500835 26
    endloop
  endfacet
  facet normal 0.028411762179000377 -0.9995963043998731 0
    outer loop
      vertex 35.175993162929004 34.37655153265023 26
      vertex 67.34393374557374 35.290868516015856 -26
      vertex 67.34393374557374 35.290868516015856 26
    endloop
  endfacet
  facet normal 0.003613921978308713 -0.9999934697626454 0
    outer loop
      vertex 67.34393374557374 35.290868516015856 -26
      vertex 98.73639670352443 35.404319168712526 -26
      vertex 67.34393374557374 35.290868516015856 26
    endloop
  endfacet
  facet normal -0.021552405752916153 -0.9997677199261145 0
    outer loop
      vertex 98.73639670352443 35.404319168712526 -26
      vertex 129.07220761603998 34.75035756083165 -26
      vertex 98.73639670352443 35.404319168712526 26
    endloop
  endfacet
  facet normal -0.04764169340908387 -0.9988644898328877 -1.7826280985491214e-15
    outer loop
      vertex 147.54451797384925 33.86930497003291 -24.583870927149253
      vertex 148.30498126592636 33.833034024996046 -23.98808598536881
      vertex 141.02133187641215 34.18043389219177 -10
    endloop
  endfacet
  facet normal -0.047641693409082184 -0.9988644898328877 -7.11539825015318e-16
    outer loop
      vertex 146.71778537635015 33.90873668608874 -25.08364820522568
      vertex 141.02133187641215 34.18043389219177 -10
      vertex 145.83683909634027 33.95075416995096 -25.48012994148332
    endloop
  endfacet
  facet normal -0.047641693409077625 -0.9988644898328879 1.0136038325150911e-15
    outer loop
      vertex 146.71778537635015 33.90873668608874 -25.08364820522568
      vertex 147.54451797384925 33.86930497003291 -24.583870927149253
      vertex 141.02133187641215 34.18043389219177 -10
    endloop
  endfacet
  facet normal -0.047641693409079575 -0.9988644898328878 4.521837498754264e-16
    outer loop
      vertex 148.30498126592636 33.833034024996046 -23.98808598536881
      vertex 148.9880859853688 33.800452763031856 -23.30498126592636
      vertex 141.02133187641215 34.18043389219177 -10
    endloop
  endfacet
  facet normal -0.04764169340908446 -0.9988644898328877 -3.2213621697406497e-15
    outer loop
      vertex 149.58387092714923 33.77203629230639 -22.544517973849246
      vertex 150.0836482052257 33.748198988951124 -21.71778537635015
      vertex 141.02133187641215 34.18043389219177 -10
    endloop
  endfacet
  facet normal -0.047641693409075515 -0.998864489832888 2.89029099602194e-15
    outer loop
      vertex 148.9880859853688 33.800452763031856 -23.30498126592636
      vertex 149.58387092714923 33.77203629230639 -22.544517973849246
      vertex 141.02133187641215 34.18043389219177 -10
    endloop
  endfacet
  facet normal -0.04764169340907861 -0.9988644898328878 1.3039589440570288e-15
    outer loop
      vertex 150.0836482052257 33.748198988951124 -21.71778537635015
      vertex 150.4801299414833 33.729288454525935 -20.836839096340285
      vertex 141.02133187641215 34.18043389219177 -10
    endloop
  endfacet
  facet normal -0.047641693409077125 -0.9988644898328879 1.0867739348864654e-15
    outer loop
      vertex 150.4801299414833 33.729288454525935 -20.836839096340285
      vertex 150.76753453940842 33.71558044720555 -19.914525314300462
      vertex 145.01992570873134 33.98971755041986 -10
    endloop
  endfacet
  facet normal -0.04764169340908314 -0.9988644898328877 -2.414463127159338e-15
    outer loop
      vertex 150.76753453940842 33.71558044720555 -19.914525314300462
      vertex 150.94167099278445 33.70727486060443 -18.964293442042585
      vertex 145.01992570873134 33.98971755041986 -10
    endloop
  endfacet
  facet normal -0.04764169340908124 -0.9988644898328878 -1.0032125442672736e-15
    outer loop
      vertex 150.4801299414833 33.729288454525935 -20.836839096340285
      vertex 145.01992570873134 33.98971755041986 -10
      vertex 141.02133187641215 34.18043389219177 -10
    endloop
  endfacet
  facet normal -0.04764169340908012 -0.9988644898328878 -4.208750126121258e-16
    outer loop
      vertex 150.94167099278445 33.70727486060443 -18.964293442042585
      vertex 151 33.70449280887779 -18
      vertex 145.01992570873134 33.98971755041986 -10
    endloop
  endfacet
  facet normal -0.0476416934090851 -0.9988644898328876 -1.2470361745111211e-15
    outer loop
      vertex 143.9642934420426 34.04006683134258 -25.94167099278443
      vertex 129.07220761603998 34.75035756083165 26
      vertex 143 34.08605962915429 -26
    endloop
  endfacet
  facet normal -0.04764169340907867 -0.9988644898328879 5.998442808379388e-16
    outer loop
      vertex 144.91452531430048 33.99474471208973 -25.767534539408416
      vertex 129.07220761603998 34.75035756083165 26
      vertex 143.9642934420426 34.04006683134258 -25.94167099278443
    endloop
  endfacet
  facet normal -0.047641693409080775 -0.9988644898328878 -4.452892078873457e-17
    outer loop
      vertex 144.91452531430048 33.99474471208973 -25.767534539408416
      vertex 145.83683909634027 33.95075416995096 -25.48012994148332
      vertex 129.07220761603998 34.75035756083165 26
    endloop
  endfacet
  facet normal -0.04764169340909645 -0.9988644898328869 -5.117228955191519e-15
    outer loop
      vertex 145.83683909634027 33.95075416995096 -25.48012994148332
      vertex 141.02133187641215 34.18043389219177 -10
      vertex 129.07220761603998 34.75035756083165 26
    endloop
  endfacet
  facet normal -0.04764169340907957 -0.9988644898328878 0
    outer loop
      vertex 151 33.70449280887779 -18
      vertex 151 33.70449280887779 18
      vertex 145.01992570873134 33.98971755041986 -10
    endloop
  endfacet
  facet normal -0.04764169340908045 -0.9988644898328878 0
    outer loop
      vertex 143 34.08605962915429 -26
      vertex 129.07220761603998 34.75035756083165 26
      vertex 129.07220761603998 34.75035756083165 -26
    endloop
  endfacet
  facet normal 0.003613921978308713 -0.9999934697626454 0
    outer loop
      vertex 67.34393374557374 35.290868516015856 26
      vertex 98.73639670352443 35.404319168712526 -26
      vertex 98.73639670352443 35.404319168712526 26
    endloop
  endfacet
  facet normal -0.04764169340907957 -0.9988644898328878 0
    outer loop
      vertex 151 33.70449280887779 18
      vertex 145.01992570873134 33.98971755041986 10
      vertex 145.01992570873134 33.98971755041986 -10
    endloop
  endfacet
  facet normal -0.047641693409081254 -0.9988644898328878 1.2618882855491947e-15
    outer loop
      vertex 151 33.70449280887779 18
      vertex 141.02133187641215 34.18043389219177 10
      vertex 145.01992570873134 33.98971755041986 10
    endloop
  endfacet
  facet normal -0.047641693409080504 -0.9988644898328878 3.2671270871325825e-16
    outer loop
      vertex 151 33.70449280887779 18
      vertex 129.07220761603998 34.75035756083165 26
      vertex 141.02133187641215 34.18043389219177 10
    endloop
  endfacet
  facet normal -0.04764169340910083 -0.9988644898328868 -8.337021964549163e-16
    outer loop
      vertex 151 33.70449280887779 18
      vertex 150.94167099278445 33.70727486060443 18.964293442042585
      vertex 150.76753453940842 33.71558044720555 19.914525314300462
    endloop
  endfacet
  facet normal -0.047641693409080456 -0.9988644898328878 4.458846755694321e-16
    outer loop
      vertex 151 33.70449280887779 18
      vertex 143 34.08605962915429 26
      vertex 129.07220761603998 34.75035756083165 26
    endloop
  endfacet
  facet normal -0.04764169340906065 -0.9988644898328887 4.05279013520777e-15
    outer loop
      vertex 151 33.70449280887779 18
      vertex 150.76753453940842 33.71558044720555 19.914525314300462
      vertex 150.4801299414833 33.729288454525935 20.836839096340285
    endloop
  endfacet
  facet normal -0.04764169340907089 -0.9988644898328882 2.1725125982268405e-15
    outer loop
      vertex 151 33.70449280887779 18
      vertex 150.4801299414833 33.729288454525935 20.836839096340285
      vertex 150.0836482052257 33.748198988951124 21.71778537635015
    endloop
  endfacet
  facet normal -0.04764169340909671 -0.9988644898328869 -4.200856385709705e-15
    outer loop
      vertex 151 33.70449280887779 18
      vertex 150.0836482052257 33.748198988951124 21.71778537635015
      vertex 149.58387092714923 33.77203629230639 22.544517973849246
    endloop
  endfacet
  facet normal -0.04764169340907524 -0.9988644898328881 3.0140285353058647e-15
    outer loop
      vertex 151 33.70449280887779 18
      vertex 147.54451797384925 33.86930497003291 24.583870927149253
      vertex 146.71778537635015 33.90873668608874 25.08364820522568
    endloop
  endfacet
  facet normal -0.047641693409078666 -0.998864489832888 4.683305875483364e-16
    outer loop
      vertex 151 33.70449280887779 18
      vertex 148.9880859853688 33.800452763031856 23.30498126592636
      vertex 148.30498126592636 33.833034024996046 23.98808598536881
    endloop
  endfacet
  facet normal -0.04764169340906431 -0.9988644898328886 5.916674061064575e-15
    outer loop
      vertex 151 33.70449280887779 18
      vertex 149.58387092714923 33.77203629230639 22.544517973849246
      vertex 148.9880859853688 33.800452763031856 23.30498126592636
    endloop
  endfacet
  facet normal -0.047641693409088304 -0.9988644898328873 -3.874507728224752e-15
    outer loop
      vertex 151 33.70449280887779 18
      vertex 148.30498126592636 33.833034024996046 23.98808598536881
      vertex 147.54451797384925 33.86930497003291 24.583870927149253
    endloop
  endfacet
  facet normal -0.047641693409085445 -0.9988644898328876 -4.590256164296913e-15
    outer loop
      vertex 151 33.70449280887779 18
      vertex 143.9642934420426 34.04006683134258 25.94167099278443
      vertex 143 34.08605962915429 26
    endloop
  endfacet
  facet normal -0.04764169340908084 -0.9988644898328878 -2.0479033683492329e-16
    outer loop
      vertex 151 33.70449280887779 18
      vertex 145.83683909634027 33.95075416995096 25.48012994148332
      vertex 144.91452531430048 33.99474471208973 25.767534539408416
    endloop
  endfacet
  facet normal -0.047641693409078256 -0.9988644898328879 1.8245121947901197e-15
    outer loop
      vertex 151 33.70449280887779 18
      vertex 144.91452531430048 33.99474471208973 25.767534539408416
      vertex 143.9642934420426 34.04006683134258 25.94167099278443
    endloop
  endfacet
  facet normal -0.04764169340908343 -0.9988644898328877 -1.9530459548379206e-15
    outer loop
      vertex 151 33.70449280887779 18
      vertex 146.71778537635015 33.90873668608874 25.08364820522568
      vertex 145.83683909634027 33.95075416995096 25.48012994148332
    endloop
  endfacet
  facet normal -0.021552405752916153 -0.9997677199261145 0
    outer loop
      vertex 129.07220761603998 34.75035756083165 -26
      vertex 129.07220761603998 34.75035756083165 26
      vertex 98.73639670352443 35.404319168712526 26
    endloop
  endfacet
  facet normal -0.047641693409080935 -0.9988644898328878 0
    outer loop
      vertex 129.07220761603998 34.75035756083165 26
      vertex 141.02133187641215 34.18043389219177 -10
      vertex 141.02133187641215 34.18043389219177 10
    endloop
  endfacet
  facet normal -0.4104128054527573 0 -0.9118998459920898
    outer loop
      vertex 0.2822146236498497 32.47074954422908 -25.08364820522568
      vertex 0.2822146236498497 33.975205988754205 -25.08364820522568
      vertex 1.1631609036597155 32.538706728412876 -25.48012994148332
    endloop
  endfacet
  facet normal -0.517337814177653 0 -0.8557812723014497
    outer loop
      vertex -0.5445179738492527 32.40697446432482 -24.583870927149253
      vertex -0.5445179738492527 33.911430908849944 -24.583870927149253
      vertex 0.2822146236498497 32.47074954422908 -25.08364820522568
    endloop
  endfacet
  facet normal -0.7871834806090533 0 -0.6167188726285391
    outer loop
      vertex -1.9880859853688122 32.29561600868826 -23.30498126592636
      vertex -2.583870927149249 32.24965648999655 -22.544517973849246
      vertex -2.583870927149249 33.75411293452168 -22.544517973849246
    endloop
  endfacet
  facet normal -0.7071067811865438 0 -0.7071067811865511
    outer loop
      vertex -1.9880859853688122 32.29561600868826 -23.30498126592636
      vertex -1.9880859853688122 33.80007245321339 -23.30498126592636
      vertex -1.304981265926358 32.34831147297407 -23.98808598536881
    endloop
  endfacet
  facet normal -0.616718872628549 0 -0.7871834806090454
    outer loop
      vertex -0.5445179738492527 32.40697446432482 -24.583870927149253
      vertex -1.304981265926358 32.34831147297407 -23.98808598536881
      vertex -1.304981265926358 33.852767917499186 -23.98808598536881
    endloop
  endfacet
  facet normal -0.9547208665085439 0 -0.29750305385520887
    outer loop
      vertex -3.4801299414833125 32.18051806431093 -20.836839096340285
      vertex -3.767534539408416 32.158347351249695 -19.914525314300462
      vertex -3.767534539408416 33.66280379577482 -19.914525314300462
    endloop
  endfacet
  facet normal -0.8557812723014429 0 -0.5173378141776644
    outer loop
      vertex -3.0836482052256855 32.21110311017328 -21.71778537635015
      vertex -3.0836482052256855 33.71555955469841 -21.71778537635015
      vertex -2.583870927149249 32.24965648999655 -22.544517973849246
    endloop
  endfacet
  facet normal -0.9118998459920954 0 -0.4104128054527452
    outer loop
      vertex -3.0836482052256855 32.21110311017328 -21.71778537635015
      vertex -3.4801299414833125 32.18051806431093 -20.836839096340285
      vertex -3.4801299414833125 33.684974508836056 -20.836839096340285
    endloop
  endfacet
  facet normal -0.9836199069471425 0 -0.18025503781391203
    outer loop
      vertex -3.767534539408416 32.158347351249695 -19.914525314300462
      vertex -3.941670992784438 32.144914269910096 -18.964293442042585
      vertex -3.941670992784438 33.64937071443522 -18.964293442042585
    endloop
  endfacet
  facet normal -0.9981755542233179 0 -0.060378497422279756
    outer loop
      vertex -3.941670992784438 32.144914269910096 -18.964293442042585
      vertex -4 32.14041470486674 -18
      vertex -4 33.64487114939187 -18
    endloop
  endfacet
  facet normal -0.7871834806090532 0 -0.6167188726285391
    outer loop
      vertex -1.9880859853688122 32.29561600868826 -23.30498126592636
      vertex -2.583870927149249 33.75411293452168 -22.544517973849246
      vertex -1.9880859853688122 33.80007245321339 -23.30498126592636
    endloop
  endfacet
  facet normal -0.7071067811865438 0 -0.7071067811865511
    outer loop
      vertex -1.304981265926358 32.34831147297407 -23.98808598536881
      vertex -1.9880859853688122 33.80007245321339 -23.30498126592636
      vertex -1.304981265926358 33.852767917499186 -23.98808598536881
    endloop
  endfacet
  facet normal -0.6167188726285491 0 -0.7871834806090455
    outer loop
      vertex -0.5445179738492527 32.40697446432482 -24.583870927149253
      vertex -1.304981265926358 33.852767917499186 -23.98808598536881
      vertex -0.5445179738492527 33.911430908849944 -24.583870927149253
    endloop
  endfacet
  facet normal -0.517337814177653 0 -0.8557812723014497
    outer loop
      vertex 0.2822146236498497 32.47074954422908 -25.08364820522568
      vertex -0.5445179738492527 33.911430908849944 -24.583870927149253
      vertex 0.2822146236498497 33.975205988754205 -25.08364820522568
    endloop
  endfacet
  facet normal -0.2975030538552021 0 -0.9547208665085458
    outer loop
      vertex 1.1631609036597155 32.538706728412876 -25.48012994148332
      vertex 1.1631609036597155 34.043163172938 -25.48012994148332
      vertex 2.0854746856995376 32.60985504810455 -25.767534539408416
    endloop
  endfacet
  facet normal -0.18025503781390265 0 -0.9836199069471443
    outer loop
      vertex 2.0854746856995376 32.60985504810455 -25.767534539408416
      vertex 2.0854746856995376 34.11431149262967 -25.767534539408416
      vertex 2.4928952957871857 32.641283930964114 -25.842197137185078
    endloop
  endfacet
  facet normal -0.18025503781390775 -1.1279632676459605e-15 -0.9836199069471432
    outer loop
      vertex 2.4928952957871857 32.641283930964114 -25.842197137185078
      vertex 2.3954325726141406 34.138221991701236 -25.824336430293197
      vertex 3.035706557957411 32.670103806023185 -25.94167099278443
    endloop
  endfacet
  facet normal -0.06037849742228686 0 -0.9981755542233175
    outer loop
      vertex 3.035706557957411 32.670103806023185 -25.94167099278443
      vertex 3.035706557957411 34.17221652635291 -25.94167099278443
      vertex 4 32.721301742500835 -26
    endloop
  endfacet
  facet normal -0.4104128054527573 0 -0.9118998459920898
    outer loop
      vertex 1.1631609036597155 32.538706728412876 -25.48012994148332
      vertex 0.2822146236498497 33.975205988754205 -25.08364820522568
      vertex 1.1631609036597155 34.043163172938 -25.48012994148332
    endloop
  endfacet
  facet normal -0.29750305385520215 0 -0.9547208665085458
    outer loop
      vertex 2.0854746856995376 32.60985504810455 -25.767534539408416
      vertex 1.1631609036597155 34.043163172938 -25.48012994148332
      vertex 2.0854746856995376 34.11431149262967 -25.767534539408416
    endloop
  endfacet
  facet normal -0.18025503781390623 -1.0282094116159888e-15 -0.9836199069471434
    outer loop
      vertex 2.4928952957871857 32.641283930964114 -25.842197137185078
      vertex 2.0854746856995376 34.11431149262967 -25.767534539408416
      vertex 2.3954325726141406 34.138221991701236 -25.824336430293197
    endloop
  endfacet
  facet normal -0.18025503781390523 0 -0.9836199069471437
    outer loop
      vertex 3.035706557957411 32.670103806023185 -25.94167099278443
      vertex 2.3954325726141406 34.138221991701236 -25.824336430293197
      vertex 3.035706557957411 34.17221652635291 -25.94167099278443
    endloop
  endfacet
  facet normal -0.8557812723014429 0 -0.5173378141776644
    outer loop
      vertex -2.583870927149249 32.24965648999655 -22.544517973849246
      vertex -3.0836482052256855 33.71555955469841 -21.71778537635015
      vertex -2.583870927149249 33.75411293452168 -22.544517973849246
    endloop
  endfacet
  facet normal -0.9118998459920953 0 -0.41041280545274506
    outer loop
      vertex -3.0836482052256855 32.21110311017328 -21.71778537635015
      vertex -3.4801299414833125 33.684974508836056 -20.836839096340285
      vertex -3.0836482052256855 33.71555955469841 -21.71778537635015
    endloop
  endfacet
  facet normal -0.9836199069471425 0 -0.18025503781391208
    outer loop
      vertex -3.767534539408416 32.158347351249695 -19.914525314300462
      vertex -3.941670992784438 33.64937071443522 -18.964293442042585
      vertex -3.767534539408416 33.66280379577482 -19.914525314300462
    endloop
  endfacet
  facet normal -0.9547208665085439 0 -0.29750305385520887
    outer loop
      vertex -3.4801299414833125 32.18051806431093 -20.836839096340285
      vertex -3.767534539408416 33.66280379577482 -19.914525314300462
      vertex -3.4801299414833125 33.684974508836056 -20.836839096340285
    endloop
  endfacet
  facet normal -0.06037849742228686 0 -0.9981755542233175
    outer loop
      vertex 4 32.721301742500835 -26
      vertex 3.035706557957411 34.17221652635291 -25.94167099278443
      vertex 4 34.22341446283057 -26
    endloop
  endfacet
  facet normal 0 0 -1
    outer loop
      vertex 4 32.721301742500835 -26
      vertex 4 34.22341446283057 -26
      vertex 35.175993162929004 34.37655153265023 -26
    endloop
  endfacet
  facet normal -0.9981755542233179 0 -0.060378497422279756
    outer loop
      vertex -3.941670992784438 32.144914269910096 -18.964293442042585
      vertex -4 33.64487114939187 -18
      vertex -3.941670992784438 33.64937071443522 -18.964293442042585
    endloop
  endfacet
  facet normal -1 0 0
    outer loop
      vertex -4 32.14041470486674 -18
      vertex -4 33.64487114939187 18
      vertex -4 33.64487114939187 -18
    endloop
  endfacet
  facet normal 0 0 -1
    outer loop
      vertex 4 34.22341446283057 -26
      vertex 35.114910788381735 35.87542116182573 -26
      vertex 35.175993162929004 34.37655153265023 -26
    endloop
  endfacet
  facet normal 0 0 -1
    outer loop
      vertex 35.175993162929004 34.37655153265023 -26
      vertex 35.114910788381735 35.87542116182573 -26
      vertex 67.34393374557374 35.290868516015856 -26
    endloop
  endfacet
  facet normal 0 0 -1
    outer loop
      vertex 67.34393374557374 35.290868516015856 -26
      vertex 35.114910788381735 35.87542116182573 -26
      vertex 67.31991078838172 36.79079149377593 -26
    endloop
  endfacet
  facet normal -1 0 0
    outer loop
      vertex -4 32.14041470486674 -18
      vertex -4 32.14041470486674 18
      vertex -4 33.64487114939187 18
    endloop
  endfacet
  facet normal -0.9981755542233178 0 0.060378497422279756
    outer loop
      vertex -4 32.14041470486674 18
      vertex -3.941670992784438 32.144914269910096 18.964293442042585
      vertex -3.941670992784438 33.64937071443522 18.964293442042585
    endloop
  endfacet
  facet normal -0.9836199069471425 0 0.18025503781391208
    outer loop
      vertex -3.941670992784438 32.144914269910096 18.964293442042585
      vertex -3.767534539408416 32.158347351249695 19.914525314300462
      vertex -3.767534539408416 33.66280379577482 19.914525314300462
    endloop
  endfacet
  facet normal -0.9547208665085439 0 0.29750305385520887
    outer loop
      vertex -3.767534539408416 32.158347351249695 19.914525314300462
      vertex -3.4801299414833125 32.18051806431093 20.836839096340285
      vertex -3.4801299414833125 33.684974508836056 20.836839096340285
    endloop
  endfacet
  facet normal -0.9118998459920953 0 0.410412805452745
    outer loop
      vertex -3.4801299414833125 32.18051806431093 20.836839096340285
      vertex -3.0836482052256855 32.21110311017328 21.71778537635015
      vertex -3.0836482052256855 33.71555955469841 21.71778537635015
    endloop
  endfacet
  facet normal -0.8557812723014429 0 0.5173378141776644
    outer loop
      vertex -3.0836482052256855 32.21110311017328 21.71778537635015
      vertex -2.583870927149249 32.24965648999655 22.544517973849246
      vertex -2.583870927149249 33.75411293452168 22.544517973849246
    endloop
  endfacet
  facet normal -0.7871834806090532 0 0.6167188726285391
    outer loop
      vertex -2.583870927149249 32.24965648999655 22.544517973849246
      vertex -1.9880859853688122 32.29561600868826 23.30498126592636
      vertex -1.9880859853688122 33.80007245321339 23.30498126592636
    endloop
  endfacet
  facet normal -0.7071067811865438 0 0.7071067811865512
    outer loop
      vertex -1.9880859853688122 32.29561600868826 23.30498126592636
      vertex -1.304981265926358 32.34831147297407 23.98808598536881
      vertex -1.304981265926358 33.852767917499186 23.98808598536881
    endloop
  endfacet
  facet normal -0.6167188726285491 0 0.7871834806090454
    outer loop
      vertex -1.304981265926358 32.34831147297407 23.98808598536881
      vertex -0.5445179738492527 32.40697446432482 24.583870927149253
      vertex -0.5445179738492527 33.911430908849944 24.583870927149253
    endloop
  endfacet
  facet normal -0.5173378141776531 0 0.8557812723014497
    outer loop
      vertex -0.5445179738492527 32.40697446432482 24.583870927149253
      vertex 0.2822146236498497 32.47074954422908 25.08364820522568
      vertex 0.2822146236498497 33.975205988754205 25.08364820522568
    endloop
  endfacet
  facet normal -0.9981755542233179 0 0.060378497422279756
    outer loop
      vertex -4 32.14041470486674 18
      vertex -3.941670992784438 33.64937071443522 18.964293442042585
      vertex -4 33.64487114939187 18
    endloop
  endfacet
  facet normal -0.9836199069471425 0 0.18025503781391208
    outer loop
      vertex -3.941670992784438 32.144914269910096 18.964293442042585
      vertex -3.767534539408416 33.66280379577482 19.914525314300462
      vertex -3.941670992784438 33.64937071443522 18.964293442042585
    endloop
  endfacet
  facet normal -0.9547208665085439 0 0.29750305385520887
    outer loop
      vertex -3.767534539408416 32.158347351249695 19.914525314300462
      vertex -3.4801299414833125 33.684974508836056 20.836839096340285
      vertex -3.767534539408416 33.66280379577482 19.914525314300462
    endloop
  endfacet
  facet normal -0.9118998459920953 0 0.41041280545274506
    outer loop
      vertex -3.4801299414833125 32.18051806431093 20.836839096340285
      vertex -3.0836482052256855 33.71555955469841 21.71778537635015
      vertex -3.4801299414833125 33.684974508836056 20.836839096340285
    endloop
  endfacet
  facet normal -0.8557812723014429 0 0.5173378141776644
    outer loop
      vertex -3.0836482052256855 32.21110311017328 21.71778537635015
      vertex -2.583870927149249 33.75411293452168 22.544517973849246
      vertex -3.0836482052256855 33.71555955469841 21.71778537635015
    endloop
  endfacet
  facet normal -0.7871834806090532 0 0.6167188726285391
    outer loop
      vertex -2.583870927149249 32.24965648999655 22.544517973849246
      vertex -1.9880859853688122 33.80007245321339 23.30498126592636
      vertex -2.583870927149249 33.75411293452168 22.544517973849246
    endloop
  endfacet
  facet normal -0.7071067811865438 0 0.7071067811865511
    outer loop
      vertex -1.9880859853688122 32.29561600868826 23.30498126592636
      vertex -1.304981265926358 33.852767917499186 23.98808598536881
      vertex -1.9880859853688122 33.80007245321339 23.30498126592636
    endloop
  endfacet
  facet normal -0.616718872628549 0 0.7871834806090454
    outer loop
      vertex -1.304981265926358 32.34831147297407 23.98808598536881
      vertex -0.5445179738492527 33.911430908849944 24.583870927149253
      vertex -1.304981265926358 33.852767917499186 23.98808598536881
    endloop
  endfacet
  facet normal -0.517337814177653 0 0.8557812723014497
    outer loop
      vertex -0.5445179738492527 32.40697446432482 24.583870927149253
      vertex 0.2822146236498497 33.975205988754205 25.08364820522568
      vertex -0.5445179738492527 33.911430908849944 24.583870927149253
    endloop
  endfacet
  facet normal -0.4104128054527573 0 0.9118998459920898
    outer loop
      vertex 0.2822146236498497 32.47074954422908 25.08364820522568
      vertex 1.1631609036597155 34.043163172938 25.48012994148332
      vertex 0.2822146236498497 33.975205988754205 25.08364820522568
    endloop
  endfacet
  facet normal -0.4104128054527574 0 0.9118998459920898
    outer loop
      vertex 0.2822146236498497 32.47074954422908 25.08364820522568
      vertex 1.1631609036597155 32.538706728412876 25.48012994148332
      vertex 1.1631609036597155 34.043163172938 25.48012994148332
    endloop
  endfacet
  facet normal -0.29750305385520215 0 0.9547208665085458
    outer loop
      vertex 1.1631609036597155 32.538706728412876 25.48012994148332
      vertex 2.0854746856995376 32.60985504810455 25.767534539408416
      vertex 2.0854746856995376 34.11431149262967 25.767534539408416
    endloop
  endfacet
  facet normal -0.18025503781390265 0 0.9836199069471443
    outer loop
      vertex 2.0854746856995376 32.60985504810455 25.767534539408416
      vertex 2.4928952957871857 32.641283930964114 25.842197137185078
      vertex 2.0854746856995376 34.11431149262967 25.767534539408416
    endloop
  endfacet
  facet normal -0.18025503781390784 0 0.9836199069471432
    outer loop
      vertex 2.4928952957871857 32.641283930964114 25.842197137185078
      vertex 3.035706557957411 32.670103806023185 25.94167099278443
      vertex 3.035706557957411 34.17221652635291 25.94167099278443
    endloop
  endfacet
  facet normal -0.06037849742228686 0 0.9981755542233175
    outer loop
      vertex 3.035706557957411 32.670103806023185 25.94167099278443
      vertex 4 32.721301742500835 26
      vertex 4 34.22341446283057 26
    endloop
  endfacet
  facet normal -0.2975030538552021 0 0.9547208665085458
    outer loop
      vertex 1.1631609036597155 32.538706728412876 25.48012994148332
      vertex 2.0854746856995376 34.11431149262967 25.767534539408416
      vertex 1.1631609036597155 34.043163172938 25.48012994148332
    endloop
  endfacet
  facet normal -0.18025503781390623 -1.0282094116159888e-15 0.9836199069471434
    outer loop
      vertex 2.4928952957871857 32.641283930964114 25.842197137185078
      vertex 2.3954325726141406 34.138221991701236 25.824336430293197
      vertex 2.0854746856995376 34.11431149262967 25.767534539408416
    endloop
  endfacet
  facet normal -0.18025503781390517 -9.562643165398929e-16 0.9836199069471437
    outer loop
      vertex 2.4928952957871857 32.641283930964114 25.842197137185078
      vertex 3.035706557957411 34.17221652635291 25.94167099278443
      vertex 2.3954325726141406 34.138221991701236 25.824336430293197
    endloop
  endfacet
  facet normal -0.06037849742228686 0 0.9981755542233175
    outer loop
      vertex 3.035706557957411 32.670103806023185 25.94167099278443
      vertex 4 34.22341446283057 26
      vertex 3.035706557957411 34.17221652635291 25.94167099278443
    endloop
  endfacet
  facet normal 0 0 1
    outer loop
      vertex 4 32.721301742500835 26
      vertex 35.175993162929004 34.37655153265023 26
      vertex 4 34.22341446283057 26
    endloop
  endfacet
  facet normal 0 0 1
    outer loop
      vertex 4 34.22341446283057 26
      vertex 35.175993162929004 34.37655153265023 26
      vertex 35.114910788381735 35.87542116182573 26
    endloop
  endfacet
  facet normal 0 0 1
    outer loop
      vertex 35.175993162929004 34.37655153265023 26
      vertex 67.31991078838172 36.79079149377593 26
      vertex 35.114910788381735 35.87542116182573 26
    endloop
  endfacet
  facet normal 0 0 1
    outer loop
      vertex 35.175993162929004 34.37655153265023 26
      vertex 67.34393374557374 35.290868516015856 26
      vertex 67.31991078838172 36.79079149377593 26
    endloop
  endfacet
  facet normal 0 0 -1
    outer loop
      vertex 67.34393374557374 35.290868516015856 -26
      vertex 67.31991078838172 36.79079149377593 -26
      vertex 98.73639670352443 35.404319168712526 -26
    endloop
  endfacet
  facet normal 0 0 -1
    outer loop
      vertex 67.31991078838172 36.79079149377593 -26
      vertex 98.74985269709546 36.90437759336099 -26
      vertex 98.73639670352443 35.404319168712526 -26
    endloop
  endfacet
  facet normal 0 0 -1
    outer loop
      vertex 98.73639670352443 35.404319168712526 -26
      vertex 98.74985269709546 36.90437759336099 -26
      vertex 129.07220761603998 34.75035756083165 -26
    endloop
  endfacet
  facet normal 0.7871834806090533 0 -0.6167188726285391
    outer loop
      vertex 148.9880859853688 33.800452763031856 -23.30498126592636
      vertex 148.9880859853688 35.302157964556194 -23.30498126592636
      vertex 149.58387092714923 33.77203629230639 -22.544517973849246
    endloop
  endfacet
  facet normal 0.85578127230143 0 -0.517337814177686
    outer loop
      vertex 149.58387092714923 33.77203629230639 -22.544517973849246
      vertex 149.58387092714923 35.27374149383073 -22.544517973849246
      vertex 150.0836482052257 33.748198988951124 -21.71778537635015
    endloop
  endfacet
  facet normal 0.9118998459921008 0 -0.41041280545273295
    outer loop
      vertex 150.0836482052257 33.748198988951124 -21.71778537635015
      vertex 150.0836482052257 35.24990419047546 -21.71778537635015
      vertex 150.4801299414833 33.729288454525935 -20.836839096340285
    endloop
  endfacet
  facet normal 0.9547208665085437 0 -0.29750305385520887
    outer loop
      vertex 150.4801299414833 33.729288454525935 -20.836839096340285
      vertex 150.4801299414833 35.23099365605027 -20.836839096340285
      vertex 150.76753453940842 33.71558044720555 -19.914525314300462
    endloop
  endfacet
  facet normal 0.9836199069471399 0 -0.1802550378139263
    outer loop
      vertex 150.76753453940842 33.71558044720555 -19.914525314300462
      vertex 150.76753453940842 35.217285648729884 -19.914525314300462
      vertex 150.94167099278445 33.70727486060443 -18.964293442042585
    endloop
  endfacet
  facet normal 0.9981755542233187 0 -0.06037849742226509
    outer loop
      vertex 150.94167099278445 33.70727486060443 -18.964293442042585
      vertex 150.94167099278445 35.20898006212877 -18.964293442042585
      vertex 151 33.70449280887779 -18
    endloop
  endfacet
  facet normal 1 0 0
    outer loop
      vertex 151 33.70449280887779 -18
      vertex 151 35.206198010402126 -18
      vertex 151 33.70449280887779 18
    endloop
  endfacet
  facet normal 0 0 -1
    outer loop
      vertex 98.74985269709546 36.90437759336099 -26
      vertex 129.12411203319505 36.24958713692947 -26
      vertex 129.07220761603998 34.75035756083165 -26
    endloop
  endfacet
  facet normal 0 0 -1
    outer loop
      vertex 143 34.08605962915429 -26
      vertex 129.07220761603998 34.75035756083165 -26
      vertex 143 35.58776483067863 -26
    endloop
  endfacet
  facet normal 0 0 -1
    outer loop
      vertex 129.07220761603998 34.75035756083165 -26
      vertex 129.12411203319505 36.24958713692947 -26
      vertex 143 35.58776483067863 -26
    endloop
  endfacet
  facet normal 0.06037849742228686 0 -0.9981755542233174
    outer loop
      vertex 143.9642934420426 34.04006683134258 -25.94167099278443
      vertex 143 34.08605962915429 -26
      vertex 143 35.58776483067863 -26
    endloop
  endfacet
  facet normal 0.4104128054527518 0 -0.9118998459920923
    outer loop
      vertex 146.71778537635015 33.90873668608874 -25.08364820522568
      vertex 145.83683909634027 33.95075416995096 -25.48012994148332
      vertex 145.83683909634027 35.4524593714753 -25.48012994148332
    endloop
  endfacet
  facet normal 0.18025503781390295 0 -0.9836199069471441
    outer loop
      vertex 144.91452531430048 33.99474471208973 -25.767534539408416
      vertex 143.9642934420426 34.04006683134258 -25.94167099278443
      vertex 143.9642934420426 35.541772032866916 -25.94167099278443
    endloop
  endfacet
  facet normal 0.29750305385521053 0 -0.9547208665085433
    outer loop
      vertex 144.91452531430048 33.99474471208973 -25.767534539408416
      vertex 144.91452531430048 35.496449913614065 -25.767534539408416
      vertex 145.83683909634027 33.95075416995096 -25.48012994148332
    endloop
  endfacet
  facet normal 0.517337814177653 0 -0.8557812723014497
    outer loop
      vertex 146.71778537635015 33.90873668608874 -25.08364820522568
      vertex 146.71778537635015 35.410441887613075 -25.08364820522568
      vertex 147.54451797384925 33.86930497003291 -24.583870927149253
    endloop
  endfacet
  facet normal 0.616718872628549 0 -0.7871834806090455
    outer loop
      vertex 147.54451797384925 33.86930497003291 -24.583870927149253
      vertex 147.54451797384925 35.371010171557245 -24.583870927149253
      vertex 148.30498126592636 33.833034024996046 -23.98808598536881
    endloop
  endfacet
  facet normal 0.7071067811865512 0 -0.7071067811865439
    outer loop
      vertex 148.30498126592636 33.833034024996046 -23.98808598536881
      vertex 148.30498126592636 35.334739226520384 -23.98808598536881
      vertex 148.9880859853688 33.800452763031856 -23.30498126592636
    endloop
  endfacet
  facet normal 0.4104128054527518 0 -0.9118998459920923
    outer loop
      vertex 146.71778537635015 33.90873668608874 -25.08364820522568
      vertex 145.83683909634027 35.4524593714753 -25.48012994148332
      vertex 146.71778537635015 35.410441887613075 -25.08364820522568
    endloop
  endfacet
  facet normal 0.517337814177653 0 -0.8557812723014497
    outer loop
      vertex 147.54451797384925 33.86930497003291 -24.583870927149253
      vertex 146.71778537635015 35.410441887613075 -25.08364820522568
      vertex 147.54451797384925 35.371010171557245 -24.583870927149253
    endloop
  endfacet
  facet normal 0.616718872628549 0 -0.7871834806090455
    outer loop
      vertex 148.30498126592636 33.833034024996046 -23.98808598536881
      vertex 147.54451797384925 35.371010171557245 -24.583870927149253
      vertex 148.30498126592636 35.334739226520384 -23.98808598536881
    endloop
  endfacet
  facet normal 0.7871834806090533 0 -0.6167188726285391
    outer loop
      vertex 149.58387092714923 33.77203629230639 -22.544517973849246
      vertex 148.9880859853688 35.302157964556194 -23.30498126592636
      vertex 149.58387092714923 35.27374149383073 -22.544517973849246
    endloop
  endfacet
  facet normal 0.7071067811865512 0 -0.7071067811865439
    outer loop
      vertex 148.9880859853688 33.800452763031856 -23.30498126592636
      vertex 148.30498126592636 35.334739226520384 -23.98808598536881
      vertex 148.9880859853688 35.302157964556194 -23.30498126592636
    endloop
  endfacet
  facet normal 0.85578127230143 0 -0.517337814177686
    outer loop
      vertex 150.0836482052257 33.748198988951124 -21.71778537635015
      vertex 149.58387092714923 35.27374149383073 -22.544517973849246
      vertex 150.0836482052257 35.24990419047546 -21.71778537635015
    endloop
  endfacet
  facet normal 0.9118998459921008 0 -0.41041280545273295
    outer loop
      vertex 150.4801299414833 33.729288454525935 -20.836839096340285
      vertex 150.0836482052257 35.24990419047546 -21.71778537635015
      vertex 150.4801299414833 35.23099365605027 -20.836839096340285
    endloop
  endfacet
  facet normal 0.9547208665085437 0 -0.29750305385520887
    outer loop
      vertex 150.76753453940842 33.71558044720555 -19.914525314300462
      vertex 150.4801299414833 35.23099365605027 -20.836839096340285
      vertex 150.76753453940842 35.217285648729884 -19.914525314300462
    endloop
  endfacet
  facet normal 0.060378497422286855 0 -0.9981755542233174
    outer loop
      vertex 143.9642934420426 34.04006683134258 -25.94167099278443
      vertex 143 35.58776483067863 -26
      vertex 143.9642934420426 35.541772032866916 -25.94167099278443
    endloop
  endfacet
  facet normal 0.18025503781390295 0 -0.9836199069471441
    outer loop
      vertex 144.91452531430048 33.99474471208973 -25.767534539408416
      vertex 143.9642934420426 35.541772032866916 -25.94167099278443
      vertex 144.91452531430048 35.496449913614065 -25.767534539408416
    endloop
  endfacet
  facet normal 0.29750305385521053 0 -0.9547208665085433
    outer loop
      vertex 145.83683909634027 33.95075416995096 -25.48012994148332
      vertex 144.91452531430048 35.496449913614065 -25.767534539408416
      vertex 145.83683909634027 35.4524593714753 -25.48012994148332
    endloop
  endfacet
  facet normal 0.9836199069471399 0 -0.1802550378139263
    outer loop
      vertex 150.94167099278445 33.70727486060443 -18.964293442042585
      vertex 150.76753453940842 35.217285648729884 -19.914525314300462
      vertex 150.94167099278445 35.20898006212877 -18.964293442042585
    endloop
  endfacet
  facet normal 0.9981755542233187 0 -0.06037849742226509
    outer loop
      vertex 151 33.70449280887779 -18
      vertex 150.94167099278445 35.20898006212877 -18.964293442042585
      vertex 151 35.206198010402126 -18
    endloop
  endfacet
  facet normal 0 0 1
    outer loop
      vertex 67.34393374557374 35.290868516015856 26
      vertex 98.74985269709546 36.90437759336099 26
      vertex 67.31991078838172 36.79079149377593 26
    endloop
  endfacet
  facet normal 0 0 1
    outer loop
      vertex 67.34393374557374 35.290868516015856 26
      vertex 98.73639670352443 35.404319168712526 26
      vertex 98.74985269709546 36.90437759336099 26
    endloop
  endfacet
  facet normal 0 0 1
    outer loop
      vertex 98.73639670352443 35.404319168712526 26
      vertex 129.12411203319505 36.24958713692947 26
      vertex 98.74985269709546 36.90437759336099 26
    endloop
  endfacet
  facet normal 0.9981755542233187 0 0.06037849742226509
    outer loop
      vertex 151 33.70449280887779 18
      vertex 151 35.206198010402126 18
      vertex 150.94167099278445 33.70727486060443 18.964293442042585
    endloop
  endfacet
  facet normal 0.9836199069471399 0 0.1802550378139263
    outer loop
      vertex 150.94167099278445 33.70727486060443 18.964293442042585
      vertex 150.94167099278445 35.20898006212877 18.964293442042585
      vertex 150.76753453940842 33.71558044720555 19.914525314300462
    endloop
  endfacet
  facet normal 0.9547208665085437 0 0.29750305385520887
    outer loop
      vertex 150.76753453940842 33.71558044720555 19.914525314300462
      vertex 150.76753453940842 35.217285648729884 19.914525314300462
      vertex 150.4801299414833 33.729288454525935 20.836839096340285
    endloop
  endfacet
  facet normal 0.9118998459921008 0 0.41041280545273295
    outer loop
      vertex 150.4801299414833 33.729288454525935 20.836839096340285
      vertex 150.4801299414833 35.23099365605027 20.836839096340285
      vertex 150.0836482052257 33.748198988951124 21.71778537635015
    endloop
  endfacet
  facet normal 0.85578127230143 0 0.517337814177686
    outer loop
      vertex 150.0836482052257 33.748198988951124 21.71778537635015
      vertex 150.0836482052257 35.24990419047546 21.71778537635015
      vertex 149.58387092714923 33.77203629230639 22.544517973849246
    endloop
  endfacet
  facet normal 0.7871834806090533 0 0.6167188726285391
    outer loop
      vertex 149.58387092714923 33.77203629230639 22.544517973849246
      vertex 149.58387092714923 35.27374149383073 22.544517973849246
      vertex 148.9880859853688 33.800452763031856 23.30498126592636
    endloop
  endfacet
  facet normal 1 0 0
    outer loop
      vertex 151 33.70449280887779 18
      vertex 151 35.206198010402126 -18
      vertex 151 35.206198010402126 18
    endloop
  endfacet
  facet normal 0 0 1
    outer loop
      vertex 98.73639670352443 35.404319168712526 26
      vertex 129.07220761603998 34.75035756083165 26
      vertex 129.12411203319505 36.24958713692947 26
    endloop
  endfacet
  facet normal 0.9981755542233187 0 0.06037849742226509
    outer loop
      vertex 150.94167099278445 33.70727486060443 18.964293442042585
      vertex 151 35.206198010402126 18
      vertex 150.94167099278445 35.20898006212877 18.964293442042585
    endloop
  endfacet
  facet normal 0 0 1
    outer loop
      vertex 143 34.08605962915429 26
      vertex 143 35.58776483067863 26
      vertex 129.07220761603998 34.75035756083165 26
    endloop
  endfacet
  facet normal 0 0 1
    outer loop
      vertex 129.07220761603998 34.75035756083165 26
      vertex 143 35.58776483067863 26
      vertex 129.12411203319505 36.24958713692947 26
    endloop
  endfacet
  facet normal 0.9836199069471399 0 0.1802550378139263
    outer loop
      vertex 150.76753453940842 33.71558044720555 19.914525314300462
      vertex 150.94167099278445 35.20898006212877 18.964293442042585
      vertex 150.76753453940842 35.217285648729884 19.914525314300462
    endloop
  endfacet
  facet normal 0.9547208665085437 0 0.29750305385520887
    outer loop
      vertex 150.4801299414833 33.729288454525935 20.836839096340285
      vertex 150.76753453940842 35.217285648729884 19.914525314300462
      vertex 150.4801299414833 35.23099365605027 20.836839096340285
    endloop
  endfacet
  facet normal 0.9118998459921008 0 0.41041280545273295
    outer loop
      vertex 150.0836482052257 33.748198988951124 21.71778537635015
      vertex 150.4801299414833 35.23099365605027 20.836839096340285
      vertex 150.0836482052257 35.24990419047546 21.71778537635015
    endloop
  endfacet
  facet normal 0.85578127230143 0 0.517337814177686
    outer loop
      vertex 149.58387092714923 33.77203629230639 22.544517973849246
      vertex 150.0836482052257 35.24990419047546 21.71778537635015
      vertex 149.58387092714923 35.27374149383073 22.544517973849246
    endloop
  endfacet
  facet normal 0.060378497422286855 0 0.9981755542233174
    outer loop
      vertex 143.9642934420426 34.04006683134258 25.94167099278443
      vertex 143.9642934420426 35.541772032866916 25.94167099278443
      vertex 143 34.08605962915429 26
    endloop
  endfacet
  facet normal 0.29750305385521053 0 0.9547208665085433
    outer loop
      vertex 144.91452531430048 33.99474471208973 25.767534539408416
      vertex 145.83683909634027 33.95075416995096 25.48012994148332
      vertex 145.83683909634027 35.4524593714753 25.48012994148332
    endloop
  endfacet
  facet normal 0.18025503781390295 0 0.9836199069471441
    outer loop
      vertex 144.91452531430048 33.99474471208973 25.767534539408416
      vertex 144.91452531430048 35.496449913614065 25.767534539408416
      vertex 143.9642934420426 34.04006683134258 25.94167099278443
    endloop
  endfacet
  facet normal 0.4104128054527518 0 0.9118998459920923
    outer loop
      vertex 145.83683909634027 33.95075416995096 25.48012994148332
      vertex 146.71778537635015 35.410441887613075 25.08364820522568
      vertex 145.83683909634027 35.4524593714753 25.48012994148332
    endloop
  endfacet
  facet normal 0.616718872628549 0 0.7871834806090455
    outer loop
      vertex 148.30498126592636 33.833034024996046 23.98808598536881
      vertex 148.30498126592636 35.334739226520384 23.98808598536881
      vertex 147.54451797384925 33.86930497003291 24.583870927149253
    endloop
  endfacet
  facet normal 0.7071067811865512 0 0.7071067811865439
    outer loop
      vertex 148.30498126592636 33.833034024996046 23.98808598536881
      vertex 148.9880859853688 33.800452763031856 23.30498126592636
      vertex 148.9880859853688 35.302157964556194 23.30498126592636
    endloop
  endfacet
  facet normal 0.517337814177653 0 0.8557812723014497
    outer loop
      vertex 146.71778537635015 33.90873668608874 25.08364820522568
      vertex 147.54451797384925 33.86930497003291 24.583870927149253
      vertex 147.54451797384925 35.371010171557245 24.583870927149253
    endloop
  endfacet
  facet normal 0.4104128054527518 0 0.9118998459920923
    outer loop
      vertex 146.71778537635015 33.90873668608874 25.08364820522568
      vertex 146.71778537635015 35.410441887613075 25.08364820522568
      vertex 145.83683909634027 33.95075416995096 25.48012994148332
    endloop
  endfacet
  facet normal 0.7071067811865512 0 0.7071067811865439
    outer loop
      vertex 148.30498126592636 33.833034024996046 23.98808598536881
      vertex 148.9880859853688 35.302157964556194 23.30498126592636
      vertex 148.30498126592636 35.334739226520384 23.98808598536881
    endloop
  endfacet
  facet normal 0.7871834806090533 0 0.6167188726285391
    outer loop
      vertex 148.9880859853688 33.800452763031856 23.30498126592636
      vertex 149.58387092714923 35.27374149383073 22.544517973849246
      vertex 148.9880859853688 35.302157964556194 23.30498126592636
    endloop
  endfacet
  facet normal 0.517337814177653 0 0.8557812723014497
    outer loop
      vertex 146.71778537635015 33.90873668608874 25.08364820522568
      vertex 147.54451797384925 35.371010171557245 24.583870927149253
      vertex 146.71778537635015 35.410441887613075 25.08364820522568
    endloop
  endfacet
  facet normal 0.616718872628549 0 0.7871834806090455
    outer loop
      vertex 147.54451797384925 33.86930497003291 24.583870927149253
      vertex 148.30498126592636 35.334739226520384 23.98808598536881
      vertex 147.54451797384925 35.371010171557245 24.583870927149253
    endloop
  endfacet
  facet normal 0.060378497422286855 0 0.9981755542233174
    outer loop
      vertex 143 34.08605962915429 26
      vertex 143.9642934420426 35.541772032866916 25.94167099278443
      vertex 143 35.58776483067863 26
    endloop
  endfacet
  facet normal 0.18025503781390295 0 0.9836199069471441
    outer loop
      vertex 143.9642934420426 34.04006683134258 25.94167099278443
      vertex 144.91452531430048 35.496449913614065 25.767534539408416
      vertex 143.9642934420426 35.541772032866916 25.94167099278443
    endloop
  endfacet
  facet normal 0.29750305385521053 0 0.9547208665085433
    outer loop
      vertex 144.91452531430048 33.99474471208973 25.767534539408416
      vertex 145.83683909634027 35.4524593714753 25.48012994148332
      vertex 144.91452531430048 35.496449913614065 25.767534539408416
    endloop
  endfacet
  facet normal -0.08715574274765821 -0.9961946980917454 0
    outer loop
      vertex 150.3899098007664 26.52663711335778 -10
      vertex 150.3899098007664 26.52663711335778 10
      vertex 140.42796281984894 27.39819454083436 -10
    endloop
  endfacet
  facet normal 0 0 -1
    outer loop
      vertex 150.3899098007664 26.52663711335778 -10
      vertex 140.42796281984894 27.39819454083436 -10
      vertex 144.65677769190935 29.838916724500617 -10
    endloop
  endfacet
  facet normal 0 0 -1
    outer loop
      vertex 150.63394588045983 29.315982268014668 -10
      vertex 150.3899098007664 26.52663711335778 -10
      vertex 144.65677769190935 29.838916724500617 -10
    endloop
  endfacet
  facet normal 0.9961946980917454 -0.0871557427476586 0
    outer loop
      vertex 150.63394588045983 29.315982268014668 -10
      vertex 150.63394588045983 29.315982268014668 10
      vertex 150.3899098007664 26.52663711335778 -10
    endloop
  endfacet
  facet normal 0 0 -1
    outer loop
      vertex 144.65677769190935 29.838916724500617 -10
      vertex 140.42796281984894 27.39819454083436 -10
      vertex 141.02133187641215 34.18043389219177 -10
    endloop
  endfacet
  facet normal -0.08715574274765821 -0.9961946980917454 0
    outer loop
      vertex 150.3899098007664 26.52663711335778 10
      vertex 140.42796281984894 27.39819454083436 10
      vertex 140.42796281984894 27.39819454083436 -10
    endloop
  endfacet
  facet normal 0.9961946980917454 -0.0871557427476586 0
    outer loop
      vertex 150.3899098007664 26.52663711335778 -10
      vertex 150.63394588045983 29.315982268014668 10
      vertex 150.3899098007664 26.52663711335778 10
    endloop
  endfacet
  facet normal 0 0 1
    outer loop
      vertex 150.3899098007664 26.52663711335778 10
      vertex 144.65677769190935 29.838916724500617 10
      vertex 140.42796281984894 27.39819454083436 10
    endloop
  endfacet
  facet normal 0 0 1
    outer loop
      vertex 150.63394588045983 29.315982268014668 10
      vertex 144.65677769190935 29.838916724500617 10
      vertex 150.3899098007664 26.52663711335778 10
    endloop
  endfacet
  facet normal -0.9961946980917454 0.0871557427476604 0
    outer loop
      vertex 140.42796281984894 27.39819454083436 -10
      vertex 140.42796281984894 27.39819454083436 10
      vertex 141.02133187641215 34.18043389219177 10
    endloop
  endfacet
  facet normal 0 0 1
    outer loop
      vertex 144.65677769190935 29.838916724500617 10
      vertex 145.01992570873134 33.98971755041986 10
      vertex 140.42796281984894 27.39819454083436 10
    endloop
  endfacet
  facet normal 0 0 -1
    outer loop
      vertex 144.65677769190935 29.838916724500617 -10
      vertex 141.02133187641215 34.18043389219177 -10
      vertex 145.01992570873134 33.98971755041986 -10
    endloop
  endfacet
  facet normal -0.9961946980917454 0.0871557427476604 0
    outer loop
      vertex 140.42796281984894 27.39819454083436 -10
      vertex 141.02133187641215 34.18043389219177 10
      vertex 141.02133187641215 34.18043389219177 -10
    endloop
  endfacet
  facet normal 0 0 1
    outer loop
      vertex 140.42796281984894 27.39819454083436 10
      vertex 145.01992570873134 33.98971755041986 10
      vertex 141.02133187641215 34.18043389219177 10
    endloop
  endfacet
  facet normal 0.08715574274765804 0.9961946980917454 0
    outer loop
      vertex 150.63394588045983 29.315982268014668 -10
      vertex 144.65677769190935 29.838916724500617 -10
      vertex 150.63394588045983 29.315982268014668 10
    endloop
  endfacet
  facet normal 0.9961946980917454 -0.08715574274765929 0
    outer loop
      vertex 144.65677769190935 29.838916724500617 -10
      vertex 145.01992570873134 33.98971755041986 -10
      vertex 144.65677769190935 29.838916724500617 10
    endloop
  endfacet
  facet normal 0.08715574274765804 0.9961946980917454 0
    outer loop
      vertex 150.63394588045983 29.315982268014668 10
      vertex 144.65677769190935 29.838916724500617 -10
      vertex 144.65677769190935 29.838916724500617 10
    endloop
  endfacet
  facet normal 0.9961946980917454 -0.08715574274765929 0
    outer loop
      vertex 144.65677769190935 29.838916724500617 10
      vertex 145.01992570873134 33.98971755041986 -10
      vertex 145.01992570873134 33.98971755041986 10
    endloop
  endfacet
endsolid OpenSCAD_Model
