solid OpenSCAD_Model
  facet normal 0.7194496417373173 -0.04758226973334232 0.6929127943768028
    outer loop
      vertex -420.0299996137619 17.7 153.19079983234406
      vertex -410.01449981331825 167.7 153.0922199189663
      vertex -410.28710010647774 167.7 153.37526012957096
    endloop
  endfacet
  facet normal 0 1 0
    outer loop
      vertex -468 168 153
      vertex -449.39185985922813 168 150.35345996916294
      vertex -452.1091600507498 168 150.73103979229927
    endloop
  endfacet
  facet normal 0 1 0
    outer loop
      vertex -468 168 153
      vertex -446.59278009831905 168 149.99733990430832
      vertex -449.39185985922813 168 150.35345996916294
    endloop
  endfacet
  facet normal 0 1 0
    outer loop
      vertex -468 168 153
      vertex -443.74091996252537 168 149.67196010053158
      vertex -446.59278009831905 168 149.99733990430832
    endloop
  endfacet
  facet normal -0.0032261258302500977 0.01449474913392222 0.9998897411013236
    outer loop
      vertex -428.18125991523266 168 154.94532017409801
      vertex -431.05747985839844 168 154.93604010343552
      vertex -457.6163998246193 18 157.0248003602028
    endloop
  endfacet
  facet normal 0.006939377186926793 0.012500040718505282 0.9998977917898876
    outer loop
      vertex -425.42335990071297 168 154.92618010938168
      vertex -428.18125991523266 168 154.94532017409801
      vertex -451.91039979457855 18 156.98520022630692
    endloop
  endfacet
  facet normal 0.01845674595924521 0.010464613695842999 0.999774894858234
    outer loop
      vertex -422.8156799226999 168 154.87803998589516
      vertex -425.42335990071297 168 154.92618010938168
      vertex -446.5151998400688 18 156.88559997081757
    endloop
  endfacet
  facet normal 0.031747940183605446 0.008360445663864648 0.999460940328535
    outer loop
      vertex -420.3872200399637 168 154.80089980363846
      vertex -422.8156799226999 168 154.87803998589516
      vertex -441.49080008268356 18 156.72599959373474
    endloop
  endfacet
  facet normal 0.048493304578277906 0.005996119614195462 0.9988055095766395
    outer loop
      vertex -418.1652401089668 168 154.69301979243755
      vertex -420.3872200399637 168 154.80089980363846
      vertex -436.8936002254486 18 156.50279957056046
    endloop
  endfacet
  facet normal 0.07002810403443868 0.0032921028063782488 0.9975395865350176
    outer loop
      vertex -416.17409993708134 168 154.55324010550976
      vertex -418.1652401089668 168 154.69301979243755
      vertex -432.77399986982346 18 156.21360021829605
    endloop
  endfacet
  facet normal 0.098616138437239 0.00010165819652994684 0.9951255432885531
    outer loop
      vertex -414.43584007024765 168 154.38097995519638
      vertex -416.17409993708134 168 154.55324010550976
      vertex -429.17760014533997 18 155.85719990730286
    endloop
  endfacet
  facet normal 0.09964031212477553 0 0.9950235214303615
    outer loop
      vertex -429.17760014533997 17.7 155.85719990730286
      vertex -414.43584007024765 167.7 154.38097995519638
      vertex -414.43584007024765 168 154.38097995519638
    endloop
  endfacet
  facet normal 0.13912200383872295 -0.003927004107593726 0.9902674621972779
    outer loop
      vertex -412.9661201685667 167.7 154.17450000345707
      vertex -414.43584007024765 167.7 154.38097995519638
      vertex -429.17760014533997 17.7 155.85719990730286
    endloop
  endfacet
  facet normal 0.1978579522346987 -0.009168653305066223 0.980187822069864
    outer loop
      vertex -423.68160009384155 17.7 154.9344002008438
      vertex -411.77944004535675 167.7 153.9349600970745
      vertex -412.9661201685667 167.7 154.17450000345707
    endloop
  endfacet
  facet normal 0.2879349370597333 -0.01646716950889898 0.9575083834352431
    outer loop
      vertex -410.88449984788895 167.7 153.66584020853043
      vertex -411.77944004535675 167.7 153.9349600970745
      vertex -423.68160009384155 17.7 154.9344002008438
    endloop
  endfacet
  facet normal 0.43724160864316575 -0.027640086647833094 0.8989192406891939
    outer loop
      vertex -410.28710010647774 167.7 153.37526012957096
      vertex -410.88449984788895 167.7 153.66584020853043
      vertex -421.8299996852875 17.7 154.37760043144226
    endloop
  endfacet
  facet normal 0 1 0
    outer loop
      vertex -449.00732009112835 168 154.29398021101952
      vertex -468 168 153
      vertex -451.82728011906147 168 154.10548004508018
    endloop
  endfacet
  facet normal 0.9754160133592016 -0.06526685638352075 -0.21048476985343775
    outer loop
      vertex -410.0858398973942 167.7 152.76161994040012
      vertex -410.01449981331825 167.7 153.0922199189663
      vertex -420.0299996137619 17.7 153.19079983234406
    endloop
  endfacet
  facet normal 0.5823923973058976 -0.036928249429337645 -0.81206859313384
    outer loop
      vertex -411.0898199528456 167.7 151.89046005904675
      vertex -410.45819997787476 167.7 152.34343986213207
      vertex -420.94799995422363 17.7 151.641599714756
    endloop
  endfacet
  facet normal 0.7459383233765957 -0.04905718317079365 -0.664205849490548
    outer loop
      vertex -410.45819997787476 167.7 152.34343986213207
      vertex -410.0858398973942 167.7 152.76161994040012
      vertex -420.94799995422363 17.7 151.641599714756
    endloop
  endfacet
  facet normal 0.46420059273874875 -0.02755179796406064 -0.8853014786669803
    outer loop
      vertex -411.9714201837778 167.7 151.42820018529892
      vertex -411.0898199528456 167.7 151.89046005904675
      vertex -422.2547999024391 17.7 150.70440012216568
    endloop
  endfacet
  facet normal 0 1 0
    outer loop
      vertex -431.05747985839844 168 154.93604010343552
      vertex -428.18125991523266 168 154.94532017409801
      vertex -468 168 153
    endloop
  endfacet
  facet normal 0 1 0
    outer loop
      vertex -425.42335990071297 168 154.92618010938168
      vertex -468 168 153
      vertex -428.18125991523266 168 154.94532017409801
    endloop
  endfacet
  facet normal 0 1 0
    outer loop
      vertex -422.8156799226999 168 154.87803998589516
      vertex -468 168 153
      vertex -425.42335990071297 168 154.92618010938168
    endloop
  endfacet
  facet normal 0 1 0
    outer loop
      vertex -420.3872200399637 168 154.80089980363846
      vertex -468 168 153
      vertex -422.8156799226999 168 154.87803998589516
    endloop
  endfacet
  facet normal 0 1 0
    outer loop
      vertex -418.1652401089668 168 154.69301979243755
      vertex -468 168 153
      vertex -420.3872200399637 168 154.80089980363846
    endloop
  endfacet
  facet normal 0 1 0
    outer loop
      vertex -416.17409993708134 168 154.55324010550976
      vertex -468 168 153
      vertex -418.1652401089668 168 154.69301979243755
    endloop
  endfacet
  facet normal 0 1 0
    outer loop
      vertex -414.43584007024765 168 154.38097995519638
      vertex -468 168 153
      vertex -416.17409993708134 168 154.55324010550976
    endloop
  endfacet
  facet normal 0.13912307657647058 0 0.9902750979217328
    outer loop
      vertex -414.43584007024765 168 154.38097995519638
      vertex -414.43584007024765 167.7 154.38097995519638
      vertex -412.9661201685667 168 154.17450000345707
    endloop
  endfacet
  facet normal 0.13912307657647058 0 0.9902750979217328
    outer loop
      vertex -412.9661201685667 167.7 154.17450000345707
      vertex -412.9661201685667 168 154.17450000345707
      vertex -414.43584007024765 167.7 154.38097995519638
    endloop
  endfacet
  facet normal 0.19786626914464145 0 0.9802290240218253
    outer loop
      vertex -411.77944004535675 167.7 153.9349600970745
      vertex -412.9661201685667 168 154.17450000345707
      vertex -412.9661201685667 167.7 154.17450000345707
    endloop
  endfacet
  facet normal 0.19786626914464145 0 0.9802290240218253
    outer loop
      vertex -411.77944004535675 167.7 153.9349600970745
      vertex -411.77944004535675 168 153.9349600970745
      vertex -412.9661201685667 168 154.17450000345707
    endloop
  endfacet
  facet normal 0.14416076941146277 0.004705888369766156 -0.989543090106412
    outer loop
      vertex -440.4911997914314 18 145.814399600029
      vertex -419.90407989919186 168 149.52695980668068
      vertex -436.3067999482155 18 146.42400044202805
    endloop
  endfacet
  facet normal 0 -1 0
    outer loop
      vertex -440.4911997914314 17.7 145.814399600029
      vertex -420.59400022029877 17.7 153.77640026807785
      vertex -445.0595998764038 17.7 145.31759995222092
    endloop
  endfacet
  facet normal 0 -1 0
    outer loop
      vertex -440.4911997914314 17.7 145.814399600029
      vertex -436.3067999482155 17.7 146.42400044202805
      vertex -420.59400022029877 17.7 153.77640026807785
    endloop
  endfacet
  facet normal 0 -1 0
    outer loop
      vertex -436.3067999482155 17.7 146.42400044202805
      vertex -432.5472003221512 17.7 147.13560032844543
      vertex -420.59400022029877 17.7 153.77640026807785
    endloop
  endfacet
  facet normal 0 -1 0
    outer loop
      vertex -420.59400022029877 17.7 153.77640026807785
      vertex -426.41279965639114 17.7 148.8167999982834
      vertex -424.07880038022995 17.7 149.74800038337708
    endloop
  endfacet
  facet normal 0 -1 0
    outer loop
      vertex -429.2399999499321 17.7 147.93839979171753
      vertex -426.41279965639114 17.7 148.8167999982834
      vertex -420.59400022029877 17.7 153.77640026807785
    endloop
  endfacet
  facet normal 0.1441623656858708 0 -0.9895540471949237
    outer loop
      vertex -440.4911997914314 17.7 145.814399600029
      vertex -436.3067999482155 18 146.42400044202805
      vertex -436.3067999482155 17.7 146.42400044202805
    endloop
  endfacet
  facet normal 0.1441623656858708 0 -0.9895540471949237
    outer loop
      vertex -440.4911997914314 17.7 145.814399600029
      vertex -440.4911997914314 18 145.814399600029
      vertex -436.3067999482155 18 146.42400044202805
    endloop
  endfacet
  facet normal 0.10810959784045504 0 -0.9941389816593932
    outer loop
      vertex -445.0595998764038 18 145.31759995222092
      vertex -440.4911997914314 18 145.814399600029
      vertex -440.4911997914314 17.7 145.814399600029
    endloop
  endfacet
  facet normal 0.18597345621588274 -0.0005884476121496458 -0.9825545925354616
    outer loop
      vertex -432.5472003221512 17.7 147.13560032844543
      vertex -436.3067999482155 17.7 146.42400044202805
      vertex -416.0644801557064 167.7 150.16554015874863
    endloop
  endfacet
  facet normal 0.46420059273874886 -0.02755179796406065 -0.8853014786669804
    outer loop
      vertex -424.07880038022995 17.7 149.74800038337708
      vertex -411.9714201837778 167.7 151.42820018529892
      vertex -422.2547999024391 17.7 150.70440012216568
    endloop
  endfacet
  facet normal 0.3704969421469995 -0.019503101576203098 -0.9286289059083994
    outer loop
      vertex -424.07880038022995 17.7 149.74800038337708
      vertex -426.41279965639114 17.7 148.8167999982834
      vertex -411.9714201837778 167.7 151.42820018529892
    endloop
  endfacet
  facet normal 0.2966817615046647 -0.01257317736343822 -0.9548936315639962
    outer loop
      vertex -429.2399999499321 17.7 147.93839979171753
      vertex -414.4659999758005 167.7 150.55355989933014
      vertex -426.41279965639114 17.7 148.8167999982834
    endloop
  endfacet
  facet normal 0.23588783760598464 -0.006291327485324695 -0.9717599226496455
    outer loop
      vertex -432.5472003221512 17.7 147.13560032844543
      vertex -414.4659999758005 167.7 150.55355989933014
      vertex -429.2399999499321 17.7 147.93839979171753
    endloop
  endfacet
  facet normal 0.07624104557173786 0.014718117904023364 -0.9969807821495312
    outer loop
      vertex -445.0595998764038 18 145.31759995222092
      vertex -449.9712002277374 18 144.94200038909912
      vertex -422.11213994026184 168 149.28683997690678
    endloop
  endfacet
  facet normal 0.10810444108794504 0.009767104566669954 -0.9940915619224653
    outer loop
      vertex -440.4911997914314 18 145.814399600029
      vertex -445.0595998764038 18 145.31759995222092
      vertex -419.90407989919186 168 149.52695980668068
    endloop
  endfacet
  facet normal 0 1 0
    outer loop
      vertex -414.43584007024765 168 154.38097995519638
      vertex -412.9661201685667 168 154.17450000345707
      vertex -468 168 153
    endloop
  endfacet
  facet normal 0.18134246695003872 0 -0.9834200067521883
    outer loop
      vertex -436.3067999482155 18 146.42400044202805
      vertex -417.8816199749708 167.7 149.8216002136469
      vertex -436.3067999482155 17.7 146.42400044202805
    endloop
  endfacet
  facet normal -0.06666161302323771 0.0321710885016978 0.9972568628060455
    outer loop
      vertex -449.00732009112835 168 154.29398021101952
      vertex -451.82728011906147 168 154.10548004508018
      vertex -500.7048001885414 18 155.6772004365921
    endloop
  endfacet
  facet normal -0.05870813285837371 0.029435310405267156 0.9978411284556421
    outer loop
      vertex -446.08934004604816 168 154.46566000580788
      vertex -449.00732009112835 168 154.29398021101952
      vertex -494.66760009527206 18 156.0324000120163
    endloop
  endfacet
  facet normal -0.0498233671253406 0.026563820735129726 0.9984047253074503
    outer loop
      vertex -443.1023400425911 168 154.61472019553185
      vertex -446.08934004604816 168 154.46566000580788
      vertex -488.4876000881195 18 156.34080040454865
    endloop
  endfacet
  facet normal -0.021909722721453306 0.018733794347959767 0.9995844181456599
    outer loop
      vertex -434.01954013109207 168 154.89833989739418
      vertex -437.03612011671066 168 154.83221998810768
      vertex -469.695600271225 18 156.9275997877121
    endloop
  endfacet
  facet normal -0.012724922888177028 0.01655195125692482 0.9997820308682681
    outer loop
      vertex -431.05747985839844 168 154.93604010343552
      vertex -434.01954013109207 168 154.89833989739418
      vertex -463.56719970703125 18 157.00560021400452
    endloop
  endfacet
  facet normal -0.040369339779186726 0.023709070271318983 0.9989034970369571
    outer loop
      vertex -440.07415986061096 168 154.737100020051
      vertex -443.1023400425911 168 154.61472019553185
      vertex -482.2223997116089 18 156.59400004148483
    endloop
  endfacet
  facet normal -0.03128730927008164 0.021161866170354475 0.9992863852263906
    outer loop
      vertex -437.03612011671066 168 154.83221998810768
      vertex -440.07415986061096 168 154.737100020051
      vertex -475.93680024147034 18 156.7907999753952
    endloop
  endfacet
  facet normal 0 1 0
    outer loop
      vertex -446.08934004604816 168 154.46566000580788
      vertex -468 168 153
      vertex -449.00732009112835 168 154.29398021101952
    endloop
  endfacet
  facet normal 0 1 0
    outer loop
      vertex -443.1023400425911 168 154.61472019553185
      vertex -468 168 153
      vertex -446.08934004604816 168 154.46566000580788
    endloop
  endfacet
  facet normal 0 1 0
    outer loop
      vertex -440.07415986061096 168 154.737100020051
      vertex -468 168 153
      vertex -443.1023400425911 168 154.61472019553185
    endloop
  endfacet
  facet normal 0 1 0
    outer loop
      vertex -437.03612011671066 168 154.83221998810768
      vertex -468 168 153
      vertex -440.07415986061096 168 154.737100020051
    endloop
  endfacet
  facet normal 0 1 0
    outer loop
      vertex -434.01954013109207 168 154.89833989739418
      vertex -468 168 153
      vertex -437.03612011671066 168 154.83221998810768
    endloop
  endfacet
  facet normal 0 1 0
    outer loop
      vertex -431.05747985839844 168 154.93604010343552
      vertex -468 168 153
      vertex -434.01954013109207 168 154.89833989739418
    endloop
  endfacet
  facet normal 0.14416076941146275 0.0047058883697661535 -0.9895430901064118
    outer loop
      vertex -419.90407989919186 168 149.52695980668068
      vertex -417.8816199749708 168 149.8216002136469
      vertex -436.3067999482155 18 146.42400044202805
    endloop
  endfacet
  facet normal -0.11316577922015265 0.0582795210408665 -0.9918654161935191
    outer loop
      vertex -446.59278009831905 168 149.99733990430832
      vertex -443.74091996252537 168 149.67196010053158
      vertex -489.8087999224663 18 146.11440020799637
    endloop
  endfacet
  facet normal -0.09773144093604917 0.05358449211919149 -0.9937692225345338
    outer loop
      vertex -443.74091996252537 168 149.67196010053158
      vertex -440.86875991523266 168 149.38949981331825
      vertex -483.8663998246193 18 145.5299996137619
    endloop
  endfacet
  facet normal -0.07682518941451073 0.0476466610226318 -0.9959054603549571
    outer loop
      vertex -440.86875991523266 168 149.38949981331825
      vertex -438.0041401684284 168 149.1685200482607
      vertex -483.8663998246193 18 145.5299996137619
    endloop
  endfacet
  facet normal -0.05297369507903942 0.041346604953894854 -0.9977395681681966
    outer loop
      vertex -438.0041401684284 168 149.1685200482607
      vertex -435.1638797968626 168 149.0177200883627
      vertex -472.06319957971573 18 144.76080018281937
    endloop
  endfacet
  facet normal -0.028393977437931123 0.035335083866766 -0.9989720786355256
    outer loop
      vertex -435.1638797968626 168 149.0177200883627
      vertex -432.36828000843525 168 148.93826021254063
      vertex -472.06319957971573 18 144.76080018281937
    endloop
  endfacet
  facet normal 0 1 0
    outer loop
      vertex -468 168 153
      vertex -440.86875991523266 168 149.38949981331825
      vertex -443.74091996252537 168 149.67196010053158
    endloop
  endfacet
  facet normal 0 1 0
    outer loop
      vertex -468 168 153
      vertex -438.0041401684284 168 149.1685200482607
      vertex -440.86875991523266 168 149.38949981331825
    endloop
  endfacet
  facet normal 0 1 0
    outer loop
      vertex -468 168 153
      vertex -435.1638797968626 168 149.0177200883627
      vertex -438.0041401684284 168 149.1685200482607
    endloop
  endfacet
  facet normal 0 1 0
    outer loop
      vertex -468 168 153
      vertex -432.36828000843525 168 148.93826021254063
      vertex -435.1638797968626 168 149.0177200883627
    endloop
  endfacet
  facet normal 0 1 0
    outer loop
      vertex -468 168 153
      vertex -429.6399599760771 168 148.9283997863531
      vertex -432.36828000843525 168 148.93826021254063
    endloop
  endfacet
  facet normal 0.07624104557173787 0.014718117904023378 -0.9969807821495315
    outer loop
      vertex -449.9712002277374 18 144.94200038909912
      vertex -424.4860801100731 168 149.10530018806458
      vertex -422.11213994026184 168 149.28683997690678
    endloop
  endfacet
  facet normal 0.10810444108794505 0.009767104566669954 -0.9940915619224654
    outer loop
      vertex -422.11213994026184 168 149.28683997690678
      vertex -419.90407989919186 168 149.52695980668068
      vertex -445.0595998764038 18 145.31759995222092
    endloop
  endfacet
  facet normal 0.23588783760598464 -0.006291327485324695 -0.9717599226496454
    outer loop
      vertex -416.0644801557064 167.7 150.16554015874863
      vertex -414.4659999758005 167.7 150.55355989933014
      vertex -432.5472003221512 17.7 147.13560032844543
    endloop
  endfacet
  facet normal 0.37049694214699963 -0.019503101576203125 -0.9286289059083996
    outer loop
      vertex -426.41279965639114 17.7 148.8167999982834
      vertex -413.0995198339224 167.7 150.9781199991703
      vertex -411.9714201837778 167.7 151.42820018529892
    endloop
  endfacet
  facet normal 0.2966817615046647 -0.012573177363438222 -0.9548936315639962
    outer loop
      vertex -414.4659999758005 167.7 150.55355989933014
      vertex -413.0995198339224 167.7 150.9781199991703
      vertex -426.41279965639114 17.7 148.8167999982834
    endloop
  endfacet
  facet normal -0.12596397323978686 0.06243174361718351 -0.9900683586675036
    outer loop
      vertex -446.59278009831905 168 149.99733990430832
      vertex -501.50039970874786 18 147.5243999361992
      vertex -449.39185985922813 168 150.35345996916294
    endloop
  endfacet
  facet normal 0.1859734562158827 -0.0005884476121496474 -0.9825545925354615
    outer loop
      vertex -417.8816199749708 167.7 149.8216002136469
      vertex -416.0644801557064 167.7 150.16554015874863
      vertex -436.3067999482155 17.7 146.42400044202805
    endloop
  endfacet
  facet normal 0.18134246695003872 0 -0.9834200067521883
    outer loop
      vertex -417.8816199749708 168 149.8216002136469
      vertex -417.8816199749708 167.7 149.8216002136469
      vertex -436.3067999482155 18 146.42400044202805
    endloop
  endfacet
  facet normal -0.0036124785076074787 0.02974941427307508 -0.9995508603114907
    outer loop
      vertex -432.36828000843525 168 148.93826021254063
      vertex -429.6399599760771 168 148.9283997863531
      vertex -460.6343999505043 18 144.57599955797195
    endloop
  endfacet
  facet normal 0.021546013022473026 0.024548475362063733 -0.9994664284908391
    outer loop
      vertex -429.6399599760771 168 148.9283997863531
      vertex -427.00327993929386 168 148.9852400571108
      vertex -460.6343999505043 18 144.57599955797195
    endloop
  endfacet
  facet normal 0.04763257259009779 0.01962566357298522 -0.9986721040250244
    outer loop
      vertex -427.00327993929386 168 148.9852400571108
      vertex -424.4860801100731 168 149.10530018806458
      vertex -449.9712002277374 18 144.94200038909912
    endloop
  endfacet
  facet normal 0 1 0
    outer loop
      vertex -468 168 153
      vertex -427.00327993929386 168 148.9852400571108
      vertex -429.6399599760771 168 148.9283997863531
    endloop
  endfacet
  facet normal 0 1 0
    outer loop
      vertex -468 168 153
      vertex -424.4860801100731 168 149.10530018806458
      vertex -427.00327993929386 168 148.9852400571108
    endloop
  endfacet
  facet normal 0 1 0
    outer loop
      vertex -424.4860801100731 168 149.10530018806458
      vertex -468 168 153
      vertex -422.11213994026184 168 149.28683997690678
    endloop
  endfacet
  facet normal 0 1 0
    outer loop
      vertex -468 168 153
      vertex -419.90407989919186 168 149.52695980668068
      vertex -422.11213994026184 168 149.28683997690678
    endloop
  endfacet
  facet normal 0 1 0
    outer loop
      vertex -417.8816199749708 168 149.8216002136469
      vertex -419.90407989919186 168 149.52695980668068
      vertex -468 168 153
    endloop
  endfacet
  facet normal 0.2358925060594125 0 -0.971779154738879
    outer loop
      vertex -414.4659999758005 167.7 150.55355989933014
      vertex -416.0644801557064 168 150.16554015874863
      vertex -414.4659999758005 168 150.55355989933014
    endloop
  endfacet
  facet normal 0.1859734884144605 0 -0.9825547626503861
    outer loop
      vertex -417.8816199749708 167.7 149.8216002136469
      vertex -416.0644801557064 168 150.16554015874863
      vertex -416.0644801557064 167.7 150.16554015874863
    endloop
  endfacet
  facet normal 0.2358925060594125 0 -0.971779154738879
    outer loop
      vertex -416.0644801557064 167.7 150.16554015874863
      vertex -416.0644801557064 168 150.16554015874863
      vertex -414.4659999758005 167.7 150.55355989933014
    endloop
  endfacet
  facet normal 0.29670521472223466 0 -0.9549691175931464
    outer loop
      vertex -414.4659999758005 167.7 150.55355989933014
      vertex -414.4659999758005 168 150.55355989933014
      vertex -413.0995198339224 168 150.9781199991703
    endloop
  endfacet
  facet normal 0.1859734884144605 0 -0.9825547626503861
    outer loop
      vertex -417.8816199749708 168 149.8216002136469
      vertex -416.0644801557064 168 150.16554015874863
      vertex -417.8816199749708 167.7 149.8216002136469
    endloop
  endfacet
  facet normal 0.4374087250993848 0 0.8992628132014194
    outer loop
      vertex -410.28710010647774 167.7 153.37526012957096
      vertex -410.28710010647774 168 153.37526012957096
      vertex -410.88449984788895 168 153.66584020853043
    endloop
  endfacet
  facet normal 0 1 0
    outer loop
      vertex -411.77944004535675 168 153.9349600970745
      vertex -468 168 153
      vertex -412.9661201685667 168 154.17450000345707
    endloop
  endfacet
  facet normal 0 1 0
    outer loop
      vertex -411.77944004535675 168 153.9349600970745
      vertex -410.88449984788895 168 153.66584020853043
      vertex -468 168 153
    endloop
  endfacet
  facet normal 0 1 0
    outer loop
      vertex -410.88449984788895 168 153.66584020853043
      vertex -410.28710010647774 168 153.37526012957096
      vertex -468 168 153
    endloop
  endfacet
  facet normal 0 1 0
    outer loop
      vertex -410.28710010647774 168 153.37526012957096
      vertex -410.01449981331825 168 153.0922199189663
      vertex -468 168 153
    endloop
  endfacet
  facet normal 0 1 0
    outer loop
      vertex -410.01449981331825 168 153.0922199189663
      vertex -410.0858398973942 168 152.76161994040012
      vertex -468 168 153
    endloop
  endfacet
  facet normal 0 1 0
    outer loop
      vertex -410.0858398973942 168 152.76161994040012
      vertex -410.45819997787476 168 152.34343986213207
      vertex -468 168 153
    endloop
  endfacet
  facet normal 0 1 0
    outer loop
      vertex -410.45819997787476 168 152.34343986213207
      vertex -411.0898199528456 168 151.89046005904675
      vertex -468 168 153
    endloop
  endfacet
  facet normal 0 1 0
    outer loop
      vertex -411.0898199528456 168 151.89046005904675
      vertex -411.9714201837778 168 151.42820018529892
      vertex -468 168 153
    endloop
  endfacet
  facet normal 0 1 0
    outer loop
      vertex -411.9714201837778 168 151.42820018529892
      vertex -413.0995198339224 168 150.9781199991703
      vertex -468 168 153
    endloop
  endfacet
  facet normal 0 1 0
    outer loop
      vertex -468 168 153
      vertex -414.4659999758005 168 150.55355989933014
      vertex -416.0644801557064 168 150.16554015874863
    endloop
  endfacet
  facet normal 0 1 0
    outer loop
      vertex -413.0995198339224 168 150.9781199991703
      vertex -414.4659999758005 168 150.55355989933014
      vertex -468 168 153
    endloop
  endfacet
  facet normal 0 1 0
    outer loop
      vertex -416.0644801557064 168 150.16554015874863
      vertex -417.8816199749708 168 149.8216002136469
      vertex -468 168 153
    endloop
  endfacet
  facet normal 0.287973984324412 0 0.9576382325034456
    outer loop
      vertex -411.77944004535675 168 153.9349600970745
      vertex -411.77944004535675 167.7 153.9349600970745
      vertex -410.88449984788895 168 153.66584020853043
    endloop
  endfacet
  facet normal 0.287973984324412 0 0.9576382325034456
    outer loop
      vertex -410.88449984788895 167.7 153.66584020853043
      vertex -410.88449984788895 168 153.66584020853043
      vertex -411.77944004535675 167.7 153.9349600970745
    endloop
  endfacet
  facet normal 0.4374087250993848 0 0.8992628132014194
    outer loop
      vertex -410.28710010647774 167.7 153.37526012957096
      vertex -410.88449984788895 168 153.66584020853043
      vertex -410.88449984788895 167.7 153.66584020853043
    endloop
  endfacet
  facet normal 0 -1 0
    outer loop
      vertex -445.0595998764038 17.7 145.31759995222092
      vertex -420.59400022029877 17.7 153.77640026807785
      vertex -449.9712002277374 17.7 144.94200038909912
    endloop
  endfacet
  facet normal 0.7202654703562732 0 0.6936985312168801
    outer loop
      vertex -410.28710010647774 168 153.37526012957096
      vertex -410.28710010647774 167.7 153.37526012957096
      vertex -410.01449981331825 168 153.0922199189663
    endloop
  endfacet
  facet normal 0.7202654703562732 0 0.6936985312168801
    outer loop
      vertex -410.01449981331825 167.7 153.0922199189663
      vertex -410.01449981331825 168 153.0922199189663
      vertex -410.28710010647774 167.7 153.37526012957096
    endloop
  endfacet
  facet normal 0.9775001946142258 0 -0.21093451478871497
    outer loop
      vertex -410.01449981331825 168 153.0922199189663
      vertex -410.01449981331825 167.7 153.0922199189663
      vertex -410.0858398973942 168 152.76161994040012
    endloop
  endfacet
  facet normal 0.9775001946142258 0 -0.21093451478871497
    outer loop
      vertex -410.0858398973942 167.7 152.76161994040012
      vertex -410.0858398973942 168 152.76161994040012
      vertex -410.01449981331825 167.7 153.0922199189663
    endloop
  endfacet
  facet normal 0.7468375370206262 0 -0.6650065362813851
    outer loop
      vertex -410.0858398973942 168 152.76161994040012
      vertex -410.0858398973942 167.7 152.76161994040012
      vertex -410.45819997787476 168 152.34343986213207
    endloop
  endfacet
  facet normal 0.7468375370206262 0 -0.6650065362813851
    outer loop
      vertex -410.45819997787476 167.7 152.34343986213207
      vertex -410.45819997787476 168 152.34343986213207
      vertex -410.0858398973942 167.7 152.76161994040012
    endloop
  endfacet
  facet normal 0.5827899068902488 0 -0.8126228672802994
    outer loop
      vertex -411.0898199528456 167.7 151.89046005904675
      vertex -410.45819997787476 168 152.34343986213207
      vertex -410.45819997787476 167.7 152.34343986213207
    endloop
  endfacet
  facet normal 0.5827899068902488 0 -0.8126228672802994
    outer loop
      vertex -411.0898199528456 167.7 151.89046005904675
      vertex -411.0898199528456 168 151.89046005904675
      vertex -410.45819997787476 168 152.34343986213207
    endloop
  endfacet
  facet normal 0.4643768808101298 0 -0.8856376869629331
    outer loop
      vertex -411.0898199528456 168 151.89046005904675
      vertex -411.0898199528456 167.7 151.89046005904675
      vertex -411.9714201837778 168 151.42820018529892
    endloop
  endfacet
  facet normal 0.4643768808101298 0 -0.8856376869629331
    outer loop
      vertex -411.9714201837778 167.7 151.42820018529892
      vertex -411.9714201837778 168 151.42820018529892
      vertex -411.0898199528456 167.7 151.89046005904675
    endloop
  endfacet
  facet normal 0.37056742539580884 0 -0.9288055680472215
    outer loop
      vertex -411.9714201837778 168 151.42820018529892
      vertex -411.9714201837778 167.7 151.42820018529892
      vertex -413.0995198339224 168 150.9781199991703
    endloop
  endfacet
  facet normal 0.37056742539580884 0 -0.9288055680472215
    outer loop
      vertex -411.9714201837778 167.7 151.42820018529892
      vertex -413.0995198339224 167.7 150.9781199991703
      vertex -413.0995198339224 168 150.9781199991703
    endloop
  endfacet
  facet normal 0.29670521472223466 0 -0.9549691175931464
    outer loop
      vertex -413.0995198339224 167.7 150.9781199991703
      vertex -414.4659999758005 167.7 150.55355989933014
      vertex -413.0995198339224 168 150.9781199991703
    endloop
  endfacet
  facet normal -0.1373284250666144 0.06634631241017704 -0.9883011031554576
    outer loop
      vertex -452.1091600507498 168 150.73103979229927
      vertex -449.39185985922813 168 150.35345996916294
      vertex -501.50039970874786 18 147.5243999361992
    endloop
  endfacet
  facet normal 0 -1 0
    outer loop
      vertex -420.59400022029877 17.7 153.77640026807785
      vertex -494.66760009527206 17.7 156.0324000120163
      vertex -500.7048001885414 17.7 155.6772004365921
    endloop
  endfacet
  facet normal -0.07691254261281799 0 -0.9970378432079855
    outer loop
      vertex -483.8663998246193 18 145.5299996137619
      vertex -477.9396003484726 18 145.0728000998497
      vertex -477.9396003484726 17.7 145.0728000998497
    endloop
  endfacet
  facet normal -0.05301903358984746 0 -0.998593501920175
    outer loop
      vertex -477.9396003484726 18 145.0728000998497
      vertex -472.06319957971573 18 144.76080018281937
      vertex -477.9396003484726 17.7 145.0728000998497
    endloop
  endfacet
  facet normal -0.1373284250666144 0.06634631241017702 -0.9883011031554576
    outer loop
      vertex -501.50039970874786 18 147.5243999361992
      vertex -507.12240010499954 18 148.30559957027435
      vertex -452.1091600507498 168 150.73103979229927
    endloop
  endfacet
  facet normal -0.12596397323978686 0.062431743617183504 -0.9900683586675036
    outer loop
      vertex -495.70920020341873 18 146.7875998020172
      vertex -501.50039970874786 18 147.5243999361992
      vertex -446.59278009831905 168 149.99733990430832
    endloop
  endfacet
  facet normal -0.11316577922015265 0.058279521040866485 -0.9918654161935192
    outer loop
      vertex -446.59278009831905 168 149.99733990430832
      vertex -489.8087999224663 18 146.11440020799637
      vertex -495.70920020341873 18 146.7875998020172
    endloop
  endfacet
  facet normal -0.0681589776901218 0.03271630929125847 0.997137902632628
    outer loop
      vertex -451.82728011906147 168 154.10548004508018
      vertex -468 168 153
      vertex -506.5392002463341 18 155.28720009326935
    endloop
  endfacet
  facet normal -0.14102632254587844 0.06769263482202165 -0.9876888596820551
    outer loop
      vertex -468 168 153
      vertex -452.1091600507498 168 150.73103979229927
      vertex -507.12240010499954 18 148.30559957027435
    endloop
  endfacet
  facet normal -0.021913568397651486 0 0.999759868928575
    outer loop
      vertex -475.93680024147034 17.7 156.7907999753952
      vertex -469.695600271225 18 156.9275997877121
      vertex -475.93680024147034 18 156.7907999753952
    endloop
  endfacet
  facet normal -0.021913568397651486 0 0.999759868928575
    outer loop
      vertex -475.93680024147034 17.7 156.7907999753952
      vertex -469.695600271225 17.7 156.9275997877121
      vertex -469.695600271225 18 156.9275997877121
    endloop
  endfacet
  facet normal -0.012726666351473575 0 0.999919012702318
    outer loop
      vertex -469.695600271225 18 156.9275997877121
      vertex -469.695600271225 17.7 156.9275997877121
      vertex -463.56719970703125 17.7 157.00560021400452
    endloop
  endfacet
  facet normal -0.012726666351473575 0 0.999919012702318
    outer loop
      vertex -463.56719970703125 17.7 157.00560021400452
      vertex -463.56719970703125 18 157.00560021400452
      vertex -469.695600271225 18 156.9275997877121
    endloop
  endfacet
  facet normal -0.003226464784554223 0 0.9999947949489507
    outer loop
      vertex -463.56719970703125 18 157.00560021400452
      vertex -463.56719970703125 17.7 157.00560021400452
      vertex -457.6163998246193 17.7 157.0248003602028
    endloop
  endfacet
  facet normal -0.003226464784554223 0 0.9999947949489507
    outer loop
      vertex -457.6163998246193 17.7 157.0248003602028
      vertex -457.6163998246193 18 157.0248003602028
      vertex -463.56719970703125 18 157.00560021400452
    endloop
  endfacet
  facet normal 0 -1 0
    outer loop
      vertex -482.2223997116089 17.7 156.59400004148483
      vertex -488.4876000881195 17.7 156.34080040454865
      vertex -420.59400022029877 17.7 153.77640026807785
    endloop
  endfacet
  facet normal 0 -1 0
    outer loop
      vertex -420.59400022029877 17.7 153.77640026807785
      vertex -475.93680024147034 17.7 156.7907999753952
      vertex -482.2223997116089 17.7 156.59400004148483
    endloop
  endfacet
  facet normal -0.07691254261281799 0 -0.9970378432079855
    outer loop
      vertex -483.8663998246193 18 145.5299996137619
      vertex -477.9396003484726 17.7 145.0728000998497
      vertex -483.8663998246193 17.7 145.5299996137619
    endloop
  endfacet
  facet normal 0 -1 0
    outer loop
      vertex -420.59400022029877 17.7 153.77640026807785
      vertex -488.4876000881195 17.7 156.34080040454865
      vertex -494.66760009527206 17.7 156.0324000120163
    endloop
  endfacet
  facet normal 0.006939919392842537 0 0.9999759184694503
    outer loop
      vertex -457.6163998246193 17.7 157.0248003602028
      vertex -451.91039979457855 18 156.98520022630692
      vertex -457.6163998246193 18 157.0248003602028
    endloop
  endfacet
  facet normal 0.006939919392842537 0 0.9999759184694503
    outer loop
      vertex -457.6163998246193 17.7 157.0248003602028
      vertex -451.91039979457855 17.7 156.98520022630692
      vertex -451.91039979457855 18 156.98520022630692
    endloop
  endfacet
  facet normal 0 -1 0
    outer loop
      vertex -420.59400022029877 17.7 153.77640026807785
      vertex -469.695600271225 17.7 156.9275997877121
      vertex -475.93680024147034 17.7 156.7907999753952
    endloop
  endfacet
  facet normal 0 -1 0
    outer loop
      vertex -420.59400022029877 17.7 153.77640026807785
      vertex -463.56719970703125 17.7 157.00560021400452
      vertex -469.695600271225 17.7 156.9275997877121
    endloop
  endfacet
  facet normal 0.018457756624211407 0 0.9998296410991231
    outer loop
      vertex -451.91039979457855 18 156.98520022630692
      vertex -451.91039979457855 17.7 156.98520022630692
      vertex -446.5151998400688 17.7 156.88559997081757
    endloop
  endfacet
  facet normal 0.018457756624211407 0 0.9998296410991231
    outer loop
      vertex -446.5151998400688 17.7 156.88559997081757
      vertex -446.5151998400688 18 156.88559997081757
      vertex -451.91039979457855 18 156.98520022630692
    endloop
  endfacet
  facet normal 0.03174904978548238 0 0.9994958718462619
    outer loop
      vertex -446.5151998400688 18 156.88559997081757
      vertex -446.5151998400688 17.7 156.88559997081757
      vertex -441.49080008268356 18 156.72599959373474
    endloop
  endfacet
  facet normal 0.03174904978548238 0 0.9994958718462619
    outer loop
      vertex -446.5151998400688 17.7 156.88559997081757
      vertex -441.49080008268356 17.7 156.72599959373474
      vertex -441.49080008268356 18 156.72599959373474
    endloop
  endfacet
  facet normal 0 -1 0
    outer loop
      vertex -420.59400022029877 17.7 153.77640026807785
      vertex -457.6163998246193 17.7 157.0248003602028
      vertex -463.56719970703125 17.7 157.00560021400452
    endloop
  endfacet
  facet normal 0 -1 0
    outer loop
      vertex -420.59400022029877 17.7 153.77640026807785
      vertex -451.91039979457855 17.7 156.98520022630692
      vertex -457.6163998246193 17.7 157.0248003602028
    endloop
  endfacet
  facet normal -0.04036933977918673 0.023709070271318987 0.9989034970369572
    outer loop
      vertex -482.2223997116089 18 156.59400004148483
      vertex -443.1023400425911 168 154.61472019553185
      vertex -488.4876000881195 18 156.34080040454865
    endloop
  endfacet
  facet normal -0.03128730927008164 0.021161866170354475 0.9992863852263906
    outer loop
      vertex -475.93680024147034 18 156.7907999753952
      vertex -440.07415986061096 168 154.737100020051
      vertex -482.2223997116089 18 156.59400004148483
    endloop
  endfacet
  facet normal -0.021909722721453306 0.018733794347959767 0.9995844181456599
    outer loop
      vertex -469.695600271225 18 156.9275997877121
      vertex -437.03612011671066 168 154.83221998810768
      vertex -475.93680024147034 18 156.7907999753952
    endloop
  endfacet
  facet normal -0.012724922888177028 0.01655195125692482 0.9997820308682681
    outer loop
      vertex -463.56719970703125 18 157.00560021400452
      vertex -434.01954013109207 168 154.89833989739418
      vertex -469.695600271225 18 156.9275997877121
    endloop
  endfacet
  facet normal -0.0498233671253406 0.02656382073512973 0.9984047253074504
    outer loop
      vertex -488.4876000881195 18 156.34080040454865
      vertex -446.08934004604816 168 154.46566000580788
      vertex -494.66760009527206 18 156.0324000120163
    endloop
  endfacet
  facet normal -0.06819548421481209 0 0.9976719781234248
    outer loop
      vertex -540 18 153
      vertex -540 17.7 153
      vertex -506.5392002463341 17.7 155.28720009326935
    endloop
  endfacet
  facet normal -0.14135054920030266 0 -0.9899596063682462
    outer loop
      vertex -540 18 153
      vertex -507.12240010499954 17.7 148.30559957027435
      vertex -540 17.7 153
    endloop
  endfacet
  facet normal -0.06669613650649757 0 0.997773333666072
    outer loop
      vertex -500.7048001885414 17.7 155.6772004365921
      vertex -500.7048001885414 18 155.6772004365921
      vertex -506.5392002463341 17.7 155.28720009326935
    endloop
  endfacet
  facet normal -0.05873358286158841 0 0.998273693054285
    outer loop
      vertex -500.7048001885414 17.7 155.6772004365921
      vertex -494.66760009527206 17.7 156.0324000120163
      vertex -494.66760009527206 18 156.0324000120163
    endloop
  endfacet
  facet normal -0.05873358286158841 0 0.998273693054285
    outer loop
      vertex -494.66760009527206 18 156.0324000120163
      vertex -500.7048001885414 18 155.6772004365921
      vertex -500.7048001885414 17.7 155.6772004365921
    endloop
  endfacet
  facet normal -0.049840955028882215 0 0.998757167284325
    outer loop
      vertex -494.66760009527206 17.7 156.0324000120163
      vertex -488.4876000881195 17.7 156.34080040454865
      vertex -494.66760009527206 18 156.0324000120163
    endloop
  endfacet
  facet normal -0.06669613650649757 0 0.997773333666072
    outer loop
      vertex -500.7048001885414 18 155.6772004365921
      vertex -506.5392002463341 18 155.28720009326935
      vertex -506.5392002463341 17.7 155.28720009326935
    endloop
  endfacet
  facet normal -0.04038069077177941 0 0.9991843672780284
    outer loop
      vertex -488.4876000881195 18 156.34080040454865
      vertex -488.4876000881195 17.7 156.34080040454865
      vertex -482.2223997116089 17.7 156.59400004148483
    endloop
  endfacet
  facet normal -0.04038069077177941 0 0.9991843672780284
    outer loop
      vertex -482.2223997116089 17.7 156.59400004148483
      vertex -482.2223997116089 18 156.59400004148483
      vertex -488.4876000881195 18 156.34080040454865
    endloop
  endfacet
  facet normal -0.049840955028882215 0 0.998757167284325
    outer loop
      vertex -488.4876000881195 17.7 156.34080040454865
      vertex -488.4876000881195 18 156.34080040454865
      vertex -494.66760009527206 18 156.0324000120163
    endloop
  endfacet
  facet normal -0.031294317236988035 0 0.999510212908638
    outer loop
      vertex -482.2223997116089 17.7 156.59400004148483
      vertex -475.93680024147034 18 156.7907999753952
      vertex -482.2223997116089 18 156.59400004148483
    endloop
  endfacet
  facet normal -0.031294317236988035 0 0.999510212908638
    outer loop
      vertex -482.2223997116089 17.7 156.59400004148483
      vertex -475.93680024147034 17.7 156.7907999753952
      vertex -475.93680024147034 18 156.7907999753952
    endloop
  endfacet
  facet normal 0 -1 0
    outer loop
      vertex -506.5392002463341 17.7 155.28720009326935
      vertex -540 17.7 153
      vertex -420.59400022029877 17.7 153.77640026807785
    endloop
  endfacet
  facet normal 0 -1 0
    outer loop
      vertex -506.5392002463341 17.7 155.28720009326935
      vertex -420.59400022029877 17.7 153.77640026807785
      vertex -500.7048001885414 17.7 155.6772004365921
    endloop
  endfacet
  facet normal 0 -1 0
    outer loop
      vertex -507.12240010499954 17.7 148.30559957027435
      vertex -420.59400022029877 17.7 153.77640026807785
      vertex -540 17.7 153
    endloop
  endfacet
  facet normal -0.003226125830250098 0.01449474913392222 0.9998897411013237
    outer loop
      vertex -457.6163998246193 18 157.0248003602028
      vertex -431.05747985839844 168 154.93604010343552
      vertex -463.56719970703125 18 157.00560021400452
    endloop
  endfacet
  facet normal -0.06666161302323771 0.0321710885016978 0.9972568628060455
    outer loop
      vertex -506.5392002463341 18 155.28720009326935
      vertex -500.7048001885414 18 155.6772004365921
      vertex -451.82728011906147 168 154.10548004508018
    endloop
  endfacet
  facet normal -0.05870813285837371 0.029435310405267156 0.9978411284556421
    outer loop
      vertex -494.66760009527206 18 156.0324000120163
      vertex -449.00732009112835 168 154.29398021101952
      vertex -500.7048001885414 18 155.6772004365921
    endloop
  endfacet
  facet normal -0.0681589776901218 0.03271630929125847 0.997137902632628
    outer loop
      vertex -506.5392002463341 18 155.28720009326935
      vertex -468 168 153
      vertex -540 18 153
    endloop
  endfacet
  facet normal -0.14102632254587844 0.06769263482202165 -0.987688859682055
    outer loop
      vertex -468 168 153
      vertex -507.12240010499954 18 148.30559957027435
      vertex -540 18 153
    endloop
  endfacet
  facet normal -0.14135054920030266 0 -0.9899596063682462
    outer loop
      vertex -507.12240010499954 18 148.30559957027435
      vertex -507.12240010499954 17.7 148.30559957027435
      vertex -540 18 153
    endloop
  endfacet
  facet normal -0.1376316749846748 0 -0.9904834789338552
    outer loop
      vertex -507.12240010499954 18 148.30559957027435
      vertex -501.50039970874786 18 147.5243999361992
      vertex -507.12240010499954 17.7 148.30559957027435
    endloop
  endfacet
  facet normal -0.1376316749846748 0 -0.9904834789338552
    outer loop
      vertex -501.50039970874786 18 147.5243999361992
      vertex -501.50039970874786 17.7 147.5243999361992
      vertex -507.12240010499954 17.7 148.30559957027435
    endloop
  endfacet
  facet normal 0 -1 0
    outer loop
      vertex -501.50039970874786 17.7 147.5243999361992
      vertex -420.59400022029877 17.7 153.77640026807785
      vertex -507.12240010499954 17.7 148.30559957027435
    endloop
  endfacet
  facet normal -0.12621017952019897 0 -0.9920035234743267
    outer loop
      vertex -501.50039970874786 18 147.5243999361992
      vertex -495.70920020341873 18 146.7875998020172
      vertex -501.50039970874786 17.7 147.5243999361992
    endloop
  endfacet
  facet normal -0.12621017952019897 0 -0.9920035234743267
    outer loop
      vertex -495.70920020341873 18 146.7875998020172
      vertex -495.70920020341873 17.7 146.7875998020172
      vertex -501.50039970874786 17.7 147.5243999361992
    endloop
  endfacet
  facet normal -0.11335845410500141 0 -0.9935541559889548
    outer loop
      vertex -495.70920020341873 18 146.7875998020172
      vertex -489.8087999224663 17.7 146.11440020799637
      vertex -495.70920020341873 17.7 146.7875998020172
    endloop
  endfacet
  facet normal -0.11335845410500141 0 -0.9935541559889548
    outer loop
      vertex -495.70920020341873 18 146.7875998020172
      vertex -489.8087999224663 18 146.11440020799637
      vertex -489.8087999224663 17.7 146.11440020799637
    endloop
  endfacet
  facet normal -0.09787205184591664 0 -0.9951990059618581
    outer loop
      vertex -489.8087999224663 18 146.11440020799637
      vertex -483.8663998246193 18 145.5299996137619
      vertex -489.8087999224663 17.7 146.11440020799637
    endloop
  endfacet
  facet normal -0.09787205184591664 0 -0.9951990059618581
    outer loop
      vertex -483.8663998246193 18 145.5299996137619
      vertex -483.8663998246193 17.7 145.5299996137619
      vertex -489.8087999224663 17.7 146.11440020799637
    endloop
  endfacet
  facet normal 0 -1 0
    outer loop
      vertex -460.6343999505043 17.7 144.57599955797195
      vertex -455.1791998744011 17.7 144.69360011816025
      vertex -420.59400022029877 17.7 153.77640026807785
    endloop
  endfacet
  facet normal 0.7459383233765957 -0.04905718317079364 -0.664205849490548
    outer loop
      vertex -420.94799995422363 17.7 151.641599714756
      vertex -410.0858398973942 167.7 152.76161994040012
      vertex -420.1775997877121 17.7 152.5067998766899
    endloop
  endfacet
  facet normal 0.5823923973058976 -0.03692824942933764 -0.8120685931338399
    outer loop
      vertex -422.2547999024391 17.7 150.70440012216568
      vertex -411.0898199528456 167.7 151.89046005904675
      vertex -420.94799995422363 17.7 151.641599714756
    endloop
  endfacet
  facet normal 0 -1 0
    outer loop
      vertex -495.70920020341873 17.7 146.7875998020172
      vertex -420.59400022029877 17.7 153.77640026807785
      vertex -501.50039970874786 17.7 147.5243999361992
    endloop
  endfacet
  facet normal 0 -1 0
    outer loop
      vertex -489.8087999224663 17.7 146.11440020799637
      vertex -420.59400022029877 17.7 153.77640026807785
      vertex -495.70920020341873 17.7 146.7875998020172
    endloop
  endfacet
  facet normal 0 -1 0
    outer loop
      vertex -483.8663998246193 17.7 145.5299996137619
      vertex -420.59400022029877 17.7 153.77640026807785
      vertex -489.8087999224663 17.7 146.11440020799637
    endloop
  endfacet
  facet normal 0 -1 0
    outer loop
      vertex -477.9396003484726 17.7 145.0728000998497
      vertex -420.59400022029877 17.7 153.77640026807785
      vertex -483.8663998246193 17.7 145.5299996137619
    endloop
  endfacet
  facet normal 0 -1 0
    outer loop
      vertex -477.9396003484726 17.7 145.0728000998497
      vertex -472.06319957971573 17.7 144.76080018281937
      vertex -420.59400022029877 17.7 153.77640026807785
    endloop
  endfacet
  facet normal 0 -1 0
    outer loop
      vertex -472.06319957971573 17.7 144.76080018281937
      vertex -466.27920001745224 17.7 144.59640043973923
      vertex -420.59400022029877 17.7 153.77640026807785
    endloop
  endfacet
  facet normal -0.05301903358984746 0 -0.998593501920175
    outer loop
      vertex -472.06319957971573 18 144.76080018281937
      vertex -472.06319957971573 17.7 144.76080018281937
      vertex -477.9396003484726 17.7 145.0728000998497
    endloop
  endfacet
  facet normal -0.028411719962190926 0 -0.9995963055998107
    outer loop
      vertex -472.06319957971573 18 144.76080018281937
      vertex -466.27920001745224 17.7 144.59640043973923
      vertex -472.06319957971573 17.7 144.76080018281937
    endloop
  endfacet
  facet normal -0.028411719962190926 0 -0.9995963055998107
    outer loop
      vertex -472.06319957971573 18 144.76080018281937
      vertex -466.27920001745224 18 144.59640043973923
      vertex -466.27920001745224 17.7 144.59640043973923
    endloop
  endfacet
  facet normal -0.0036140781411571564 0 -0.9999934691982691
    outer loop
      vertex -466.27920001745224 18 144.59640043973923
      vertex -460.6343999505043 17.7 144.57599955797195
      vertex -466.27920001745224 17.7 144.59640043973923
    endloop
  endfacet
  facet normal -0.0036140781411571564 0 -0.9999934691982691
    outer loop
      vertex -466.27920001745224 18 144.59640043973923
      vertex -460.6343999505043 18 144.57599955797195
      vertex -460.6343999505043 17.7 144.57599955797195
    endloop
  endfacet
  facet normal 0.021552508069709347 0 -0.9997677177204238
    outer loop
      vertex -460.6343999505043 18 144.57599955797195
      vertex -455.1791998744011 18 144.69360011816025
      vertex -460.6343999505043 17.7 144.57599955797195
    endloop
  endfacet
  facet normal 0 -1 0
    outer loop
      vertex -466.27920001745224 17.7 144.59640043973923
      vertex -460.6343999505043 17.7 144.57599955797195
      vertex -420.59400022029877 17.7 153.77640026807785
    endloop
  endfacet
  facet normal 0.9754160133592017 -0.06526685638352077 -0.21048476985343778
    outer loop
      vertex -420.1775997877121 17.7 152.5067998766899
      vertex -410.0858398973942 167.7 152.76161994040012
      vertex -420.0299996137619 17.7 153.19079983234406
    endloop
  endfacet
  facet normal 0.021552508069709347 0 -0.9997677177204238
    outer loop
      vertex -455.1791998744011 18 144.69360011816025
      vertex -455.1791998744011 17.7 144.69360011816025
      vertex -460.6343999505043 17.7 144.57599955797195
    endloop
  endfacet
  facet normal 0.0476417484805685 0 -0.9988644872062047
    outer loop
      vertex -455.1791998744011 18 144.69360011816025
      vertex -449.9712002277374 18 144.94200038909912
      vertex -455.1791998744011 17.7 144.69360011816025
    endloop
  endfacet
  facet normal 0.0476417484805685 0 -0.9988644872062047
    outer loop
      vertex -449.9712002277374 18 144.94200038909912
      vertex -449.9712002277374 17.7 144.94200038909912
      vertex -455.1791998744011 17.7 144.69360011816025
    endloop
  endfacet
  facet normal 0.10810959784045504 0 -0.9941389816593932
    outer loop
      vertex -445.0595998764038 17.7 145.31759995222092
      vertex -445.0595998764038 18 145.31759995222092
      vertex -440.4911997914314 17.7 145.814399600029
    endloop
  endfacet
  facet normal 0.07624930469540217 0 -0.9970887841779527
    outer loop
      vertex -445.0595998764038 17.7 145.31759995222092
      vertex -449.9712002277374 17.7 144.94200038909912
      vertex -445.0595998764038 18 145.31759995222092
    endloop
  endfacet
  facet normal 0.07624930469540217 0 -0.9970887841779527
    outer loop
      vertex -449.9712002277374 18 144.94200038909912
      vertex -445.0595998764038 18 145.31759995222092
      vertex -449.9712002277374 17.7 144.94200038909912
    endloop
  endfacet
  facet normal -0.09773144093604917 0.053584492119191494 -0.9937692225345338
    outer loop
      vertex -483.8663998246193 18 145.5299996137619
      vertex -489.8087999224663 18 146.11440020799637
      vertex -443.74091996252537 168 149.67196010053158
    endloop
  endfacet
  facet normal -0.07682518941451073 0.047646661022631806 -0.9959054603549571
    outer loop
      vertex -477.9396003484726 18 145.0728000998497
      vertex -483.8663998246193 18 145.5299996137619
      vertex -438.0041401684284 168 149.1685200482607
    endloop
  endfacet
  facet normal -0.05297369507903942 0.04134660495389484 -0.9977395681681965
    outer loop
      vertex -438.0041401684284 168 149.1685200482607
      vertex -472.06319957971573 18 144.76080018281937
      vertex -477.9396003484726 18 145.0728000998497
    endloop
  endfacet
  facet normal 0.04763257259009779 0.01962566357298522 -0.9986721040250243
    outer loop
      vertex -449.9712002277374 18 144.94200038909912
      vertex -455.1791998744011 18 144.69360011816025
      vertex -427.00327993929386 168 148.9852400571108
    endloop
  endfacet
  facet normal -0.028393977437931123 0.035335083866766 -0.9989720786355257
    outer loop
      vertex -466.27920001745224 18 144.59640043973923
      vertex -472.06319957971573 18 144.76080018281937
      vertex -432.36828000843525 168 148.93826021254063
    endloop
  endfacet
  facet normal -0.0036124785076074787 0.02974941427307507 -0.9995508603114907
    outer loop
      vertex -432.36828000843525 168 148.93826021254063
      vertex -460.6343999505043 18 144.57599955797195
      vertex -466.27920001745224 18 144.59640043973923
    endloop
  endfacet
  facet normal 0.021546013022473026 0.02454847536206373 -0.9994664284908391
    outer loop
      vertex -455.1791998744011 18 144.69360011816025
      vertex -460.6343999505043 18 144.57599955797195
      vertex -427.00327993929386 168 148.9852400571108
    endloop
  endfacet
  facet normal 0 -1 0
    outer loop
      vertex -420.59400022029877 17.7 153.77640026807785
      vertex -432.5472003221512 17.7 147.13560032844543
      vertex -429.2399999499321 17.7 147.93839979171753
    endloop
  endfacet
  facet normal 0 -1 0
    outer loop
      vertex -455.1791998744011 17.7 144.69360011816025
      vertex -449.9712002277374 17.7 144.94200038909912
      vertex -420.59400022029877 17.7 153.77640026807785
    endloop
  endfacet
  facet normal 0 -1 0
    outer loop
      vertex -420.59400022029877 17.7 153.77640026807785
      vertex -420.1775997877121 17.7 152.5067998766899
      vertex -420.0299996137619 17.7 153.19079983234406
    endloop
  endfacet
  facet normal 0.006939377186926793 0.012500040718505284 0.9998977917898875
    outer loop
      vertex -451.91039979457855 18 156.98520022630692
      vertex -428.18125991523266 168 154.94532017409801
      vertex -457.6163998246193 18 157.0248003602028
    endloop
  endfacet
  facet normal 0.04849417635259656 0 0.9988234653130068
    outer loop
      vertex -441.49080008268356 17.7 156.72599959373474
      vertex -436.8936002254486 17.7 156.50279957056046
      vertex -441.49080008268356 18 156.72599959373474
    endloop
  endfacet
  facet normal 0.04849417635259656 0 0.9988234653130068
    outer loop
      vertex -436.8936002254486 17.7 156.50279957056046
      vertex -436.8936002254486 18 156.50279957056046
      vertex -441.49080008268356 18 156.72599959373474
    endloop
  endfacet
  facet normal 0.07002848351774932 0 0.9975449922164936
    outer loop
      vertex -436.8936002254486 17.7 156.50279957056046
      vertex -432.77399986982346 18 156.21360021829605
      vertex -436.8936002254486 18 156.50279957056046
    endloop
  endfacet
  facet normal 0 -1 0
    outer loop
      vertex -420.59400022029877 17.7 153.77640026807785
      vertex -446.5151998400688 17.7 156.88559997081757
      vertex -451.91039979457855 17.7 156.98520022630692
    endloop
  endfacet
  facet normal 0 -1 0
    outer loop
      vertex -420.59400022029877 17.7 153.77640026807785
      vertex -441.49080008268356 17.7 156.72599959373474
      vertex -446.5151998400688 17.7 156.88559997081757
    endloop
  endfacet
  facet normal 0.07002848351774932 0 0.9975449922164936
    outer loop
      vertex -436.8936002254486 17.7 156.50279957056046
      vertex -432.77399986982346 17.7 156.21360021829605
      vertex -432.77399986982346 18 156.21360021829605
    endloop
  endfacet
  facet normal 0.09861613894680776 0 0.9951255484305604
    outer loop
      vertex -432.77399986982346 18 156.21360021829605
      vertex -432.77399986982346 17.7 156.21360021829605
      vertex -429.17760014533997 18 155.85719990730286
    endloop
  endfacet
  facet normal 0.09861613894680776 0 0.9951255484305604
    outer loop
      vertex -432.77399986982346 17.7 156.21360021829605
      vertex -429.17760014533997 17.7 155.85719990730286
      vertex -429.17760014533997 18 155.85719990730286
    endloop
  endfacet
  facet normal 0 -1 0
    outer loop
      vertex -420.59400022029877 17.7 153.77640026807785
      vertex -436.8936002254486 17.7 156.50279957056046
      vertex -441.49080008268356 17.7 156.72599959373474
    endloop
  endfacet
  facet normal 0 -1 0
    outer loop
      vertex -420.59400022029877 17.7 153.77640026807785
      vertex -432.77399986982346 17.7 156.21360021829605
      vertex -436.8936002254486 17.7 156.50279957056046
    endloop
  endfacet
  facet normal 0 -1 0
    outer loop
      vertex -420.59400022029877 17.7 153.77640026807785
      vertex -429.17760014533997 17.7 155.85719990730286
      vertex -432.77399986982346 17.7 156.21360021829605
    endloop
  endfacet
  facet normal 0 -1 0
    outer loop
      vertex -420.59400022029877 17.7 153.77640026807785
      vertex -426.1368003487587 17.7 155.43000000715256
      vertex -429.17760014533997 17.7 155.85719990730286
    endloop
  endfacet
  facet normal 0 -1 0
    outer loop
      vertex -420.59400022029877 17.7 153.77640026807785
      vertex -423.68160009384155 17.7 154.9344002008438
      vertex -426.1368003487587 17.7 155.43000000715256
    endloop
  endfacet
  facet normal 0 -1 0
    outer loop
      vertex -420.59400022029877 17.7 153.77640026807785
      vertex -421.8299996852875 17.7 154.37760043144226
      vertex -423.68160009384155 17.7 154.9344002008438
    endloop
  endfacet
  facet normal -0.06819548421481209 0 0.9976719781234248
    outer loop
      vertex -540 18 153
      vertex -506.5392002463341 17.7 155.28720009326935
      vertex -506.5392002463341 18 155.28720009326935
    endloop
  endfacet
  facet normal 0 -1 0
    outer loop
      vertex -420.59400022029877 17.7 153.77640026807785
      vertex -420.94799995422363 17.7 151.641599714756
      vertex -420.1775997877121 17.7 152.5067998766899
    endloop
  endfacet
  facet normal 0 -1 0
    outer loop
      vertex -420.59400022029877 17.7 153.77640026807785
      vertex -422.2547999024391 17.7 150.70440012216568
      vertex -420.94799995422363 17.7 151.641599714756
    endloop
  endfacet
  facet normal 0 -1 0
    outer loop
      vertex -420.59400022029877 17.7 153.77640026807785
      vertex -424.07880038022995 17.7 149.74800038337708
      vertex -422.2547999024391 17.7 150.70440012216568
    endloop
  endfacet
  facet normal 0.018456745959245208 0.010464613695842997 0.9997748948582338
    outer loop
      vertex -446.5151998400688 18 156.88559997081757
      vertex -425.42335990071297 168 154.92618010938168
      vertex -451.91039979457855 18 156.98520022630692
    endloop
  endfacet
  facet normal 0.03174794018360545 0.008360445663864648 0.9994609403285352
    outer loop
      vertex -441.49080008268356 18 156.72599959373474
      vertex -422.8156799226999 168 154.87803998589516
      vertex -446.5151998400688 18 156.88559997081757
    endloop
  endfacet
  facet normal 0.04849330457827791 0.005996119614195463 0.9988055095766396
    outer loop
      vertex -436.8936002254486 18 156.50279957056046
      vertex -420.3872200399637 168 154.80089980363846
      vertex -441.49080008268356 18 156.72599959373474
    endloop
  endfacet
  facet normal 0.0700281040344387 0.0032921028063782483 0.9975395865350177
    outer loop
      vertex -432.77399986982346 18 156.21360021829605
      vertex -418.1652401089668 168 154.69301979243755
      vertex -436.8936002254486 18 156.50279957056046
    endloop
  endfacet
  facet normal 0.09861613843723903 0.00010165819652994687 0.9951255432885534
    outer loop
      vertex -429.17760014533997 18 155.85719990730286
      vertex -416.17409993708134 168 154.55324010550976
      vertex -432.77399986982346 18 156.21360021829605
    endloop
  endfacet
  facet normal 0.09964031212477505 0 0.9950235214303617
    outer loop
      vertex -429.17760014533997 18 155.85719990730286
      vertex -429.17760014533997 17.7 155.85719990730286
      vertex -414.43584007024765 168 154.38097995519638
    endloop
  endfacet
  facet normal 0.13912200383872295 -0.003927004107593726 0.9902674621972779
    outer loop
      vertex -426.1368003487587 17.7 155.43000000715256
      vertex -412.9661201685667 167.7 154.17450000345707
      vertex -429.17760014533997 17.7 155.85719990730286
    endloop
  endfacet
  facet normal 0.19785795223469868 -0.009168653305066225 0.9801878220698638
    outer loop
      vertex -423.68160009384155 17.7 154.9344002008438
      vertex -412.9661201685667 167.7 154.17450000345707
      vertex -426.1368003487587 17.7 155.43000000715256
    endloop
  endfacet
  facet normal 0.2879349370597333 -0.01646716950889898 0.9575083834352431
    outer loop
      vertex -421.8299996852875 17.7 154.37760043144226
      vertex -410.88449984788895 167.7 153.66584020853043
      vertex -423.68160009384155 17.7 154.9344002008438
    endloop
  endfacet
  facet normal 0.43724160864316575 -0.027640086647833094 0.8989192406891939
    outer loop
      vertex -420.59400022029877 17.7 153.77640026807785
      vertex -410.28710010647774 167.7 153.37526012957096
      vertex -421.8299996852875 17.7 154.37760043144226
    endloop
  endfacet
  facet normal 0.7194496417373172 -0.047582269733342314 0.6929127943768028
    outer loop
      vertex -420.0299996137619 17.7 153.19079983234406
      vertex -410.28710010647774 167.7 153.37526012957096
      vertex -420.59400022029877 17.7 153.77640026807785
    endloop
  endfacet
endsolid OpenSCAD_Model
