solid OpenSCAD_Model
  facet normal 1 0 0
    outer loop
      vertex 10 0 20
      vertex 10 0 0
      vertex 10 7 0
    endloop
  endfacet
  facet normal 0 0 1
    outer loop
      vertex 5 3.5 20
      vertex 10 0 20
      vertex 10 7 20
    endloop
  endfacet
  facet normal 1 0 0
    outer loop
      vertex 10 7 20
      vertex 10 0 20
      vertex 10 7 0
    endloop
  endfacet
  facet normal 0 0 1
    outer loop
      vertex 10 7 20
      vertex 0 7 20
      vertex 5 3.5 20
    endloop
  endfacet
  facet normal 0 1 0
    outer loop
      vertex 10 7 0
      vertex 0 7 20
      vertex 10 7 20
    endloop
  endfacet
  facet normal 0 0 -1
    outer loop
      vertex 10 7 0
      vertex 10 0 0
      vertex 5 3.5 0
    endloop
  endfacet
  facet normal 0 0 -1
    outer loop
      vertex 0 7 0
      vertex 10 7 0
      vertex 5 3.5 0
    endloop
  endfacet
  facet normal 0 0 1
    outer loop
      vertex 5 0 20
      vertex 10 0 20
      vertex 5 3.5 20
    endloop
  endfacet
  facet normal 0 -1 0
    outer loop
      vertex 5 0 0
      vertex 10 0 20
      vertex 5 0 20
    endloop
  endfacet
  facet normal 0 0 -1
    outer loop
      vertex 0 7 0
      vertex 5 3.5 0
      vertex 0 3.5 0
    endloop
  endfacet
  facet normal 0 -1 0
    outer loop
      vertex 10 0 20
      vertex 5 0 0
      vertex 10 0 0
    endloop
  endfacet
  facet normal 0 0 -1
    outer loop
      vertex 10 0 0
      vertex 5 0 0
      vertex 5 3.5 0
    endloop
  endfacet
  facet normal -1 0 0
    outer loop
      vertex 0 3.5 20
      vertex 0 7 20
      vertex 0 7 0
    endloop
  endfacet
  facet normal 0 0 1
    outer loop
      vertex 0 7 20
      vertex 0 3.5 20
      vertex 5 3.5 20
    endloop
  endfacet
  facet normal 0 1 0
    outer loop
      vertex 10 7 0
      vertex 0 7 0
      vertex 0 7 20
    endloop
  endfacet
  facet normal -1 0 0
    outer loop
      vertex 0 7 0
      vertex 0 3.5 0
      vertex 0 3.5 20
    endloop
  endfacet
  facet normal -1 0 0
    outer loop
      vertex 5 0 0
      vertex 5 0 20
      vertex 5 3.5 0
    endloop
  endfacet
  facet normal -1 0 0
    outer loop
      vertex 5 3.5 20
      vertex 5 3.5 0
      vertex 5 0 20
    endloop
  endfacet
  facet normal 0 -1 0
    outer loop
      vertex 0 3.5 20
      vertex 5 3.5 0
      vertex 5 3.5 20
    endloop
  endfacet
  facet normal 0 -1 0
    outer loop
      vertex 0 3.5 20
      vertex 0 3.5 0
      vertex 5 3.5 0
    endloop
  endfacet
endsolid OpenSCAD_Model
