solid OpenSCAD_Model
  facet normal 0 1 0
    outer loop
      vertex 81.5057031332768 -15 18.051299696697086
      vertex 286.1398890377802 -15 11.726315783234838
      vertex 79.31025544016902 -15 16.844342113765197
    endloop
  endfacet
  facet normal 0.24868988716485413 0 -0.9685831611286314
    outer loop
      vertex 276.1648890377802 -15.6 -18.97357750008831
      vertex 273.7382572259852 -15 -19.596630652037337
      vertex 276.1648890377802 -15 -18.97357750008831
    endloop
  endfacet
  facet normal 0.9822872507286897 0 -0.1873813145857187
    outer loop
      vertex 289.3232340645162 -15.6 -4.961363248938846
      vertex 289.3232340645162 -15 -4.961363248938846
      vertex 289.79268829122384 -15.6 -2.500398009607866
    endloop
  endfacet
  facet normal -0.904827052466018 0 0.42577929156507616
    outer loop
      vertex 71.45095910652938 -15.6 7.344084826059323
      vertex 72.51768173312493 -15.6 9.61098579832922
      vertex 71.45095910652938 -15 7.344084826059323
    endloop
  endfacet
  facet normal 0.7705132427757865 0 -0.6374239897486932
    outer loop
      vertex 284.54292411705717 -15 -13.656714763277336
      vertex 286.1398890377802 -15.6 -11.726315783234838
      vertex 284.54292411705717 -15.6 -13.656714763277336
    endloop
  endfacet
  facet normal 0.12533323356430573 0 -0.9921147013144775
    outer loop
      vertex 271.2526708646098 -15 -19.91063323214402
      vertex 273.7382572259852 -15 -19.596630652037337
      vertex 271.2526708646098 -15.6 -19.91063323214402
    endloop
  endfacet
  facet normal 0 1 0
    outer loop
      vertex 72.51768173312493 -15 9.61098579832922
      vertex 286.1398890377802 -15 11.726315783234838
      vertex 71.45095910652938 -15 7.344084826059323
    endloop
  endfacet
  facet normal 0 1 0
    outer loop
      vertex 289.3232340645162 -15 -4.961363248938846
      vertex 286.1398890377802 -15 11.726315783234838
      vertex 289.79268829122384 -15 -2.500398009607866
    endloop
  endfacet
  facet normal 0.8443279255020256 0 -0.5358267949789802
    outer loop
      vertex 287.48231826687504 -15.6 -9.61098579832922
      vertex 286.1398890377802 -15.6 -11.726315783234838
      vertex 287.48231826687504 -15 -9.61098579832922
    endloop
  endfacet
  facet normal 0 1 0
    outer loop
      vertex 271.2526708646098 -15 19.91063323214402
      vertex 286.1398890377802 -15 11.726315783234838
      vertex 88.7473291353902 -15 19.91063323214402
    endloop
  endfacet
  facet normal 0 -1 0
    outer loop
      vertex 70.20731170877616 -15.6 2.500398009607866
      vertex 282.7166085954864 -15.6 15.371739193376992
      vertex 70.67676593548381 -15.6 4.961363248938854
    endloop
  endfacet
  facet normal 0 0 -1
    outer loop
      vertex 271.2526708646098 -15 -19.91063323214402
      vertex 271.2526708646098 -15.6 -19.91063323214402
      vertex 88.74732913539019 -15 -19.91063323214402
    endloop
  endfacet
  facet normal 0 1 0
    outer loop
      vertex 71.45095910652938 -15 7.344084826059323
      vertex 286.1398890377802 -15 11.726315783234838
      vertex 70.67676593548381 -15 4.961363248938854
    endloop
  endfacet
  facet normal -0.5877852522924712 0 -0.8090169943749488
    outer loop
      vertex 77.28339140451364 -15 -15.371739193376998
      vertex 79.31025544016902 -15 -16.844342113765197
      vertex 77.28339140451364 -15.6 -15.371739193376998
    endloop
  endfacet
  facet normal 0.9980267284282721 0 0.06279051952930606
    outer loop
      vertex 289.95 -15.6 0
      vertex 289.79268829122384 -15 2.5003980096078697
      vertex 289.79268829122384 -15.6 2.5003980096078697
    endloop
  endfacet
  facet normal 0.5877852522924669 0 -0.809016994374952
    outer loop
      vertex 282.7166085954864 -15 -15.37173919337699
      vertex 280.68974455983096 -15.6 -16.844342113765205
      vertex 280.68974455983096 -15 -16.844342113765205
    endloop
  endfacet
  facet normal -0.9822872507286878 0 0.18738131458572904
    outer loop
      vertex 70.20731170877616 -15.6 2.500398009607866
      vertex 70.67676593548381 -15.6 4.961363248938854
      vertex 70.20731170877616 -15 2.500398009607866
    endloop
  endfacet
  facet normal 0 -1 0
    outer loop
      vertex 278.4942968667232 -15.6 18.051299696697086
      vertex 282.7166085954864 -15.6 15.371739193376992
      vertex 280.68974455983096 -15.6 16.8443421137652
    endloop
  endfacet
  facet normal -0.24868988716485688 0 0.9685831611286306
    outer loop
      vertex 86.26174277401479 -15.6 19.59663065203734
      vertex 83.8351109622198 -15 18.97357750008831
      vertex 83.8351109622198 -15.6 18.97357750008831
    endloop
  endfacet
  facet normal -0.8443279255020151 0 0.5358267949789963
    outer loop
      vertex 72.51768173312493 -15 9.61098579832922
      vertex 73.8601109622198 -15.6 11.726315783234838
      vertex 73.8601109622198 -15 11.726315783234838
    endloop
  endfacet
  facet normal -0.5877852522924712 0 -0.8090169943749488
    outer loop
      vertex 77.28339140451364 -15.6 -15.371739193376998
      vertex 79.31025544016902 -15 -16.844342113765197
      vertex 79.31025544016902 -15.6 -16.844342113765197
    endloop
  endfacet
  facet normal 0 -1 0
    outer loop
      vertex 284.54292411705717 -15.6 -13.656714763277336
      vertex 282.7166085954864 -15.6 15.371739193376992
      vertex 282.7166085954864 -15.6 -15.37173919337699
    endloop
  endfacet
  facet normal 0 0 1
    outer loop
      vertex 271.2526708646098 -15 19.91063323214402
      vertex 88.7473291353902 -15.6 19.91063323214402
      vertex 271.2526708646098 -15.6 19.91063323214402
    endloop
  endfacet
  facet normal 0 0 1
    outer loop
      vertex 88.7473291353902 -15 19.91063323214402
      vertex 88.7473291353902 -15.6 19.91063323214402
      vertex 271.2526708646098 -15 19.91063323214402
    endloop
  endfacet
  facet normal -0.9980267284282717 0 0.06279051952931179
    outer loop
      vertex 70.05 -15 0
      vertex 70.05 -15.6 0
      vertex 70.20731170877616 -15 2.500398009607866
    endloop
  endfacet
  facet normal 0.8443279255020151 0 0.5358267949789963
    outer loop
      vertex 287.4823182668751 -15.6 9.61098579832922
      vertex 286.1398890377802 -15 11.726315783234838
      vertex 286.1398890377802 -15.6 11.726315783234838
    endloop
  endfacet
  facet normal -0.684547105928689 0 -0.7289686274214112
    outer loop
      vertex 77.28339140451364 -15 -15.371739193376998
      vertex 75.45707588294283 -15.6 -13.656714763277336
      vertex 75.45707588294283 -15 -13.656714763277336
    endloop
  endfacet
  facet normal -0.9510565162951543 0 -0.30901699437494495
    outer loop
      vertex 71.45095910652938 -15 -7.344084826059323
      vertex 70.67676593548381 -15.6 -4.961363248938854
      vertex 70.67676593548381 -15 -4.961363248938854
    endloop
  endfacet
  facet normal 0.7705132427757865 0 -0.6374239897486932
    outer loop
      vertex 286.1398890377802 -15 -11.726315783234838
      vertex 286.1398890377802 -15.6 -11.726315783234838
      vertex 284.54292411705717 -15 -13.656714763277336
    endloop
  endfacet
  facet normal 0.998026728428272 0 -0.06279051952930614
    outer loop
      vertex 289.79268829122384 -15 -2.500398009607866
      vertex 289.95 -15.6 0
      vertex 289.79268829122384 -15.6 -2.500398009607866
    endloop
  endfacet
  facet normal 0 1 0
    outer loop
      vertex 282.7166085954864 -15 15.371739193376992
      vertex 286.1398890377802 -15 11.726315783234838
      vertex 280.68974455983096 -15 16.8443421137652
    endloop
  endfacet
  facet normal 0.8443279255020256 0 -0.5358267949789802
    outer loop
      vertex 287.48231826687504 -15 -9.61098579832922
      vertex 286.1398890377802 -15.6 -11.726315783234838
      vertex 286.1398890377802 -15 -11.726315783234838
    endloop
  endfacet
  facet normal 0.36812455268468114 0 0.9297764858882501
    outer loop
      vertex 278.4942968667232 -15.6 18.051299696697086
      vertex 276.1648890377802 -15 18.97357750008831
      vertex 276.1648890377802 -15.6 18.97357750008831
    endloop
  endfacet
  facet normal 0 1 0
    outer loop
      vertex 289.79268829122384 -15 -2.500398009607866
      vertex 286.1398890377802 -15 11.726315783234838
      vertex 289.95 -15 0
    endloop
  endfacet
  facet normal -0.36812455268467736 0 0.9297764858882517
    outer loop
      vertex 81.5057031332768 -15.6 18.051299696697086
      vertex 83.8351109622198 -15 18.97357750008831
      vertex 81.5057031332768 -15 18.051299696697086
    endloop
  endfacet
  facet normal -0.12533323356430573 0 -0.9921147013144775
    outer loop
      vertex 86.26174277401479 -15.6 -19.596630652037337
      vertex 86.26174277401479 -15 -19.596630652037337
      vertex 88.74732913539019 -15.6 -19.91063323214402
    endloop
  endfacet
  facet normal 0 -1 0
    outer loop
      vertex 289.79268829122384 -15.6 -2.500398009607866
      vertex 282.7166085954864 -15.6 15.371739193376992
      vertex 289.3232340645162 -15.6 -4.961363248938846
    endloop
  endfacet
  facet normal 0 -1 0
    outer loop
      vertex 86.26174277401479 -15.6 19.59663065203734
      vertex 282.7166085954864 -15.6 15.371739193376992
      vertex 88.7473291353902 -15.6 19.91063323214402
    endloop
  endfacet
  facet normal 0.12533323356430434 0 0.9921147013144779
    outer loop
      vertex 271.2526708646098 -15.6 19.91063323214402
      vertex 273.7382572259852 -15.6 19.59663065203734
      vertex 271.2526708646098 -15 19.91063323214402
    endloop
  endfacet
  facet normal 0 1 0
    outer loop
      vertex 79.31025544016902 -15 -16.844342113765197
      vertex 286.1398890377802 -15 11.726315783234838
      vertex 81.50570313327681 -15 -18.05129969669709
    endloop
  endfacet
  facet normal 0 1 0
    outer loop
      vertex 288.54904089347065 -15 7.344084826059325
      vertex 286.1398890377802 -15 11.726315783234838
      vertex 287.4823182668751 -15 9.61098579832922
    endloop
  endfacet
  facet normal -0.770513242775792 0 0.6374239897486863
    outer loop
      vertex 73.8601109622198 -15 11.726315783234838
      vertex 73.8601109622198 -15.6 11.726315783234838
      vertex 75.45707588294283 -15 13.656714763277336
    endloop
  endfacet
  facet normal 0 -1 0
    outer loop
      vertex 288.54904089347065 -15.6 -7.344084826059333
      vertex 282.7166085954864 -15.6 15.371739193376992
      vertex 287.48231826687504 -15.6 -9.61098579832922
    endloop
  endfacet
  facet normal -0.8443279255020151 0 0.5358267949789963
    outer loop
      vertex 72.51768173312493 -15.6 9.61098579832922
      vertex 73.8601109622198 -15.6 11.726315783234838
      vertex 72.51768173312493 -15 9.61098579832922
    endloop
  endfacet
  facet normal 0 -1 0
    outer loop
      vertex 86.26174277401479 -15.6 -19.596630652037337
      vertex 282.7166085954864 -15.6 15.371739193376992
      vertex 83.8351109622198 -15.6 -18.97357750008831
    endloop
  endfacet
  facet normal -0.12533323356430573 0 -0.9921147013144775
    outer loop
      vertex 88.74732913539019 -15.6 -19.91063323214402
      vertex 86.26174277401479 -15 -19.596630652037337
      vertex 88.74732913539019 -15 -19.91063323214402
    endloop
  endfacet
  facet normal -0.36812455268467803 0 -0.9297764858882512
    outer loop
      vertex 81.50570313327681 -15 -18.05129969669709
      vertex 83.8351109622198 -15.6 -18.97357750008831
      vertex 81.50570313327681 -15.6 -18.05129969669709
    endloop
  endfacet
  facet normal 0 -1 0
    outer loop
      vertex 286.1398890377802 -15.6 11.726315783234838
      vertex 282.7166085954864 -15.6 15.371739193376992
      vertex 287.4823182668751 -15.6 9.61098579832922
    endloop
  endfacet
  facet normal -0.904827052466018 0 -0.42577929156507616
    outer loop
      vertex 71.45095910652938 -15.6 -7.344084826059323
      vertex 72.51768173312493 -15 -9.61098579832922
      vertex 72.51768173312493 -15.6 -9.61098579832922
    endloop
  endfacet
  facet normal 0.9048270524660085 0 -0.42577929156509636
    outer loop
      vertex 288.54904089347065 -15.6 -7.344084826059333
      vertex 287.48231826687504 -15 -9.61098579832922
      vertex 288.54904089347065 -15 -7.344084826059333
    endloop
  endfacet
  facet normal -0.9980267284282717 0 0.06279051952931179
    outer loop
      vertex 70.20731170877616 -15 2.500398009607866
      vertex 70.05 -15.6 0
      vertex 70.20731170877616 -15.6 2.500398009607866
    endloop
  endfacet
  facet normal 0 -1 0
    outer loop
      vertex 273.7382572259852 -15.6 -19.596630652037337
      vertex 282.7166085954864 -15.6 15.371739193376992
      vertex 271.2526708646098 -15.6 -19.91063323214402
    endloop
  endfacet
  facet normal 0.24868988716485546 0 0.968583161128631
    outer loop
      vertex 273.7382572259852 -15 19.59663065203734
      vertex 273.7382572259852 -15.6 19.59663065203734
      vertex 276.1648890377802 -15 18.97357750008831
    endloop
  endfacet
  facet normal 0.5877852522924669 0 -0.809016994374952
    outer loop
      vertex 282.7166085954864 -15.6 -15.37173919337699
      vertex 280.68974455983096 -15.6 -16.844342113765205
      vertex 282.7166085954864 -15 -15.37173919337699
    endloop
  endfacet
  facet normal 0 -1 0
    outer loop
      vertex 284.54292411705717 -15.6 13.65671476327734
      vertex 282.7166085954864 -15.6 15.371739193376992
      vertex 286.1398890377802 -15.6 11.726315783234838
    endloop
  endfacet
  facet normal 0 1 0
    outer loop
      vertex 282.7166085954864 -15 -15.37173919337699
      vertex 286.1398890377802 -15 11.726315783234838
      vertex 284.54292411705717 -15 -13.656714763277336
    endloop
  endfacet
  facet normal -0.9510565162951543 0 -0.30901699437494495
    outer loop
      vertex 71.45095910652938 -15.6 -7.344084826059323
      vertex 70.67676593548381 -15.6 -4.961363248938854
      vertex 71.45095910652938 -15 -7.344084826059323
    endloop
  endfacet
  facet normal 0 1 0
    outer loop
      vertex 286.1398890377802 -15 -11.726315783234838
      vertex 286.1398890377802 -15 11.726315783234838
      vertex 287.48231826687504 -15 -9.61098579832922
    endloop
  endfacet
  facet normal -0.904827052466018 0 0.42577929156507616
    outer loop
      vertex 71.45095910652938 -15 7.344084826059323
      vertex 72.51768173312493 -15.6 9.61098579832922
      vertex 72.51768173312493 -15 9.61098579832922
    endloop
  endfacet
  facet normal 0.6845471059286903 0 -0.7289686274214101
    outer loop
      vertex 284.54292411705717 -15 -13.656714763277336
      vertex 284.54292411705717 -15.6 -13.656714763277336
      vertex 282.7166085954864 -15 -15.37173919337699
    endloop
  endfacet
  facet normal 0.5877852522924655 0 0.809016994374953
    outer loop
      vertex 280.68974455983096 -15 16.8443421137652
      vertex 282.7166085954864 -15.6 15.371739193376992
      vertex 282.7166085954864 -15 15.371739193376992
    endloop
  endfacet
  facet normal -0.9510565162951543 0 0.30901699437494495
    outer loop
      vertex 70.67676593548381 -15 4.961363248938854
      vertex 70.67676593548381 -15.6 4.961363248938854
      vertex 71.45095910652938 -15 7.344084826059323
    endloop
  endfacet
  facet normal 0 -1 0
    outer loop
      vertex 83.8351109622198 -15.6 -18.97357750008831
      vertex 282.7166085954864 -15.6 15.371739193376992
      vertex 81.50570313327681 -15.6 -18.05129969669709
    endloop
  endfacet
  facet normal 0 1 0
    outer loop
      vertex 287.48231826687504 -15 -9.61098579832922
      vertex 286.1398890377802 -15 11.726315783234838
      vertex 288.54904089347065 -15 -7.344084826059333
    endloop
  endfacet
  facet normal 0.9822872507286897 0 -0.1873813145857187
    outer loop
      vertex 289.79268829122384 -15.6 -2.500398009607866
      vertex 289.3232340645162 -15 -4.961363248938846
      vertex 289.79268829122384 -15 -2.500398009607866
    endloop
  endfacet
  facet normal 0 1 0
    outer loop
      vertex 278.4942968667232 -15 18.051299696697086
      vertex 286.1398890377802 -15 11.726315783234838
      vertex 276.1648890377802 -15 18.97357750008831
    endloop
  endfacet
  facet normal 0.36812455268468114 0 0.9297764858882501
    outer loop
      vertex 278.4942968667232 -15 18.051299696697086
      vertex 276.1648890377802 -15 18.97357750008831
      vertex 278.4942968667232 -15.6 18.051299696697086
    endloop
  endfacet
  facet normal 0 -1 0
    outer loop
      vertex 83.8351109622198 -15.6 18.97357750008831
      vertex 282.7166085954864 -15.6 15.371739193376992
      vertex 86.26174277401479 -15.6 19.59663065203734
    endloop
  endfacet
  facet normal 0 -1 0
    outer loop
      vertex 276.1648890377802 -15.6 -18.97357750008831
      vertex 282.7166085954864 -15.6 15.371739193376992
      vertex 273.7382572259852 -15.6 -19.596630652037337
    endloop
  endfacet
  facet normal -0.48175367410171566 0 0.8763066800438634
    outer loop
      vertex 81.5057031332768 -15.6 18.051299696697086
      vertex 79.31025544016902 -15 16.844342113765197
      vertex 79.31025544016902 -15.6 16.844342113765197
    endloop
  endfacet
  facet normal 0 1 0
    outer loop
      vertex 71.45095910652938 -15 -7.344084826059323
      vertex 286.1398890377802 -15 11.726315783234838
      vertex 72.51768173312493 -15 -9.61098579832922
    endloop
  endfacet
  facet normal 0 1 0
    outer loop
      vertex 280.68974455983096 -15 -16.844342113765205
      vertex 286.1398890377802 -15 11.726315783234838
      vertex 282.7166085954864 -15 -15.37173919337699
    endloop
  endfacet
  facet normal 0 1 0
    outer loop
      vertex 75.45707588294283 -15 13.656714763277336
      vertex 286.1398890377802 -15 11.726315783234838
      vertex 73.8601109622198 -15 11.726315783234838
    endloop
  endfacet
  facet normal -0.770513242775792 0 -0.6374239897486863
    outer loop
      vertex 73.8601109622198 -15 -11.726315783234838
      vertex 75.45707588294283 -15.6 -13.656714763277336
      vertex 73.8601109622198 -15.6 -11.726315783234838
    endloop
  endfacet
  facet normal -0.2486898871648555 0 -0.9685831611286309
    outer loop
      vertex 86.26174277401479 -15 -19.596630652037337
      vertex 83.8351109622198 -15.6 -18.97357750008831
      vertex 83.8351109622198 -15 -18.97357750008831
    endloop
  endfacet
  facet normal 0 1 0
    outer loop
      vertex 284.54292411705717 -15 -13.656714763277336
      vertex 286.1398890377802 -15 11.726315783234838
      vertex 286.1398890377802 -15 -11.726315783234838
    endloop
  endfacet
  facet normal -0.9822872507286878 0 -0.18738131458572904
    outer loop
      vertex 70.20731170877616 -15.6 -2.500398009607866
      vertex 70.20731170877616 -15 -2.500398009607866
      vertex 70.67676593548381 -15.6 -4.961363248938854
    endloop
  endfacet
  facet normal 0 -1 0
    outer loop
      vertex 271.2526708646098 -15.6 -19.91063323214402
      vertex 282.7166085954864 -15.6 15.371739193376992
      vertex 88.74732913539019 -15.6 -19.91063323214402
    endloop
  endfacet
  facet normal -0.48175367410171444 0 -0.8763066800438641
    outer loop
      vertex 79.31025544016902 -15 -16.844342113765197
      vertex 81.50570313327681 -15 -18.05129969669709
      vertex 79.31025544016902 -15.6 -16.844342113765197
    endloop
  endfacet
  facet normal 0 -1 0
    outer loop
      vertex 72.51768173312493 -15.6 -9.61098579832922
      vertex 282.7166085954864 -15.6 15.371739193376992
      vertex 71.45095910652938 -15.6 -7.344084826059323
    endloop
  endfacet
  facet normal 0.4817536741017146 0 -0.8763066800438639
    outer loop
      vertex 278.4942968667232 -15.6 -18.05129969669709
      vertex 278.4942968667232 -15 -18.05129969669709
      vertex 280.68974455983096 -15.6 -16.844342113765205
    endloop
  endfacet
  facet normal 0 -1 0
    outer loop
      vertex 282.7166085954864 -15.6 -15.37173919337699
      vertex 282.7166085954864 -15.6 15.371739193376992
      vertex 280.68974455983096 -15.6 -16.844342113765205
    endloop
  endfacet
  facet normal 0.7705132427757869 0 0.6374239897486924
    outer loop
      vertex 286.1398890377802 -15.6 11.726315783234838
      vertex 286.1398890377802 -15 11.726315783234838
      vertex 284.54292411705717 -15.6 13.65671476327734
    endloop
  endfacet
  facet normal 0 1 0
    outer loop
      vertex 88.7473291353902 -15 19.91063323214402
      vertex 286.1398890377802 -15 11.726315783234838
      vertex 86.26174277401479 -15 19.59663065203734
    endloop
  endfacet
  facet normal 0.6845471059286903 0 -0.7289686274214101
    outer loop
      vertex 282.7166085954864 -15 -15.37173919337699
      vertex 284.54292411705717 -15.6 -13.656714763277336
      vertex 282.7166085954864 -15.6 -15.37173919337699
    endloop
  endfacet
  facet normal 0 -1 0
    outer loop
      vertex 88.7473291353902 -15.6 19.91063323214402
      vertex 282.7166085954864 -15.6 15.371739193376992
      vertex 271.2526708646098 -15.6 19.91063323214402
    endloop
  endfacet
  facet normal -0.12533323356430362 0 0.9921147013144779
    outer loop
      vertex 88.7473291353902 -15 19.91063323214402
      vertex 86.26174277401479 -15 19.59663065203734
      vertex 88.7473291353902 -15.6 19.91063323214402
    endloop
  endfacet
  facet normal 0.6845471059286898 0 0.7289686274214104
    outer loop
      vertex 284.54292411705717 -15 13.65671476327734
      vertex 282.7166085954864 -15.6 15.371739193376992
      vertex 284.54292411705717 -15.6 13.65671476327734
    endloop
  endfacet
  facet normal 0.9048270524660085 0 -0.42577929156509636
    outer loop
      vertex 287.48231826687504 -15.6 -9.61098579832922
      vertex 287.48231826687504 -15 -9.61098579832922
      vertex 288.54904089347065 -15.6 -7.344084826059333
    endloop
  endfacet
  facet normal -0.12533323356430362 0 0.9921147013144779
    outer loop
      vertex 88.7473291353902 -15.6 19.91063323214402
      vertex 86.26174277401479 -15 19.59663065203734
      vertex 86.26174277401479 -15.6 19.59663065203734
    endloop
  endfacet
  facet normal 0 0 -1
    outer loop
      vertex 88.74732913539019 -15 -19.91063323214402
      vertex 271.2526708646098 -15.6 -19.91063323214402
      vertex 88.74732913539019 -15.6 -19.91063323214402
    endloop
  endfacet
  facet normal 0 1 0
    outer loop
      vertex 83.8351109622198 -15 18.97357750008831
      vertex 286.1398890377802 -15 11.726315783234838
      vertex 81.5057031332768 -15 18.051299696697086
    endloop
  endfacet
  facet normal 0 1 0
    outer loop
      vertex 88.74732913539019 -15 -19.91063323214402
      vertex 286.1398890377802 -15 11.726315783234838
      vertex 271.2526708646098 -15 -19.91063323214402
    endloop
  endfacet
  facet normal 0 -1 0
    outer loop
      vertex 81.5057031332768 -15.6 18.051299696697086
      vertex 282.7166085954864 -15.6 15.371739193376992
      vertex 83.8351109622198 -15.6 18.97357750008831
    endloop
  endfacet
  facet normal -0.9980267284282717 0 -0.06279051952931179
    outer loop
      vertex 70.05 -15.6 0
      vertex 70.20731170877616 -15 -2.500398009607866
      vertex 70.20731170877616 -15.6 -2.500398009607866
    endloop
  endfacet
  facet normal 0 -1 0
    outer loop
      vertex 289.79268829122384 -15.6 2.5003980096078697
      vertex 282.7166085954864 -15.6 15.371739193376992
      vertex 289.95 -15.6 0
    endloop
  endfacet
  facet normal 0 1 0
    outer loop
      vertex 280.68974455983096 -15 16.8443421137652
      vertex 286.1398890377802 -15 11.726315783234838
      vertex 278.4942968667232 -15 18.051299696697086
    endloop
  endfacet
  facet normal 0.9510565162951544 0 0.3090169943749445
    outer loop
      vertex 288.54904089347065 -15.6 7.344084826059325
      vertex 289.3232340645162 -15.6 4.961363248938853
      vertex 288.54904089347065 -15 7.344084826059325
    endloop
  endfacet
  facet normal 0.9822872507286898 0 0.1873813145857184
    outer loop
      vertex 289.3232340645162 -15.6 4.961363248938853
      vertex 289.79268829122384 -15 2.5003980096078697
      vertex 289.3232340645162 -15 4.961363248938853
    endloop
  endfacet
  facet normal 0.36812455268468 0 -0.9297764858882506
    outer loop
      vertex 276.1648890377802 -15.6 -18.97357750008831
      vertex 278.4942968667232 -15 -18.05129969669709
      vertex 278.4942968667232 -15.6 -18.05129969669709
    endloop
  endfacet
  facet normal -0.9510565162951543 0 0.30901699437494495
    outer loop
      vertex 71.45095910652938 -15 7.344084826059323
      vertex 70.67676593548381 -15.6 4.961363248938854
      vertex 71.45095910652938 -15.6 7.344084826059323
    endloop
  endfacet
  facet normal 0.9048270524660177 0 0.4257792915650765
    outer loop
      vertex 287.4823182668751 -15 9.61098579832922
      vertex 287.4823182668751 -15.6 9.61098579832922
      vertex 288.54904089347065 -15 7.344084826059325
    endloop
  endfacet
  facet normal 0.12533323356430573 0 -0.9921147013144775
    outer loop
      vertex 271.2526708646098 -15.6 -19.91063323214402
      vertex 273.7382572259852 -15 -19.596630652037337
      vertex 273.7382572259852 -15.6 -19.596630652037337
    endloop
  endfacet
  facet normal 0 1 0
    outer loop
      vertex 72.51768173312493 -15 -9.61098579832922
      vertex 286.1398890377802 -15 11.726315783234838
      vertex 73.8601109622198 -15 -11.726315783234838
    endloop
  endfacet
  facet normal 0 1 0
    outer loop
      vertex 278.4942968667232 -15 -18.05129969669709
      vertex 286.1398890377802 -15 11.726315783234838
      vertex 280.68974455983096 -15 -16.844342113765205
    endloop
  endfacet
  facet normal 0 -1 0
    outer loop
      vertex 271.2526708646098 -15.6 19.91063323214402
      vertex 282.7166085954864 -15.6 15.371739193376992
      vertex 273.7382572259852 -15.6 19.59663065203734
    endloop
  endfacet
  facet normal -0.770513242775792 0 0.6374239897486863
    outer loop
      vertex 75.45707588294283 -15 13.656714763277336
      vertex 73.8601109622198 -15.6 11.726315783234838
      vertex 75.45707588294283 -15.6 13.656714763277336
    endloop
  endfacet
  facet normal 0.998026728428272 0 -0.06279051952930614
    outer loop
      vertex 289.95 -15 0
      vertex 289.95 -15.6 0
      vertex 289.79268829122384 -15 -2.500398009607866
    endloop
  endfacet
  facet normal 0 1 0
    outer loop
      vertex 70.20731170877616 -15 2.500398009607866
      vertex 286.1398890377802 -15 11.726315783234838
      vertex 70.05 -15 0
    endloop
  endfacet
  facet normal 0 -1 0
    outer loop
      vertex 81.50570313327681 -15.6 -18.05129969669709
      vertex 282.7166085954864 -15.6 15.371739193376992
      vertex 79.31025544016902 -15.6 -16.844342113765197
    endloop
  endfacet
  facet normal -0.9980267284282717 0 -0.06279051952931179
    outer loop
      vertex 70.05 -15 0
      vertex 70.20731170877616 -15 -2.500398009607866
      vertex 70.05 -15.6 0
    endloop
  endfacet
  facet normal -0.36812455268467736 0 0.9297764858882517
    outer loop
      vertex 83.8351109622198 -15.6 18.97357750008831
      vertex 83.8351109622198 -15 18.97357750008831
      vertex 81.5057031332768 -15.6 18.051299696697086
    endloop
  endfacet
  facet normal -0.9822872507286878 0 0.18738131458572904
    outer loop
      vertex 70.20731170877616 -15 2.500398009607866
      vertex 70.67676593548381 -15.6 4.961363248938854
      vertex 70.67676593548381 -15 4.961363248938854
    endloop
  endfacet
  facet normal 0.9510565162951544 0 0.3090169943749445
    outer loop
      vertex 288.54904089347065 -15 7.344084826059325
      vertex 289.3232340645162 -15.6 4.961363248938853
      vertex 289.3232340645162 -15 4.961363248938853
    endloop
  endfacet
  facet normal 0 -1 0
    outer loop
      vertex 70.67676593548381 -15.6 4.961363248938854
      vertex 282.7166085954864 -15.6 15.371739193376992
      vertex 71.45095910652938 -15.6 7.344084826059323
    endloop
  endfacet
  facet normal -0.2486898871648555 0 -0.9685831611286309
    outer loop
      vertex 86.26174277401479 -15.6 -19.596630652037337
      vertex 83.8351109622198 -15.6 -18.97357750008831
      vertex 86.26174277401479 -15 -19.596630652037337
    endloop
  endfacet
  facet normal 0 -1 0
    outer loop
      vertex 286.1398890377802 -15.6 -11.726315783234838
      vertex 282.7166085954864 -15.6 15.371739193376992
      vertex 284.54292411705717 -15.6 -13.656714763277336
    endloop
  endfacet
  facet normal 0 -1 0
    outer loop
      vertex 280.68974455983096 -15.6 -16.844342113765205
      vertex 282.7166085954864 -15.6 15.371739193376992
      vertex 278.4942968667232 -15.6 -18.05129969669709
    endloop
  endfacet
  facet normal 0.7705132427757869 0 0.6374239897486924
    outer loop
      vertex 284.54292411705717 -15.6 13.65671476327734
      vertex 286.1398890377802 -15 11.726315783234838
      vertex 284.54292411705717 -15 13.65671476327734
    endloop
  endfacet
  facet normal 0.6845471059286898 0 0.7289686274214104
    outer loop
      vertex 282.7166085954864 -15 15.371739193376992
      vertex 282.7166085954864 -15.6 15.371739193376992
      vertex 284.54292411705717 -15 13.65671476327734
    endloop
  endfacet
  facet normal -0.684547105928689 0 0.7289686274214112
    outer loop
      vertex 75.45707588294283 -15 13.656714763277336
      vertex 77.28339140451364 -15.6 15.371739193376998
      vertex 77.28339140451364 -15 15.371739193376998
    endloop
  endfacet
  facet normal 0 -1 0
    outer loop
      vertex 73.8601109622198 -15.6 -11.726315783234838
      vertex 282.7166085954864 -15.6 15.371739193376992
      vertex 72.51768173312493 -15.6 -9.61098579832922
    endloop
  endfacet
  facet normal 0 -1 0
    outer loop
      vertex 79.31025544016902 -15.6 -16.844342113765197
      vertex 282.7166085954864 -15.6 15.371739193376992
      vertex 77.28339140451364 -15.6 -15.371739193376998
    endloop
  endfacet
  facet normal -0.9822872507286878 0 -0.18738131458572904
    outer loop
      vertex 70.67676593548381 -15.6 -4.961363248938854
      vertex 70.20731170877616 -15 -2.500398009607866
      vertex 70.67676593548381 -15 -4.961363248938854
    endloop
  endfacet
  facet normal 0.9048270524660177 0 0.4257792915650765
    outer loop
      vertex 288.54904089347065 -15 7.344084826059325
      vertex 287.4823182668751 -15.6 9.61098579832922
      vertex 288.54904089347065 -15.6 7.344084826059325
    endloop
  endfacet
  facet normal 0 -1 0
    outer loop
      vertex 77.28339140451364 -15.6 -15.371739193376998
      vertex 282.7166085954864 -15.6 15.371739193376992
      vertex 75.45707588294283 -15.6 -13.656714763277336
    endloop
  endfacet
  facet normal 0 -1 0
    outer loop
      vertex 289.95 -15.6 0
      vertex 282.7166085954864 -15.6 15.371739193376992
      vertex 289.79268829122384 -15.6 -2.500398009607866
    endloop
  endfacet
  facet normal 0 1 0
    outer loop
      vertex 284.54292411705717 -15 13.65671476327734
      vertex 286.1398890377802 -15 11.726315783234838
      vertex 282.7166085954864 -15 15.371739193376992
    endloop
  endfacet
  facet normal 0 1 0
    outer loop
      vertex 77.28339140451364 -15 15.371739193376998
      vertex 286.1398890377802 -15 11.726315783234838
      vertex 75.45707588294283 -15 13.656714763277336
    endloop
  endfacet
  facet normal -0.8443279255020151 0 -0.5358267949789963
    outer loop
      vertex 72.51768173312493 -15.6 -9.61098579832922
      vertex 72.51768173312493 -15 -9.61098579832922
      vertex 73.8601109622198 -15.6 -11.726315783234838
    endloop
  endfacet
  facet normal -0.684547105928689 0 0.7289686274214112
    outer loop
      vertex 75.45707588294283 -15.6 13.656714763277336
      vertex 77.28339140451364 -15.6 15.371739193376998
      vertex 75.45707588294283 -15 13.656714763277336
    endloop
  endfacet
  facet normal 0 -1 0
    outer loop
      vertex 289.3232340645162 -15.6 -4.961363248938846
      vertex 282.7166085954864 -15.6 15.371739193376992
      vertex 288.54904089347065 -15.6 -7.344084826059333
    endloop
  endfacet
  facet normal -0.24868988716485688 0 0.9685831611286306
    outer loop
      vertex 86.26174277401479 -15 19.59663065203734
      vertex 83.8351109622198 -15 18.97357750008831
      vertex 86.26174277401479 -15.6 19.59663065203734
    endloop
  endfacet
  facet normal 0.9822872507286898 0 0.1873813145857184
    outer loop
      vertex 289.79268829122384 -15.6 2.5003980096078697
      vertex 289.79268829122384 -15 2.5003980096078697
      vertex 289.3232340645162 -15.6 4.961363248938853
    endloop
  endfacet
  facet normal 0.8443279255020151 0 0.5358267949789963
    outer loop
      vertex 287.4823182668751 -15 9.61098579832922
      vertex 286.1398890377802 -15 11.726315783234838
      vertex 287.4823182668751 -15.6 9.61098579832922
    endloop
  endfacet
  facet normal 0.9510565162951551 0 -0.3090169943749428
    outer loop
      vertex 288.54904089347065 -15 -7.344084826059333
      vertex 289.3232340645162 -15 -4.961363248938846
      vertex 288.54904089347065 -15.6 -7.344084826059333
    endloop
  endfacet
  facet normal 0 -1 0
    outer loop
      vertex 289.3232340645162 -15.6 4.961363248938853
      vertex 282.7166085954864 -15.6 15.371739193376992
      vertex 289.79268829122384 -15.6 2.5003980096078697
    endloop
  endfacet
  facet normal 0 -1 0
    outer loop
      vertex 278.4942968667232 -15.6 -18.05129969669709
      vertex 282.7166085954864 -15.6 15.371739193376992
      vertex 276.1648890377802 -15.6 -18.97357750008831
    endloop
  endfacet
  facet normal 0 1 0
    outer loop
      vertex 289.3232340645162 -15 4.961363248938853
      vertex 286.1398890377802 -15 11.726315783234838
      vertex 288.54904089347065 -15 7.344084826059325
    endloop
  endfacet
  facet normal 0.24868988716485413 0 -0.9685831611286314
    outer loop
      vertex 273.7382572259852 -15.6 -19.596630652037337
      vertex 273.7382572259852 -15 -19.596630652037337
      vertex 276.1648890377802 -15.6 -18.97357750008831
    endloop
  endfacet
  facet normal 0 -1 0
    outer loop
      vertex 73.8601109622198 -15.6 11.726315783234838
      vertex 282.7166085954864 -15.6 15.371739193376992
      vertex 75.45707588294283 -15.6 13.656714763277336
    endloop
  endfacet
  facet normal 0 -1 0
    outer loop
      vertex 75.45707588294283 -15.6 -13.656714763277336
      vertex 282.7166085954864 -15.6 15.371739193376992
      vertex 73.8601109622198 -15.6 -11.726315783234838
    endloop
  endfacet
  facet normal 0 -1 0
    outer loop
      vertex 70.67676593548381 -15.6 -4.961363248938854
      vertex 282.7166085954864 -15.6 15.371739193376992
      vertex 70.20731170877616 -15.6 -2.500398009607866
    endloop
  endfacet
  facet normal 0 1 0
    outer loop
      vertex 77.28339140451364 -15 -15.371739193376998
      vertex 286.1398890377802 -15 11.726315783234838
      vertex 79.31025544016902 -15 -16.844342113765197
    endloop
  endfacet
  facet normal 0.4817536741017146 0 -0.8763066800438639
    outer loop
      vertex 280.68974455983096 -15.6 -16.844342113765205
      vertex 278.4942968667232 -15 -18.05129969669709
      vertex 280.68974455983096 -15 -16.844342113765205
    endloop
  endfacet
  facet normal 0.9980267284282721 0 0.06279051952930606
    outer loop
      vertex 289.95 -15 0
      vertex 289.79268829122384 -15 2.5003980096078697
      vertex 289.95 -15.6 0
    endloop
  endfacet
  facet normal 0 1 0
    outer loop
      vertex 73.8601109622198 -15 -11.726315783234838
      vertex 286.1398890377802 -15 11.726315783234838
      vertex 75.45707588294283 -15 -13.656714763277336
    endloop
  endfacet
  facet normal 0 1 0
    outer loop
      vertex 70.05 -15 0
      vertex 286.1398890377802 -15 11.726315783234838
      vertex 70.20731170877616 -15 -2.500398009607866
    endloop
  endfacet
  facet normal 0.5877852522924655 0 0.809016994374953
    outer loop
      vertex 280.68974455983096 -15.6 16.8443421137652
      vertex 282.7166085954864 -15.6 15.371739193376992
      vertex 280.68974455983096 -15 16.8443421137652
    endloop
  endfacet
  facet normal 0 1 0
    outer loop
      vertex 86.26174277401479 -15 -19.596630652037337
      vertex 286.1398890377802 -15 11.726315783234838
      vertex 88.74732913539019 -15 -19.91063323214402
    endloop
  endfacet
  facet normal 0 1 0
    outer loop
      vertex 81.50570313327681 -15 -18.05129969669709
      vertex 286.1398890377802 -15 11.726315783234838
      vertex 83.8351109622198 -15 -18.97357750008831
    endloop
  endfacet
  facet normal 0 1 0
    outer loop
      vertex 70.67676593548381 -15 -4.961363248938854
      vertex 286.1398890377802 -15 11.726315783234838
      vertex 71.45095910652938 -15 -7.344084826059323
    endloop
  endfacet
  facet normal -0.48175367410171566 0 0.8763066800438634
    outer loop
      vertex 81.5057031332768 -15 18.051299696697086
      vertex 79.31025544016902 -15 16.844342113765197
      vertex 81.5057031332768 -15.6 18.051299696697086
    endloop
  endfacet
  facet normal 0 1 0
    outer loop
      vertex 271.2526708646098 -15 -19.91063323214402
      vertex 286.1398890377802 -15 11.726315783234838
      vertex 273.7382572259852 -15 -19.596630652037337
    endloop
  endfacet
  facet normal -0.770513242775792 0 -0.6374239897486863
    outer loop
      vertex 75.45707588294283 -15 -13.656714763277336
      vertex 75.45707588294283 -15.6 -13.656714763277336
      vertex 73.8601109622198 -15 -11.726315783234838
    endloop
  endfacet
  facet normal 0 1 0
    outer loop
      vertex 288.54904089347065 -15 -7.344084826059333
      vertex 286.1398890377802 -15 11.726315783234838
      vertex 289.3232340645162 -15 -4.961363248938846
    endloop
  endfacet
  facet normal -0.36812455268467803 0 -0.9297764858882512
    outer loop
      vertex 83.8351109622198 -15 -18.97357750008831
      vertex 83.8351109622198 -15.6 -18.97357750008831
      vertex 81.50570313327681 -15 -18.05129969669709
    endloop
  endfacet
  facet normal -0.48175367410171444 0 -0.8763066800438641
    outer loop
      vertex 79.31025544016902 -15.6 -16.844342113765197
      vertex 81.50570313327681 -15 -18.05129969669709
      vertex 81.50570313327681 -15.6 -18.05129969669709
    endloop
  endfacet
  facet normal 0 -1 0
    outer loop
      vertex 287.48231826687504 -15.6 -9.61098579832922
      vertex 282.7166085954864 -15.6 15.371739193376992
      vertex 286.1398890377802 -15.6 -11.726315783234838
    endloop
  endfacet
  facet normal 0 1 0
    outer loop
      vertex 83.8351109622198 -15 -18.97357750008831
      vertex 286.1398890377802 -15 11.726315783234838
      vertex 86.26174277401479 -15 -19.596630652037337
    endloop
  endfacet
  facet normal 0 -1 0
    outer loop
      vertex 70.05 -15.6 0
      vertex 282.7166085954864 -15.6 15.371739193376992
      vertex 70.20731170877616 -15.6 2.500398009607866
    endloop
  endfacet
  facet normal 0 -1 0
    outer loop
      vertex 88.74732913539019 -15.6 -19.91063323214402
      vertex 282.7166085954864 -15.6 15.371739193376992
      vertex 86.26174277401479 -15.6 -19.596630652037337
    endloop
  endfacet
  facet normal -0.684547105928689 0 -0.7289686274214112
    outer loop
      vertex 77.28339140451364 -15.6 -15.371739193376998
      vertex 75.45707588294283 -15.6 -13.656714763277336
      vertex 77.28339140451364 -15 -15.371739193376998
    endloop
  endfacet
  facet normal 0 -1 0
    outer loop
      vertex 75.45707588294283 -15.6 13.656714763277336
      vertex 282.7166085954864 -15.6 15.371739193376992
      vertex 77.28339140451364 -15.6 15.371739193376998
    endloop
  endfacet
  facet normal 0.24868988716485546 0 0.968583161128631
    outer loop
      vertex 276.1648890377802 -15 18.97357750008831
      vertex 273.7382572259852 -15.6 19.59663065203734
      vertex 276.1648890377802 -15.6 18.97357750008831
    endloop
  endfacet
  facet normal 0.12533323356430434 0 0.9921147013144779
    outer loop
      vertex 271.2526708646098 -15 19.91063323214402
      vertex 273.7382572259852 -15.6 19.59663065203734
      vertex 273.7382572259852 -15 19.59663065203734
    endloop
  endfacet
  facet normal -0.904827052466018 0 -0.42577929156507616
    outer loop
      vertex 71.45095910652938 -15 -7.344084826059323
      vertex 72.51768173312493 -15 -9.61098579832922
      vertex 71.45095910652938 -15.6 -7.344084826059323
    endloop
  endfacet
  facet normal 0 1 0
    outer loop
      vertex 70.20731170877616 -15 -2.500398009607866
      vertex 286.1398890377802 -15 11.726315783234838
      vertex 70.67676593548381 -15 -4.961363248938854
    endloop
  endfacet
  facet normal 0.4817536741017146 0 0.8763066800438639
    outer loop
      vertex 280.68974455983096 -15 16.8443421137652
      vertex 278.4942968667232 -15.6 18.051299696697086
      vertex 280.68974455983096 -15.6 16.8443421137652
    endloop
  endfacet
  facet normal 0.4817536741017146 0 0.8763066800438639
    outer loop
      vertex 278.4942968667232 -15 18.051299696697086
      vertex 278.4942968667232 -15.6 18.051299696697086
      vertex 280.68974455983096 -15 16.8443421137652
    endloop
  endfacet
  facet normal 0.9510565162951551 0 -0.3090169943749428
    outer loop
      vertex 288.54904089347065 -15.6 -7.344084826059333
      vertex 289.3232340645162 -15 -4.961363248938846
      vertex 289.3232340645162 -15.6 -4.961363248938846
    endloop
  endfacet
  facet normal 0 1 0
    outer loop
      vertex 276.1648890377802 -15 18.97357750008831
      vertex 286.1398890377802 -15 11.726315783234838
      vertex 273.7382572259852 -15 19.59663065203734
    endloop
  endfacet
  facet normal 0 -1 0
    outer loop
      vertex 72.51768173312493 -15.6 9.61098579832922
      vertex 282.7166085954864 -15.6 15.371739193376992
      vertex 73.8601109622198 -15.6 11.726315783234838
    endloop
  endfacet
  facet normal 0 -1 0
    outer loop
      vertex 71.45095910652938 -15.6 7.344084826059323
      vertex 282.7166085954864 -15.6 15.371739193376992
      vertex 72.51768173312493 -15.6 9.61098579832922
    endloop
  endfacet
  facet normal 0 1 0
    outer loop
      vertex 73.8601109622198 -15 11.726315783234838
      vertex 286.1398890377802 -15 11.726315783234838
      vertex 72.51768173312493 -15 9.61098579832922
    endloop
  endfacet
  facet normal 0 1 0
    outer loop
      vertex 273.7382572259852 -15 19.59663065203734
      vertex 286.1398890377802 -15 11.726315783234838
      vertex 271.2526708646098 -15 19.91063323214402
    endloop
  endfacet
  facet normal 0 -1 0
    outer loop
      vertex 287.4823182668751 -15.6 9.61098579832922
      vertex 282.7166085954864 -15.6 15.371739193376992
      vertex 288.54904089347065 -15.6 7.344084826059325
    endloop
  endfacet
  facet normal 0 -1 0
    outer loop
      vertex 288.54904089347065 -15.6 7.344084826059325
      vertex 282.7166085954864 -15.6 15.371739193376992
      vertex 289.3232340645162 -15.6 4.961363248938853
    endloop
  endfacet
  facet normal 0 -1 0
    outer loop
      vertex 70.20731170877616 -15.6 -2.500398009607866
      vertex 282.7166085954864 -15.6 15.371739193376992
      vertex 70.05 -15.6 0
    endloop
  endfacet
  facet normal 0 -1 0
    outer loop
      vertex 71.45095910652938 -15.6 -7.344084826059323
      vertex 282.7166085954864 -15.6 15.371739193376992
      vertex 70.67676593548381 -15.6 -4.961363248938854
    endloop
  endfacet
  facet normal -0.8443279255020151 0 -0.5358267949789963
    outer loop
      vertex 73.8601109622198 -15.6 -11.726315783234838
      vertex 72.51768173312493 -15 -9.61098579832922
      vertex 73.8601109622198 -15 -11.726315783234838
    endloop
  endfacet
  facet normal 0 1 0
    outer loop
      vertex 86.26174277401479 -15 19.59663065203734
      vertex 286.1398890377802 -15 11.726315783234838
      vertex 83.8351109622198 -15 18.97357750008831
    endloop
  endfacet
  facet normal 0.36812455268468 0 -0.9297764858882506
    outer loop
      vertex 276.1648890377802 -15 -18.97357750008831
      vertex 278.4942968667232 -15 -18.05129969669709
      vertex 276.1648890377802 -15.6 -18.97357750008831
    endloop
  endfacet
  facet normal 0 1 0
    outer loop
      vertex 75.45707588294283 -15 -13.656714763277336
      vertex 286.1398890377802 -15 11.726315783234838
      vertex 77.28339140451364 -15 -15.371739193376998
    endloop
  endfacet
  facet normal 0 1 0
    outer loop
      vertex 70.67676593548381 -15 4.961363248938854
      vertex 286.1398890377802 -15 11.726315783234838
      vertex 70.20731170877616 -15 2.500398009607866
    endloop
  endfacet
  facet normal 0 1 0
    outer loop
      vertex 79.31025544016902 -15 16.844342113765197
      vertex 286.1398890377802 -15 11.726315783234838
      vertex 77.28339140451364 -15 15.371739193376998
    endloop
  endfacet
  facet normal 0 1 0
    outer loop
      vertex 289.79268829122384 -15 2.5003980096078697
      vertex 286.1398890377802 -15 11.726315783234838
      vertex 289.3232340645162 -15 4.961363248938853
    endloop
  endfacet
  facet normal 0 1 0
    outer loop
      vertex 289.95 -15 0
      vertex 286.1398890377802 -15 11.726315783234838
      vertex 289.79268829122384 -15 2.5003980096078697
    endloop
  endfacet
  facet normal 0 -1 0
    outer loop
      vertex 79.31025544016902 -15.6 16.844342113765197
      vertex 282.7166085954864 -15.6 15.371739193376992
      vertex 81.5057031332768 -15.6 18.051299696697086
    endloop
  endfacet
  facet normal 0 -1 0
    outer loop
      vertex 77.28339140451364 -15.6 15.371739193376998
      vertex 282.7166085954864 -15.6 15.371739193376992
      vertex 79.31025544016902 -15.6 16.844342113765197
    endloop
  endfacet
  facet normal 0 -1 0
    outer loop
      vertex 276.1648890377802 -15.6 18.97357750008831
      vertex 282.7166085954864 -15.6 15.371739193376992
      vertex 278.4942968667232 -15.6 18.051299696697086
    endloop
  endfacet
  facet normal 0 -1 0
    outer loop
      vertex 273.7382572259852 -15.6 19.59663065203734
      vertex 282.7166085954864 -15.6 15.371739193376992
      vertex 276.1648890377802 -15.6 18.97357750008831
    endloop
  endfacet
  facet normal -0.5877852522924712 0 0.8090169943749488
    outer loop
      vertex 77.28339140451364 -15.6 15.371739193376998
      vertex 79.31025544016902 -15 16.844342113765197
      vertex 77.28339140451364 -15 15.371739193376998
    endloop
  endfacet
  facet normal -0.5877852522924712 0 0.8090169943749488
    outer loop
      vertex 79.31025544016902 -15.6 16.844342113765197
      vertex 79.31025544016902 -15 16.844342113765197
      vertex 77.28339140451364 -15.6 15.371739193376998
    endloop
  endfacet
  facet normal 0 1 0
    outer loop
      vertex 276.1648890377802 -15 -18.97357750008831
      vertex 286.1398890377802 -15 11.726315783234838
      vertex 278.4942968667232 -15 -18.05129969669709
    endloop
  endfacet
  facet normal 0 1 0
    outer loop
      vertex 273.7382572259852 -15 -19.596630652037337
      vertex 286.1398890377802 -15 11.726315783234838
      vertex 276.1648890377802 -15 -18.97357750008831
    endloop
  endfacet
endsolid OpenSCAD_Model
